G04 #@! TF.GenerationSoftware,KiCad,Pcbnew,5.1.4-e60b266~84~ubuntu16.04.1*
G04 #@! TF.CreationDate,2019-10-31T22:16:47+09:00*
G04 #@! TF.ProjectId,Akashi-02,416b6173-6869-42d3-9032-2e6b69636164,rev?*
G04 #@! TF.SameCoordinates,Original*
G04 #@! TF.FileFunction,Copper,L2,Bot*
G04 #@! TF.FilePolarity,Positive*
%FSLAX46Y46*%
G04 Gerber Fmt 4.6, Leading zero omitted, Abs format (unit mm)*
G04 Created by KiCad (PCBNEW 5.1.4-e60b266~84~ubuntu16.04.1) date 2019-10-31 22:16:47*
%MOMM*%
%LPD*%
G04 APERTURE LIST*
%ADD10C,0.100000*%
%ADD11C,0.500000*%
%ADD12O,1.700000X1.700000*%
%ADD13R,1.700000X1.700000*%
%ADD14C,1.524000*%
%ADD15C,1.600000*%
%ADD16O,1.600000X1.600000*%
%ADD17C,1.800000*%
%ADD18R,1.800000X1.800000*%
%ADD19C,2.000000*%
%ADD20C,0.800000*%
%ADD21C,0.250000*%
%ADD22C,0.300000*%
%ADD23C,0.254000*%
G04 APERTURE END LIST*
D10*
G36*
X114550000Y-114600000D02*
G01*
X114050000Y-114600000D01*
X114050000Y-114000000D01*
X114550000Y-114000000D01*
X114550000Y-114600000D01*
G37*
G36*
X136910000Y-65740000D02*
G01*
X137410000Y-65740000D01*
X137410000Y-66340000D01*
X136910000Y-66340000D01*
X136910000Y-65740000D01*
G37*
G36*
X136910000Y-58120000D02*
G01*
X137410000Y-58120000D01*
X137410000Y-58720000D01*
X136910000Y-58720000D01*
X136910000Y-58120000D01*
G37*
D11*
X113650000Y-114300000D03*
D10*
G36*
X114150000Y-115050000D02*
G01*
X113650000Y-115050000D01*
X113650000Y-115049398D01*
X113625466Y-115049398D01*
X113576635Y-115044588D01*
X113528510Y-115035016D01*
X113481555Y-115020772D01*
X113436222Y-115001995D01*
X113392949Y-114978864D01*
X113352150Y-114951604D01*
X113314221Y-114920476D01*
X113279524Y-114885779D01*
X113248396Y-114847850D01*
X113221136Y-114807051D01*
X113198005Y-114763778D01*
X113179228Y-114718445D01*
X113164984Y-114671490D01*
X113155412Y-114623365D01*
X113150602Y-114574534D01*
X113150602Y-114550000D01*
X113150000Y-114550000D01*
X113150000Y-114050000D01*
X113150602Y-114050000D01*
X113150602Y-114025466D01*
X113155412Y-113976635D01*
X113164984Y-113928510D01*
X113179228Y-113881555D01*
X113198005Y-113836222D01*
X113221136Y-113792949D01*
X113248396Y-113752150D01*
X113279524Y-113714221D01*
X113314221Y-113679524D01*
X113352150Y-113648396D01*
X113392949Y-113621136D01*
X113436222Y-113598005D01*
X113481555Y-113579228D01*
X113528510Y-113564984D01*
X113576635Y-113555412D01*
X113625466Y-113550602D01*
X113650000Y-113550602D01*
X113650000Y-113550000D01*
X114150000Y-113550000D01*
X114150000Y-115050000D01*
X114150000Y-115050000D01*
G37*
D11*
X114950000Y-114300000D03*
D10*
G36*
X114950000Y-113550602D02*
G01*
X114974534Y-113550602D01*
X115023365Y-113555412D01*
X115071490Y-113564984D01*
X115118445Y-113579228D01*
X115163778Y-113598005D01*
X115207051Y-113621136D01*
X115247850Y-113648396D01*
X115285779Y-113679524D01*
X115320476Y-113714221D01*
X115351604Y-113752150D01*
X115378864Y-113792949D01*
X115401995Y-113836222D01*
X115420772Y-113881555D01*
X115435016Y-113928510D01*
X115444588Y-113976635D01*
X115449398Y-114025466D01*
X115449398Y-114050000D01*
X115450000Y-114050000D01*
X115450000Y-114550000D01*
X115449398Y-114550000D01*
X115449398Y-114574534D01*
X115444588Y-114623365D01*
X115435016Y-114671490D01*
X115420772Y-114718445D01*
X115401995Y-114763778D01*
X115378864Y-114807051D01*
X115351604Y-114847850D01*
X115320476Y-114885779D01*
X115285779Y-114920476D01*
X115247850Y-114951604D01*
X115207051Y-114978864D01*
X115163778Y-115001995D01*
X115118445Y-115020772D01*
X115071490Y-115035016D01*
X115023365Y-115044588D01*
X114974534Y-115049398D01*
X114950000Y-115049398D01*
X114950000Y-115050000D01*
X114450000Y-115050000D01*
X114450000Y-113550000D01*
X114950000Y-113550000D01*
X114950000Y-113550602D01*
X114950000Y-113550602D01*
G37*
D12*
X154940000Y-48260000D03*
X152400000Y-48260000D03*
X154940000Y-45720000D03*
X152400000Y-45720000D03*
X154940000Y-43180000D03*
X152400000Y-43180000D03*
X154940000Y-40640000D03*
X152400000Y-40640000D03*
X154940000Y-38100000D03*
D13*
X152400000Y-38100000D03*
D14*
X140970000Y-88900000D03*
X140970000Y-86360000D03*
X140970000Y-83820000D03*
X140970000Y-81280000D03*
X140970000Y-78740000D03*
X140970000Y-76200000D03*
X140970000Y-73660000D03*
X140970000Y-71120000D03*
X140970000Y-68580000D03*
X140970000Y-66040000D03*
X140970000Y-63500000D03*
X140970000Y-60960000D03*
X140970000Y-58420000D03*
X140970000Y-55880000D03*
X118110000Y-88900000D03*
X118110000Y-86360000D03*
X118110000Y-83820000D03*
X118110000Y-81280000D03*
X118110000Y-78740000D03*
X118110000Y-35560000D03*
X120650000Y-35560000D03*
X123190000Y-35560000D03*
X125730000Y-35560000D03*
X128270000Y-35560000D03*
D11*
X144130000Y-66040000D03*
D10*
G36*
X144130000Y-66789398D02*
G01*
X144105466Y-66789398D01*
X144056635Y-66784588D01*
X144008510Y-66775016D01*
X143961555Y-66760772D01*
X143916222Y-66741995D01*
X143872949Y-66718864D01*
X143832150Y-66691604D01*
X143794221Y-66660476D01*
X143759524Y-66625779D01*
X143728396Y-66587850D01*
X143701136Y-66547051D01*
X143678005Y-66503778D01*
X143659228Y-66458445D01*
X143644984Y-66411490D01*
X143635412Y-66363365D01*
X143630602Y-66314534D01*
X143630602Y-66290000D01*
X143630000Y-66290000D01*
X143630000Y-65790000D01*
X143630602Y-65790000D01*
X143630602Y-65765466D01*
X143635412Y-65716635D01*
X143644984Y-65668510D01*
X143659228Y-65621555D01*
X143678005Y-65576222D01*
X143701136Y-65532949D01*
X143728396Y-65492150D01*
X143759524Y-65454221D01*
X143794221Y-65419524D01*
X143832150Y-65388396D01*
X143872949Y-65361136D01*
X143916222Y-65338005D01*
X143961555Y-65319228D01*
X144008510Y-65304984D01*
X144056635Y-65295412D01*
X144105466Y-65290602D01*
X144130000Y-65290602D01*
X144130000Y-65290000D01*
X144630000Y-65290000D01*
X144630000Y-66790000D01*
X144130000Y-66790000D01*
X144130000Y-66789398D01*
X144130000Y-66789398D01*
G37*
D11*
X145430000Y-66040000D03*
D10*
G36*
X144930000Y-65290000D02*
G01*
X145430000Y-65290000D01*
X145430000Y-65290602D01*
X145454534Y-65290602D01*
X145503365Y-65295412D01*
X145551490Y-65304984D01*
X145598445Y-65319228D01*
X145643778Y-65338005D01*
X145687051Y-65361136D01*
X145727850Y-65388396D01*
X145765779Y-65419524D01*
X145800476Y-65454221D01*
X145831604Y-65492150D01*
X145858864Y-65532949D01*
X145881995Y-65576222D01*
X145900772Y-65621555D01*
X145915016Y-65668510D01*
X145924588Y-65716635D01*
X145929398Y-65765466D01*
X145929398Y-65790000D01*
X145930000Y-65790000D01*
X145930000Y-66290000D01*
X145929398Y-66290000D01*
X145929398Y-66314534D01*
X145924588Y-66363365D01*
X145915016Y-66411490D01*
X145900772Y-66458445D01*
X145881995Y-66503778D01*
X145858864Y-66547051D01*
X145831604Y-66587850D01*
X145800476Y-66625779D01*
X145765779Y-66660476D01*
X145727850Y-66691604D01*
X145687051Y-66718864D01*
X145643778Y-66741995D01*
X145598445Y-66760772D01*
X145551490Y-66775016D01*
X145503365Y-66784588D01*
X145454534Y-66789398D01*
X145430000Y-66789398D01*
X145430000Y-66790000D01*
X144930000Y-66790000D01*
X144930000Y-65290000D01*
X144930000Y-65290000D01*
G37*
D11*
X137810000Y-66040000D03*
D10*
G36*
X137310000Y-65290000D02*
G01*
X137810000Y-65290000D01*
X137810000Y-65290602D01*
X137834534Y-65290602D01*
X137883365Y-65295412D01*
X137931490Y-65304984D01*
X137978445Y-65319228D01*
X138023778Y-65338005D01*
X138067051Y-65361136D01*
X138107850Y-65388396D01*
X138145779Y-65419524D01*
X138180476Y-65454221D01*
X138211604Y-65492150D01*
X138238864Y-65532949D01*
X138261995Y-65576222D01*
X138280772Y-65621555D01*
X138295016Y-65668510D01*
X138304588Y-65716635D01*
X138309398Y-65765466D01*
X138309398Y-65790000D01*
X138310000Y-65790000D01*
X138310000Y-66290000D01*
X138309398Y-66290000D01*
X138309398Y-66314534D01*
X138304588Y-66363365D01*
X138295016Y-66411490D01*
X138280772Y-66458445D01*
X138261995Y-66503778D01*
X138238864Y-66547051D01*
X138211604Y-66587850D01*
X138180476Y-66625779D01*
X138145779Y-66660476D01*
X138107850Y-66691604D01*
X138067051Y-66718864D01*
X138023778Y-66741995D01*
X137978445Y-66760772D01*
X137931490Y-66775016D01*
X137883365Y-66784588D01*
X137834534Y-66789398D01*
X137810000Y-66789398D01*
X137810000Y-66790000D01*
X137310000Y-66790000D01*
X137310000Y-65290000D01*
X137310000Y-65290000D01*
G37*
D11*
X136510000Y-66040000D03*
D10*
G36*
X136510000Y-66789398D02*
G01*
X136485466Y-66789398D01*
X136436635Y-66784588D01*
X136388510Y-66775016D01*
X136341555Y-66760772D01*
X136296222Y-66741995D01*
X136252949Y-66718864D01*
X136212150Y-66691604D01*
X136174221Y-66660476D01*
X136139524Y-66625779D01*
X136108396Y-66587850D01*
X136081136Y-66547051D01*
X136058005Y-66503778D01*
X136039228Y-66458445D01*
X136024984Y-66411490D01*
X136015412Y-66363365D01*
X136010602Y-66314534D01*
X136010602Y-66290000D01*
X136010000Y-66290000D01*
X136010000Y-65790000D01*
X136010602Y-65790000D01*
X136010602Y-65765466D01*
X136015412Y-65716635D01*
X136024984Y-65668510D01*
X136039228Y-65621555D01*
X136058005Y-65576222D01*
X136081136Y-65532949D01*
X136108396Y-65492150D01*
X136139524Y-65454221D01*
X136174221Y-65419524D01*
X136212150Y-65388396D01*
X136252949Y-65361136D01*
X136296222Y-65338005D01*
X136341555Y-65319228D01*
X136388510Y-65304984D01*
X136436635Y-65295412D01*
X136485466Y-65290602D01*
X136510000Y-65290602D01*
X136510000Y-65290000D01*
X137010000Y-65290000D01*
X137010000Y-66790000D01*
X136510000Y-66790000D01*
X136510000Y-66789398D01*
X136510000Y-66789398D01*
G37*
D11*
X144130000Y-58420000D03*
D10*
G36*
X144130000Y-59169398D02*
G01*
X144105466Y-59169398D01*
X144056635Y-59164588D01*
X144008510Y-59155016D01*
X143961555Y-59140772D01*
X143916222Y-59121995D01*
X143872949Y-59098864D01*
X143832150Y-59071604D01*
X143794221Y-59040476D01*
X143759524Y-59005779D01*
X143728396Y-58967850D01*
X143701136Y-58927051D01*
X143678005Y-58883778D01*
X143659228Y-58838445D01*
X143644984Y-58791490D01*
X143635412Y-58743365D01*
X143630602Y-58694534D01*
X143630602Y-58670000D01*
X143630000Y-58670000D01*
X143630000Y-58170000D01*
X143630602Y-58170000D01*
X143630602Y-58145466D01*
X143635412Y-58096635D01*
X143644984Y-58048510D01*
X143659228Y-58001555D01*
X143678005Y-57956222D01*
X143701136Y-57912949D01*
X143728396Y-57872150D01*
X143759524Y-57834221D01*
X143794221Y-57799524D01*
X143832150Y-57768396D01*
X143872949Y-57741136D01*
X143916222Y-57718005D01*
X143961555Y-57699228D01*
X144008510Y-57684984D01*
X144056635Y-57675412D01*
X144105466Y-57670602D01*
X144130000Y-57670602D01*
X144130000Y-57670000D01*
X144630000Y-57670000D01*
X144630000Y-59170000D01*
X144130000Y-59170000D01*
X144130000Y-59169398D01*
X144130000Y-59169398D01*
G37*
D11*
X145430000Y-58420000D03*
D10*
G36*
X144930000Y-57670000D02*
G01*
X145430000Y-57670000D01*
X145430000Y-57670602D01*
X145454534Y-57670602D01*
X145503365Y-57675412D01*
X145551490Y-57684984D01*
X145598445Y-57699228D01*
X145643778Y-57718005D01*
X145687051Y-57741136D01*
X145727850Y-57768396D01*
X145765779Y-57799524D01*
X145800476Y-57834221D01*
X145831604Y-57872150D01*
X145858864Y-57912949D01*
X145881995Y-57956222D01*
X145900772Y-58001555D01*
X145915016Y-58048510D01*
X145924588Y-58096635D01*
X145929398Y-58145466D01*
X145929398Y-58170000D01*
X145930000Y-58170000D01*
X145930000Y-58670000D01*
X145929398Y-58670000D01*
X145929398Y-58694534D01*
X145924588Y-58743365D01*
X145915016Y-58791490D01*
X145900772Y-58838445D01*
X145881995Y-58883778D01*
X145858864Y-58927051D01*
X145831604Y-58967850D01*
X145800476Y-59005779D01*
X145765779Y-59040476D01*
X145727850Y-59071604D01*
X145687051Y-59098864D01*
X145643778Y-59121995D01*
X145598445Y-59140772D01*
X145551490Y-59155016D01*
X145503365Y-59164588D01*
X145454534Y-59169398D01*
X145430000Y-59169398D01*
X145430000Y-59170000D01*
X144930000Y-59170000D01*
X144930000Y-57670000D01*
X144930000Y-57670000D01*
G37*
D11*
X147320000Y-76850000D03*
D10*
G36*
X148069398Y-76850000D02*
G01*
X148069398Y-76874534D01*
X148064588Y-76923365D01*
X148055016Y-76971490D01*
X148040772Y-77018445D01*
X148021995Y-77063778D01*
X147998864Y-77107051D01*
X147971604Y-77147850D01*
X147940476Y-77185779D01*
X147905779Y-77220476D01*
X147867850Y-77251604D01*
X147827051Y-77278864D01*
X147783778Y-77301995D01*
X147738445Y-77320772D01*
X147691490Y-77335016D01*
X147643365Y-77344588D01*
X147594534Y-77349398D01*
X147570000Y-77349398D01*
X147570000Y-77350000D01*
X147070000Y-77350000D01*
X147070000Y-77349398D01*
X147045466Y-77349398D01*
X146996635Y-77344588D01*
X146948510Y-77335016D01*
X146901555Y-77320772D01*
X146856222Y-77301995D01*
X146812949Y-77278864D01*
X146772150Y-77251604D01*
X146734221Y-77220476D01*
X146699524Y-77185779D01*
X146668396Y-77147850D01*
X146641136Y-77107051D01*
X146618005Y-77063778D01*
X146599228Y-77018445D01*
X146584984Y-76971490D01*
X146575412Y-76923365D01*
X146570602Y-76874534D01*
X146570602Y-76850000D01*
X146570000Y-76850000D01*
X146570000Y-76350000D01*
X148070000Y-76350000D01*
X148070000Y-76850000D01*
X148069398Y-76850000D01*
X148069398Y-76850000D01*
G37*
D11*
X147320000Y-75550000D03*
D10*
G36*
X146570000Y-76050000D02*
G01*
X146570000Y-75550000D01*
X146570602Y-75550000D01*
X146570602Y-75525466D01*
X146575412Y-75476635D01*
X146584984Y-75428510D01*
X146599228Y-75381555D01*
X146618005Y-75336222D01*
X146641136Y-75292949D01*
X146668396Y-75252150D01*
X146699524Y-75214221D01*
X146734221Y-75179524D01*
X146772150Y-75148396D01*
X146812949Y-75121136D01*
X146856222Y-75098005D01*
X146901555Y-75079228D01*
X146948510Y-75064984D01*
X146996635Y-75055412D01*
X147045466Y-75050602D01*
X147070000Y-75050602D01*
X147070000Y-75050000D01*
X147570000Y-75050000D01*
X147570000Y-75050602D01*
X147594534Y-75050602D01*
X147643365Y-75055412D01*
X147691490Y-75064984D01*
X147738445Y-75079228D01*
X147783778Y-75098005D01*
X147827051Y-75121136D01*
X147867850Y-75148396D01*
X147905779Y-75179524D01*
X147940476Y-75214221D01*
X147971604Y-75252150D01*
X147998864Y-75292949D01*
X148021995Y-75336222D01*
X148040772Y-75381555D01*
X148055016Y-75428510D01*
X148064588Y-75476635D01*
X148069398Y-75525466D01*
X148069398Y-75550000D01*
X148070000Y-75550000D01*
X148070000Y-76050000D01*
X146570000Y-76050000D01*
X146570000Y-76050000D01*
G37*
D12*
X154940000Y-80010000D03*
X152400000Y-80010000D03*
X154940000Y-77470000D03*
X152400000Y-77470000D03*
X154940000Y-74930000D03*
X152400000Y-74930000D03*
X154940000Y-72390000D03*
X152400000Y-72390000D03*
X154940000Y-69850000D03*
X152400000Y-69850000D03*
X154940000Y-67310000D03*
X152400000Y-67310000D03*
X154940000Y-64770000D03*
X152400000Y-64770000D03*
X154940000Y-62230000D03*
X152400000Y-62230000D03*
X154940000Y-59690000D03*
X152400000Y-59690000D03*
X154940000Y-57150000D03*
D13*
X152400000Y-57150000D03*
D12*
X154940000Y-124460000D03*
X152400000Y-124460000D03*
X154940000Y-121920000D03*
X152400000Y-121920000D03*
X154940000Y-119380000D03*
X152400000Y-119380000D03*
X154940000Y-116840000D03*
X152400000Y-116840000D03*
X154940000Y-114300000D03*
X152400000Y-114300000D03*
X154940000Y-111760000D03*
X152400000Y-111760000D03*
X154940000Y-109220000D03*
X152400000Y-109220000D03*
X154940000Y-106680000D03*
X152400000Y-106680000D03*
X154940000Y-104140000D03*
X152400000Y-104140000D03*
X154940000Y-101600000D03*
X152400000Y-101600000D03*
X154940000Y-99060000D03*
X152400000Y-99060000D03*
X154940000Y-96520000D03*
X152400000Y-96520000D03*
X154940000Y-93980000D03*
X152400000Y-93980000D03*
X154940000Y-91440000D03*
X152400000Y-91440000D03*
X154940000Y-88900000D03*
X152400000Y-88900000D03*
X154940000Y-86360000D03*
X152400000Y-86360000D03*
X154940000Y-83820000D03*
D13*
X152400000Y-83820000D03*
X106680000Y-88900000D03*
D12*
X109220000Y-88900000D03*
X106680000Y-91440000D03*
X109220000Y-91440000D03*
X106680000Y-93980000D03*
X109220000Y-93980000D03*
X106680000Y-96520000D03*
X109220000Y-96520000D03*
X106680000Y-99060000D03*
X109220000Y-99060000D03*
X106680000Y-101600000D03*
X109220000Y-101600000D03*
X106680000Y-104140000D03*
X109220000Y-104140000D03*
X106680000Y-106680000D03*
X109220000Y-106680000D03*
X106680000Y-109220000D03*
X109220000Y-109220000D03*
X106680000Y-111760000D03*
X109220000Y-111760000D03*
X106680000Y-114300000D03*
X109220000Y-114300000D03*
X106680000Y-116840000D03*
X109220000Y-116840000D03*
X106680000Y-119380000D03*
X109220000Y-119380000D03*
X106680000Y-121920000D03*
X109220000Y-121920000D03*
X106680000Y-124460000D03*
X109220000Y-124460000D03*
X109220000Y-83820000D03*
X106680000Y-83820000D03*
X109220000Y-81280000D03*
X106680000Y-81280000D03*
X109220000Y-78740000D03*
X106680000Y-78740000D03*
X109220000Y-76200000D03*
X106680000Y-76200000D03*
X109220000Y-73660000D03*
X106680000Y-73660000D03*
X109220000Y-71120000D03*
X106680000Y-71120000D03*
X109220000Y-68580000D03*
X106680000Y-68580000D03*
X109220000Y-66040000D03*
D13*
X106680000Y-66040000D03*
D15*
X147320000Y-81280000D03*
D16*
X147320000Y-71120000D03*
D15*
X140970000Y-106680000D03*
D16*
X140970000Y-116840000D03*
D15*
X135890000Y-106680000D03*
D16*
X135890000Y-116840000D03*
X140970000Y-50800000D03*
D15*
X140970000Y-40640000D03*
D17*
X140970000Y-120650000D03*
D18*
X140970000Y-123190000D03*
X135890000Y-123190000D03*
D17*
X135890000Y-120650000D03*
D15*
X135890000Y-40640000D03*
D16*
X135890000Y-50800000D03*
D19*
X118110000Y-102870000D03*
X123190000Y-102870000D03*
X128270000Y-102870000D03*
X118110000Y-111760000D03*
X123190000Y-111760000D03*
X123190000Y-119380000D03*
X140970000Y-102870000D03*
X135890000Y-102870000D03*
X146050000Y-102870000D03*
D11*
X136510000Y-58420000D03*
D10*
G36*
X136510000Y-59169398D02*
G01*
X136485466Y-59169398D01*
X136436635Y-59164588D01*
X136388510Y-59155016D01*
X136341555Y-59140772D01*
X136296222Y-59121995D01*
X136252949Y-59098864D01*
X136212150Y-59071604D01*
X136174221Y-59040476D01*
X136139524Y-59005779D01*
X136108396Y-58967850D01*
X136081136Y-58927051D01*
X136058005Y-58883778D01*
X136039228Y-58838445D01*
X136024984Y-58791490D01*
X136015412Y-58743365D01*
X136010602Y-58694534D01*
X136010602Y-58670000D01*
X136010000Y-58670000D01*
X136010000Y-58170000D01*
X136010602Y-58170000D01*
X136010602Y-58145466D01*
X136015412Y-58096635D01*
X136024984Y-58048510D01*
X136039228Y-58001555D01*
X136058005Y-57956222D01*
X136081136Y-57912949D01*
X136108396Y-57872150D01*
X136139524Y-57834221D01*
X136174221Y-57799524D01*
X136212150Y-57768396D01*
X136252949Y-57741136D01*
X136296222Y-57718005D01*
X136341555Y-57699228D01*
X136388510Y-57684984D01*
X136436635Y-57675412D01*
X136485466Y-57670602D01*
X136510000Y-57670602D01*
X136510000Y-57670000D01*
X137010000Y-57670000D01*
X137010000Y-59170000D01*
X136510000Y-59170000D01*
X136510000Y-59169398D01*
X136510000Y-59169398D01*
G37*
D11*
X137810000Y-58420000D03*
D10*
G36*
X137310000Y-57670000D02*
G01*
X137810000Y-57670000D01*
X137810000Y-57670602D01*
X137834534Y-57670602D01*
X137883365Y-57675412D01*
X137931490Y-57684984D01*
X137978445Y-57699228D01*
X138023778Y-57718005D01*
X138067051Y-57741136D01*
X138107850Y-57768396D01*
X138145779Y-57799524D01*
X138180476Y-57834221D01*
X138211604Y-57872150D01*
X138238864Y-57912949D01*
X138261995Y-57956222D01*
X138280772Y-58001555D01*
X138295016Y-58048510D01*
X138304588Y-58096635D01*
X138309398Y-58145466D01*
X138309398Y-58170000D01*
X138310000Y-58170000D01*
X138310000Y-58670000D01*
X138309398Y-58670000D01*
X138309398Y-58694534D01*
X138304588Y-58743365D01*
X138295016Y-58791490D01*
X138280772Y-58838445D01*
X138261995Y-58883778D01*
X138238864Y-58927051D01*
X138211604Y-58967850D01*
X138180476Y-59005779D01*
X138145779Y-59040476D01*
X138107850Y-59071604D01*
X138067051Y-59098864D01*
X138023778Y-59121995D01*
X137978445Y-59140772D01*
X137931490Y-59155016D01*
X137883365Y-59164588D01*
X137834534Y-59169398D01*
X137810000Y-59169398D01*
X137810000Y-59170000D01*
X137310000Y-59170000D01*
X137310000Y-57670000D01*
X137310000Y-57670000D01*
G37*
D20*
X147955000Y-66040000D03*
X147955000Y-64770000D03*
D21*
X123190000Y-109220000D02*
X118110000Y-104140000D01*
X123190000Y-111760000D02*
X123190000Y-109220000D01*
X118110000Y-104140000D02*
X118110000Y-100330000D01*
X118110000Y-100330000D02*
X120650000Y-97790000D01*
X120650000Y-97790000D02*
X147320000Y-97790000D01*
X147320000Y-97790000D02*
X149860000Y-95250000D01*
X149860000Y-95250000D02*
X149860000Y-81280000D01*
X151130000Y-80010000D02*
X152400000Y-80010000D01*
X149860000Y-81280000D02*
X151130000Y-80010000D01*
X152400000Y-77470000D02*
X152400000Y-80010000D01*
X140970000Y-68580000D02*
X148590000Y-68580000D01*
X148590000Y-68580000D02*
X149860000Y-69850000D01*
X149860000Y-69850000D02*
X149860000Y-76200000D01*
X151130000Y-77470000D02*
X152400000Y-77470000D01*
X149860000Y-76200000D02*
X151130000Y-77470000D01*
X147320000Y-75550000D02*
X147320000Y-71120000D01*
X154940000Y-67310000D02*
X153670000Y-66040000D01*
X153670000Y-66040000D02*
X151130000Y-66040000D01*
X151130000Y-66040000D02*
X149860000Y-64770000D01*
X149860000Y-64770000D02*
X149860000Y-63500000D01*
X149860000Y-63500000D02*
X151130000Y-62230000D01*
X151130000Y-62230000D02*
X152400000Y-62230000D01*
D22*
X154940000Y-64770000D02*
X153670000Y-63500000D01*
D21*
X153670000Y-61760998D02*
X152869002Y-60960000D01*
X153670000Y-63500000D02*
X153670000Y-61760998D01*
X152869002Y-60960000D02*
X151130000Y-60960000D01*
X154940000Y-109220000D02*
X153670000Y-107950000D01*
X153670000Y-107950000D02*
X151130000Y-107950000D01*
X110490000Y-67310000D02*
X105410000Y-67310000D01*
X110490000Y-69850000D02*
X105410000Y-69850000D01*
X110490000Y-72390000D02*
X105410000Y-72390000D01*
X110490000Y-74930000D02*
X105410000Y-74930000D01*
X110490000Y-77470000D02*
X105410000Y-77470000D01*
X110490000Y-82550000D02*
X105410000Y-82550000D01*
X110490000Y-80010000D02*
X105410000Y-80010000D01*
X106680000Y-78740000D02*
X106680000Y-77500001D01*
X107950000Y-78740000D02*
X107950000Y-85090000D01*
X106680000Y-78740000D02*
X107950000Y-78740000D01*
X107950000Y-64770000D02*
X107950000Y-78740000D01*
X107950000Y-81280000D02*
X106680000Y-81280000D01*
X106680000Y-81280000D02*
X106680000Y-82550000D01*
X147320000Y-76850000D02*
X147320000Y-81280000D01*
X115570000Y-114300000D02*
X118110000Y-111760000D01*
X114950000Y-114300000D02*
X115570000Y-114300000D01*
X140970000Y-106680000D02*
X140970000Y-102870000D01*
X145430000Y-66040000D02*
X147955000Y-66040000D01*
X145430000Y-58420000D02*
X146685000Y-58420000D01*
X146685000Y-58420000D02*
X147320000Y-59055000D01*
X147320000Y-59055000D02*
X147320000Y-64135000D01*
X147320000Y-64135000D02*
X147955000Y-64770000D01*
X137810000Y-66040000D02*
X140970000Y-66040000D01*
X140970000Y-66040000D02*
X144130000Y-66040000D01*
X137810000Y-58420000D02*
X140970000Y-58420000D01*
X140970000Y-58420000D02*
X144130000Y-58420000D01*
X113650000Y-114300000D02*
X109220000Y-114300000D01*
D23*
G36*
X156083000Y-37151931D02*
G01*
X155995134Y-37044866D01*
X155769014Y-36859294D01*
X155511034Y-36721401D01*
X155231111Y-36636487D01*
X155012950Y-36615000D01*
X154867050Y-36615000D01*
X154648889Y-36636487D01*
X154368966Y-36721401D01*
X154110986Y-36859294D01*
X153884866Y-37044866D01*
X153860393Y-37074687D01*
X153839502Y-37005820D01*
X153780537Y-36895506D01*
X153701185Y-36798815D01*
X153604494Y-36719463D01*
X153494180Y-36660498D01*
X153374482Y-36624188D01*
X153250000Y-36611928D01*
X151550000Y-36611928D01*
X151425518Y-36624188D01*
X151305820Y-36660498D01*
X151195506Y-36719463D01*
X151098815Y-36798815D01*
X151019463Y-36895506D01*
X150960498Y-37005820D01*
X150924188Y-37125518D01*
X150911928Y-37250000D01*
X150911928Y-38950000D01*
X150924188Y-39074482D01*
X150960498Y-39194180D01*
X151019463Y-39304494D01*
X151098815Y-39401185D01*
X151195506Y-39480537D01*
X151305820Y-39539502D01*
X151386466Y-39563966D01*
X151302412Y-39639731D01*
X151128359Y-39873080D01*
X151003175Y-40135901D01*
X150958524Y-40283110D01*
X151079845Y-40513000D01*
X152273000Y-40513000D01*
X152273000Y-40493000D01*
X152527000Y-40493000D01*
X152527000Y-40513000D01*
X152547000Y-40513000D01*
X152547000Y-40767000D01*
X152527000Y-40767000D01*
X152527000Y-40787000D01*
X152273000Y-40787000D01*
X152273000Y-40767000D01*
X151079845Y-40767000D01*
X150958524Y-40996890D01*
X151003175Y-41144099D01*
X151128359Y-41406920D01*
X151302412Y-41640269D01*
X151518645Y-41835178D01*
X151635523Y-41904799D01*
X151570986Y-41939294D01*
X151344866Y-42124866D01*
X151159294Y-42350986D01*
X151021401Y-42608966D01*
X150936487Y-42888889D01*
X150907815Y-43180000D01*
X150936487Y-43471111D01*
X151021401Y-43751034D01*
X151159294Y-44009014D01*
X151344866Y-44235134D01*
X151570986Y-44420706D01*
X151625791Y-44450000D01*
X151570986Y-44479294D01*
X151344866Y-44664866D01*
X151159294Y-44890986D01*
X151021401Y-45148966D01*
X150936487Y-45428889D01*
X150907815Y-45720000D01*
X150936487Y-46011111D01*
X151021401Y-46291034D01*
X151159294Y-46549014D01*
X151344866Y-46775134D01*
X151570986Y-46960706D01*
X151635523Y-46995201D01*
X151518645Y-47064822D01*
X151302412Y-47259731D01*
X151128359Y-47493080D01*
X151003175Y-47755901D01*
X150958524Y-47903110D01*
X151079845Y-48133000D01*
X152273000Y-48133000D01*
X152273000Y-48113000D01*
X152527000Y-48113000D01*
X152527000Y-48133000D01*
X152547000Y-48133000D01*
X152547000Y-48387000D01*
X152527000Y-48387000D01*
X152527000Y-49580814D01*
X152756891Y-49701481D01*
X153031252Y-49604157D01*
X153281355Y-49455178D01*
X153497588Y-49260269D01*
X153668416Y-49031244D01*
X153699294Y-49089014D01*
X153884866Y-49315134D01*
X154110986Y-49500706D01*
X154368966Y-49638599D01*
X154648889Y-49723513D01*
X154867050Y-49745000D01*
X155012950Y-49745000D01*
X155231111Y-49723513D01*
X155511034Y-49638599D01*
X155769014Y-49500706D01*
X155995134Y-49315134D01*
X156083000Y-49208069D01*
X156083000Y-56201931D01*
X155995134Y-56094866D01*
X155769014Y-55909294D01*
X155511034Y-55771401D01*
X155231111Y-55686487D01*
X155012950Y-55665000D01*
X154867050Y-55665000D01*
X154648889Y-55686487D01*
X154368966Y-55771401D01*
X154110986Y-55909294D01*
X153884866Y-56094866D01*
X153860393Y-56124687D01*
X153839502Y-56055820D01*
X153780537Y-55945506D01*
X153701185Y-55848815D01*
X153604494Y-55769463D01*
X153494180Y-55710498D01*
X153374482Y-55674188D01*
X153250000Y-55661928D01*
X151550000Y-55661928D01*
X151425518Y-55674188D01*
X151305820Y-55710498D01*
X151195506Y-55769463D01*
X151098815Y-55848815D01*
X151019463Y-55945506D01*
X150960498Y-56055820D01*
X150924188Y-56175518D01*
X150911928Y-56300000D01*
X150911928Y-58000000D01*
X150924188Y-58124482D01*
X150960498Y-58244180D01*
X151019463Y-58354494D01*
X151098815Y-58451185D01*
X151195506Y-58530537D01*
X151305820Y-58589502D01*
X151374687Y-58610393D01*
X151344866Y-58634866D01*
X151159294Y-58860986D01*
X151021401Y-59118966D01*
X150936487Y-59398889D01*
X150907815Y-59690000D01*
X150936487Y-59981111D01*
X151021401Y-60261034D01*
X151159294Y-60519014D01*
X151344866Y-60745134D01*
X151570986Y-60930706D01*
X151625791Y-60960000D01*
X151570986Y-60989294D01*
X151344866Y-61174866D01*
X151159294Y-61400986D01*
X151124057Y-61466909D01*
X151092676Y-61470000D01*
X151092667Y-61470000D01*
X150981014Y-61480997D01*
X150837753Y-61524454D01*
X150705724Y-61595026D01*
X150589999Y-61689999D01*
X150566201Y-61718997D01*
X149348998Y-62936201D01*
X149320000Y-62959999D01*
X149296202Y-62988997D01*
X149296201Y-62988998D01*
X149225026Y-63075724D01*
X149154454Y-63207754D01*
X149110998Y-63351015D01*
X149096324Y-63500000D01*
X149100001Y-63537332D01*
X149100000Y-64732677D01*
X149096324Y-64770000D01*
X149100000Y-64807322D01*
X149100000Y-64807332D01*
X149110997Y-64918985D01*
X149137089Y-65005000D01*
X149154454Y-65062246D01*
X149225026Y-65194276D01*
X149259320Y-65236063D01*
X149319999Y-65310001D01*
X149349003Y-65333804D01*
X150566200Y-66551002D01*
X150589999Y-66580001D01*
X150705724Y-66674974D01*
X150837753Y-66745546D01*
X150981014Y-66789003D01*
X151005491Y-66791414D01*
X150936487Y-67018889D01*
X150907815Y-67310000D01*
X150936487Y-67601111D01*
X151021401Y-67881034D01*
X151159294Y-68139014D01*
X151344866Y-68365134D01*
X151570986Y-68550706D01*
X151625791Y-68580000D01*
X151570986Y-68609294D01*
X151344866Y-68794866D01*
X151159294Y-69020986D01*
X151021401Y-69278966D01*
X150936487Y-69558889D01*
X150907815Y-69850000D01*
X150936487Y-70141111D01*
X151021401Y-70421034D01*
X151159294Y-70679014D01*
X151344866Y-70905134D01*
X151570986Y-71090706D01*
X151625791Y-71120000D01*
X151570986Y-71149294D01*
X151344866Y-71334866D01*
X151159294Y-71560986D01*
X151021401Y-71818966D01*
X150936487Y-72098889D01*
X150907815Y-72390000D01*
X150936487Y-72681111D01*
X151021401Y-72961034D01*
X151159294Y-73219014D01*
X151344866Y-73445134D01*
X151570986Y-73630706D01*
X151625791Y-73660000D01*
X151570986Y-73689294D01*
X151344866Y-73874866D01*
X151159294Y-74100986D01*
X151021401Y-74358966D01*
X150936487Y-74638889D01*
X150907815Y-74930000D01*
X150936487Y-75221111D01*
X151021401Y-75501034D01*
X151159294Y-75759014D01*
X151344866Y-75985134D01*
X151570986Y-76170706D01*
X151625791Y-76200000D01*
X151570986Y-76229294D01*
X151344866Y-76414866D01*
X151256879Y-76522078D01*
X150620000Y-75885199D01*
X150620000Y-69887322D01*
X150623676Y-69849999D01*
X150620000Y-69812676D01*
X150620000Y-69812667D01*
X150609003Y-69701014D01*
X150565546Y-69557753D01*
X150494974Y-69425724D01*
X150400001Y-69309999D01*
X150371004Y-69286202D01*
X149153804Y-68069003D01*
X149130001Y-68039999D01*
X149014276Y-67945026D01*
X148882247Y-67874454D01*
X148738986Y-67830997D01*
X148627333Y-67820000D01*
X148627322Y-67820000D01*
X148590000Y-67816324D01*
X148552678Y-67820000D01*
X142142341Y-67820000D01*
X142055120Y-67689465D01*
X141860535Y-67494880D01*
X141631727Y-67341995D01*
X141554485Y-67310000D01*
X141631727Y-67278005D01*
X141860535Y-67125120D01*
X142055120Y-66930535D01*
X142142341Y-66800000D01*
X143115638Y-66800000D01*
X143158502Y-66880192D01*
X143212958Y-66961691D01*
X143292310Y-67058382D01*
X143361618Y-67127690D01*
X143458309Y-67207042D01*
X143539808Y-67261498D01*
X143650125Y-67320464D01*
X143740681Y-67357973D01*
X143860377Y-67394282D01*
X143956510Y-67413404D01*
X144080991Y-67425664D01*
X144105550Y-67425664D01*
X144130000Y-67428072D01*
X144630000Y-67428072D01*
X144754482Y-67415812D01*
X144780000Y-67408071D01*
X144805518Y-67415812D01*
X144930000Y-67428072D01*
X145430000Y-67428072D01*
X145454450Y-67425664D01*
X145479009Y-67425664D01*
X145603490Y-67413404D01*
X145699623Y-67394282D01*
X145819319Y-67357973D01*
X145909875Y-67320464D01*
X146020192Y-67261498D01*
X146101691Y-67207042D01*
X146198382Y-67127690D01*
X146267690Y-67058382D01*
X146347042Y-66961691D01*
X146401498Y-66880192D01*
X146444362Y-66800000D01*
X147251289Y-66800000D01*
X147295226Y-66843937D01*
X147464744Y-66957205D01*
X147653102Y-67035226D01*
X147853061Y-67075000D01*
X148056939Y-67075000D01*
X148256898Y-67035226D01*
X148445256Y-66957205D01*
X148614774Y-66843937D01*
X148758937Y-66699774D01*
X148872205Y-66530256D01*
X148950226Y-66341898D01*
X148990000Y-66141939D01*
X148990000Y-65938061D01*
X148950226Y-65738102D01*
X148872205Y-65549744D01*
X148775490Y-65405000D01*
X148872205Y-65260256D01*
X148950226Y-65071898D01*
X148990000Y-64871939D01*
X148990000Y-64668061D01*
X148950226Y-64468102D01*
X148872205Y-64279744D01*
X148758937Y-64110226D01*
X148614774Y-63966063D01*
X148445256Y-63852795D01*
X148256898Y-63774774D01*
X148080000Y-63739587D01*
X148080000Y-59092333D01*
X148083677Y-59055000D01*
X148069003Y-58906014D01*
X148025546Y-58762753D01*
X147954974Y-58630724D01*
X147883799Y-58543997D01*
X147860001Y-58514999D01*
X147831004Y-58491202D01*
X147248803Y-57909002D01*
X147225001Y-57879999D01*
X147109276Y-57785026D01*
X146977247Y-57714454D01*
X146833986Y-57670997D01*
X146722333Y-57660000D01*
X146722322Y-57660000D01*
X146685000Y-57656324D01*
X146647678Y-57660000D01*
X146444362Y-57660000D01*
X146401498Y-57579808D01*
X146347042Y-57498309D01*
X146267690Y-57401618D01*
X146198382Y-57332310D01*
X146101691Y-57252958D01*
X146020192Y-57198502D01*
X145909875Y-57139536D01*
X145819319Y-57102027D01*
X145699623Y-57065718D01*
X145603490Y-57046596D01*
X145479009Y-57034336D01*
X145454450Y-57034336D01*
X145430000Y-57031928D01*
X144930000Y-57031928D01*
X144805518Y-57044188D01*
X144780000Y-57051929D01*
X144754482Y-57044188D01*
X144630000Y-57031928D01*
X144130000Y-57031928D01*
X144105550Y-57034336D01*
X144080991Y-57034336D01*
X143956510Y-57046596D01*
X143860377Y-57065718D01*
X143740681Y-57102027D01*
X143650125Y-57139536D01*
X143539808Y-57198502D01*
X143458309Y-57252958D01*
X143361618Y-57332310D01*
X143292310Y-57401618D01*
X143212958Y-57498309D01*
X143158502Y-57579808D01*
X143115638Y-57660000D01*
X142142341Y-57660000D01*
X142055120Y-57529465D01*
X141860535Y-57334880D01*
X141631727Y-57181995D01*
X141560057Y-57152308D01*
X141573023Y-57147636D01*
X141688980Y-57085656D01*
X141755960Y-56845565D01*
X140970000Y-56059605D01*
X140184040Y-56845565D01*
X140251020Y-57085656D01*
X140386760Y-57149485D01*
X140308273Y-57181995D01*
X140079465Y-57334880D01*
X139884880Y-57529465D01*
X139797659Y-57660000D01*
X138824362Y-57660000D01*
X138781498Y-57579808D01*
X138727042Y-57498309D01*
X138647690Y-57401618D01*
X138578382Y-57332310D01*
X138481691Y-57252958D01*
X138400192Y-57198502D01*
X138289875Y-57139536D01*
X138199319Y-57102027D01*
X138079623Y-57065718D01*
X137983490Y-57046596D01*
X137859009Y-57034336D01*
X137834450Y-57034336D01*
X137810000Y-57031928D01*
X137310000Y-57031928D01*
X137185518Y-57044188D01*
X137065820Y-57080498D01*
X136955506Y-57139463D01*
X136858815Y-57218815D01*
X136779463Y-57315506D01*
X136720498Y-57425820D01*
X136690127Y-57525940D01*
X136672125Y-57531238D01*
X136670153Y-57532269D01*
X136668020Y-57532913D01*
X136615219Y-57560988D01*
X136562297Y-57588655D01*
X136560563Y-57590049D01*
X136558596Y-57591095D01*
X136512263Y-57628883D01*
X136465714Y-57666310D01*
X136464283Y-57668015D01*
X136462557Y-57669423D01*
X136424461Y-57715473D01*
X136386053Y-57761246D01*
X136384980Y-57763198D01*
X136383561Y-57764913D01*
X136355149Y-57817461D01*
X136326349Y-57869847D01*
X136325675Y-57871971D01*
X136324617Y-57873928D01*
X136306966Y-57930950D01*
X136288876Y-57987976D01*
X136288627Y-57990192D01*
X136287970Y-57992316D01*
X136281724Y-58051743D01*
X136275062Y-58111134D01*
X136275032Y-58115404D01*
X136275015Y-58115567D01*
X136275030Y-58115730D01*
X136275000Y-58120000D01*
X136275000Y-58720000D01*
X136280834Y-58779505D01*
X136286248Y-58838987D01*
X136286875Y-58841118D01*
X136287093Y-58843339D01*
X136304388Y-58900621D01*
X136321238Y-58957875D01*
X136322269Y-58959847D01*
X136322913Y-58961980D01*
X136350988Y-59014781D01*
X136378655Y-59067703D01*
X136380049Y-59069437D01*
X136381095Y-59071404D01*
X136418883Y-59117737D01*
X136456310Y-59164286D01*
X136458015Y-59165717D01*
X136459423Y-59167443D01*
X136505473Y-59205539D01*
X136551246Y-59243947D01*
X136553198Y-59245020D01*
X136554913Y-59246439D01*
X136607461Y-59274851D01*
X136659847Y-59303651D01*
X136661971Y-59304325D01*
X136663928Y-59305383D01*
X136689937Y-59313434D01*
X136720498Y-59414180D01*
X136779463Y-59524494D01*
X136858815Y-59621185D01*
X136955506Y-59700537D01*
X137065820Y-59759502D01*
X137185518Y-59795812D01*
X137310000Y-59808072D01*
X137810000Y-59808072D01*
X137834450Y-59805664D01*
X137859009Y-59805664D01*
X137983490Y-59793404D01*
X138079623Y-59774282D01*
X138199319Y-59737973D01*
X138289875Y-59700464D01*
X138400192Y-59641498D01*
X138481691Y-59587042D01*
X138578382Y-59507690D01*
X138647690Y-59438382D01*
X138727042Y-59341691D01*
X138781498Y-59260192D01*
X138824362Y-59180000D01*
X139797659Y-59180000D01*
X139884880Y-59310535D01*
X140079465Y-59505120D01*
X140308273Y-59658005D01*
X140385515Y-59690000D01*
X140308273Y-59721995D01*
X140079465Y-59874880D01*
X139884880Y-60069465D01*
X139731995Y-60298273D01*
X139626686Y-60552510D01*
X139573000Y-60822408D01*
X139573000Y-61097592D01*
X139626686Y-61367490D01*
X139731995Y-61621727D01*
X139884880Y-61850535D01*
X140079465Y-62045120D01*
X140308273Y-62198005D01*
X140385515Y-62230000D01*
X140308273Y-62261995D01*
X140079465Y-62414880D01*
X139884880Y-62609465D01*
X139731995Y-62838273D01*
X139626686Y-63092510D01*
X139573000Y-63362408D01*
X139573000Y-63637592D01*
X139626686Y-63907490D01*
X139731995Y-64161727D01*
X139884880Y-64390535D01*
X140079465Y-64585120D01*
X140308273Y-64738005D01*
X140385515Y-64770000D01*
X140308273Y-64801995D01*
X140079465Y-64954880D01*
X139884880Y-65149465D01*
X139797659Y-65280000D01*
X138824362Y-65280000D01*
X138781498Y-65199808D01*
X138727042Y-65118309D01*
X138647690Y-65021618D01*
X138578382Y-64952310D01*
X138481691Y-64872958D01*
X138400192Y-64818502D01*
X138289875Y-64759536D01*
X138199319Y-64722027D01*
X138079623Y-64685718D01*
X137983490Y-64666596D01*
X137859009Y-64654336D01*
X137834450Y-64654336D01*
X137810000Y-64651928D01*
X137310000Y-64651928D01*
X137185518Y-64664188D01*
X137065820Y-64700498D01*
X136955506Y-64759463D01*
X136858815Y-64838815D01*
X136779463Y-64935506D01*
X136720498Y-65045820D01*
X136690127Y-65145940D01*
X136672125Y-65151238D01*
X136670153Y-65152269D01*
X136668020Y-65152913D01*
X136615219Y-65180988D01*
X136562297Y-65208655D01*
X136560563Y-65210049D01*
X136558596Y-65211095D01*
X136512263Y-65248883D01*
X136465714Y-65286310D01*
X136464283Y-65288015D01*
X136462557Y-65289423D01*
X136424461Y-65335473D01*
X136386053Y-65381246D01*
X136384980Y-65383198D01*
X136383561Y-65384913D01*
X136355149Y-65437461D01*
X136326349Y-65489847D01*
X136325675Y-65491971D01*
X136324617Y-65493928D01*
X136306966Y-65550950D01*
X136288876Y-65607976D01*
X136288627Y-65610192D01*
X136287970Y-65612316D01*
X136281724Y-65671743D01*
X136275062Y-65731134D01*
X136275032Y-65735404D01*
X136275015Y-65735567D01*
X136275030Y-65735730D01*
X136275000Y-65740000D01*
X136275000Y-66340000D01*
X136280834Y-66399505D01*
X136286248Y-66458987D01*
X136286875Y-66461118D01*
X136287093Y-66463339D01*
X136304388Y-66520621D01*
X136321238Y-66577875D01*
X136322269Y-66579847D01*
X136322913Y-66581980D01*
X136350988Y-66634781D01*
X136378655Y-66687703D01*
X136380049Y-66689437D01*
X136381095Y-66691404D01*
X136418883Y-66737737D01*
X136456310Y-66784286D01*
X136458015Y-66785717D01*
X136459423Y-66787443D01*
X136505473Y-66825539D01*
X136551246Y-66863947D01*
X136553198Y-66865020D01*
X136554913Y-66866439D01*
X136607461Y-66894851D01*
X136659847Y-66923651D01*
X136661971Y-66924325D01*
X136663928Y-66925383D01*
X136689937Y-66933434D01*
X136720498Y-67034180D01*
X136779463Y-67144494D01*
X136858815Y-67241185D01*
X136955506Y-67320537D01*
X137065820Y-67379502D01*
X137185518Y-67415812D01*
X137310000Y-67428072D01*
X137810000Y-67428072D01*
X137834450Y-67425664D01*
X137859009Y-67425664D01*
X137983490Y-67413404D01*
X138079623Y-67394282D01*
X138199319Y-67357973D01*
X138289875Y-67320464D01*
X138400192Y-67261498D01*
X138481691Y-67207042D01*
X138578382Y-67127690D01*
X138647690Y-67058382D01*
X138727042Y-66961691D01*
X138781498Y-66880192D01*
X138824362Y-66800000D01*
X139797659Y-66800000D01*
X139884880Y-66930535D01*
X140079465Y-67125120D01*
X140308273Y-67278005D01*
X140385515Y-67310000D01*
X140308273Y-67341995D01*
X140079465Y-67494880D01*
X139884880Y-67689465D01*
X139731995Y-67918273D01*
X139626686Y-68172510D01*
X139573000Y-68442408D01*
X139573000Y-68717592D01*
X139626686Y-68987490D01*
X139731995Y-69241727D01*
X139884880Y-69470535D01*
X140079465Y-69665120D01*
X140308273Y-69818005D01*
X140385515Y-69850000D01*
X140308273Y-69881995D01*
X140079465Y-70034880D01*
X139884880Y-70229465D01*
X139731995Y-70458273D01*
X139626686Y-70712510D01*
X139573000Y-70982408D01*
X139573000Y-71257592D01*
X139626686Y-71527490D01*
X139731995Y-71781727D01*
X139884880Y-72010535D01*
X140079465Y-72205120D01*
X140308273Y-72358005D01*
X140379943Y-72387692D01*
X140366977Y-72392364D01*
X140251020Y-72454344D01*
X140184040Y-72694435D01*
X140970000Y-73480395D01*
X141755960Y-72694435D01*
X141688980Y-72454344D01*
X141553240Y-72390515D01*
X141631727Y-72358005D01*
X141860535Y-72205120D01*
X142055120Y-72010535D01*
X142208005Y-71781727D01*
X142313314Y-71527490D01*
X142367000Y-71257592D01*
X142367000Y-71120000D01*
X145878057Y-71120000D01*
X145905764Y-71401309D01*
X145987818Y-71671808D01*
X146121068Y-71921101D01*
X146300392Y-72139608D01*
X146518899Y-72318932D01*
X146560001Y-72340901D01*
X146560000Y-74535638D01*
X146479808Y-74578502D01*
X146398309Y-74632958D01*
X146301618Y-74712310D01*
X146232310Y-74781618D01*
X146152958Y-74878309D01*
X146098502Y-74959808D01*
X146039536Y-75070125D01*
X146002027Y-75160681D01*
X145965718Y-75280377D01*
X145946596Y-75376510D01*
X145934336Y-75500991D01*
X145934336Y-75525550D01*
X145931928Y-75550000D01*
X145931928Y-76050000D01*
X145944188Y-76174482D01*
X145951929Y-76200000D01*
X145944188Y-76225518D01*
X145931928Y-76350000D01*
X145931928Y-76850000D01*
X145934336Y-76874450D01*
X145934336Y-76899009D01*
X145946596Y-77023490D01*
X145965718Y-77119623D01*
X146002027Y-77239319D01*
X146039536Y-77329875D01*
X146098502Y-77440192D01*
X146152958Y-77521691D01*
X146232310Y-77618382D01*
X146301618Y-77687690D01*
X146398309Y-77767042D01*
X146479808Y-77821498D01*
X146560000Y-77864362D01*
X146560001Y-80061956D01*
X146405241Y-80165363D01*
X146205363Y-80365241D01*
X146048320Y-80600273D01*
X145940147Y-80861426D01*
X145885000Y-81138665D01*
X145885000Y-81421335D01*
X145940147Y-81698574D01*
X146048320Y-81959727D01*
X146205363Y-82194759D01*
X146405241Y-82394637D01*
X146640273Y-82551680D01*
X146901426Y-82659853D01*
X147178665Y-82715000D01*
X147461335Y-82715000D01*
X147738574Y-82659853D01*
X147999727Y-82551680D01*
X148234759Y-82394637D01*
X148434637Y-82194759D01*
X148591680Y-81959727D01*
X148699853Y-81698574D01*
X148755000Y-81421335D01*
X148755000Y-81138665D01*
X148699853Y-80861426D01*
X148591680Y-80600273D01*
X148434637Y-80365241D01*
X148234759Y-80165363D01*
X148080000Y-80061957D01*
X148080000Y-77864362D01*
X148160192Y-77821498D01*
X148241691Y-77767042D01*
X148338382Y-77687690D01*
X148407690Y-77618382D01*
X148487042Y-77521691D01*
X148541498Y-77440192D01*
X148600464Y-77329875D01*
X148637973Y-77239319D01*
X148674282Y-77119623D01*
X148693404Y-77023490D01*
X148705664Y-76899009D01*
X148705664Y-76874450D01*
X148708072Y-76850000D01*
X148708072Y-76350000D01*
X148695812Y-76225518D01*
X148688071Y-76200000D01*
X148695812Y-76174482D01*
X148708072Y-76050000D01*
X148708072Y-75550000D01*
X148705664Y-75525550D01*
X148705664Y-75500991D01*
X148693404Y-75376510D01*
X148674282Y-75280377D01*
X148637973Y-75160681D01*
X148600464Y-75070125D01*
X148541498Y-74959808D01*
X148487042Y-74878309D01*
X148407690Y-74781618D01*
X148338382Y-74712310D01*
X148241691Y-74632958D01*
X148160192Y-74578502D01*
X148080000Y-74535638D01*
X148080000Y-72340901D01*
X148121101Y-72318932D01*
X148339608Y-72139608D01*
X148518932Y-71921101D01*
X148652182Y-71671808D01*
X148734236Y-71401309D01*
X148761943Y-71120000D01*
X148734236Y-70838691D01*
X148652182Y-70568192D01*
X148518932Y-70318899D01*
X148339608Y-70100392D01*
X148121101Y-69921068D01*
X147871808Y-69787818D01*
X147601309Y-69705764D01*
X147390492Y-69685000D01*
X147249508Y-69685000D01*
X147038691Y-69705764D01*
X146768192Y-69787818D01*
X146518899Y-69921068D01*
X146300392Y-70100392D01*
X146121068Y-70318899D01*
X145987818Y-70568192D01*
X145905764Y-70838691D01*
X145878057Y-71120000D01*
X142367000Y-71120000D01*
X142367000Y-70982408D01*
X142313314Y-70712510D01*
X142208005Y-70458273D01*
X142055120Y-70229465D01*
X141860535Y-70034880D01*
X141631727Y-69881995D01*
X141554485Y-69850000D01*
X141631727Y-69818005D01*
X141860535Y-69665120D01*
X142055120Y-69470535D01*
X142142341Y-69340000D01*
X148275199Y-69340000D01*
X149100000Y-70164802D01*
X149100001Y-76162668D01*
X149096324Y-76200000D01*
X149110998Y-76348985D01*
X149154454Y-76492246D01*
X149225026Y-76624276D01*
X149267321Y-76675812D01*
X149320000Y-76740001D01*
X149348998Y-76763799D01*
X150566201Y-77981003D01*
X150589999Y-78010001D01*
X150705724Y-78104974D01*
X150837753Y-78175546D01*
X150981014Y-78219003D01*
X151092667Y-78230000D01*
X151092676Y-78230000D01*
X151124057Y-78233091D01*
X151159294Y-78299014D01*
X151344866Y-78525134D01*
X151570986Y-78710706D01*
X151625791Y-78740000D01*
X151570986Y-78769294D01*
X151344866Y-78954866D01*
X151159294Y-79180986D01*
X151124057Y-79246909D01*
X151092676Y-79250000D01*
X151092667Y-79250000D01*
X150981014Y-79260997D01*
X150837753Y-79304454D01*
X150705724Y-79375026D01*
X150589999Y-79469999D01*
X150566201Y-79498997D01*
X149348998Y-80716201D01*
X149320000Y-80739999D01*
X149296202Y-80768997D01*
X149296201Y-80768998D01*
X149225026Y-80855724D01*
X149154454Y-80987754D01*
X149154110Y-80988889D01*
X149110998Y-81131014D01*
X149109876Y-81142408D01*
X149096324Y-81280000D01*
X149100001Y-81317332D01*
X149100000Y-94935197D01*
X147005199Y-97030000D01*
X120687322Y-97030000D01*
X120649999Y-97026324D01*
X120612676Y-97030000D01*
X120612667Y-97030000D01*
X120501014Y-97040997D01*
X120357753Y-97084454D01*
X120225724Y-97155026D01*
X120225722Y-97155027D01*
X120225723Y-97155027D01*
X120138996Y-97226201D01*
X120138992Y-97226205D01*
X120109999Y-97249999D01*
X120086205Y-97278992D01*
X117598998Y-99766201D01*
X117570000Y-99789999D01*
X117546202Y-99818997D01*
X117546201Y-99818998D01*
X117475026Y-99905724D01*
X117404454Y-100037754D01*
X117360998Y-100181015D01*
X117346324Y-100330000D01*
X117350001Y-100367332D01*
X117350001Y-101415091D01*
X117335537Y-101421082D01*
X117067748Y-101600013D01*
X116840013Y-101827748D01*
X116661082Y-102095537D01*
X116537832Y-102393088D01*
X116475000Y-102708967D01*
X116475000Y-103031033D01*
X116537832Y-103346912D01*
X116661082Y-103644463D01*
X116840013Y-103912252D01*
X117067748Y-104139987D01*
X117335537Y-104318918D01*
X117375040Y-104335281D01*
X117404110Y-104431111D01*
X117404454Y-104432246D01*
X117475026Y-104564276D01*
X117514871Y-104612826D01*
X117569999Y-104680001D01*
X117599003Y-104703804D01*
X122430001Y-109534803D01*
X122430001Y-110305091D01*
X122415537Y-110311082D01*
X122147748Y-110490013D01*
X121920013Y-110717748D01*
X121741082Y-110985537D01*
X121617832Y-111283088D01*
X121555000Y-111598967D01*
X121555000Y-111921033D01*
X121617832Y-112236912D01*
X121741082Y-112534463D01*
X121920013Y-112802252D01*
X122147748Y-113029987D01*
X122415537Y-113208918D01*
X122713088Y-113332168D01*
X123028967Y-113395000D01*
X123351033Y-113395000D01*
X123666912Y-113332168D01*
X123964463Y-113208918D01*
X124232252Y-113029987D01*
X124459987Y-112802252D01*
X124638918Y-112534463D01*
X124762168Y-112236912D01*
X124825000Y-111921033D01*
X124825000Y-111598967D01*
X124762168Y-111283088D01*
X124638918Y-110985537D01*
X124459987Y-110717748D01*
X124232252Y-110490013D01*
X123964463Y-110311082D01*
X123950000Y-110305091D01*
X123950000Y-109257323D01*
X123953676Y-109220000D01*
X123950000Y-109182677D01*
X123950000Y-109182667D01*
X123939003Y-109071014D01*
X123895546Y-108927753D01*
X123860993Y-108863110D01*
X123824974Y-108795723D01*
X123753799Y-108708997D01*
X123730001Y-108679999D01*
X123701003Y-108656201D01*
X121583467Y-106538665D01*
X134455000Y-106538665D01*
X134455000Y-106821335D01*
X134510147Y-107098574D01*
X134618320Y-107359727D01*
X134775363Y-107594759D01*
X134975241Y-107794637D01*
X135210273Y-107951680D01*
X135471426Y-108059853D01*
X135748665Y-108115000D01*
X136031335Y-108115000D01*
X136308574Y-108059853D01*
X136569727Y-107951680D01*
X136804759Y-107794637D01*
X137004637Y-107594759D01*
X137161680Y-107359727D01*
X137269853Y-107098574D01*
X137325000Y-106821335D01*
X137325000Y-106538665D01*
X137269853Y-106261426D01*
X137161680Y-106000273D01*
X137004637Y-105765241D01*
X136804759Y-105565363D01*
X136569727Y-105408320D01*
X136308574Y-105300147D01*
X136031335Y-105245000D01*
X135748665Y-105245000D01*
X135471426Y-105300147D01*
X135210273Y-105408320D01*
X134975241Y-105565363D01*
X134775363Y-105765241D01*
X134618320Y-106000273D01*
X134510147Y-106261426D01*
X134455000Y-106538665D01*
X121583467Y-106538665D01*
X119168520Y-104123719D01*
X119379987Y-103912252D01*
X119558918Y-103644463D01*
X119682168Y-103346912D01*
X119745000Y-103031033D01*
X119745000Y-102708967D01*
X121555000Y-102708967D01*
X121555000Y-103031033D01*
X121617832Y-103346912D01*
X121741082Y-103644463D01*
X121920013Y-103912252D01*
X122147748Y-104139987D01*
X122415537Y-104318918D01*
X122713088Y-104442168D01*
X123028967Y-104505000D01*
X123351033Y-104505000D01*
X123666912Y-104442168D01*
X123964463Y-104318918D01*
X124232252Y-104139987D01*
X124459987Y-103912252D01*
X124638918Y-103644463D01*
X124762168Y-103346912D01*
X124825000Y-103031033D01*
X124825000Y-102708967D01*
X126635000Y-102708967D01*
X126635000Y-103031033D01*
X126697832Y-103346912D01*
X126821082Y-103644463D01*
X127000013Y-103912252D01*
X127227748Y-104139987D01*
X127495537Y-104318918D01*
X127793088Y-104442168D01*
X128108967Y-104505000D01*
X128431033Y-104505000D01*
X128746912Y-104442168D01*
X129044463Y-104318918D01*
X129312252Y-104139987D01*
X129539987Y-103912252D01*
X129718918Y-103644463D01*
X129842168Y-103346912D01*
X129905000Y-103031033D01*
X129905000Y-102708967D01*
X134255000Y-102708967D01*
X134255000Y-103031033D01*
X134317832Y-103346912D01*
X134441082Y-103644463D01*
X134620013Y-103912252D01*
X134847748Y-104139987D01*
X135115537Y-104318918D01*
X135413088Y-104442168D01*
X135728967Y-104505000D01*
X136051033Y-104505000D01*
X136366912Y-104442168D01*
X136664463Y-104318918D01*
X136932252Y-104139987D01*
X137159987Y-103912252D01*
X137338918Y-103644463D01*
X137462168Y-103346912D01*
X137525000Y-103031033D01*
X137525000Y-102708967D01*
X139335000Y-102708967D01*
X139335000Y-103031033D01*
X139397832Y-103346912D01*
X139521082Y-103644463D01*
X139700013Y-103912252D01*
X139927748Y-104139987D01*
X140195537Y-104318918D01*
X140210001Y-104324909D01*
X140210000Y-105461956D01*
X140055241Y-105565363D01*
X139855363Y-105765241D01*
X139698320Y-106000273D01*
X139590147Y-106261426D01*
X139535000Y-106538665D01*
X139535000Y-106821335D01*
X139590147Y-107098574D01*
X139698320Y-107359727D01*
X139855363Y-107594759D01*
X140055241Y-107794637D01*
X140290273Y-107951680D01*
X140551426Y-108059853D01*
X140828665Y-108115000D01*
X141111335Y-108115000D01*
X141388574Y-108059853D01*
X141649727Y-107951680D01*
X141884759Y-107794637D01*
X142084637Y-107594759D01*
X142241680Y-107359727D01*
X142349853Y-107098574D01*
X142405000Y-106821335D01*
X142405000Y-106538665D01*
X142349853Y-106261426D01*
X142241680Y-106000273D01*
X142084637Y-105765241D01*
X141884759Y-105565363D01*
X141730000Y-105461957D01*
X141730000Y-104324909D01*
X141744463Y-104318918D01*
X142012252Y-104139987D01*
X142146826Y-104005413D01*
X145094192Y-104005413D01*
X145189956Y-104269814D01*
X145479571Y-104410704D01*
X145791108Y-104492384D01*
X146112595Y-104511718D01*
X146431675Y-104467961D01*
X146736088Y-104362795D01*
X146910044Y-104269814D01*
X147005808Y-104005413D01*
X146050000Y-103049605D01*
X145094192Y-104005413D01*
X142146826Y-104005413D01*
X142239987Y-103912252D01*
X142418918Y-103644463D01*
X142542168Y-103346912D01*
X142605000Y-103031033D01*
X142605000Y-102932595D01*
X144408282Y-102932595D01*
X144452039Y-103251675D01*
X144557205Y-103556088D01*
X144650186Y-103730044D01*
X144914587Y-103825808D01*
X145870395Y-102870000D01*
X146229605Y-102870000D01*
X147185413Y-103825808D01*
X147449814Y-103730044D01*
X147590704Y-103440429D01*
X147672384Y-103128892D01*
X147691718Y-102807405D01*
X147647961Y-102488325D01*
X147542795Y-102183912D01*
X147449814Y-102009956D01*
X147185413Y-101914192D01*
X146229605Y-102870000D01*
X145870395Y-102870000D01*
X144914587Y-101914192D01*
X144650186Y-102009956D01*
X144509296Y-102299571D01*
X144427616Y-102611108D01*
X144408282Y-102932595D01*
X142605000Y-102932595D01*
X142605000Y-102708967D01*
X142542168Y-102393088D01*
X142418918Y-102095537D01*
X142239987Y-101827748D01*
X142146826Y-101734587D01*
X145094192Y-101734587D01*
X146050000Y-102690395D01*
X147005808Y-101734587D01*
X146910044Y-101470186D01*
X146620429Y-101329296D01*
X146308892Y-101247616D01*
X145987405Y-101228282D01*
X145668325Y-101272039D01*
X145363912Y-101377205D01*
X145189956Y-101470186D01*
X145094192Y-101734587D01*
X142146826Y-101734587D01*
X142012252Y-101600013D01*
X141744463Y-101421082D01*
X141446912Y-101297832D01*
X141131033Y-101235000D01*
X140808967Y-101235000D01*
X140493088Y-101297832D01*
X140195537Y-101421082D01*
X139927748Y-101600013D01*
X139700013Y-101827748D01*
X139521082Y-102095537D01*
X139397832Y-102393088D01*
X139335000Y-102708967D01*
X137525000Y-102708967D01*
X137462168Y-102393088D01*
X137338918Y-102095537D01*
X137159987Y-101827748D01*
X136932252Y-101600013D01*
X136664463Y-101421082D01*
X136366912Y-101297832D01*
X136051033Y-101235000D01*
X135728967Y-101235000D01*
X135413088Y-101297832D01*
X135115537Y-101421082D01*
X134847748Y-101600013D01*
X134620013Y-101827748D01*
X134441082Y-102095537D01*
X134317832Y-102393088D01*
X134255000Y-102708967D01*
X129905000Y-102708967D01*
X129842168Y-102393088D01*
X129718918Y-102095537D01*
X129539987Y-101827748D01*
X129312252Y-101600013D01*
X129044463Y-101421082D01*
X128746912Y-101297832D01*
X128431033Y-101235000D01*
X128108967Y-101235000D01*
X127793088Y-101297832D01*
X127495537Y-101421082D01*
X127227748Y-101600013D01*
X127000013Y-101827748D01*
X126821082Y-102095537D01*
X126697832Y-102393088D01*
X126635000Y-102708967D01*
X124825000Y-102708967D01*
X124762168Y-102393088D01*
X124638918Y-102095537D01*
X124459987Y-101827748D01*
X124232252Y-101600013D01*
X123964463Y-101421082D01*
X123666912Y-101297832D01*
X123351033Y-101235000D01*
X123028967Y-101235000D01*
X122713088Y-101297832D01*
X122415537Y-101421082D01*
X122147748Y-101600013D01*
X121920013Y-101827748D01*
X121741082Y-102095537D01*
X121617832Y-102393088D01*
X121555000Y-102708967D01*
X119745000Y-102708967D01*
X119682168Y-102393088D01*
X119558918Y-102095537D01*
X119379987Y-101827748D01*
X119152252Y-101600013D01*
X118884463Y-101421082D01*
X118870000Y-101415091D01*
X118870000Y-100644801D01*
X120964803Y-98550000D01*
X147282678Y-98550000D01*
X147320000Y-98553676D01*
X147357322Y-98550000D01*
X147357333Y-98550000D01*
X147468986Y-98539003D01*
X147612247Y-98495546D01*
X147744276Y-98424974D01*
X147860001Y-98330001D01*
X147883804Y-98300997D01*
X150371009Y-95813794D01*
X150400001Y-95790001D01*
X150423795Y-95761008D01*
X150423799Y-95761004D01*
X150494973Y-95674277D01*
X150494974Y-95674276D01*
X150565546Y-95542247D01*
X150609003Y-95398986D01*
X150620000Y-95287333D01*
X150620000Y-95287324D01*
X150623676Y-95250001D01*
X150620000Y-95212678D01*
X150620000Y-81594801D01*
X151256879Y-80957922D01*
X151344866Y-81065134D01*
X151570986Y-81250706D01*
X151828966Y-81388599D01*
X152108889Y-81473513D01*
X152327050Y-81495000D01*
X152472950Y-81495000D01*
X152691111Y-81473513D01*
X152971034Y-81388599D01*
X153229014Y-81250706D01*
X153455134Y-81065134D01*
X153640706Y-80839014D01*
X153670000Y-80784209D01*
X153699294Y-80839014D01*
X153884866Y-81065134D01*
X154110986Y-81250706D01*
X154368966Y-81388599D01*
X154648889Y-81473513D01*
X154867050Y-81495000D01*
X155012950Y-81495000D01*
X155231111Y-81473513D01*
X155511034Y-81388599D01*
X155769014Y-81250706D01*
X155995134Y-81065134D01*
X156083000Y-80958069D01*
X156083000Y-82871931D01*
X155995134Y-82764866D01*
X155769014Y-82579294D01*
X155511034Y-82441401D01*
X155231111Y-82356487D01*
X155012950Y-82335000D01*
X154867050Y-82335000D01*
X154648889Y-82356487D01*
X154368966Y-82441401D01*
X154110986Y-82579294D01*
X153884866Y-82764866D01*
X153860393Y-82794687D01*
X153839502Y-82725820D01*
X153780537Y-82615506D01*
X153701185Y-82518815D01*
X153604494Y-82439463D01*
X153494180Y-82380498D01*
X153374482Y-82344188D01*
X153250000Y-82331928D01*
X151550000Y-82331928D01*
X151425518Y-82344188D01*
X151305820Y-82380498D01*
X151195506Y-82439463D01*
X151098815Y-82518815D01*
X151019463Y-82615506D01*
X150960498Y-82725820D01*
X150924188Y-82845518D01*
X150911928Y-82970000D01*
X150911928Y-84670000D01*
X150924188Y-84794482D01*
X150960498Y-84914180D01*
X151019463Y-85024494D01*
X151098815Y-85121185D01*
X151195506Y-85200537D01*
X151305820Y-85259502D01*
X151374687Y-85280393D01*
X151344866Y-85304866D01*
X151159294Y-85530986D01*
X151021401Y-85788966D01*
X150936487Y-86068889D01*
X150907815Y-86360000D01*
X150936487Y-86651111D01*
X151021401Y-86931034D01*
X151159294Y-87189014D01*
X151344866Y-87415134D01*
X151570986Y-87600706D01*
X151635523Y-87635201D01*
X151518645Y-87704822D01*
X151302412Y-87899731D01*
X151128359Y-88133080D01*
X151003175Y-88395901D01*
X150958524Y-88543110D01*
X151079845Y-88773000D01*
X152273000Y-88773000D01*
X152273000Y-88753000D01*
X152527000Y-88753000D01*
X152527000Y-88773000D01*
X152547000Y-88773000D01*
X152547000Y-89027000D01*
X152527000Y-89027000D01*
X152527000Y-89047000D01*
X152273000Y-89047000D01*
X152273000Y-89027000D01*
X151079845Y-89027000D01*
X150958524Y-89256890D01*
X151003175Y-89404099D01*
X151128359Y-89666920D01*
X151302412Y-89900269D01*
X151518645Y-90095178D01*
X151635523Y-90164799D01*
X151570986Y-90199294D01*
X151344866Y-90384866D01*
X151159294Y-90610986D01*
X151021401Y-90868966D01*
X150936487Y-91148889D01*
X150907815Y-91440000D01*
X150936487Y-91731111D01*
X151021401Y-92011034D01*
X151159294Y-92269014D01*
X151344866Y-92495134D01*
X151570986Y-92680706D01*
X151625791Y-92710000D01*
X151570986Y-92739294D01*
X151344866Y-92924866D01*
X151159294Y-93150986D01*
X151021401Y-93408966D01*
X150936487Y-93688889D01*
X150907815Y-93980000D01*
X150936487Y-94271111D01*
X151021401Y-94551034D01*
X151159294Y-94809014D01*
X151344866Y-95035134D01*
X151570986Y-95220706D01*
X151625791Y-95250000D01*
X151570986Y-95279294D01*
X151344866Y-95464866D01*
X151159294Y-95690986D01*
X151021401Y-95948966D01*
X150936487Y-96228889D01*
X150907815Y-96520000D01*
X150936487Y-96811111D01*
X151021401Y-97091034D01*
X151159294Y-97349014D01*
X151344866Y-97575134D01*
X151570986Y-97760706D01*
X151625791Y-97790000D01*
X151570986Y-97819294D01*
X151344866Y-98004866D01*
X151159294Y-98230986D01*
X151021401Y-98488966D01*
X150936487Y-98768889D01*
X150907815Y-99060000D01*
X150936487Y-99351111D01*
X151021401Y-99631034D01*
X151159294Y-99889014D01*
X151344866Y-100115134D01*
X151570986Y-100300706D01*
X151625791Y-100330000D01*
X151570986Y-100359294D01*
X151344866Y-100544866D01*
X151159294Y-100770986D01*
X151021401Y-101028966D01*
X150936487Y-101308889D01*
X150907815Y-101600000D01*
X150936487Y-101891111D01*
X151021401Y-102171034D01*
X151159294Y-102429014D01*
X151344866Y-102655134D01*
X151570986Y-102840706D01*
X151635523Y-102875201D01*
X151518645Y-102944822D01*
X151302412Y-103139731D01*
X151128359Y-103373080D01*
X151003175Y-103635901D01*
X150958524Y-103783110D01*
X151079845Y-104013000D01*
X152273000Y-104013000D01*
X152273000Y-103993000D01*
X152527000Y-103993000D01*
X152527000Y-104013000D01*
X152547000Y-104013000D01*
X152547000Y-104267000D01*
X152527000Y-104267000D01*
X152527000Y-104287000D01*
X152273000Y-104287000D01*
X152273000Y-104267000D01*
X151079845Y-104267000D01*
X150958524Y-104496890D01*
X151003175Y-104644099D01*
X151128359Y-104906920D01*
X151302412Y-105140269D01*
X151518645Y-105335178D01*
X151635523Y-105404799D01*
X151570986Y-105439294D01*
X151344866Y-105624866D01*
X151159294Y-105850986D01*
X151021401Y-106108966D01*
X150936487Y-106388889D01*
X150907815Y-106680000D01*
X150936487Y-106971111D01*
X151021401Y-107251034D01*
X151159294Y-107509014D01*
X151344866Y-107735134D01*
X151570986Y-107920706D01*
X151625791Y-107950000D01*
X151570986Y-107979294D01*
X151344866Y-108164866D01*
X151159294Y-108390986D01*
X151021401Y-108648966D01*
X150936487Y-108928889D01*
X150907815Y-109220000D01*
X150936487Y-109511111D01*
X151021401Y-109791034D01*
X151159294Y-110049014D01*
X151344866Y-110275134D01*
X151570986Y-110460706D01*
X151625791Y-110490000D01*
X151570986Y-110519294D01*
X151344866Y-110704866D01*
X151159294Y-110930986D01*
X151021401Y-111188966D01*
X150936487Y-111468889D01*
X150907815Y-111760000D01*
X150936487Y-112051111D01*
X151021401Y-112331034D01*
X151159294Y-112589014D01*
X151344866Y-112815134D01*
X151570986Y-113000706D01*
X151625791Y-113030000D01*
X151570986Y-113059294D01*
X151344866Y-113244866D01*
X151159294Y-113470986D01*
X151021401Y-113728966D01*
X150936487Y-114008889D01*
X150907815Y-114300000D01*
X150936487Y-114591111D01*
X151021401Y-114871034D01*
X151159294Y-115129014D01*
X151344866Y-115355134D01*
X151570986Y-115540706D01*
X151635523Y-115575201D01*
X151518645Y-115644822D01*
X151302412Y-115839731D01*
X151128359Y-116073080D01*
X151003175Y-116335901D01*
X150958524Y-116483110D01*
X151079845Y-116713000D01*
X152273000Y-116713000D01*
X152273000Y-116693000D01*
X152527000Y-116693000D01*
X152527000Y-116713000D01*
X152547000Y-116713000D01*
X152547000Y-116967000D01*
X152527000Y-116967000D01*
X152527000Y-116987000D01*
X152273000Y-116987000D01*
X152273000Y-116967000D01*
X151079845Y-116967000D01*
X150958524Y-117196890D01*
X151003175Y-117344099D01*
X151128359Y-117606920D01*
X151302412Y-117840269D01*
X151518645Y-118035178D01*
X151635523Y-118104799D01*
X151570986Y-118139294D01*
X151344866Y-118324866D01*
X151159294Y-118550986D01*
X151021401Y-118808966D01*
X150936487Y-119088889D01*
X150907815Y-119380000D01*
X150936487Y-119671111D01*
X151021401Y-119951034D01*
X151159294Y-120209014D01*
X151344866Y-120435134D01*
X151570986Y-120620706D01*
X151625791Y-120650000D01*
X151570986Y-120679294D01*
X151344866Y-120864866D01*
X151159294Y-121090986D01*
X151021401Y-121348966D01*
X150936487Y-121628889D01*
X150907815Y-121920000D01*
X150936487Y-122211111D01*
X151021401Y-122491034D01*
X151159294Y-122749014D01*
X151344866Y-122975134D01*
X151570986Y-123160706D01*
X151625791Y-123190000D01*
X151570986Y-123219294D01*
X151344866Y-123404866D01*
X151159294Y-123630986D01*
X151021401Y-123888966D01*
X150936487Y-124168889D01*
X150907815Y-124460000D01*
X150936487Y-124751111D01*
X151021401Y-125031034D01*
X151159294Y-125289014D01*
X151344866Y-125515134D01*
X151570986Y-125700706D01*
X151828966Y-125838599D01*
X152108889Y-125923513D01*
X152327050Y-125945000D01*
X152472950Y-125945000D01*
X152691111Y-125923513D01*
X152971034Y-125838599D01*
X153229014Y-125700706D01*
X153455134Y-125515134D01*
X153640706Y-125289014D01*
X153670000Y-125234209D01*
X153699294Y-125289014D01*
X153884866Y-125515134D01*
X154110986Y-125700706D01*
X154368966Y-125838599D01*
X154648889Y-125923513D01*
X154867050Y-125945000D01*
X155012950Y-125945000D01*
X155231111Y-125923513D01*
X155511034Y-125838599D01*
X155769014Y-125700706D01*
X155995134Y-125515134D01*
X156083000Y-125408069D01*
X156083000Y-126238000D01*
X104902000Y-126238000D01*
X104902000Y-91440000D01*
X105187815Y-91440000D01*
X105216487Y-91731111D01*
X105301401Y-92011034D01*
X105439294Y-92269014D01*
X105624866Y-92495134D01*
X105850986Y-92680706D01*
X105905791Y-92710000D01*
X105850986Y-92739294D01*
X105624866Y-92924866D01*
X105439294Y-93150986D01*
X105301401Y-93408966D01*
X105216487Y-93688889D01*
X105187815Y-93980000D01*
X105216487Y-94271111D01*
X105301401Y-94551034D01*
X105439294Y-94809014D01*
X105624866Y-95035134D01*
X105850986Y-95220706D01*
X105905791Y-95250000D01*
X105850986Y-95279294D01*
X105624866Y-95464866D01*
X105439294Y-95690986D01*
X105301401Y-95948966D01*
X105216487Y-96228889D01*
X105187815Y-96520000D01*
X105216487Y-96811111D01*
X105301401Y-97091034D01*
X105439294Y-97349014D01*
X105624866Y-97575134D01*
X105850986Y-97760706D01*
X105905791Y-97790000D01*
X105850986Y-97819294D01*
X105624866Y-98004866D01*
X105439294Y-98230986D01*
X105301401Y-98488966D01*
X105216487Y-98768889D01*
X105187815Y-99060000D01*
X105216487Y-99351111D01*
X105301401Y-99631034D01*
X105439294Y-99889014D01*
X105624866Y-100115134D01*
X105850986Y-100300706D01*
X105905791Y-100330000D01*
X105850986Y-100359294D01*
X105624866Y-100544866D01*
X105439294Y-100770986D01*
X105301401Y-101028966D01*
X105216487Y-101308889D01*
X105187815Y-101600000D01*
X105216487Y-101891111D01*
X105301401Y-102171034D01*
X105439294Y-102429014D01*
X105624866Y-102655134D01*
X105850986Y-102840706D01*
X105905791Y-102870000D01*
X105850986Y-102899294D01*
X105624866Y-103084866D01*
X105439294Y-103310986D01*
X105301401Y-103568966D01*
X105216487Y-103848889D01*
X105187815Y-104140000D01*
X105216487Y-104431111D01*
X105301401Y-104711034D01*
X105439294Y-104969014D01*
X105624866Y-105195134D01*
X105850986Y-105380706D01*
X105905791Y-105410000D01*
X105850986Y-105439294D01*
X105624866Y-105624866D01*
X105439294Y-105850986D01*
X105301401Y-106108966D01*
X105216487Y-106388889D01*
X105187815Y-106680000D01*
X105216487Y-106971111D01*
X105301401Y-107251034D01*
X105439294Y-107509014D01*
X105624866Y-107735134D01*
X105850986Y-107920706D01*
X105905791Y-107950000D01*
X105850986Y-107979294D01*
X105624866Y-108164866D01*
X105439294Y-108390986D01*
X105301401Y-108648966D01*
X105216487Y-108928889D01*
X105187815Y-109220000D01*
X105216487Y-109511111D01*
X105301401Y-109791034D01*
X105439294Y-110049014D01*
X105624866Y-110275134D01*
X105850986Y-110460706D01*
X105905791Y-110490000D01*
X105850986Y-110519294D01*
X105624866Y-110704866D01*
X105439294Y-110930986D01*
X105301401Y-111188966D01*
X105216487Y-111468889D01*
X105187815Y-111760000D01*
X105216487Y-112051111D01*
X105301401Y-112331034D01*
X105439294Y-112589014D01*
X105624866Y-112815134D01*
X105850986Y-113000706D01*
X105905791Y-113030000D01*
X105850986Y-113059294D01*
X105624866Y-113244866D01*
X105439294Y-113470986D01*
X105301401Y-113728966D01*
X105216487Y-114008889D01*
X105187815Y-114300000D01*
X105216487Y-114591111D01*
X105301401Y-114871034D01*
X105439294Y-115129014D01*
X105624866Y-115355134D01*
X105850986Y-115540706D01*
X105915523Y-115575201D01*
X105798645Y-115644822D01*
X105582412Y-115839731D01*
X105408359Y-116073080D01*
X105283175Y-116335901D01*
X105238524Y-116483110D01*
X105359845Y-116713000D01*
X106553000Y-116713000D01*
X106553000Y-116693000D01*
X106807000Y-116693000D01*
X106807000Y-116713000D01*
X106827000Y-116713000D01*
X106827000Y-116967000D01*
X106807000Y-116967000D01*
X106807000Y-116987000D01*
X106553000Y-116987000D01*
X106553000Y-116967000D01*
X105359845Y-116967000D01*
X105238524Y-117196890D01*
X105283175Y-117344099D01*
X105408359Y-117606920D01*
X105582412Y-117840269D01*
X105798645Y-118035178D01*
X105915523Y-118104799D01*
X105850986Y-118139294D01*
X105624866Y-118324866D01*
X105439294Y-118550986D01*
X105301401Y-118808966D01*
X105216487Y-119088889D01*
X105187815Y-119380000D01*
X105216487Y-119671111D01*
X105301401Y-119951034D01*
X105439294Y-120209014D01*
X105624866Y-120435134D01*
X105850986Y-120620706D01*
X105905791Y-120650000D01*
X105850986Y-120679294D01*
X105624866Y-120864866D01*
X105439294Y-121090986D01*
X105301401Y-121348966D01*
X105216487Y-121628889D01*
X105187815Y-121920000D01*
X105216487Y-122211111D01*
X105301401Y-122491034D01*
X105439294Y-122749014D01*
X105624866Y-122975134D01*
X105850986Y-123160706D01*
X105905791Y-123190000D01*
X105850986Y-123219294D01*
X105624866Y-123404866D01*
X105439294Y-123630986D01*
X105301401Y-123888966D01*
X105216487Y-124168889D01*
X105187815Y-124460000D01*
X105216487Y-124751111D01*
X105301401Y-125031034D01*
X105439294Y-125289014D01*
X105624866Y-125515134D01*
X105850986Y-125700706D01*
X106108966Y-125838599D01*
X106388889Y-125923513D01*
X106607050Y-125945000D01*
X106752950Y-125945000D01*
X106971111Y-125923513D01*
X107251034Y-125838599D01*
X107509014Y-125700706D01*
X107735134Y-125515134D01*
X107920706Y-125289014D01*
X107950000Y-125234209D01*
X107979294Y-125289014D01*
X108164866Y-125515134D01*
X108390986Y-125700706D01*
X108648966Y-125838599D01*
X108928889Y-125923513D01*
X109147050Y-125945000D01*
X109292950Y-125945000D01*
X109511111Y-125923513D01*
X109791034Y-125838599D01*
X110049014Y-125700706D01*
X110275134Y-125515134D01*
X110460706Y-125289014D01*
X110598599Y-125031034D01*
X110683513Y-124751111D01*
X110712185Y-124460000D01*
X110683513Y-124168889D01*
X110659583Y-124090000D01*
X134351928Y-124090000D01*
X134364188Y-124214482D01*
X134400498Y-124334180D01*
X134459463Y-124444494D01*
X134538815Y-124541185D01*
X134635506Y-124620537D01*
X134745820Y-124679502D01*
X134865518Y-124715812D01*
X134990000Y-124728072D01*
X135604250Y-124725000D01*
X135763000Y-124566250D01*
X135763000Y-123317000D01*
X136017000Y-123317000D01*
X136017000Y-124566250D01*
X136175750Y-124725000D01*
X136790000Y-124728072D01*
X136914482Y-124715812D01*
X137034180Y-124679502D01*
X137144494Y-124620537D01*
X137241185Y-124541185D01*
X137320537Y-124444494D01*
X137379502Y-124334180D01*
X137415812Y-124214482D01*
X137428072Y-124090000D01*
X139431928Y-124090000D01*
X139444188Y-124214482D01*
X139480498Y-124334180D01*
X139539463Y-124444494D01*
X139618815Y-124541185D01*
X139715506Y-124620537D01*
X139825820Y-124679502D01*
X139945518Y-124715812D01*
X140070000Y-124728072D01*
X140684250Y-124725000D01*
X140843000Y-124566250D01*
X140843000Y-123317000D01*
X141097000Y-123317000D01*
X141097000Y-124566250D01*
X141255750Y-124725000D01*
X141870000Y-124728072D01*
X141994482Y-124715812D01*
X142114180Y-124679502D01*
X142224494Y-124620537D01*
X142321185Y-124541185D01*
X142400537Y-124444494D01*
X142459502Y-124334180D01*
X142495812Y-124214482D01*
X142508072Y-124090000D01*
X142505000Y-123475750D01*
X142346250Y-123317000D01*
X141097000Y-123317000D01*
X140843000Y-123317000D01*
X139593750Y-123317000D01*
X139435000Y-123475750D01*
X139431928Y-124090000D01*
X137428072Y-124090000D01*
X137425000Y-123475750D01*
X137266250Y-123317000D01*
X136017000Y-123317000D01*
X135763000Y-123317000D01*
X134513750Y-123317000D01*
X134355000Y-123475750D01*
X134351928Y-124090000D01*
X110659583Y-124090000D01*
X110598599Y-123888966D01*
X110460706Y-123630986D01*
X110275134Y-123404866D01*
X110049014Y-123219294D01*
X109994209Y-123190000D01*
X110049014Y-123160706D01*
X110275134Y-122975134D01*
X110460706Y-122749014D01*
X110598599Y-122491034D01*
X110659582Y-122290000D01*
X134351928Y-122290000D01*
X134355000Y-122904250D01*
X134513750Y-123063000D01*
X135763000Y-123063000D01*
X135763000Y-123043000D01*
X136017000Y-123043000D01*
X136017000Y-123063000D01*
X137266250Y-123063000D01*
X137425000Y-122904250D01*
X137428072Y-122290000D01*
X139431928Y-122290000D01*
X139435000Y-122904250D01*
X139593750Y-123063000D01*
X140843000Y-123063000D01*
X140843000Y-123043000D01*
X141097000Y-123043000D01*
X141097000Y-123063000D01*
X142346250Y-123063000D01*
X142505000Y-122904250D01*
X142508072Y-122290000D01*
X142495812Y-122165518D01*
X142459502Y-122045820D01*
X142400537Y-121935506D01*
X142321185Y-121838815D01*
X142224494Y-121759463D01*
X142114180Y-121700498D01*
X142095873Y-121694944D01*
X142162312Y-121628505D01*
X142330299Y-121377095D01*
X142446011Y-121097743D01*
X142505000Y-120801184D01*
X142505000Y-120498816D01*
X142446011Y-120202257D01*
X142330299Y-119922905D01*
X142162312Y-119671495D01*
X141948505Y-119457688D01*
X141697095Y-119289701D01*
X141417743Y-119173989D01*
X141121184Y-119115000D01*
X140818816Y-119115000D01*
X140522257Y-119173989D01*
X140242905Y-119289701D01*
X139991495Y-119457688D01*
X139777688Y-119671495D01*
X139609701Y-119922905D01*
X139493989Y-120202257D01*
X139435000Y-120498816D01*
X139435000Y-120801184D01*
X139493989Y-121097743D01*
X139609701Y-121377095D01*
X139777688Y-121628505D01*
X139844127Y-121694944D01*
X139825820Y-121700498D01*
X139715506Y-121759463D01*
X139618815Y-121838815D01*
X139539463Y-121935506D01*
X139480498Y-122045820D01*
X139444188Y-122165518D01*
X139431928Y-122290000D01*
X137428072Y-122290000D01*
X137415812Y-122165518D01*
X137379502Y-122045820D01*
X137320537Y-121935506D01*
X137241185Y-121838815D01*
X137144494Y-121759463D01*
X137034180Y-121700498D01*
X137015873Y-121694944D01*
X137082312Y-121628505D01*
X137250299Y-121377095D01*
X137366011Y-121097743D01*
X137425000Y-120801184D01*
X137425000Y-120498816D01*
X137366011Y-120202257D01*
X137250299Y-119922905D01*
X137082312Y-119671495D01*
X136868505Y-119457688D01*
X136617095Y-119289701D01*
X136337743Y-119173989D01*
X136041184Y-119115000D01*
X135738816Y-119115000D01*
X135442257Y-119173989D01*
X135162905Y-119289701D01*
X134911495Y-119457688D01*
X134697688Y-119671495D01*
X134529701Y-119922905D01*
X134413989Y-120202257D01*
X134355000Y-120498816D01*
X134355000Y-120801184D01*
X134413989Y-121097743D01*
X134529701Y-121377095D01*
X134697688Y-121628505D01*
X134764127Y-121694944D01*
X134745820Y-121700498D01*
X134635506Y-121759463D01*
X134538815Y-121838815D01*
X134459463Y-121935506D01*
X134400498Y-122045820D01*
X134364188Y-122165518D01*
X134351928Y-122290000D01*
X110659582Y-122290000D01*
X110683513Y-122211111D01*
X110712185Y-121920000D01*
X110683513Y-121628889D01*
X110598599Y-121348966D01*
X110460706Y-121090986D01*
X110275134Y-120864866D01*
X110049014Y-120679294D01*
X109994209Y-120650000D01*
X110049014Y-120620706D01*
X110177313Y-120515413D01*
X122234192Y-120515413D01*
X122329956Y-120779814D01*
X122619571Y-120920704D01*
X122931108Y-121002384D01*
X123252595Y-121021718D01*
X123571675Y-120977961D01*
X123876088Y-120872795D01*
X124050044Y-120779814D01*
X124145808Y-120515413D01*
X123190000Y-119559605D01*
X122234192Y-120515413D01*
X110177313Y-120515413D01*
X110275134Y-120435134D01*
X110460706Y-120209014D01*
X110598599Y-119951034D01*
X110683513Y-119671111D01*
X110706019Y-119442595D01*
X121548282Y-119442595D01*
X121592039Y-119761675D01*
X121697205Y-120066088D01*
X121790186Y-120240044D01*
X122054587Y-120335808D01*
X123010395Y-119380000D01*
X123369605Y-119380000D01*
X124325413Y-120335808D01*
X124589814Y-120240044D01*
X124730704Y-119950429D01*
X124812384Y-119638892D01*
X124831718Y-119317405D01*
X124787961Y-118998325D01*
X124682795Y-118693912D01*
X124589814Y-118519956D01*
X124325413Y-118424192D01*
X123369605Y-119380000D01*
X123010395Y-119380000D01*
X122054587Y-118424192D01*
X121790186Y-118519956D01*
X121649296Y-118809571D01*
X121567616Y-119121108D01*
X121548282Y-119442595D01*
X110706019Y-119442595D01*
X110712185Y-119380000D01*
X110683513Y-119088889D01*
X110598599Y-118808966D01*
X110460706Y-118550986D01*
X110275134Y-118324866D01*
X110177314Y-118244587D01*
X122234192Y-118244587D01*
X123190000Y-119200395D01*
X124145808Y-118244587D01*
X124050044Y-117980186D01*
X123760429Y-117839296D01*
X123448892Y-117757616D01*
X123127405Y-117738282D01*
X122808325Y-117782039D01*
X122503912Y-117887205D01*
X122329956Y-117980186D01*
X122234192Y-118244587D01*
X110177314Y-118244587D01*
X110049014Y-118139294D01*
X109994209Y-118110000D01*
X110049014Y-118080706D01*
X110275134Y-117895134D01*
X110460706Y-117669014D01*
X110598599Y-117411034D01*
X110683513Y-117131111D01*
X110712185Y-116840000D01*
X134448057Y-116840000D01*
X134475764Y-117121309D01*
X134557818Y-117391808D01*
X134691068Y-117641101D01*
X134870392Y-117859608D01*
X135088899Y-118038932D01*
X135338192Y-118172182D01*
X135608691Y-118254236D01*
X135819508Y-118275000D01*
X135960492Y-118275000D01*
X136171309Y-118254236D01*
X136441808Y-118172182D01*
X136691101Y-118038932D01*
X136909608Y-117859608D01*
X137088932Y-117641101D01*
X137222182Y-117391808D01*
X137304236Y-117121309D01*
X137331943Y-116840000D01*
X139528057Y-116840000D01*
X139555764Y-117121309D01*
X139637818Y-117391808D01*
X139771068Y-117641101D01*
X139950392Y-117859608D01*
X140168899Y-118038932D01*
X140418192Y-118172182D01*
X140688691Y-118254236D01*
X140899508Y-118275000D01*
X141040492Y-118275000D01*
X141251309Y-118254236D01*
X141521808Y-118172182D01*
X141771101Y-118038932D01*
X141989608Y-117859608D01*
X142168932Y-117641101D01*
X142302182Y-117391808D01*
X142384236Y-117121309D01*
X142411943Y-116840000D01*
X142384236Y-116558691D01*
X142302182Y-116288192D01*
X142168932Y-116038899D01*
X141989608Y-115820392D01*
X141771101Y-115641068D01*
X141521808Y-115507818D01*
X141251309Y-115425764D01*
X141040492Y-115405000D01*
X140899508Y-115405000D01*
X140688691Y-115425764D01*
X140418192Y-115507818D01*
X140168899Y-115641068D01*
X139950392Y-115820392D01*
X139771068Y-116038899D01*
X139637818Y-116288192D01*
X139555764Y-116558691D01*
X139528057Y-116840000D01*
X137331943Y-116840000D01*
X137304236Y-116558691D01*
X137222182Y-116288192D01*
X137088932Y-116038899D01*
X136909608Y-115820392D01*
X136691101Y-115641068D01*
X136441808Y-115507818D01*
X136171309Y-115425764D01*
X135960492Y-115405000D01*
X135819508Y-115405000D01*
X135608691Y-115425764D01*
X135338192Y-115507818D01*
X135088899Y-115641068D01*
X134870392Y-115820392D01*
X134691068Y-116038899D01*
X134557818Y-116288192D01*
X134475764Y-116558691D01*
X134448057Y-116840000D01*
X110712185Y-116840000D01*
X110683513Y-116548889D01*
X110598599Y-116268966D01*
X110460706Y-116010986D01*
X110275134Y-115784866D01*
X110049014Y-115599294D01*
X109994209Y-115570000D01*
X110049014Y-115540706D01*
X110275134Y-115355134D01*
X110460706Y-115129014D01*
X110497595Y-115060000D01*
X112635638Y-115060000D01*
X112678502Y-115140192D01*
X112732958Y-115221691D01*
X112812310Y-115318382D01*
X112881618Y-115387690D01*
X112978309Y-115467042D01*
X113059808Y-115521498D01*
X113170125Y-115580464D01*
X113260681Y-115617973D01*
X113380377Y-115654282D01*
X113476510Y-115673404D01*
X113600991Y-115685664D01*
X113625550Y-115685664D01*
X113650000Y-115688072D01*
X114150000Y-115688072D01*
X114274482Y-115675812D01*
X114300000Y-115668071D01*
X114325518Y-115675812D01*
X114450000Y-115688072D01*
X114950000Y-115688072D01*
X114974450Y-115685664D01*
X114999009Y-115685664D01*
X115123490Y-115673404D01*
X115219623Y-115654282D01*
X115339319Y-115617973D01*
X115429875Y-115580464D01*
X115540192Y-115521498D01*
X115621691Y-115467042D01*
X115718382Y-115387690D01*
X115787690Y-115318382D01*
X115867042Y-115221691D01*
X115921498Y-115140192D01*
X115980464Y-115029875D01*
X116017973Y-114939319D01*
X116027583Y-114907640D01*
X116110001Y-114840001D01*
X116133804Y-114810997D01*
X117618625Y-113326177D01*
X117633088Y-113332168D01*
X117948967Y-113395000D01*
X118271033Y-113395000D01*
X118586912Y-113332168D01*
X118884463Y-113208918D01*
X119152252Y-113029987D01*
X119379987Y-112802252D01*
X119558918Y-112534463D01*
X119682168Y-112236912D01*
X119745000Y-111921033D01*
X119745000Y-111598967D01*
X119682168Y-111283088D01*
X119558918Y-110985537D01*
X119379987Y-110717748D01*
X119152252Y-110490013D01*
X118884463Y-110311082D01*
X118586912Y-110187832D01*
X118271033Y-110125000D01*
X117948967Y-110125000D01*
X117633088Y-110187832D01*
X117335537Y-110311082D01*
X117067748Y-110490013D01*
X116840013Y-110717748D01*
X116661082Y-110985537D01*
X116537832Y-111283088D01*
X116475000Y-111598967D01*
X116475000Y-111921033D01*
X116537832Y-112236912D01*
X116543823Y-112251375D01*
X115643963Y-113151236D01*
X115621691Y-113132958D01*
X115540192Y-113078502D01*
X115429875Y-113019536D01*
X115339319Y-112982027D01*
X115219623Y-112945718D01*
X115123490Y-112926596D01*
X114999009Y-112914336D01*
X114974450Y-112914336D01*
X114950000Y-112911928D01*
X114450000Y-112911928D01*
X114325518Y-112924188D01*
X114300000Y-112931929D01*
X114274482Y-112924188D01*
X114150000Y-112911928D01*
X113650000Y-112911928D01*
X113625550Y-112914336D01*
X113600991Y-112914336D01*
X113476510Y-112926596D01*
X113380377Y-112945718D01*
X113260681Y-112982027D01*
X113170125Y-113019536D01*
X113059808Y-113078502D01*
X112978309Y-113132958D01*
X112881618Y-113212310D01*
X112812310Y-113281618D01*
X112732958Y-113378309D01*
X112678502Y-113459808D01*
X112635638Y-113540000D01*
X110497595Y-113540000D01*
X110460706Y-113470986D01*
X110275134Y-113244866D01*
X110049014Y-113059294D01*
X109994209Y-113030000D01*
X110049014Y-113000706D01*
X110275134Y-112815134D01*
X110460706Y-112589014D01*
X110598599Y-112331034D01*
X110683513Y-112051111D01*
X110712185Y-111760000D01*
X110683513Y-111468889D01*
X110598599Y-111188966D01*
X110460706Y-110930986D01*
X110275134Y-110704866D01*
X110049014Y-110519294D01*
X109994209Y-110490000D01*
X110049014Y-110460706D01*
X110275134Y-110275134D01*
X110460706Y-110049014D01*
X110598599Y-109791034D01*
X110683513Y-109511111D01*
X110712185Y-109220000D01*
X110683513Y-108928889D01*
X110598599Y-108648966D01*
X110460706Y-108390986D01*
X110275134Y-108164866D01*
X110049014Y-107979294D01*
X109994209Y-107950000D01*
X110049014Y-107920706D01*
X110275134Y-107735134D01*
X110460706Y-107509014D01*
X110598599Y-107251034D01*
X110683513Y-106971111D01*
X110712185Y-106680000D01*
X110683513Y-106388889D01*
X110598599Y-106108966D01*
X110460706Y-105850986D01*
X110275134Y-105624866D01*
X110049014Y-105439294D01*
X109994209Y-105410000D01*
X110049014Y-105380706D01*
X110275134Y-105195134D01*
X110460706Y-104969014D01*
X110598599Y-104711034D01*
X110683513Y-104431111D01*
X110712185Y-104140000D01*
X110683513Y-103848889D01*
X110598599Y-103568966D01*
X110460706Y-103310986D01*
X110275134Y-103084866D01*
X110049014Y-102899294D01*
X109984477Y-102864799D01*
X110101355Y-102795178D01*
X110317588Y-102600269D01*
X110491641Y-102366920D01*
X110616825Y-102104099D01*
X110661476Y-101956890D01*
X110540155Y-101727000D01*
X109347000Y-101727000D01*
X109347000Y-101747000D01*
X109093000Y-101747000D01*
X109093000Y-101727000D01*
X109073000Y-101727000D01*
X109073000Y-101473000D01*
X109093000Y-101473000D01*
X109093000Y-101453000D01*
X109347000Y-101453000D01*
X109347000Y-101473000D01*
X110540155Y-101473000D01*
X110661476Y-101243110D01*
X110616825Y-101095901D01*
X110491641Y-100833080D01*
X110317588Y-100599731D01*
X110101355Y-100404822D01*
X109984477Y-100335201D01*
X110049014Y-100300706D01*
X110275134Y-100115134D01*
X110460706Y-99889014D01*
X110598599Y-99631034D01*
X110683513Y-99351111D01*
X110712185Y-99060000D01*
X110683513Y-98768889D01*
X110598599Y-98488966D01*
X110460706Y-98230986D01*
X110275134Y-98004866D01*
X110049014Y-97819294D01*
X109994209Y-97790000D01*
X110049014Y-97760706D01*
X110275134Y-97575134D01*
X110460706Y-97349014D01*
X110598599Y-97091034D01*
X110683513Y-96811111D01*
X110712185Y-96520000D01*
X110683513Y-96228889D01*
X110598599Y-95948966D01*
X110460706Y-95690986D01*
X110275134Y-95464866D01*
X110049014Y-95279294D01*
X109994209Y-95250000D01*
X110049014Y-95220706D01*
X110275134Y-95035134D01*
X110460706Y-94809014D01*
X110598599Y-94551034D01*
X110683513Y-94271111D01*
X110712185Y-93980000D01*
X110683513Y-93688889D01*
X110598599Y-93408966D01*
X110460706Y-93150986D01*
X110275134Y-92924866D01*
X110049014Y-92739294D01*
X109994209Y-92710000D01*
X110049014Y-92680706D01*
X110275134Y-92495134D01*
X110460706Y-92269014D01*
X110598599Y-92011034D01*
X110683513Y-91731111D01*
X110712185Y-91440000D01*
X110683513Y-91148889D01*
X110598599Y-90868966D01*
X110460706Y-90610986D01*
X110275134Y-90384866D01*
X110049014Y-90199294D01*
X109994209Y-90170000D01*
X110049014Y-90140706D01*
X110275134Y-89955134D01*
X110460706Y-89729014D01*
X110598599Y-89471034D01*
X110683513Y-89191111D01*
X110712185Y-88900000D01*
X110683513Y-88608889D01*
X110598599Y-88328966D01*
X110460706Y-88070986D01*
X110275134Y-87844866D01*
X110049014Y-87659294D01*
X109791034Y-87521401D01*
X109511111Y-87436487D01*
X109292950Y-87415000D01*
X109147050Y-87415000D01*
X108928889Y-87436487D01*
X108648966Y-87521401D01*
X108390986Y-87659294D01*
X108164866Y-87844866D01*
X108140393Y-87874687D01*
X108119502Y-87805820D01*
X108060537Y-87695506D01*
X107981185Y-87598815D01*
X107884494Y-87519463D01*
X107774180Y-87460498D01*
X107654482Y-87424188D01*
X107530000Y-87411928D01*
X105830000Y-87411928D01*
X105705518Y-87424188D01*
X105585820Y-87460498D01*
X105475506Y-87519463D01*
X105378815Y-87598815D01*
X105299463Y-87695506D01*
X105240498Y-87805820D01*
X105204188Y-87925518D01*
X105191928Y-88050000D01*
X105191928Y-89750000D01*
X105204188Y-89874482D01*
X105240498Y-89994180D01*
X105299463Y-90104494D01*
X105378815Y-90201185D01*
X105475506Y-90280537D01*
X105585820Y-90339502D01*
X105654687Y-90360393D01*
X105624866Y-90384866D01*
X105439294Y-90610986D01*
X105301401Y-90868966D01*
X105216487Y-91148889D01*
X105187815Y-91440000D01*
X104902000Y-91440000D01*
X104902000Y-79096890D01*
X105238524Y-79096890D01*
X105283175Y-79244099D01*
X105408359Y-79506920D01*
X105582412Y-79740269D01*
X105798645Y-79935178D01*
X105924255Y-80010000D01*
X105798645Y-80084822D01*
X105582412Y-80279731D01*
X105408359Y-80513080D01*
X105283175Y-80775901D01*
X105238524Y-80923110D01*
X105359845Y-81153000D01*
X106553000Y-81153000D01*
X106553000Y-78867000D01*
X105359845Y-78867000D01*
X105238524Y-79096890D01*
X104902000Y-79096890D01*
X104902000Y-68580000D01*
X105187815Y-68580000D01*
X105216487Y-68871111D01*
X105301401Y-69151034D01*
X105439294Y-69409014D01*
X105624866Y-69635134D01*
X105850986Y-69820706D01*
X105905791Y-69850000D01*
X105850986Y-69879294D01*
X105624866Y-70064866D01*
X105439294Y-70290986D01*
X105301401Y-70548966D01*
X105216487Y-70828889D01*
X105187815Y-71120000D01*
X105216487Y-71411111D01*
X105301401Y-71691034D01*
X105439294Y-71949014D01*
X105624866Y-72175134D01*
X105850986Y-72360706D01*
X105905791Y-72390000D01*
X105850986Y-72419294D01*
X105624866Y-72604866D01*
X105439294Y-72830986D01*
X105301401Y-73088966D01*
X105216487Y-73368889D01*
X105187815Y-73660000D01*
X105216487Y-73951111D01*
X105301401Y-74231034D01*
X105439294Y-74489014D01*
X105624866Y-74715134D01*
X105850986Y-74900706D01*
X105905791Y-74930000D01*
X105850986Y-74959294D01*
X105624866Y-75144866D01*
X105439294Y-75370986D01*
X105301401Y-75628966D01*
X105216487Y-75908889D01*
X105187815Y-76200000D01*
X105216487Y-76491111D01*
X105301401Y-76771034D01*
X105439294Y-77029014D01*
X105624866Y-77255134D01*
X105850986Y-77440706D01*
X105915523Y-77475201D01*
X105798645Y-77544822D01*
X105582412Y-77739731D01*
X105408359Y-77973080D01*
X105283175Y-78235901D01*
X105238524Y-78383110D01*
X105359845Y-78613000D01*
X106553000Y-78613000D01*
X106553000Y-78593000D01*
X106807000Y-78593000D01*
X106807000Y-78613000D01*
X106827000Y-78613000D01*
X106827000Y-78867000D01*
X106807000Y-78867000D01*
X106807000Y-81153000D01*
X106827000Y-81153000D01*
X106827000Y-81407000D01*
X106807000Y-81407000D01*
X106807000Y-81427000D01*
X106553000Y-81427000D01*
X106553000Y-81407000D01*
X105359845Y-81407000D01*
X105238524Y-81636890D01*
X105283175Y-81784099D01*
X105408359Y-82046920D01*
X105582412Y-82280269D01*
X105798645Y-82475178D01*
X105915523Y-82544799D01*
X105850986Y-82579294D01*
X105624866Y-82764866D01*
X105439294Y-82990986D01*
X105301401Y-83248966D01*
X105216487Y-83528889D01*
X105187815Y-83820000D01*
X105216487Y-84111111D01*
X105301401Y-84391034D01*
X105439294Y-84649014D01*
X105624866Y-84875134D01*
X105850986Y-85060706D01*
X106108966Y-85198599D01*
X106388889Y-85283513D01*
X106607050Y-85305000D01*
X106752950Y-85305000D01*
X106971111Y-85283513D01*
X107251034Y-85198599D01*
X107509014Y-85060706D01*
X107735134Y-84875134D01*
X107920706Y-84649014D01*
X107950000Y-84594209D01*
X107979294Y-84649014D01*
X108164866Y-84875134D01*
X108390986Y-85060706D01*
X108648966Y-85198599D01*
X108928889Y-85283513D01*
X109147050Y-85305000D01*
X109292950Y-85305000D01*
X109511111Y-85283513D01*
X109791034Y-85198599D01*
X110049014Y-85060706D01*
X110275134Y-84875134D01*
X110460706Y-84649014D01*
X110598599Y-84391034D01*
X110683513Y-84111111D01*
X110712185Y-83820000D01*
X110683513Y-83528889D01*
X110598599Y-83248966D01*
X110460706Y-82990986D01*
X110275134Y-82764866D01*
X110049014Y-82579294D01*
X109994209Y-82550000D01*
X110049014Y-82520706D01*
X110275134Y-82335134D01*
X110460706Y-82109014D01*
X110598599Y-81851034D01*
X110683513Y-81571111D01*
X110712185Y-81280000D01*
X110683513Y-80988889D01*
X110598599Y-80708966D01*
X110460706Y-80450986D01*
X110275134Y-80224866D01*
X110049014Y-80039294D01*
X109994209Y-80010000D01*
X110049014Y-79980706D01*
X110275134Y-79795134D01*
X110460706Y-79569014D01*
X110598599Y-79311034D01*
X110683513Y-79031111D01*
X110712185Y-78740000D01*
X110698634Y-78602408D01*
X116713000Y-78602408D01*
X116713000Y-78877592D01*
X116766686Y-79147490D01*
X116871995Y-79401727D01*
X117024880Y-79630535D01*
X117219465Y-79825120D01*
X117448273Y-79978005D01*
X117525515Y-80010000D01*
X117448273Y-80041995D01*
X117219465Y-80194880D01*
X117024880Y-80389465D01*
X116871995Y-80618273D01*
X116766686Y-80872510D01*
X116713000Y-81142408D01*
X116713000Y-81417592D01*
X116766686Y-81687490D01*
X116871995Y-81941727D01*
X117024880Y-82170535D01*
X117219465Y-82365120D01*
X117448273Y-82518005D01*
X117525515Y-82550000D01*
X117448273Y-82581995D01*
X117219465Y-82734880D01*
X117024880Y-82929465D01*
X116871995Y-83158273D01*
X116766686Y-83412510D01*
X116713000Y-83682408D01*
X116713000Y-83957592D01*
X116766686Y-84227490D01*
X116871995Y-84481727D01*
X117024880Y-84710535D01*
X117219465Y-84905120D01*
X117448273Y-85058005D01*
X117525515Y-85090000D01*
X117448273Y-85121995D01*
X117219465Y-85274880D01*
X117024880Y-85469465D01*
X116871995Y-85698273D01*
X116766686Y-85952510D01*
X116713000Y-86222408D01*
X116713000Y-86497592D01*
X116766686Y-86767490D01*
X116871995Y-87021727D01*
X117024880Y-87250535D01*
X117219465Y-87445120D01*
X117448273Y-87598005D01*
X117525515Y-87630000D01*
X117448273Y-87661995D01*
X117219465Y-87814880D01*
X117024880Y-88009465D01*
X116871995Y-88238273D01*
X116766686Y-88492510D01*
X116713000Y-88762408D01*
X116713000Y-89037592D01*
X116766686Y-89307490D01*
X116871995Y-89561727D01*
X117024880Y-89790535D01*
X117219465Y-89985120D01*
X117448273Y-90138005D01*
X117702510Y-90243314D01*
X117972408Y-90297000D01*
X118247592Y-90297000D01*
X118517490Y-90243314D01*
X118771727Y-90138005D01*
X119000535Y-89985120D01*
X119195120Y-89790535D01*
X119348005Y-89561727D01*
X119453314Y-89307490D01*
X119507000Y-89037592D01*
X119507000Y-88762408D01*
X139573000Y-88762408D01*
X139573000Y-89037592D01*
X139626686Y-89307490D01*
X139731995Y-89561727D01*
X139884880Y-89790535D01*
X140079465Y-89985120D01*
X140308273Y-90138005D01*
X140562510Y-90243314D01*
X140832408Y-90297000D01*
X141107592Y-90297000D01*
X141377490Y-90243314D01*
X141631727Y-90138005D01*
X141860535Y-89985120D01*
X142055120Y-89790535D01*
X142208005Y-89561727D01*
X142313314Y-89307490D01*
X142367000Y-89037592D01*
X142367000Y-88762408D01*
X142313314Y-88492510D01*
X142208005Y-88238273D01*
X142055120Y-88009465D01*
X141860535Y-87814880D01*
X141631727Y-87661995D01*
X141560057Y-87632308D01*
X141573023Y-87627636D01*
X141688980Y-87565656D01*
X141755960Y-87325565D01*
X140970000Y-86539605D01*
X140184040Y-87325565D01*
X140251020Y-87565656D01*
X140386760Y-87629485D01*
X140308273Y-87661995D01*
X140079465Y-87814880D01*
X139884880Y-88009465D01*
X139731995Y-88238273D01*
X139626686Y-88492510D01*
X139573000Y-88762408D01*
X119507000Y-88762408D01*
X119453314Y-88492510D01*
X119348005Y-88238273D01*
X119195120Y-88009465D01*
X119000535Y-87814880D01*
X118771727Y-87661995D01*
X118694485Y-87630000D01*
X118771727Y-87598005D01*
X119000535Y-87445120D01*
X119195120Y-87250535D01*
X119348005Y-87021727D01*
X119453314Y-86767490D01*
X119507000Y-86497592D01*
X119507000Y-86432017D01*
X139568090Y-86432017D01*
X139609078Y-86704133D01*
X139702364Y-86963023D01*
X139764344Y-87078980D01*
X140004435Y-87145960D01*
X140790395Y-86360000D01*
X141149605Y-86360000D01*
X141935565Y-87145960D01*
X142175656Y-87078980D01*
X142292756Y-86829952D01*
X142359023Y-86562865D01*
X142371910Y-86287983D01*
X142330922Y-86015867D01*
X142237636Y-85756977D01*
X142175656Y-85641020D01*
X141935565Y-85574040D01*
X141149605Y-86360000D01*
X140790395Y-86360000D01*
X140004435Y-85574040D01*
X139764344Y-85641020D01*
X139647244Y-85890048D01*
X139580977Y-86157135D01*
X139568090Y-86432017D01*
X119507000Y-86432017D01*
X119507000Y-86222408D01*
X119453314Y-85952510D01*
X119348005Y-85698273D01*
X119195120Y-85469465D01*
X119000535Y-85274880D01*
X118771727Y-85121995D01*
X118694485Y-85090000D01*
X118771727Y-85058005D01*
X119000535Y-84905120D01*
X119195120Y-84710535D01*
X119348005Y-84481727D01*
X119453314Y-84227490D01*
X119507000Y-83957592D01*
X119507000Y-83682408D01*
X119453314Y-83412510D01*
X119348005Y-83158273D01*
X119195120Y-82929465D01*
X119000535Y-82734880D01*
X118771727Y-82581995D01*
X118694485Y-82550000D01*
X118771727Y-82518005D01*
X119000535Y-82365120D01*
X119195120Y-82170535D01*
X119348005Y-81941727D01*
X119453314Y-81687490D01*
X119507000Y-81417592D01*
X119507000Y-81142408D01*
X119453314Y-80872510D01*
X119348005Y-80618273D01*
X119195120Y-80389465D01*
X119000535Y-80194880D01*
X118771727Y-80041995D01*
X118694485Y-80010000D01*
X118771727Y-79978005D01*
X119000535Y-79825120D01*
X119195120Y-79630535D01*
X119348005Y-79401727D01*
X119453314Y-79147490D01*
X119507000Y-78877592D01*
X119507000Y-78602408D01*
X119453314Y-78332510D01*
X119348005Y-78078273D01*
X119195120Y-77849465D01*
X119000535Y-77654880D01*
X118771727Y-77501995D01*
X118517490Y-77396686D01*
X118247592Y-77343000D01*
X117972408Y-77343000D01*
X117702510Y-77396686D01*
X117448273Y-77501995D01*
X117219465Y-77654880D01*
X117024880Y-77849465D01*
X116871995Y-78078273D01*
X116766686Y-78332510D01*
X116713000Y-78602408D01*
X110698634Y-78602408D01*
X110683513Y-78448889D01*
X110598599Y-78168966D01*
X110460706Y-77910986D01*
X110275134Y-77684866D01*
X110049014Y-77499294D01*
X109994209Y-77470000D01*
X110049014Y-77440706D01*
X110275134Y-77255134D01*
X110460706Y-77029014D01*
X110598599Y-76771034D01*
X110683513Y-76491111D01*
X110712185Y-76200000D01*
X110698634Y-76062408D01*
X139573000Y-76062408D01*
X139573000Y-76337592D01*
X139626686Y-76607490D01*
X139731995Y-76861727D01*
X139884880Y-77090535D01*
X140079465Y-77285120D01*
X140308273Y-77438005D01*
X140385515Y-77470000D01*
X140308273Y-77501995D01*
X140079465Y-77654880D01*
X139884880Y-77849465D01*
X139731995Y-78078273D01*
X139626686Y-78332510D01*
X139573000Y-78602408D01*
X139573000Y-78877592D01*
X139626686Y-79147490D01*
X139731995Y-79401727D01*
X139884880Y-79630535D01*
X140079465Y-79825120D01*
X140308273Y-79978005D01*
X140385515Y-80010000D01*
X140308273Y-80041995D01*
X140079465Y-80194880D01*
X139884880Y-80389465D01*
X139731995Y-80618273D01*
X139626686Y-80872510D01*
X139573000Y-81142408D01*
X139573000Y-81417592D01*
X139626686Y-81687490D01*
X139731995Y-81941727D01*
X139884880Y-82170535D01*
X140079465Y-82365120D01*
X140308273Y-82518005D01*
X140385515Y-82550000D01*
X140308273Y-82581995D01*
X140079465Y-82734880D01*
X139884880Y-82929465D01*
X139731995Y-83158273D01*
X139626686Y-83412510D01*
X139573000Y-83682408D01*
X139573000Y-83957592D01*
X139626686Y-84227490D01*
X139731995Y-84481727D01*
X139884880Y-84710535D01*
X140079465Y-84905120D01*
X140308273Y-85058005D01*
X140379943Y-85087692D01*
X140366977Y-85092364D01*
X140251020Y-85154344D01*
X140184040Y-85394435D01*
X140970000Y-86180395D01*
X141755960Y-85394435D01*
X141688980Y-85154344D01*
X141553240Y-85090515D01*
X141631727Y-85058005D01*
X141860535Y-84905120D01*
X142055120Y-84710535D01*
X142208005Y-84481727D01*
X142313314Y-84227490D01*
X142367000Y-83957592D01*
X142367000Y-83682408D01*
X142313314Y-83412510D01*
X142208005Y-83158273D01*
X142055120Y-82929465D01*
X141860535Y-82734880D01*
X141631727Y-82581995D01*
X141554485Y-82550000D01*
X141631727Y-82518005D01*
X141860535Y-82365120D01*
X142055120Y-82170535D01*
X142208005Y-81941727D01*
X142313314Y-81687490D01*
X142367000Y-81417592D01*
X142367000Y-81142408D01*
X142313314Y-80872510D01*
X142208005Y-80618273D01*
X142055120Y-80389465D01*
X141860535Y-80194880D01*
X141631727Y-80041995D01*
X141554485Y-80010000D01*
X141631727Y-79978005D01*
X141860535Y-79825120D01*
X142055120Y-79630535D01*
X142208005Y-79401727D01*
X142313314Y-79147490D01*
X142367000Y-78877592D01*
X142367000Y-78602408D01*
X142313314Y-78332510D01*
X142208005Y-78078273D01*
X142055120Y-77849465D01*
X141860535Y-77654880D01*
X141631727Y-77501995D01*
X141554485Y-77470000D01*
X141631727Y-77438005D01*
X141860535Y-77285120D01*
X142055120Y-77090535D01*
X142208005Y-76861727D01*
X142313314Y-76607490D01*
X142367000Y-76337592D01*
X142367000Y-76062408D01*
X142313314Y-75792510D01*
X142208005Y-75538273D01*
X142055120Y-75309465D01*
X141860535Y-75114880D01*
X141631727Y-74961995D01*
X141560057Y-74932308D01*
X141573023Y-74927636D01*
X141688980Y-74865656D01*
X141755960Y-74625565D01*
X140970000Y-73839605D01*
X140184040Y-74625565D01*
X140251020Y-74865656D01*
X140386760Y-74929485D01*
X140308273Y-74961995D01*
X140079465Y-75114880D01*
X139884880Y-75309465D01*
X139731995Y-75538273D01*
X139626686Y-75792510D01*
X139573000Y-76062408D01*
X110698634Y-76062408D01*
X110683513Y-75908889D01*
X110598599Y-75628966D01*
X110460706Y-75370986D01*
X110275134Y-75144866D01*
X110049014Y-74959294D01*
X109994209Y-74930000D01*
X110049014Y-74900706D01*
X110275134Y-74715134D01*
X110460706Y-74489014D01*
X110598599Y-74231034D01*
X110683513Y-73951111D01*
X110705091Y-73732017D01*
X139568090Y-73732017D01*
X139609078Y-74004133D01*
X139702364Y-74263023D01*
X139764344Y-74378980D01*
X140004435Y-74445960D01*
X140790395Y-73660000D01*
X141149605Y-73660000D01*
X141935565Y-74445960D01*
X142175656Y-74378980D01*
X142292756Y-74129952D01*
X142359023Y-73862865D01*
X142371910Y-73587983D01*
X142330922Y-73315867D01*
X142237636Y-73056977D01*
X142175656Y-72941020D01*
X141935565Y-72874040D01*
X141149605Y-73660000D01*
X140790395Y-73660000D01*
X140004435Y-72874040D01*
X139764344Y-72941020D01*
X139647244Y-73190048D01*
X139580977Y-73457135D01*
X139568090Y-73732017D01*
X110705091Y-73732017D01*
X110712185Y-73660000D01*
X110683513Y-73368889D01*
X110598599Y-73088966D01*
X110460706Y-72830986D01*
X110275134Y-72604866D01*
X110049014Y-72419294D01*
X109994209Y-72390000D01*
X110049014Y-72360706D01*
X110275134Y-72175134D01*
X110460706Y-71949014D01*
X110598599Y-71691034D01*
X110683513Y-71411111D01*
X110712185Y-71120000D01*
X110683513Y-70828889D01*
X110598599Y-70548966D01*
X110460706Y-70290986D01*
X110275134Y-70064866D01*
X110049014Y-69879294D01*
X109994209Y-69850000D01*
X110049014Y-69820706D01*
X110275134Y-69635134D01*
X110460706Y-69409014D01*
X110598599Y-69151034D01*
X110683513Y-68871111D01*
X110712185Y-68580000D01*
X110683513Y-68288889D01*
X110598599Y-68008966D01*
X110460706Y-67750986D01*
X110275134Y-67524866D01*
X110049014Y-67339294D01*
X109994209Y-67310000D01*
X110049014Y-67280706D01*
X110275134Y-67095134D01*
X110460706Y-66869014D01*
X110598599Y-66611034D01*
X110683513Y-66331111D01*
X110712185Y-66040000D01*
X110683513Y-65748889D01*
X110598599Y-65468966D01*
X110460706Y-65210986D01*
X110275134Y-64984866D01*
X110049014Y-64799294D01*
X109791034Y-64661401D01*
X109511111Y-64576487D01*
X109292950Y-64555000D01*
X109147050Y-64555000D01*
X108928889Y-64576487D01*
X108648966Y-64661401D01*
X108390986Y-64799294D01*
X108164866Y-64984866D01*
X108140393Y-65014687D01*
X108119502Y-64945820D01*
X108060537Y-64835506D01*
X107981185Y-64738815D01*
X107884494Y-64659463D01*
X107774180Y-64600498D01*
X107654482Y-64564188D01*
X107530000Y-64551928D01*
X105830000Y-64551928D01*
X105705518Y-64564188D01*
X105585820Y-64600498D01*
X105475506Y-64659463D01*
X105378815Y-64738815D01*
X105299463Y-64835506D01*
X105240498Y-64945820D01*
X105204188Y-65065518D01*
X105191928Y-65190000D01*
X105191928Y-66890000D01*
X105204188Y-67014482D01*
X105240498Y-67134180D01*
X105299463Y-67244494D01*
X105378815Y-67341185D01*
X105475506Y-67420537D01*
X105585820Y-67479502D01*
X105654687Y-67500393D01*
X105624866Y-67524866D01*
X105439294Y-67750986D01*
X105301401Y-68008966D01*
X105216487Y-68288889D01*
X105187815Y-68580000D01*
X104902000Y-68580000D01*
X104902000Y-55952017D01*
X139568090Y-55952017D01*
X139609078Y-56224133D01*
X139702364Y-56483023D01*
X139764344Y-56598980D01*
X140004435Y-56665960D01*
X140790395Y-55880000D01*
X141149605Y-55880000D01*
X141935565Y-56665960D01*
X142175656Y-56598980D01*
X142292756Y-56349952D01*
X142359023Y-56082865D01*
X142371910Y-55807983D01*
X142330922Y-55535867D01*
X142237636Y-55276977D01*
X142175656Y-55161020D01*
X141935565Y-55094040D01*
X141149605Y-55880000D01*
X140790395Y-55880000D01*
X140004435Y-55094040D01*
X139764344Y-55161020D01*
X139647244Y-55410048D01*
X139580977Y-55677135D01*
X139568090Y-55952017D01*
X104902000Y-55952017D01*
X104902000Y-54914435D01*
X140184040Y-54914435D01*
X140970000Y-55700395D01*
X141755960Y-54914435D01*
X141688980Y-54674344D01*
X141439952Y-54557244D01*
X141172865Y-54490977D01*
X140897983Y-54478090D01*
X140625867Y-54519078D01*
X140366977Y-54612364D01*
X140251020Y-54674344D01*
X140184040Y-54914435D01*
X104902000Y-54914435D01*
X104902000Y-50800000D01*
X134448057Y-50800000D01*
X134475764Y-51081309D01*
X134557818Y-51351808D01*
X134691068Y-51601101D01*
X134870392Y-51819608D01*
X135088899Y-51998932D01*
X135338192Y-52132182D01*
X135608691Y-52214236D01*
X135819508Y-52235000D01*
X135960492Y-52235000D01*
X136171309Y-52214236D01*
X136441808Y-52132182D01*
X136691101Y-51998932D01*
X136909608Y-51819608D01*
X137088932Y-51601101D01*
X137222182Y-51351808D01*
X137304236Y-51081309D01*
X137331943Y-50800000D01*
X139528057Y-50800000D01*
X139555764Y-51081309D01*
X139637818Y-51351808D01*
X139771068Y-51601101D01*
X139950392Y-51819608D01*
X140168899Y-51998932D01*
X140418192Y-52132182D01*
X140688691Y-52214236D01*
X140899508Y-52235000D01*
X141040492Y-52235000D01*
X141251309Y-52214236D01*
X141521808Y-52132182D01*
X141771101Y-51998932D01*
X141989608Y-51819608D01*
X142168932Y-51601101D01*
X142302182Y-51351808D01*
X142384236Y-51081309D01*
X142411943Y-50800000D01*
X142384236Y-50518691D01*
X142302182Y-50248192D01*
X142168932Y-49998899D01*
X141989608Y-49780392D01*
X141771101Y-49601068D01*
X141521808Y-49467818D01*
X141251309Y-49385764D01*
X141040492Y-49365000D01*
X140899508Y-49365000D01*
X140688691Y-49385764D01*
X140418192Y-49467818D01*
X140168899Y-49601068D01*
X139950392Y-49780392D01*
X139771068Y-49998899D01*
X139637818Y-50248192D01*
X139555764Y-50518691D01*
X139528057Y-50800000D01*
X137331943Y-50800000D01*
X137304236Y-50518691D01*
X137222182Y-50248192D01*
X137088932Y-49998899D01*
X136909608Y-49780392D01*
X136691101Y-49601068D01*
X136441808Y-49467818D01*
X136171309Y-49385764D01*
X135960492Y-49365000D01*
X135819508Y-49365000D01*
X135608691Y-49385764D01*
X135338192Y-49467818D01*
X135088899Y-49601068D01*
X134870392Y-49780392D01*
X134691068Y-49998899D01*
X134557818Y-50248192D01*
X134475764Y-50518691D01*
X134448057Y-50800000D01*
X104902000Y-50800000D01*
X104902000Y-48616890D01*
X150958524Y-48616890D01*
X151003175Y-48764099D01*
X151128359Y-49026920D01*
X151302412Y-49260269D01*
X151518645Y-49455178D01*
X151768748Y-49604157D01*
X152043109Y-49701481D01*
X152273000Y-49580814D01*
X152273000Y-48387000D01*
X151079845Y-48387000D01*
X150958524Y-48616890D01*
X104902000Y-48616890D01*
X104902000Y-40498665D01*
X134455000Y-40498665D01*
X134455000Y-40781335D01*
X134510147Y-41058574D01*
X134618320Y-41319727D01*
X134775363Y-41554759D01*
X134975241Y-41754637D01*
X135210273Y-41911680D01*
X135471426Y-42019853D01*
X135748665Y-42075000D01*
X136031335Y-42075000D01*
X136308574Y-42019853D01*
X136569727Y-41911680D01*
X136804759Y-41754637D01*
X137004637Y-41554759D01*
X137161680Y-41319727D01*
X137269853Y-41058574D01*
X137325000Y-40781335D01*
X137325000Y-40498665D01*
X139535000Y-40498665D01*
X139535000Y-40781335D01*
X139590147Y-41058574D01*
X139698320Y-41319727D01*
X139855363Y-41554759D01*
X140055241Y-41754637D01*
X140290273Y-41911680D01*
X140551426Y-42019853D01*
X140828665Y-42075000D01*
X141111335Y-42075000D01*
X141388574Y-42019853D01*
X141649727Y-41911680D01*
X141884759Y-41754637D01*
X142084637Y-41554759D01*
X142241680Y-41319727D01*
X142349853Y-41058574D01*
X142405000Y-40781335D01*
X142405000Y-40498665D01*
X142349853Y-40221426D01*
X142241680Y-39960273D01*
X142084637Y-39725241D01*
X141884759Y-39525363D01*
X141649727Y-39368320D01*
X141388574Y-39260147D01*
X141111335Y-39205000D01*
X140828665Y-39205000D01*
X140551426Y-39260147D01*
X140290273Y-39368320D01*
X140055241Y-39525363D01*
X139855363Y-39725241D01*
X139698320Y-39960273D01*
X139590147Y-40221426D01*
X139535000Y-40498665D01*
X137325000Y-40498665D01*
X137269853Y-40221426D01*
X137161680Y-39960273D01*
X137004637Y-39725241D01*
X136804759Y-39525363D01*
X136569727Y-39368320D01*
X136308574Y-39260147D01*
X136031335Y-39205000D01*
X135748665Y-39205000D01*
X135471426Y-39260147D01*
X135210273Y-39368320D01*
X134975241Y-39525363D01*
X134775363Y-39725241D01*
X134618320Y-39960273D01*
X134510147Y-40221426D01*
X134455000Y-40498665D01*
X104902000Y-40498665D01*
X104902000Y-35422408D01*
X116713000Y-35422408D01*
X116713000Y-35697592D01*
X116766686Y-35967490D01*
X116871995Y-36221727D01*
X117024880Y-36450535D01*
X117219465Y-36645120D01*
X117448273Y-36798005D01*
X117702510Y-36903314D01*
X117972408Y-36957000D01*
X118247592Y-36957000D01*
X118517490Y-36903314D01*
X118771727Y-36798005D01*
X119000535Y-36645120D01*
X119195120Y-36450535D01*
X119348005Y-36221727D01*
X119380000Y-36144485D01*
X119411995Y-36221727D01*
X119564880Y-36450535D01*
X119759465Y-36645120D01*
X119988273Y-36798005D01*
X120242510Y-36903314D01*
X120512408Y-36957000D01*
X120787592Y-36957000D01*
X121057490Y-36903314D01*
X121311727Y-36798005D01*
X121540535Y-36645120D01*
X121735120Y-36450535D01*
X121888005Y-36221727D01*
X121920000Y-36144485D01*
X121951995Y-36221727D01*
X122104880Y-36450535D01*
X122299465Y-36645120D01*
X122528273Y-36798005D01*
X122782510Y-36903314D01*
X123052408Y-36957000D01*
X123327592Y-36957000D01*
X123597490Y-36903314D01*
X123851727Y-36798005D01*
X124080535Y-36645120D01*
X124275120Y-36450535D01*
X124428005Y-36221727D01*
X124460000Y-36144485D01*
X124491995Y-36221727D01*
X124644880Y-36450535D01*
X124839465Y-36645120D01*
X125068273Y-36798005D01*
X125322510Y-36903314D01*
X125592408Y-36957000D01*
X125867592Y-36957000D01*
X126137490Y-36903314D01*
X126391727Y-36798005D01*
X126620535Y-36645120D01*
X126815120Y-36450535D01*
X126968005Y-36221727D01*
X127000000Y-36144485D01*
X127031995Y-36221727D01*
X127184880Y-36450535D01*
X127379465Y-36645120D01*
X127608273Y-36798005D01*
X127862510Y-36903314D01*
X128132408Y-36957000D01*
X128407592Y-36957000D01*
X128677490Y-36903314D01*
X128931727Y-36798005D01*
X129160535Y-36645120D01*
X129355120Y-36450535D01*
X129508005Y-36221727D01*
X129613314Y-35967490D01*
X129667000Y-35697592D01*
X129667000Y-35422408D01*
X129613314Y-35152510D01*
X129508005Y-34898273D01*
X129355120Y-34669465D01*
X129160535Y-34474880D01*
X128931727Y-34321995D01*
X128677490Y-34216686D01*
X128407592Y-34163000D01*
X128132408Y-34163000D01*
X127862510Y-34216686D01*
X127608273Y-34321995D01*
X127379465Y-34474880D01*
X127184880Y-34669465D01*
X127031995Y-34898273D01*
X127000000Y-34975515D01*
X126968005Y-34898273D01*
X126815120Y-34669465D01*
X126620535Y-34474880D01*
X126391727Y-34321995D01*
X126137490Y-34216686D01*
X125867592Y-34163000D01*
X125592408Y-34163000D01*
X125322510Y-34216686D01*
X125068273Y-34321995D01*
X124839465Y-34474880D01*
X124644880Y-34669465D01*
X124491995Y-34898273D01*
X124460000Y-34975515D01*
X124428005Y-34898273D01*
X124275120Y-34669465D01*
X124080535Y-34474880D01*
X123851727Y-34321995D01*
X123597490Y-34216686D01*
X123327592Y-34163000D01*
X123052408Y-34163000D01*
X122782510Y-34216686D01*
X122528273Y-34321995D01*
X122299465Y-34474880D01*
X122104880Y-34669465D01*
X121951995Y-34898273D01*
X121920000Y-34975515D01*
X121888005Y-34898273D01*
X121735120Y-34669465D01*
X121540535Y-34474880D01*
X121311727Y-34321995D01*
X121057490Y-34216686D01*
X120787592Y-34163000D01*
X120512408Y-34163000D01*
X120242510Y-34216686D01*
X119988273Y-34321995D01*
X119759465Y-34474880D01*
X119564880Y-34669465D01*
X119411995Y-34898273D01*
X119380000Y-34975515D01*
X119348005Y-34898273D01*
X119195120Y-34669465D01*
X119000535Y-34474880D01*
X118771727Y-34321995D01*
X118517490Y-34216686D01*
X118247592Y-34163000D01*
X117972408Y-34163000D01*
X117702510Y-34216686D01*
X117448273Y-34321995D01*
X117219465Y-34474880D01*
X117024880Y-34669465D01*
X116871995Y-34898273D01*
X116766686Y-35152510D01*
X116713000Y-35422408D01*
X104902000Y-35422408D01*
X104902000Y-33782000D01*
X156083000Y-33782000D01*
X156083000Y-37151931D01*
X156083000Y-37151931D01*
G37*
X156083000Y-37151931D02*
X155995134Y-37044866D01*
X155769014Y-36859294D01*
X155511034Y-36721401D01*
X155231111Y-36636487D01*
X155012950Y-36615000D01*
X154867050Y-36615000D01*
X154648889Y-36636487D01*
X154368966Y-36721401D01*
X154110986Y-36859294D01*
X153884866Y-37044866D01*
X153860393Y-37074687D01*
X153839502Y-37005820D01*
X153780537Y-36895506D01*
X153701185Y-36798815D01*
X153604494Y-36719463D01*
X153494180Y-36660498D01*
X153374482Y-36624188D01*
X153250000Y-36611928D01*
X151550000Y-36611928D01*
X151425518Y-36624188D01*
X151305820Y-36660498D01*
X151195506Y-36719463D01*
X151098815Y-36798815D01*
X151019463Y-36895506D01*
X150960498Y-37005820D01*
X150924188Y-37125518D01*
X150911928Y-37250000D01*
X150911928Y-38950000D01*
X150924188Y-39074482D01*
X150960498Y-39194180D01*
X151019463Y-39304494D01*
X151098815Y-39401185D01*
X151195506Y-39480537D01*
X151305820Y-39539502D01*
X151386466Y-39563966D01*
X151302412Y-39639731D01*
X151128359Y-39873080D01*
X151003175Y-40135901D01*
X150958524Y-40283110D01*
X151079845Y-40513000D01*
X152273000Y-40513000D01*
X152273000Y-40493000D01*
X152527000Y-40493000D01*
X152527000Y-40513000D01*
X152547000Y-40513000D01*
X152547000Y-40767000D01*
X152527000Y-40767000D01*
X152527000Y-40787000D01*
X152273000Y-40787000D01*
X152273000Y-40767000D01*
X151079845Y-40767000D01*
X150958524Y-40996890D01*
X151003175Y-41144099D01*
X151128359Y-41406920D01*
X151302412Y-41640269D01*
X151518645Y-41835178D01*
X151635523Y-41904799D01*
X151570986Y-41939294D01*
X151344866Y-42124866D01*
X151159294Y-42350986D01*
X151021401Y-42608966D01*
X150936487Y-42888889D01*
X150907815Y-43180000D01*
X150936487Y-43471111D01*
X151021401Y-43751034D01*
X151159294Y-44009014D01*
X151344866Y-44235134D01*
X151570986Y-44420706D01*
X151625791Y-44450000D01*
X151570986Y-44479294D01*
X151344866Y-44664866D01*
X151159294Y-44890986D01*
X151021401Y-45148966D01*
X150936487Y-45428889D01*
X150907815Y-45720000D01*
X150936487Y-46011111D01*
X151021401Y-46291034D01*
X151159294Y-46549014D01*
X151344866Y-46775134D01*
X151570986Y-46960706D01*
X151635523Y-46995201D01*
X151518645Y-47064822D01*
X151302412Y-47259731D01*
X151128359Y-47493080D01*
X151003175Y-47755901D01*
X150958524Y-47903110D01*
X151079845Y-48133000D01*
X152273000Y-48133000D01*
X152273000Y-48113000D01*
X152527000Y-48113000D01*
X152527000Y-48133000D01*
X152547000Y-48133000D01*
X152547000Y-48387000D01*
X152527000Y-48387000D01*
X152527000Y-49580814D01*
X152756891Y-49701481D01*
X153031252Y-49604157D01*
X153281355Y-49455178D01*
X153497588Y-49260269D01*
X153668416Y-49031244D01*
X153699294Y-49089014D01*
X153884866Y-49315134D01*
X154110986Y-49500706D01*
X154368966Y-49638599D01*
X154648889Y-49723513D01*
X154867050Y-49745000D01*
X155012950Y-49745000D01*
X155231111Y-49723513D01*
X155511034Y-49638599D01*
X155769014Y-49500706D01*
X155995134Y-49315134D01*
X156083000Y-49208069D01*
X156083000Y-56201931D01*
X155995134Y-56094866D01*
X155769014Y-55909294D01*
X155511034Y-55771401D01*
X155231111Y-55686487D01*
X155012950Y-55665000D01*
X154867050Y-55665000D01*
X154648889Y-55686487D01*
X154368966Y-55771401D01*
X154110986Y-55909294D01*
X153884866Y-56094866D01*
X153860393Y-56124687D01*
X153839502Y-56055820D01*
X153780537Y-55945506D01*
X153701185Y-55848815D01*
X153604494Y-55769463D01*
X153494180Y-55710498D01*
X153374482Y-55674188D01*
X153250000Y-55661928D01*
X151550000Y-55661928D01*
X151425518Y-55674188D01*
X151305820Y-55710498D01*
X151195506Y-55769463D01*
X151098815Y-55848815D01*
X151019463Y-55945506D01*
X150960498Y-56055820D01*
X150924188Y-56175518D01*
X150911928Y-56300000D01*
X150911928Y-58000000D01*
X150924188Y-58124482D01*
X150960498Y-58244180D01*
X151019463Y-58354494D01*
X151098815Y-58451185D01*
X151195506Y-58530537D01*
X151305820Y-58589502D01*
X151374687Y-58610393D01*
X151344866Y-58634866D01*
X151159294Y-58860986D01*
X151021401Y-59118966D01*
X150936487Y-59398889D01*
X150907815Y-59690000D01*
X150936487Y-59981111D01*
X151021401Y-60261034D01*
X151159294Y-60519014D01*
X151344866Y-60745134D01*
X151570986Y-60930706D01*
X151625791Y-60960000D01*
X151570986Y-60989294D01*
X151344866Y-61174866D01*
X151159294Y-61400986D01*
X151124057Y-61466909D01*
X151092676Y-61470000D01*
X151092667Y-61470000D01*
X150981014Y-61480997D01*
X150837753Y-61524454D01*
X150705724Y-61595026D01*
X150589999Y-61689999D01*
X150566201Y-61718997D01*
X149348998Y-62936201D01*
X149320000Y-62959999D01*
X149296202Y-62988997D01*
X149296201Y-62988998D01*
X149225026Y-63075724D01*
X149154454Y-63207754D01*
X149110998Y-63351015D01*
X149096324Y-63500000D01*
X149100001Y-63537332D01*
X149100000Y-64732677D01*
X149096324Y-64770000D01*
X149100000Y-64807322D01*
X149100000Y-64807332D01*
X149110997Y-64918985D01*
X149137089Y-65005000D01*
X149154454Y-65062246D01*
X149225026Y-65194276D01*
X149259320Y-65236063D01*
X149319999Y-65310001D01*
X149349003Y-65333804D01*
X150566200Y-66551002D01*
X150589999Y-66580001D01*
X150705724Y-66674974D01*
X150837753Y-66745546D01*
X150981014Y-66789003D01*
X151005491Y-66791414D01*
X150936487Y-67018889D01*
X150907815Y-67310000D01*
X150936487Y-67601111D01*
X151021401Y-67881034D01*
X151159294Y-68139014D01*
X151344866Y-68365134D01*
X151570986Y-68550706D01*
X151625791Y-68580000D01*
X151570986Y-68609294D01*
X151344866Y-68794866D01*
X151159294Y-69020986D01*
X151021401Y-69278966D01*
X150936487Y-69558889D01*
X150907815Y-69850000D01*
X150936487Y-70141111D01*
X151021401Y-70421034D01*
X151159294Y-70679014D01*
X151344866Y-70905134D01*
X151570986Y-71090706D01*
X151625791Y-71120000D01*
X151570986Y-71149294D01*
X151344866Y-71334866D01*
X151159294Y-71560986D01*
X151021401Y-71818966D01*
X150936487Y-72098889D01*
X150907815Y-72390000D01*
X150936487Y-72681111D01*
X151021401Y-72961034D01*
X151159294Y-73219014D01*
X151344866Y-73445134D01*
X151570986Y-73630706D01*
X151625791Y-73660000D01*
X151570986Y-73689294D01*
X151344866Y-73874866D01*
X151159294Y-74100986D01*
X151021401Y-74358966D01*
X150936487Y-74638889D01*
X150907815Y-74930000D01*
X150936487Y-75221111D01*
X151021401Y-75501034D01*
X151159294Y-75759014D01*
X151344866Y-75985134D01*
X151570986Y-76170706D01*
X151625791Y-76200000D01*
X151570986Y-76229294D01*
X151344866Y-76414866D01*
X151256879Y-76522078D01*
X150620000Y-75885199D01*
X150620000Y-69887322D01*
X150623676Y-69849999D01*
X150620000Y-69812676D01*
X150620000Y-69812667D01*
X150609003Y-69701014D01*
X150565546Y-69557753D01*
X150494974Y-69425724D01*
X150400001Y-69309999D01*
X150371004Y-69286202D01*
X149153804Y-68069003D01*
X149130001Y-68039999D01*
X149014276Y-67945026D01*
X148882247Y-67874454D01*
X148738986Y-67830997D01*
X148627333Y-67820000D01*
X148627322Y-67820000D01*
X148590000Y-67816324D01*
X148552678Y-67820000D01*
X142142341Y-67820000D01*
X142055120Y-67689465D01*
X141860535Y-67494880D01*
X141631727Y-67341995D01*
X141554485Y-67310000D01*
X141631727Y-67278005D01*
X141860535Y-67125120D01*
X142055120Y-66930535D01*
X142142341Y-66800000D01*
X143115638Y-66800000D01*
X143158502Y-66880192D01*
X143212958Y-66961691D01*
X143292310Y-67058382D01*
X143361618Y-67127690D01*
X143458309Y-67207042D01*
X143539808Y-67261498D01*
X143650125Y-67320464D01*
X143740681Y-67357973D01*
X143860377Y-67394282D01*
X143956510Y-67413404D01*
X144080991Y-67425664D01*
X144105550Y-67425664D01*
X144130000Y-67428072D01*
X144630000Y-67428072D01*
X144754482Y-67415812D01*
X144780000Y-67408071D01*
X144805518Y-67415812D01*
X144930000Y-67428072D01*
X145430000Y-67428072D01*
X145454450Y-67425664D01*
X145479009Y-67425664D01*
X145603490Y-67413404D01*
X145699623Y-67394282D01*
X145819319Y-67357973D01*
X145909875Y-67320464D01*
X146020192Y-67261498D01*
X146101691Y-67207042D01*
X146198382Y-67127690D01*
X146267690Y-67058382D01*
X146347042Y-66961691D01*
X146401498Y-66880192D01*
X146444362Y-66800000D01*
X147251289Y-66800000D01*
X147295226Y-66843937D01*
X147464744Y-66957205D01*
X147653102Y-67035226D01*
X147853061Y-67075000D01*
X148056939Y-67075000D01*
X148256898Y-67035226D01*
X148445256Y-66957205D01*
X148614774Y-66843937D01*
X148758937Y-66699774D01*
X148872205Y-66530256D01*
X148950226Y-66341898D01*
X148990000Y-66141939D01*
X148990000Y-65938061D01*
X148950226Y-65738102D01*
X148872205Y-65549744D01*
X148775490Y-65405000D01*
X148872205Y-65260256D01*
X148950226Y-65071898D01*
X148990000Y-64871939D01*
X148990000Y-64668061D01*
X148950226Y-64468102D01*
X148872205Y-64279744D01*
X148758937Y-64110226D01*
X148614774Y-63966063D01*
X148445256Y-63852795D01*
X148256898Y-63774774D01*
X148080000Y-63739587D01*
X148080000Y-59092333D01*
X148083677Y-59055000D01*
X148069003Y-58906014D01*
X148025546Y-58762753D01*
X147954974Y-58630724D01*
X147883799Y-58543997D01*
X147860001Y-58514999D01*
X147831004Y-58491202D01*
X147248803Y-57909002D01*
X147225001Y-57879999D01*
X147109276Y-57785026D01*
X146977247Y-57714454D01*
X146833986Y-57670997D01*
X146722333Y-57660000D01*
X146722322Y-57660000D01*
X146685000Y-57656324D01*
X146647678Y-57660000D01*
X146444362Y-57660000D01*
X146401498Y-57579808D01*
X146347042Y-57498309D01*
X146267690Y-57401618D01*
X146198382Y-57332310D01*
X146101691Y-57252958D01*
X146020192Y-57198502D01*
X145909875Y-57139536D01*
X145819319Y-57102027D01*
X145699623Y-57065718D01*
X145603490Y-57046596D01*
X145479009Y-57034336D01*
X145454450Y-57034336D01*
X145430000Y-57031928D01*
X144930000Y-57031928D01*
X144805518Y-57044188D01*
X144780000Y-57051929D01*
X144754482Y-57044188D01*
X144630000Y-57031928D01*
X144130000Y-57031928D01*
X144105550Y-57034336D01*
X144080991Y-57034336D01*
X143956510Y-57046596D01*
X143860377Y-57065718D01*
X143740681Y-57102027D01*
X143650125Y-57139536D01*
X143539808Y-57198502D01*
X143458309Y-57252958D01*
X143361618Y-57332310D01*
X143292310Y-57401618D01*
X143212958Y-57498309D01*
X143158502Y-57579808D01*
X143115638Y-57660000D01*
X142142341Y-57660000D01*
X142055120Y-57529465D01*
X141860535Y-57334880D01*
X141631727Y-57181995D01*
X141560057Y-57152308D01*
X141573023Y-57147636D01*
X141688980Y-57085656D01*
X141755960Y-56845565D01*
X140970000Y-56059605D01*
X140184040Y-56845565D01*
X140251020Y-57085656D01*
X140386760Y-57149485D01*
X140308273Y-57181995D01*
X140079465Y-57334880D01*
X139884880Y-57529465D01*
X139797659Y-57660000D01*
X138824362Y-57660000D01*
X138781498Y-57579808D01*
X138727042Y-57498309D01*
X138647690Y-57401618D01*
X138578382Y-57332310D01*
X138481691Y-57252958D01*
X138400192Y-57198502D01*
X138289875Y-57139536D01*
X138199319Y-57102027D01*
X138079623Y-57065718D01*
X137983490Y-57046596D01*
X137859009Y-57034336D01*
X137834450Y-57034336D01*
X137810000Y-57031928D01*
X137310000Y-57031928D01*
X137185518Y-57044188D01*
X137065820Y-57080498D01*
X136955506Y-57139463D01*
X136858815Y-57218815D01*
X136779463Y-57315506D01*
X136720498Y-57425820D01*
X136690127Y-57525940D01*
X136672125Y-57531238D01*
X136670153Y-57532269D01*
X136668020Y-57532913D01*
X136615219Y-57560988D01*
X136562297Y-57588655D01*
X136560563Y-57590049D01*
X136558596Y-57591095D01*
X136512263Y-57628883D01*
X136465714Y-57666310D01*
X136464283Y-57668015D01*
X136462557Y-57669423D01*
X136424461Y-57715473D01*
X136386053Y-57761246D01*
X136384980Y-57763198D01*
X136383561Y-57764913D01*
X136355149Y-57817461D01*
X136326349Y-57869847D01*
X136325675Y-57871971D01*
X136324617Y-57873928D01*
X136306966Y-57930950D01*
X136288876Y-57987976D01*
X136288627Y-57990192D01*
X136287970Y-57992316D01*
X136281724Y-58051743D01*
X136275062Y-58111134D01*
X136275032Y-58115404D01*
X136275015Y-58115567D01*
X136275030Y-58115730D01*
X136275000Y-58120000D01*
X136275000Y-58720000D01*
X136280834Y-58779505D01*
X136286248Y-58838987D01*
X136286875Y-58841118D01*
X136287093Y-58843339D01*
X136304388Y-58900621D01*
X136321238Y-58957875D01*
X136322269Y-58959847D01*
X136322913Y-58961980D01*
X136350988Y-59014781D01*
X136378655Y-59067703D01*
X136380049Y-59069437D01*
X136381095Y-59071404D01*
X136418883Y-59117737D01*
X136456310Y-59164286D01*
X136458015Y-59165717D01*
X136459423Y-59167443D01*
X136505473Y-59205539D01*
X136551246Y-59243947D01*
X136553198Y-59245020D01*
X136554913Y-59246439D01*
X136607461Y-59274851D01*
X136659847Y-59303651D01*
X136661971Y-59304325D01*
X136663928Y-59305383D01*
X136689937Y-59313434D01*
X136720498Y-59414180D01*
X136779463Y-59524494D01*
X136858815Y-59621185D01*
X136955506Y-59700537D01*
X137065820Y-59759502D01*
X137185518Y-59795812D01*
X137310000Y-59808072D01*
X137810000Y-59808072D01*
X137834450Y-59805664D01*
X137859009Y-59805664D01*
X137983490Y-59793404D01*
X138079623Y-59774282D01*
X138199319Y-59737973D01*
X138289875Y-59700464D01*
X138400192Y-59641498D01*
X138481691Y-59587042D01*
X138578382Y-59507690D01*
X138647690Y-59438382D01*
X138727042Y-59341691D01*
X138781498Y-59260192D01*
X138824362Y-59180000D01*
X139797659Y-59180000D01*
X139884880Y-59310535D01*
X140079465Y-59505120D01*
X140308273Y-59658005D01*
X140385515Y-59690000D01*
X140308273Y-59721995D01*
X140079465Y-59874880D01*
X139884880Y-60069465D01*
X139731995Y-60298273D01*
X139626686Y-60552510D01*
X139573000Y-60822408D01*
X139573000Y-61097592D01*
X139626686Y-61367490D01*
X139731995Y-61621727D01*
X139884880Y-61850535D01*
X140079465Y-62045120D01*
X140308273Y-62198005D01*
X140385515Y-62230000D01*
X140308273Y-62261995D01*
X140079465Y-62414880D01*
X139884880Y-62609465D01*
X139731995Y-62838273D01*
X139626686Y-63092510D01*
X139573000Y-63362408D01*
X139573000Y-63637592D01*
X139626686Y-63907490D01*
X139731995Y-64161727D01*
X139884880Y-64390535D01*
X140079465Y-64585120D01*
X140308273Y-64738005D01*
X140385515Y-64770000D01*
X140308273Y-64801995D01*
X140079465Y-64954880D01*
X139884880Y-65149465D01*
X139797659Y-65280000D01*
X138824362Y-65280000D01*
X138781498Y-65199808D01*
X138727042Y-65118309D01*
X138647690Y-65021618D01*
X138578382Y-64952310D01*
X138481691Y-64872958D01*
X138400192Y-64818502D01*
X138289875Y-64759536D01*
X138199319Y-64722027D01*
X138079623Y-64685718D01*
X137983490Y-64666596D01*
X137859009Y-64654336D01*
X137834450Y-64654336D01*
X137810000Y-64651928D01*
X137310000Y-64651928D01*
X137185518Y-64664188D01*
X137065820Y-64700498D01*
X136955506Y-64759463D01*
X136858815Y-64838815D01*
X136779463Y-64935506D01*
X136720498Y-65045820D01*
X136690127Y-65145940D01*
X136672125Y-65151238D01*
X136670153Y-65152269D01*
X136668020Y-65152913D01*
X136615219Y-65180988D01*
X136562297Y-65208655D01*
X136560563Y-65210049D01*
X136558596Y-65211095D01*
X136512263Y-65248883D01*
X136465714Y-65286310D01*
X136464283Y-65288015D01*
X136462557Y-65289423D01*
X136424461Y-65335473D01*
X136386053Y-65381246D01*
X136384980Y-65383198D01*
X136383561Y-65384913D01*
X136355149Y-65437461D01*
X136326349Y-65489847D01*
X136325675Y-65491971D01*
X136324617Y-65493928D01*
X136306966Y-65550950D01*
X136288876Y-65607976D01*
X136288627Y-65610192D01*
X136287970Y-65612316D01*
X136281724Y-65671743D01*
X136275062Y-65731134D01*
X136275032Y-65735404D01*
X136275015Y-65735567D01*
X136275030Y-65735730D01*
X136275000Y-65740000D01*
X136275000Y-66340000D01*
X136280834Y-66399505D01*
X136286248Y-66458987D01*
X136286875Y-66461118D01*
X136287093Y-66463339D01*
X136304388Y-66520621D01*
X136321238Y-66577875D01*
X136322269Y-66579847D01*
X136322913Y-66581980D01*
X136350988Y-66634781D01*
X136378655Y-66687703D01*
X136380049Y-66689437D01*
X136381095Y-66691404D01*
X136418883Y-66737737D01*
X136456310Y-66784286D01*
X136458015Y-66785717D01*
X136459423Y-66787443D01*
X136505473Y-66825539D01*
X136551246Y-66863947D01*
X136553198Y-66865020D01*
X136554913Y-66866439D01*
X136607461Y-66894851D01*
X136659847Y-66923651D01*
X136661971Y-66924325D01*
X136663928Y-66925383D01*
X136689937Y-66933434D01*
X136720498Y-67034180D01*
X136779463Y-67144494D01*
X136858815Y-67241185D01*
X136955506Y-67320537D01*
X137065820Y-67379502D01*
X137185518Y-67415812D01*
X137310000Y-67428072D01*
X137810000Y-67428072D01*
X137834450Y-67425664D01*
X137859009Y-67425664D01*
X137983490Y-67413404D01*
X138079623Y-67394282D01*
X138199319Y-67357973D01*
X138289875Y-67320464D01*
X138400192Y-67261498D01*
X138481691Y-67207042D01*
X138578382Y-67127690D01*
X138647690Y-67058382D01*
X138727042Y-66961691D01*
X138781498Y-66880192D01*
X138824362Y-66800000D01*
X139797659Y-66800000D01*
X139884880Y-66930535D01*
X140079465Y-67125120D01*
X140308273Y-67278005D01*
X140385515Y-67310000D01*
X140308273Y-67341995D01*
X140079465Y-67494880D01*
X139884880Y-67689465D01*
X139731995Y-67918273D01*
X139626686Y-68172510D01*
X139573000Y-68442408D01*
X139573000Y-68717592D01*
X139626686Y-68987490D01*
X139731995Y-69241727D01*
X139884880Y-69470535D01*
X140079465Y-69665120D01*
X140308273Y-69818005D01*
X140385515Y-69850000D01*
X140308273Y-69881995D01*
X140079465Y-70034880D01*
X139884880Y-70229465D01*
X139731995Y-70458273D01*
X139626686Y-70712510D01*
X139573000Y-70982408D01*
X139573000Y-71257592D01*
X139626686Y-71527490D01*
X139731995Y-71781727D01*
X139884880Y-72010535D01*
X140079465Y-72205120D01*
X140308273Y-72358005D01*
X140379943Y-72387692D01*
X140366977Y-72392364D01*
X140251020Y-72454344D01*
X140184040Y-72694435D01*
X140970000Y-73480395D01*
X141755960Y-72694435D01*
X141688980Y-72454344D01*
X141553240Y-72390515D01*
X141631727Y-72358005D01*
X141860535Y-72205120D01*
X142055120Y-72010535D01*
X142208005Y-71781727D01*
X142313314Y-71527490D01*
X142367000Y-71257592D01*
X142367000Y-71120000D01*
X145878057Y-71120000D01*
X145905764Y-71401309D01*
X145987818Y-71671808D01*
X146121068Y-71921101D01*
X146300392Y-72139608D01*
X146518899Y-72318932D01*
X146560001Y-72340901D01*
X146560000Y-74535638D01*
X146479808Y-74578502D01*
X146398309Y-74632958D01*
X146301618Y-74712310D01*
X146232310Y-74781618D01*
X146152958Y-74878309D01*
X146098502Y-74959808D01*
X146039536Y-75070125D01*
X146002027Y-75160681D01*
X145965718Y-75280377D01*
X145946596Y-75376510D01*
X145934336Y-75500991D01*
X145934336Y-75525550D01*
X145931928Y-75550000D01*
X145931928Y-76050000D01*
X145944188Y-76174482D01*
X145951929Y-76200000D01*
X145944188Y-76225518D01*
X145931928Y-76350000D01*
X145931928Y-76850000D01*
X145934336Y-76874450D01*
X145934336Y-76899009D01*
X145946596Y-77023490D01*
X145965718Y-77119623D01*
X146002027Y-77239319D01*
X146039536Y-77329875D01*
X146098502Y-77440192D01*
X146152958Y-77521691D01*
X146232310Y-77618382D01*
X146301618Y-77687690D01*
X146398309Y-77767042D01*
X146479808Y-77821498D01*
X146560000Y-77864362D01*
X146560001Y-80061956D01*
X146405241Y-80165363D01*
X146205363Y-80365241D01*
X146048320Y-80600273D01*
X145940147Y-80861426D01*
X145885000Y-81138665D01*
X145885000Y-81421335D01*
X145940147Y-81698574D01*
X146048320Y-81959727D01*
X146205363Y-82194759D01*
X146405241Y-82394637D01*
X146640273Y-82551680D01*
X146901426Y-82659853D01*
X147178665Y-82715000D01*
X147461335Y-82715000D01*
X147738574Y-82659853D01*
X147999727Y-82551680D01*
X148234759Y-82394637D01*
X148434637Y-82194759D01*
X148591680Y-81959727D01*
X148699853Y-81698574D01*
X148755000Y-81421335D01*
X148755000Y-81138665D01*
X148699853Y-80861426D01*
X148591680Y-80600273D01*
X148434637Y-80365241D01*
X148234759Y-80165363D01*
X148080000Y-80061957D01*
X148080000Y-77864362D01*
X148160192Y-77821498D01*
X148241691Y-77767042D01*
X148338382Y-77687690D01*
X148407690Y-77618382D01*
X148487042Y-77521691D01*
X148541498Y-77440192D01*
X148600464Y-77329875D01*
X148637973Y-77239319D01*
X148674282Y-77119623D01*
X148693404Y-77023490D01*
X148705664Y-76899009D01*
X148705664Y-76874450D01*
X148708072Y-76850000D01*
X148708072Y-76350000D01*
X148695812Y-76225518D01*
X148688071Y-76200000D01*
X148695812Y-76174482D01*
X148708072Y-76050000D01*
X148708072Y-75550000D01*
X148705664Y-75525550D01*
X148705664Y-75500991D01*
X148693404Y-75376510D01*
X148674282Y-75280377D01*
X148637973Y-75160681D01*
X148600464Y-75070125D01*
X148541498Y-74959808D01*
X148487042Y-74878309D01*
X148407690Y-74781618D01*
X148338382Y-74712310D01*
X148241691Y-74632958D01*
X148160192Y-74578502D01*
X148080000Y-74535638D01*
X148080000Y-72340901D01*
X148121101Y-72318932D01*
X148339608Y-72139608D01*
X148518932Y-71921101D01*
X148652182Y-71671808D01*
X148734236Y-71401309D01*
X148761943Y-71120000D01*
X148734236Y-70838691D01*
X148652182Y-70568192D01*
X148518932Y-70318899D01*
X148339608Y-70100392D01*
X148121101Y-69921068D01*
X147871808Y-69787818D01*
X147601309Y-69705764D01*
X147390492Y-69685000D01*
X147249508Y-69685000D01*
X147038691Y-69705764D01*
X146768192Y-69787818D01*
X146518899Y-69921068D01*
X146300392Y-70100392D01*
X146121068Y-70318899D01*
X145987818Y-70568192D01*
X145905764Y-70838691D01*
X145878057Y-71120000D01*
X142367000Y-71120000D01*
X142367000Y-70982408D01*
X142313314Y-70712510D01*
X142208005Y-70458273D01*
X142055120Y-70229465D01*
X141860535Y-70034880D01*
X141631727Y-69881995D01*
X141554485Y-69850000D01*
X141631727Y-69818005D01*
X141860535Y-69665120D01*
X142055120Y-69470535D01*
X142142341Y-69340000D01*
X148275199Y-69340000D01*
X149100000Y-70164802D01*
X149100001Y-76162668D01*
X149096324Y-76200000D01*
X149110998Y-76348985D01*
X149154454Y-76492246D01*
X149225026Y-76624276D01*
X149267321Y-76675812D01*
X149320000Y-76740001D01*
X149348998Y-76763799D01*
X150566201Y-77981003D01*
X150589999Y-78010001D01*
X150705724Y-78104974D01*
X150837753Y-78175546D01*
X150981014Y-78219003D01*
X151092667Y-78230000D01*
X151092676Y-78230000D01*
X151124057Y-78233091D01*
X151159294Y-78299014D01*
X151344866Y-78525134D01*
X151570986Y-78710706D01*
X151625791Y-78740000D01*
X151570986Y-78769294D01*
X151344866Y-78954866D01*
X151159294Y-79180986D01*
X151124057Y-79246909D01*
X151092676Y-79250000D01*
X151092667Y-79250000D01*
X150981014Y-79260997D01*
X150837753Y-79304454D01*
X150705724Y-79375026D01*
X150589999Y-79469999D01*
X150566201Y-79498997D01*
X149348998Y-80716201D01*
X149320000Y-80739999D01*
X149296202Y-80768997D01*
X149296201Y-80768998D01*
X149225026Y-80855724D01*
X149154454Y-80987754D01*
X149154110Y-80988889D01*
X149110998Y-81131014D01*
X149109876Y-81142408D01*
X149096324Y-81280000D01*
X149100001Y-81317332D01*
X149100000Y-94935197D01*
X147005199Y-97030000D01*
X120687322Y-97030000D01*
X120649999Y-97026324D01*
X120612676Y-97030000D01*
X120612667Y-97030000D01*
X120501014Y-97040997D01*
X120357753Y-97084454D01*
X120225724Y-97155026D01*
X120225722Y-97155027D01*
X120225723Y-97155027D01*
X120138996Y-97226201D01*
X120138992Y-97226205D01*
X120109999Y-97249999D01*
X120086205Y-97278992D01*
X117598998Y-99766201D01*
X117570000Y-99789999D01*
X117546202Y-99818997D01*
X117546201Y-99818998D01*
X117475026Y-99905724D01*
X117404454Y-100037754D01*
X117360998Y-100181015D01*
X117346324Y-100330000D01*
X117350001Y-100367332D01*
X117350001Y-101415091D01*
X117335537Y-101421082D01*
X117067748Y-101600013D01*
X116840013Y-101827748D01*
X116661082Y-102095537D01*
X116537832Y-102393088D01*
X116475000Y-102708967D01*
X116475000Y-103031033D01*
X116537832Y-103346912D01*
X116661082Y-103644463D01*
X116840013Y-103912252D01*
X117067748Y-104139987D01*
X117335537Y-104318918D01*
X117375040Y-104335281D01*
X117404110Y-104431111D01*
X117404454Y-104432246D01*
X117475026Y-104564276D01*
X117514871Y-104612826D01*
X117569999Y-104680001D01*
X117599003Y-104703804D01*
X122430001Y-109534803D01*
X122430001Y-110305091D01*
X122415537Y-110311082D01*
X122147748Y-110490013D01*
X121920013Y-110717748D01*
X121741082Y-110985537D01*
X121617832Y-111283088D01*
X121555000Y-111598967D01*
X121555000Y-111921033D01*
X121617832Y-112236912D01*
X121741082Y-112534463D01*
X121920013Y-112802252D01*
X122147748Y-113029987D01*
X122415537Y-113208918D01*
X122713088Y-113332168D01*
X123028967Y-113395000D01*
X123351033Y-113395000D01*
X123666912Y-113332168D01*
X123964463Y-113208918D01*
X124232252Y-113029987D01*
X124459987Y-112802252D01*
X124638918Y-112534463D01*
X124762168Y-112236912D01*
X124825000Y-111921033D01*
X124825000Y-111598967D01*
X124762168Y-111283088D01*
X124638918Y-110985537D01*
X124459987Y-110717748D01*
X124232252Y-110490013D01*
X123964463Y-110311082D01*
X123950000Y-110305091D01*
X123950000Y-109257323D01*
X123953676Y-109220000D01*
X123950000Y-109182677D01*
X123950000Y-109182667D01*
X123939003Y-109071014D01*
X123895546Y-108927753D01*
X123860993Y-108863110D01*
X123824974Y-108795723D01*
X123753799Y-108708997D01*
X123730001Y-108679999D01*
X123701003Y-108656201D01*
X121583467Y-106538665D01*
X134455000Y-106538665D01*
X134455000Y-106821335D01*
X134510147Y-107098574D01*
X134618320Y-107359727D01*
X134775363Y-107594759D01*
X134975241Y-107794637D01*
X135210273Y-107951680D01*
X135471426Y-108059853D01*
X135748665Y-108115000D01*
X136031335Y-108115000D01*
X136308574Y-108059853D01*
X136569727Y-107951680D01*
X136804759Y-107794637D01*
X137004637Y-107594759D01*
X137161680Y-107359727D01*
X137269853Y-107098574D01*
X137325000Y-106821335D01*
X137325000Y-106538665D01*
X137269853Y-106261426D01*
X137161680Y-106000273D01*
X137004637Y-105765241D01*
X136804759Y-105565363D01*
X136569727Y-105408320D01*
X136308574Y-105300147D01*
X136031335Y-105245000D01*
X135748665Y-105245000D01*
X135471426Y-105300147D01*
X135210273Y-105408320D01*
X134975241Y-105565363D01*
X134775363Y-105765241D01*
X134618320Y-106000273D01*
X134510147Y-106261426D01*
X134455000Y-106538665D01*
X121583467Y-106538665D01*
X119168520Y-104123719D01*
X119379987Y-103912252D01*
X119558918Y-103644463D01*
X119682168Y-103346912D01*
X119745000Y-103031033D01*
X119745000Y-102708967D01*
X121555000Y-102708967D01*
X121555000Y-103031033D01*
X121617832Y-103346912D01*
X121741082Y-103644463D01*
X121920013Y-103912252D01*
X122147748Y-104139987D01*
X122415537Y-104318918D01*
X122713088Y-104442168D01*
X123028967Y-104505000D01*
X123351033Y-104505000D01*
X123666912Y-104442168D01*
X123964463Y-104318918D01*
X124232252Y-104139987D01*
X124459987Y-103912252D01*
X124638918Y-103644463D01*
X124762168Y-103346912D01*
X124825000Y-103031033D01*
X124825000Y-102708967D01*
X126635000Y-102708967D01*
X126635000Y-103031033D01*
X126697832Y-103346912D01*
X126821082Y-103644463D01*
X127000013Y-103912252D01*
X127227748Y-104139987D01*
X127495537Y-104318918D01*
X127793088Y-104442168D01*
X128108967Y-104505000D01*
X128431033Y-104505000D01*
X128746912Y-104442168D01*
X129044463Y-104318918D01*
X129312252Y-104139987D01*
X129539987Y-103912252D01*
X129718918Y-103644463D01*
X129842168Y-103346912D01*
X129905000Y-103031033D01*
X129905000Y-102708967D01*
X134255000Y-102708967D01*
X134255000Y-103031033D01*
X134317832Y-103346912D01*
X134441082Y-103644463D01*
X134620013Y-103912252D01*
X134847748Y-104139987D01*
X135115537Y-104318918D01*
X135413088Y-104442168D01*
X135728967Y-104505000D01*
X136051033Y-104505000D01*
X136366912Y-104442168D01*
X136664463Y-104318918D01*
X136932252Y-104139987D01*
X137159987Y-103912252D01*
X137338918Y-103644463D01*
X137462168Y-103346912D01*
X137525000Y-103031033D01*
X137525000Y-102708967D01*
X139335000Y-102708967D01*
X139335000Y-103031033D01*
X139397832Y-103346912D01*
X139521082Y-103644463D01*
X139700013Y-103912252D01*
X139927748Y-104139987D01*
X140195537Y-104318918D01*
X140210001Y-104324909D01*
X140210000Y-105461956D01*
X140055241Y-105565363D01*
X139855363Y-105765241D01*
X139698320Y-106000273D01*
X139590147Y-106261426D01*
X139535000Y-106538665D01*
X139535000Y-106821335D01*
X139590147Y-107098574D01*
X139698320Y-107359727D01*
X139855363Y-107594759D01*
X140055241Y-107794637D01*
X140290273Y-107951680D01*
X140551426Y-108059853D01*
X140828665Y-108115000D01*
X141111335Y-108115000D01*
X141388574Y-108059853D01*
X141649727Y-107951680D01*
X141884759Y-107794637D01*
X142084637Y-107594759D01*
X142241680Y-107359727D01*
X142349853Y-107098574D01*
X142405000Y-106821335D01*
X142405000Y-106538665D01*
X142349853Y-106261426D01*
X142241680Y-106000273D01*
X142084637Y-105765241D01*
X141884759Y-105565363D01*
X141730000Y-105461957D01*
X141730000Y-104324909D01*
X141744463Y-104318918D01*
X142012252Y-104139987D01*
X142146826Y-104005413D01*
X145094192Y-104005413D01*
X145189956Y-104269814D01*
X145479571Y-104410704D01*
X145791108Y-104492384D01*
X146112595Y-104511718D01*
X146431675Y-104467961D01*
X146736088Y-104362795D01*
X146910044Y-104269814D01*
X147005808Y-104005413D01*
X146050000Y-103049605D01*
X145094192Y-104005413D01*
X142146826Y-104005413D01*
X142239987Y-103912252D01*
X142418918Y-103644463D01*
X142542168Y-103346912D01*
X142605000Y-103031033D01*
X142605000Y-102932595D01*
X144408282Y-102932595D01*
X144452039Y-103251675D01*
X144557205Y-103556088D01*
X144650186Y-103730044D01*
X144914587Y-103825808D01*
X145870395Y-102870000D01*
X146229605Y-102870000D01*
X147185413Y-103825808D01*
X147449814Y-103730044D01*
X147590704Y-103440429D01*
X147672384Y-103128892D01*
X147691718Y-102807405D01*
X147647961Y-102488325D01*
X147542795Y-102183912D01*
X147449814Y-102009956D01*
X147185413Y-101914192D01*
X146229605Y-102870000D01*
X145870395Y-102870000D01*
X144914587Y-101914192D01*
X144650186Y-102009956D01*
X144509296Y-102299571D01*
X144427616Y-102611108D01*
X144408282Y-102932595D01*
X142605000Y-102932595D01*
X142605000Y-102708967D01*
X142542168Y-102393088D01*
X142418918Y-102095537D01*
X142239987Y-101827748D01*
X142146826Y-101734587D01*
X145094192Y-101734587D01*
X146050000Y-102690395D01*
X147005808Y-101734587D01*
X146910044Y-101470186D01*
X146620429Y-101329296D01*
X146308892Y-101247616D01*
X145987405Y-101228282D01*
X145668325Y-101272039D01*
X145363912Y-101377205D01*
X145189956Y-101470186D01*
X145094192Y-101734587D01*
X142146826Y-101734587D01*
X142012252Y-101600013D01*
X141744463Y-101421082D01*
X141446912Y-101297832D01*
X141131033Y-101235000D01*
X140808967Y-101235000D01*
X140493088Y-101297832D01*
X140195537Y-101421082D01*
X139927748Y-101600013D01*
X139700013Y-101827748D01*
X139521082Y-102095537D01*
X139397832Y-102393088D01*
X139335000Y-102708967D01*
X137525000Y-102708967D01*
X137462168Y-102393088D01*
X137338918Y-102095537D01*
X137159987Y-101827748D01*
X136932252Y-101600013D01*
X136664463Y-101421082D01*
X136366912Y-101297832D01*
X136051033Y-101235000D01*
X135728967Y-101235000D01*
X135413088Y-101297832D01*
X135115537Y-101421082D01*
X134847748Y-101600013D01*
X134620013Y-101827748D01*
X134441082Y-102095537D01*
X134317832Y-102393088D01*
X134255000Y-102708967D01*
X129905000Y-102708967D01*
X129842168Y-102393088D01*
X129718918Y-102095537D01*
X129539987Y-101827748D01*
X129312252Y-101600013D01*
X129044463Y-101421082D01*
X128746912Y-101297832D01*
X128431033Y-101235000D01*
X128108967Y-101235000D01*
X127793088Y-101297832D01*
X127495537Y-101421082D01*
X127227748Y-101600013D01*
X127000013Y-101827748D01*
X126821082Y-102095537D01*
X126697832Y-102393088D01*
X126635000Y-102708967D01*
X124825000Y-102708967D01*
X124762168Y-102393088D01*
X124638918Y-102095537D01*
X124459987Y-101827748D01*
X124232252Y-101600013D01*
X123964463Y-101421082D01*
X123666912Y-101297832D01*
X123351033Y-101235000D01*
X123028967Y-101235000D01*
X122713088Y-101297832D01*
X122415537Y-101421082D01*
X122147748Y-101600013D01*
X121920013Y-101827748D01*
X121741082Y-102095537D01*
X121617832Y-102393088D01*
X121555000Y-102708967D01*
X119745000Y-102708967D01*
X119682168Y-102393088D01*
X119558918Y-102095537D01*
X119379987Y-101827748D01*
X119152252Y-101600013D01*
X118884463Y-101421082D01*
X118870000Y-101415091D01*
X118870000Y-100644801D01*
X120964803Y-98550000D01*
X147282678Y-98550000D01*
X147320000Y-98553676D01*
X147357322Y-98550000D01*
X147357333Y-98550000D01*
X147468986Y-98539003D01*
X147612247Y-98495546D01*
X147744276Y-98424974D01*
X147860001Y-98330001D01*
X147883804Y-98300997D01*
X150371009Y-95813794D01*
X150400001Y-95790001D01*
X150423795Y-95761008D01*
X150423799Y-95761004D01*
X150494973Y-95674277D01*
X150494974Y-95674276D01*
X150565546Y-95542247D01*
X150609003Y-95398986D01*
X150620000Y-95287333D01*
X150620000Y-95287324D01*
X150623676Y-95250001D01*
X150620000Y-95212678D01*
X150620000Y-81594801D01*
X151256879Y-80957922D01*
X151344866Y-81065134D01*
X151570986Y-81250706D01*
X151828966Y-81388599D01*
X152108889Y-81473513D01*
X152327050Y-81495000D01*
X152472950Y-81495000D01*
X152691111Y-81473513D01*
X152971034Y-81388599D01*
X153229014Y-81250706D01*
X153455134Y-81065134D01*
X153640706Y-80839014D01*
X153670000Y-80784209D01*
X153699294Y-80839014D01*
X153884866Y-81065134D01*
X154110986Y-81250706D01*
X154368966Y-81388599D01*
X154648889Y-81473513D01*
X154867050Y-81495000D01*
X155012950Y-81495000D01*
X155231111Y-81473513D01*
X155511034Y-81388599D01*
X155769014Y-81250706D01*
X155995134Y-81065134D01*
X156083000Y-80958069D01*
X156083000Y-82871931D01*
X155995134Y-82764866D01*
X155769014Y-82579294D01*
X155511034Y-82441401D01*
X155231111Y-82356487D01*
X155012950Y-82335000D01*
X154867050Y-82335000D01*
X154648889Y-82356487D01*
X154368966Y-82441401D01*
X154110986Y-82579294D01*
X153884866Y-82764866D01*
X153860393Y-82794687D01*
X153839502Y-82725820D01*
X153780537Y-82615506D01*
X153701185Y-82518815D01*
X153604494Y-82439463D01*
X153494180Y-82380498D01*
X153374482Y-82344188D01*
X153250000Y-82331928D01*
X151550000Y-82331928D01*
X151425518Y-82344188D01*
X151305820Y-82380498D01*
X151195506Y-82439463D01*
X151098815Y-82518815D01*
X151019463Y-82615506D01*
X150960498Y-82725820D01*
X150924188Y-82845518D01*
X150911928Y-82970000D01*
X150911928Y-84670000D01*
X150924188Y-84794482D01*
X150960498Y-84914180D01*
X151019463Y-85024494D01*
X151098815Y-85121185D01*
X151195506Y-85200537D01*
X151305820Y-85259502D01*
X151374687Y-85280393D01*
X151344866Y-85304866D01*
X151159294Y-85530986D01*
X151021401Y-85788966D01*
X150936487Y-86068889D01*
X150907815Y-86360000D01*
X150936487Y-86651111D01*
X151021401Y-86931034D01*
X151159294Y-87189014D01*
X151344866Y-87415134D01*
X151570986Y-87600706D01*
X151635523Y-87635201D01*
X151518645Y-87704822D01*
X151302412Y-87899731D01*
X151128359Y-88133080D01*
X151003175Y-88395901D01*
X150958524Y-88543110D01*
X151079845Y-88773000D01*
X152273000Y-88773000D01*
X152273000Y-88753000D01*
X152527000Y-88753000D01*
X152527000Y-88773000D01*
X152547000Y-88773000D01*
X152547000Y-89027000D01*
X152527000Y-89027000D01*
X152527000Y-89047000D01*
X152273000Y-89047000D01*
X152273000Y-89027000D01*
X151079845Y-89027000D01*
X150958524Y-89256890D01*
X151003175Y-89404099D01*
X151128359Y-89666920D01*
X151302412Y-89900269D01*
X151518645Y-90095178D01*
X151635523Y-90164799D01*
X151570986Y-90199294D01*
X151344866Y-90384866D01*
X151159294Y-90610986D01*
X151021401Y-90868966D01*
X150936487Y-91148889D01*
X150907815Y-91440000D01*
X150936487Y-91731111D01*
X151021401Y-92011034D01*
X151159294Y-92269014D01*
X151344866Y-92495134D01*
X151570986Y-92680706D01*
X151625791Y-92710000D01*
X151570986Y-92739294D01*
X151344866Y-92924866D01*
X151159294Y-93150986D01*
X151021401Y-93408966D01*
X150936487Y-93688889D01*
X150907815Y-93980000D01*
X150936487Y-94271111D01*
X151021401Y-94551034D01*
X151159294Y-94809014D01*
X151344866Y-95035134D01*
X151570986Y-95220706D01*
X151625791Y-95250000D01*
X151570986Y-95279294D01*
X151344866Y-95464866D01*
X151159294Y-95690986D01*
X151021401Y-95948966D01*
X150936487Y-96228889D01*
X150907815Y-96520000D01*
X150936487Y-96811111D01*
X151021401Y-97091034D01*
X151159294Y-97349014D01*
X151344866Y-97575134D01*
X151570986Y-97760706D01*
X151625791Y-97790000D01*
X151570986Y-97819294D01*
X151344866Y-98004866D01*
X151159294Y-98230986D01*
X151021401Y-98488966D01*
X150936487Y-98768889D01*
X150907815Y-99060000D01*
X150936487Y-99351111D01*
X151021401Y-99631034D01*
X151159294Y-99889014D01*
X151344866Y-100115134D01*
X151570986Y-100300706D01*
X151625791Y-100330000D01*
X151570986Y-100359294D01*
X151344866Y-100544866D01*
X151159294Y-100770986D01*
X151021401Y-101028966D01*
X150936487Y-101308889D01*
X150907815Y-101600000D01*
X150936487Y-101891111D01*
X151021401Y-102171034D01*
X151159294Y-102429014D01*
X151344866Y-102655134D01*
X151570986Y-102840706D01*
X151635523Y-102875201D01*
X151518645Y-102944822D01*
X151302412Y-103139731D01*
X151128359Y-103373080D01*
X151003175Y-103635901D01*
X150958524Y-103783110D01*
X151079845Y-104013000D01*
X152273000Y-104013000D01*
X152273000Y-103993000D01*
X152527000Y-103993000D01*
X152527000Y-104013000D01*
X152547000Y-104013000D01*
X152547000Y-104267000D01*
X152527000Y-104267000D01*
X152527000Y-104287000D01*
X152273000Y-104287000D01*
X152273000Y-104267000D01*
X151079845Y-104267000D01*
X150958524Y-104496890D01*
X151003175Y-104644099D01*
X151128359Y-104906920D01*
X151302412Y-105140269D01*
X151518645Y-105335178D01*
X151635523Y-105404799D01*
X151570986Y-105439294D01*
X151344866Y-105624866D01*
X151159294Y-105850986D01*
X151021401Y-106108966D01*
X150936487Y-106388889D01*
X150907815Y-106680000D01*
X150936487Y-106971111D01*
X151021401Y-107251034D01*
X151159294Y-107509014D01*
X151344866Y-107735134D01*
X151570986Y-107920706D01*
X151625791Y-107950000D01*
X151570986Y-107979294D01*
X151344866Y-108164866D01*
X151159294Y-108390986D01*
X151021401Y-108648966D01*
X150936487Y-108928889D01*
X150907815Y-109220000D01*
X150936487Y-109511111D01*
X151021401Y-109791034D01*
X151159294Y-110049014D01*
X151344866Y-110275134D01*
X151570986Y-110460706D01*
X151625791Y-110490000D01*
X151570986Y-110519294D01*
X151344866Y-110704866D01*
X151159294Y-110930986D01*
X151021401Y-111188966D01*
X150936487Y-111468889D01*
X150907815Y-111760000D01*
X150936487Y-112051111D01*
X151021401Y-112331034D01*
X151159294Y-112589014D01*
X151344866Y-112815134D01*
X151570986Y-113000706D01*
X151625791Y-113030000D01*
X151570986Y-113059294D01*
X151344866Y-113244866D01*
X151159294Y-113470986D01*
X151021401Y-113728966D01*
X150936487Y-114008889D01*
X150907815Y-114300000D01*
X150936487Y-114591111D01*
X151021401Y-114871034D01*
X151159294Y-115129014D01*
X151344866Y-115355134D01*
X151570986Y-115540706D01*
X151635523Y-115575201D01*
X151518645Y-115644822D01*
X151302412Y-115839731D01*
X151128359Y-116073080D01*
X151003175Y-116335901D01*
X150958524Y-116483110D01*
X151079845Y-116713000D01*
X152273000Y-116713000D01*
X152273000Y-116693000D01*
X152527000Y-116693000D01*
X152527000Y-116713000D01*
X152547000Y-116713000D01*
X152547000Y-116967000D01*
X152527000Y-116967000D01*
X152527000Y-116987000D01*
X152273000Y-116987000D01*
X152273000Y-116967000D01*
X151079845Y-116967000D01*
X150958524Y-117196890D01*
X151003175Y-117344099D01*
X151128359Y-117606920D01*
X151302412Y-117840269D01*
X151518645Y-118035178D01*
X151635523Y-118104799D01*
X151570986Y-118139294D01*
X151344866Y-118324866D01*
X151159294Y-118550986D01*
X151021401Y-118808966D01*
X150936487Y-119088889D01*
X150907815Y-119380000D01*
X150936487Y-119671111D01*
X151021401Y-119951034D01*
X151159294Y-120209014D01*
X151344866Y-120435134D01*
X151570986Y-120620706D01*
X151625791Y-120650000D01*
X151570986Y-120679294D01*
X151344866Y-120864866D01*
X151159294Y-121090986D01*
X151021401Y-121348966D01*
X150936487Y-121628889D01*
X150907815Y-121920000D01*
X150936487Y-122211111D01*
X151021401Y-122491034D01*
X151159294Y-122749014D01*
X151344866Y-122975134D01*
X151570986Y-123160706D01*
X151625791Y-123190000D01*
X151570986Y-123219294D01*
X151344866Y-123404866D01*
X151159294Y-123630986D01*
X151021401Y-123888966D01*
X150936487Y-124168889D01*
X150907815Y-124460000D01*
X150936487Y-124751111D01*
X151021401Y-125031034D01*
X151159294Y-125289014D01*
X151344866Y-125515134D01*
X151570986Y-125700706D01*
X151828966Y-125838599D01*
X152108889Y-125923513D01*
X152327050Y-125945000D01*
X152472950Y-125945000D01*
X152691111Y-125923513D01*
X152971034Y-125838599D01*
X153229014Y-125700706D01*
X153455134Y-125515134D01*
X153640706Y-125289014D01*
X153670000Y-125234209D01*
X153699294Y-125289014D01*
X153884866Y-125515134D01*
X154110986Y-125700706D01*
X154368966Y-125838599D01*
X154648889Y-125923513D01*
X154867050Y-125945000D01*
X155012950Y-125945000D01*
X155231111Y-125923513D01*
X155511034Y-125838599D01*
X155769014Y-125700706D01*
X155995134Y-125515134D01*
X156083000Y-125408069D01*
X156083000Y-126238000D01*
X104902000Y-126238000D01*
X104902000Y-91440000D01*
X105187815Y-91440000D01*
X105216487Y-91731111D01*
X105301401Y-92011034D01*
X105439294Y-92269014D01*
X105624866Y-92495134D01*
X105850986Y-92680706D01*
X105905791Y-92710000D01*
X105850986Y-92739294D01*
X105624866Y-92924866D01*
X105439294Y-93150986D01*
X105301401Y-93408966D01*
X105216487Y-93688889D01*
X105187815Y-93980000D01*
X105216487Y-94271111D01*
X105301401Y-94551034D01*
X105439294Y-94809014D01*
X105624866Y-95035134D01*
X105850986Y-95220706D01*
X105905791Y-95250000D01*
X105850986Y-95279294D01*
X105624866Y-95464866D01*
X105439294Y-95690986D01*
X105301401Y-95948966D01*
X105216487Y-96228889D01*
X105187815Y-96520000D01*
X105216487Y-96811111D01*
X105301401Y-97091034D01*
X105439294Y-97349014D01*
X105624866Y-97575134D01*
X105850986Y-97760706D01*
X105905791Y-97790000D01*
X105850986Y-97819294D01*
X105624866Y-98004866D01*
X105439294Y-98230986D01*
X105301401Y-98488966D01*
X105216487Y-98768889D01*
X105187815Y-99060000D01*
X105216487Y-99351111D01*
X105301401Y-99631034D01*
X105439294Y-99889014D01*
X105624866Y-100115134D01*
X105850986Y-100300706D01*
X105905791Y-100330000D01*
X105850986Y-100359294D01*
X105624866Y-100544866D01*
X105439294Y-100770986D01*
X105301401Y-101028966D01*
X105216487Y-101308889D01*
X105187815Y-101600000D01*
X105216487Y-101891111D01*
X105301401Y-102171034D01*
X105439294Y-102429014D01*
X105624866Y-102655134D01*
X105850986Y-102840706D01*
X105905791Y-102870000D01*
X105850986Y-102899294D01*
X105624866Y-103084866D01*
X105439294Y-103310986D01*
X105301401Y-103568966D01*
X105216487Y-103848889D01*
X105187815Y-104140000D01*
X105216487Y-104431111D01*
X105301401Y-104711034D01*
X105439294Y-104969014D01*
X105624866Y-105195134D01*
X105850986Y-105380706D01*
X105905791Y-105410000D01*
X105850986Y-105439294D01*
X105624866Y-105624866D01*
X105439294Y-105850986D01*
X105301401Y-106108966D01*
X105216487Y-106388889D01*
X105187815Y-106680000D01*
X105216487Y-106971111D01*
X105301401Y-107251034D01*
X105439294Y-107509014D01*
X105624866Y-107735134D01*
X105850986Y-107920706D01*
X105905791Y-107950000D01*
X105850986Y-107979294D01*
X105624866Y-108164866D01*
X105439294Y-108390986D01*
X105301401Y-108648966D01*
X105216487Y-108928889D01*
X105187815Y-109220000D01*
X105216487Y-109511111D01*
X105301401Y-109791034D01*
X105439294Y-110049014D01*
X105624866Y-110275134D01*
X105850986Y-110460706D01*
X105905791Y-110490000D01*
X105850986Y-110519294D01*
X105624866Y-110704866D01*
X105439294Y-110930986D01*
X105301401Y-111188966D01*
X105216487Y-111468889D01*
X105187815Y-111760000D01*
X105216487Y-112051111D01*
X105301401Y-112331034D01*
X105439294Y-112589014D01*
X105624866Y-112815134D01*
X105850986Y-113000706D01*
X105905791Y-113030000D01*
X105850986Y-113059294D01*
X105624866Y-113244866D01*
X105439294Y-113470986D01*
X105301401Y-113728966D01*
X105216487Y-114008889D01*
X105187815Y-114300000D01*
X105216487Y-114591111D01*
X105301401Y-114871034D01*
X105439294Y-115129014D01*
X105624866Y-115355134D01*
X105850986Y-115540706D01*
X105915523Y-115575201D01*
X105798645Y-115644822D01*
X105582412Y-115839731D01*
X105408359Y-116073080D01*
X105283175Y-116335901D01*
X105238524Y-116483110D01*
X105359845Y-116713000D01*
X106553000Y-116713000D01*
X106553000Y-116693000D01*
X106807000Y-116693000D01*
X106807000Y-116713000D01*
X106827000Y-116713000D01*
X106827000Y-116967000D01*
X106807000Y-116967000D01*
X106807000Y-116987000D01*
X106553000Y-116987000D01*
X106553000Y-116967000D01*
X105359845Y-116967000D01*
X105238524Y-117196890D01*
X105283175Y-117344099D01*
X105408359Y-117606920D01*
X105582412Y-117840269D01*
X105798645Y-118035178D01*
X105915523Y-118104799D01*
X105850986Y-118139294D01*
X105624866Y-118324866D01*
X105439294Y-118550986D01*
X105301401Y-118808966D01*
X105216487Y-119088889D01*
X105187815Y-119380000D01*
X105216487Y-119671111D01*
X105301401Y-119951034D01*
X105439294Y-120209014D01*
X105624866Y-120435134D01*
X105850986Y-120620706D01*
X105905791Y-120650000D01*
X105850986Y-120679294D01*
X105624866Y-120864866D01*
X105439294Y-121090986D01*
X105301401Y-121348966D01*
X105216487Y-121628889D01*
X105187815Y-121920000D01*
X105216487Y-122211111D01*
X105301401Y-122491034D01*
X105439294Y-122749014D01*
X105624866Y-122975134D01*
X105850986Y-123160706D01*
X105905791Y-123190000D01*
X105850986Y-123219294D01*
X105624866Y-123404866D01*
X105439294Y-123630986D01*
X105301401Y-123888966D01*
X105216487Y-124168889D01*
X105187815Y-124460000D01*
X105216487Y-124751111D01*
X105301401Y-125031034D01*
X105439294Y-125289014D01*
X105624866Y-125515134D01*
X105850986Y-125700706D01*
X106108966Y-125838599D01*
X106388889Y-125923513D01*
X106607050Y-125945000D01*
X106752950Y-125945000D01*
X106971111Y-125923513D01*
X107251034Y-125838599D01*
X107509014Y-125700706D01*
X107735134Y-125515134D01*
X107920706Y-125289014D01*
X107950000Y-125234209D01*
X107979294Y-125289014D01*
X108164866Y-125515134D01*
X108390986Y-125700706D01*
X108648966Y-125838599D01*
X108928889Y-125923513D01*
X109147050Y-125945000D01*
X109292950Y-125945000D01*
X109511111Y-125923513D01*
X109791034Y-125838599D01*
X110049014Y-125700706D01*
X110275134Y-125515134D01*
X110460706Y-125289014D01*
X110598599Y-125031034D01*
X110683513Y-124751111D01*
X110712185Y-124460000D01*
X110683513Y-124168889D01*
X110659583Y-124090000D01*
X134351928Y-124090000D01*
X134364188Y-124214482D01*
X134400498Y-124334180D01*
X134459463Y-124444494D01*
X134538815Y-124541185D01*
X134635506Y-124620537D01*
X134745820Y-124679502D01*
X134865518Y-124715812D01*
X134990000Y-124728072D01*
X135604250Y-124725000D01*
X135763000Y-124566250D01*
X135763000Y-123317000D01*
X136017000Y-123317000D01*
X136017000Y-124566250D01*
X136175750Y-124725000D01*
X136790000Y-124728072D01*
X136914482Y-124715812D01*
X137034180Y-124679502D01*
X137144494Y-124620537D01*
X137241185Y-124541185D01*
X137320537Y-124444494D01*
X137379502Y-124334180D01*
X137415812Y-124214482D01*
X137428072Y-124090000D01*
X139431928Y-124090000D01*
X139444188Y-124214482D01*
X139480498Y-124334180D01*
X139539463Y-124444494D01*
X139618815Y-124541185D01*
X139715506Y-124620537D01*
X139825820Y-124679502D01*
X139945518Y-124715812D01*
X140070000Y-124728072D01*
X140684250Y-124725000D01*
X140843000Y-124566250D01*
X140843000Y-123317000D01*
X141097000Y-123317000D01*
X141097000Y-124566250D01*
X141255750Y-124725000D01*
X141870000Y-124728072D01*
X141994482Y-124715812D01*
X142114180Y-124679502D01*
X142224494Y-124620537D01*
X142321185Y-124541185D01*
X142400537Y-124444494D01*
X142459502Y-124334180D01*
X142495812Y-124214482D01*
X142508072Y-124090000D01*
X142505000Y-123475750D01*
X142346250Y-123317000D01*
X141097000Y-123317000D01*
X140843000Y-123317000D01*
X139593750Y-123317000D01*
X139435000Y-123475750D01*
X139431928Y-124090000D01*
X137428072Y-124090000D01*
X137425000Y-123475750D01*
X137266250Y-123317000D01*
X136017000Y-123317000D01*
X135763000Y-123317000D01*
X134513750Y-123317000D01*
X134355000Y-123475750D01*
X134351928Y-124090000D01*
X110659583Y-124090000D01*
X110598599Y-123888966D01*
X110460706Y-123630986D01*
X110275134Y-123404866D01*
X110049014Y-123219294D01*
X109994209Y-123190000D01*
X110049014Y-123160706D01*
X110275134Y-122975134D01*
X110460706Y-122749014D01*
X110598599Y-122491034D01*
X110659582Y-122290000D01*
X134351928Y-122290000D01*
X134355000Y-122904250D01*
X134513750Y-123063000D01*
X135763000Y-123063000D01*
X135763000Y-123043000D01*
X136017000Y-123043000D01*
X136017000Y-123063000D01*
X137266250Y-123063000D01*
X137425000Y-122904250D01*
X137428072Y-122290000D01*
X139431928Y-122290000D01*
X139435000Y-122904250D01*
X139593750Y-123063000D01*
X140843000Y-123063000D01*
X140843000Y-123043000D01*
X141097000Y-123043000D01*
X141097000Y-123063000D01*
X142346250Y-123063000D01*
X142505000Y-122904250D01*
X142508072Y-122290000D01*
X142495812Y-122165518D01*
X142459502Y-122045820D01*
X142400537Y-121935506D01*
X142321185Y-121838815D01*
X142224494Y-121759463D01*
X142114180Y-121700498D01*
X142095873Y-121694944D01*
X142162312Y-121628505D01*
X142330299Y-121377095D01*
X142446011Y-121097743D01*
X142505000Y-120801184D01*
X142505000Y-120498816D01*
X142446011Y-120202257D01*
X142330299Y-119922905D01*
X142162312Y-119671495D01*
X141948505Y-119457688D01*
X141697095Y-119289701D01*
X141417743Y-119173989D01*
X141121184Y-119115000D01*
X140818816Y-119115000D01*
X140522257Y-119173989D01*
X140242905Y-119289701D01*
X139991495Y-119457688D01*
X139777688Y-119671495D01*
X139609701Y-119922905D01*
X139493989Y-120202257D01*
X139435000Y-120498816D01*
X139435000Y-120801184D01*
X139493989Y-121097743D01*
X139609701Y-121377095D01*
X139777688Y-121628505D01*
X139844127Y-121694944D01*
X139825820Y-121700498D01*
X139715506Y-121759463D01*
X139618815Y-121838815D01*
X139539463Y-121935506D01*
X139480498Y-122045820D01*
X139444188Y-122165518D01*
X139431928Y-122290000D01*
X137428072Y-122290000D01*
X137415812Y-122165518D01*
X137379502Y-122045820D01*
X137320537Y-121935506D01*
X137241185Y-121838815D01*
X137144494Y-121759463D01*
X137034180Y-121700498D01*
X137015873Y-121694944D01*
X137082312Y-121628505D01*
X137250299Y-121377095D01*
X137366011Y-121097743D01*
X137425000Y-120801184D01*
X137425000Y-120498816D01*
X137366011Y-120202257D01*
X137250299Y-119922905D01*
X137082312Y-119671495D01*
X136868505Y-119457688D01*
X136617095Y-119289701D01*
X136337743Y-119173989D01*
X136041184Y-119115000D01*
X135738816Y-119115000D01*
X135442257Y-119173989D01*
X135162905Y-119289701D01*
X134911495Y-119457688D01*
X134697688Y-119671495D01*
X134529701Y-119922905D01*
X134413989Y-120202257D01*
X134355000Y-120498816D01*
X134355000Y-120801184D01*
X134413989Y-121097743D01*
X134529701Y-121377095D01*
X134697688Y-121628505D01*
X134764127Y-121694944D01*
X134745820Y-121700498D01*
X134635506Y-121759463D01*
X134538815Y-121838815D01*
X134459463Y-121935506D01*
X134400498Y-122045820D01*
X134364188Y-122165518D01*
X134351928Y-122290000D01*
X110659582Y-122290000D01*
X110683513Y-122211111D01*
X110712185Y-121920000D01*
X110683513Y-121628889D01*
X110598599Y-121348966D01*
X110460706Y-121090986D01*
X110275134Y-120864866D01*
X110049014Y-120679294D01*
X109994209Y-120650000D01*
X110049014Y-120620706D01*
X110177313Y-120515413D01*
X122234192Y-120515413D01*
X122329956Y-120779814D01*
X122619571Y-120920704D01*
X122931108Y-121002384D01*
X123252595Y-121021718D01*
X123571675Y-120977961D01*
X123876088Y-120872795D01*
X124050044Y-120779814D01*
X124145808Y-120515413D01*
X123190000Y-119559605D01*
X122234192Y-120515413D01*
X110177313Y-120515413D01*
X110275134Y-120435134D01*
X110460706Y-120209014D01*
X110598599Y-119951034D01*
X110683513Y-119671111D01*
X110706019Y-119442595D01*
X121548282Y-119442595D01*
X121592039Y-119761675D01*
X121697205Y-120066088D01*
X121790186Y-120240044D01*
X122054587Y-120335808D01*
X123010395Y-119380000D01*
X123369605Y-119380000D01*
X124325413Y-120335808D01*
X124589814Y-120240044D01*
X124730704Y-119950429D01*
X124812384Y-119638892D01*
X124831718Y-119317405D01*
X124787961Y-118998325D01*
X124682795Y-118693912D01*
X124589814Y-118519956D01*
X124325413Y-118424192D01*
X123369605Y-119380000D01*
X123010395Y-119380000D01*
X122054587Y-118424192D01*
X121790186Y-118519956D01*
X121649296Y-118809571D01*
X121567616Y-119121108D01*
X121548282Y-119442595D01*
X110706019Y-119442595D01*
X110712185Y-119380000D01*
X110683513Y-119088889D01*
X110598599Y-118808966D01*
X110460706Y-118550986D01*
X110275134Y-118324866D01*
X110177314Y-118244587D01*
X122234192Y-118244587D01*
X123190000Y-119200395D01*
X124145808Y-118244587D01*
X124050044Y-117980186D01*
X123760429Y-117839296D01*
X123448892Y-117757616D01*
X123127405Y-117738282D01*
X122808325Y-117782039D01*
X122503912Y-117887205D01*
X122329956Y-117980186D01*
X122234192Y-118244587D01*
X110177314Y-118244587D01*
X110049014Y-118139294D01*
X109994209Y-118110000D01*
X110049014Y-118080706D01*
X110275134Y-117895134D01*
X110460706Y-117669014D01*
X110598599Y-117411034D01*
X110683513Y-117131111D01*
X110712185Y-116840000D01*
X134448057Y-116840000D01*
X134475764Y-117121309D01*
X134557818Y-117391808D01*
X134691068Y-117641101D01*
X134870392Y-117859608D01*
X135088899Y-118038932D01*
X135338192Y-118172182D01*
X135608691Y-118254236D01*
X135819508Y-118275000D01*
X135960492Y-118275000D01*
X136171309Y-118254236D01*
X136441808Y-118172182D01*
X136691101Y-118038932D01*
X136909608Y-117859608D01*
X137088932Y-117641101D01*
X137222182Y-117391808D01*
X137304236Y-117121309D01*
X137331943Y-116840000D01*
X139528057Y-116840000D01*
X139555764Y-117121309D01*
X139637818Y-117391808D01*
X139771068Y-117641101D01*
X139950392Y-117859608D01*
X140168899Y-118038932D01*
X140418192Y-118172182D01*
X140688691Y-118254236D01*
X140899508Y-118275000D01*
X141040492Y-118275000D01*
X141251309Y-118254236D01*
X141521808Y-118172182D01*
X141771101Y-118038932D01*
X141989608Y-117859608D01*
X142168932Y-117641101D01*
X142302182Y-117391808D01*
X142384236Y-117121309D01*
X142411943Y-116840000D01*
X142384236Y-116558691D01*
X142302182Y-116288192D01*
X142168932Y-116038899D01*
X141989608Y-115820392D01*
X141771101Y-115641068D01*
X141521808Y-115507818D01*
X141251309Y-115425764D01*
X141040492Y-115405000D01*
X140899508Y-115405000D01*
X140688691Y-115425764D01*
X140418192Y-115507818D01*
X140168899Y-115641068D01*
X139950392Y-115820392D01*
X139771068Y-116038899D01*
X139637818Y-116288192D01*
X139555764Y-116558691D01*
X139528057Y-116840000D01*
X137331943Y-116840000D01*
X137304236Y-116558691D01*
X137222182Y-116288192D01*
X137088932Y-116038899D01*
X136909608Y-115820392D01*
X136691101Y-115641068D01*
X136441808Y-115507818D01*
X136171309Y-115425764D01*
X135960492Y-115405000D01*
X135819508Y-115405000D01*
X135608691Y-115425764D01*
X135338192Y-115507818D01*
X135088899Y-115641068D01*
X134870392Y-115820392D01*
X134691068Y-116038899D01*
X134557818Y-116288192D01*
X134475764Y-116558691D01*
X134448057Y-116840000D01*
X110712185Y-116840000D01*
X110683513Y-116548889D01*
X110598599Y-116268966D01*
X110460706Y-116010986D01*
X110275134Y-115784866D01*
X110049014Y-115599294D01*
X109994209Y-115570000D01*
X110049014Y-115540706D01*
X110275134Y-115355134D01*
X110460706Y-115129014D01*
X110497595Y-115060000D01*
X112635638Y-115060000D01*
X112678502Y-115140192D01*
X112732958Y-115221691D01*
X112812310Y-115318382D01*
X112881618Y-115387690D01*
X112978309Y-115467042D01*
X113059808Y-115521498D01*
X113170125Y-115580464D01*
X113260681Y-115617973D01*
X113380377Y-115654282D01*
X113476510Y-115673404D01*
X113600991Y-115685664D01*
X113625550Y-115685664D01*
X113650000Y-115688072D01*
X114150000Y-115688072D01*
X114274482Y-115675812D01*
X114300000Y-115668071D01*
X114325518Y-115675812D01*
X114450000Y-115688072D01*
X114950000Y-115688072D01*
X114974450Y-115685664D01*
X114999009Y-115685664D01*
X115123490Y-115673404D01*
X115219623Y-115654282D01*
X115339319Y-115617973D01*
X115429875Y-115580464D01*
X115540192Y-115521498D01*
X115621691Y-115467042D01*
X115718382Y-115387690D01*
X115787690Y-115318382D01*
X115867042Y-115221691D01*
X115921498Y-115140192D01*
X115980464Y-115029875D01*
X116017973Y-114939319D01*
X116027583Y-114907640D01*
X116110001Y-114840001D01*
X116133804Y-114810997D01*
X117618625Y-113326177D01*
X117633088Y-113332168D01*
X117948967Y-113395000D01*
X118271033Y-113395000D01*
X118586912Y-113332168D01*
X118884463Y-113208918D01*
X119152252Y-113029987D01*
X119379987Y-112802252D01*
X119558918Y-112534463D01*
X119682168Y-112236912D01*
X119745000Y-111921033D01*
X119745000Y-111598967D01*
X119682168Y-111283088D01*
X119558918Y-110985537D01*
X119379987Y-110717748D01*
X119152252Y-110490013D01*
X118884463Y-110311082D01*
X118586912Y-110187832D01*
X118271033Y-110125000D01*
X117948967Y-110125000D01*
X117633088Y-110187832D01*
X117335537Y-110311082D01*
X117067748Y-110490013D01*
X116840013Y-110717748D01*
X116661082Y-110985537D01*
X116537832Y-111283088D01*
X116475000Y-111598967D01*
X116475000Y-111921033D01*
X116537832Y-112236912D01*
X116543823Y-112251375D01*
X115643963Y-113151236D01*
X115621691Y-113132958D01*
X115540192Y-113078502D01*
X115429875Y-113019536D01*
X115339319Y-112982027D01*
X115219623Y-112945718D01*
X115123490Y-112926596D01*
X114999009Y-112914336D01*
X114974450Y-112914336D01*
X114950000Y-112911928D01*
X114450000Y-112911928D01*
X114325518Y-112924188D01*
X114300000Y-112931929D01*
X114274482Y-112924188D01*
X114150000Y-112911928D01*
X113650000Y-112911928D01*
X113625550Y-112914336D01*
X113600991Y-112914336D01*
X113476510Y-112926596D01*
X113380377Y-112945718D01*
X113260681Y-112982027D01*
X113170125Y-113019536D01*
X113059808Y-113078502D01*
X112978309Y-113132958D01*
X112881618Y-113212310D01*
X112812310Y-113281618D01*
X112732958Y-113378309D01*
X112678502Y-113459808D01*
X112635638Y-113540000D01*
X110497595Y-113540000D01*
X110460706Y-113470986D01*
X110275134Y-113244866D01*
X110049014Y-113059294D01*
X109994209Y-113030000D01*
X110049014Y-113000706D01*
X110275134Y-112815134D01*
X110460706Y-112589014D01*
X110598599Y-112331034D01*
X110683513Y-112051111D01*
X110712185Y-111760000D01*
X110683513Y-111468889D01*
X110598599Y-111188966D01*
X110460706Y-110930986D01*
X110275134Y-110704866D01*
X110049014Y-110519294D01*
X109994209Y-110490000D01*
X110049014Y-110460706D01*
X110275134Y-110275134D01*
X110460706Y-110049014D01*
X110598599Y-109791034D01*
X110683513Y-109511111D01*
X110712185Y-109220000D01*
X110683513Y-108928889D01*
X110598599Y-108648966D01*
X110460706Y-108390986D01*
X110275134Y-108164866D01*
X110049014Y-107979294D01*
X109994209Y-107950000D01*
X110049014Y-107920706D01*
X110275134Y-107735134D01*
X110460706Y-107509014D01*
X110598599Y-107251034D01*
X110683513Y-106971111D01*
X110712185Y-106680000D01*
X110683513Y-106388889D01*
X110598599Y-106108966D01*
X110460706Y-105850986D01*
X110275134Y-105624866D01*
X110049014Y-105439294D01*
X109994209Y-105410000D01*
X110049014Y-105380706D01*
X110275134Y-105195134D01*
X110460706Y-104969014D01*
X110598599Y-104711034D01*
X110683513Y-104431111D01*
X110712185Y-104140000D01*
X110683513Y-103848889D01*
X110598599Y-103568966D01*
X110460706Y-103310986D01*
X110275134Y-103084866D01*
X110049014Y-102899294D01*
X109984477Y-102864799D01*
X110101355Y-102795178D01*
X110317588Y-102600269D01*
X110491641Y-102366920D01*
X110616825Y-102104099D01*
X110661476Y-101956890D01*
X110540155Y-101727000D01*
X109347000Y-101727000D01*
X109347000Y-101747000D01*
X109093000Y-101747000D01*
X109093000Y-101727000D01*
X109073000Y-101727000D01*
X109073000Y-101473000D01*
X109093000Y-101473000D01*
X109093000Y-101453000D01*
X109347000Y-101453000D01*
X109347000Y-101473000D01*
X110540155Y-101473000D01*
X110661476Y-101243110D01*
X110616825Y-101095901D01*
X110491641Y-100833080D01*
X110317588Y-100599731D01*
X110101355Y-100404822D01*
X109984477Y-100335201D01*
X110049014Y-100300706D01*
X110275134Y-100115134D01*
X110460706Y-99889014D01*
X110598599Y-99631034D01*
X110683513Y-99351111D01*
X110712185Y-99060000D01*
X110683513Y-98768889D01*
X110598599Y-98488966D01*
X110460706Y-98230986D01*
X110275134Y-98004866D01*
X110049014Y-97819294D01*
X109994209Y-97790000D01*
X110049014Y-97760706D01*
X110275134Y-97575134D01*
X110460706Y-97349014D01*
X110598599Y-97091034D01*
X110683513Y-96811111D01*
X110712185Y-96520000D01*
X110683513Y-96228889D01*
X110598599Y-95948966D01*
X110460706Y-95690986D01*
X110275134Y-95464866D01*
X110049014Y-95279294D01*
X109994209Y-95250000D01*
X110049014Y-95220706D01*
X110275134Y-95035134D01*
X110460706Y-94809014D01*
X110598599Y-94551034D01*
X110683513Y-94271111D01*
X110712185Y-93980000D01*
X110683513Y-93688889D01*
X110598599Y-93408966D01*
X110460706Y-93150986D01*
X110275134Y-92924866D01*
X110049014Y-92739294D01*
X109994209Y-92710000D01*
X110049014Y-92680706D01*
X110275134Y-92495134D01*
X110460706Y-92269014D01*
X110598599Y-92011034D01*
X110683513Y-91731111D01*
X110712185Y-91440000D01*
X110683513Y-91148889D01*
X110598599Y-90868966D01*
X110460706Y-90610986D01*
X110275134Y-90384866D01*
X110049014Y-90199294D01*
X109994209Y-90170000D01*
X110049014Y-90140706D01*
X110275134Y-89955134D01*
X110460706Y-89729014D01*
X110598599Y-89471034D01*
X110683513Y-89191111D01*
X110712185Y-88900000D01*
X110683513Y-88608889D01*
X110598599Y-88328966D01*
X110460706Y-88070986D01*
X110275134Y-87844866D01*
X110049014Y-87659294D01*
X109791034Y-87521401D01*
X109511111Y-87436487D01*
X109292950Y-87415000D01*
X109147050Y-87415000D01*
X108928889Y-87436487D01*
X108648966Y-87521401D01*
X108390986Y-87659294D01*
X108164866Y-87844866D01*
X108140393Y-87874687D01*
X108119502Y-87805820D01*
X108060537Y-87695506D01*
X107981185Y-87598815D01*
X107884494Y-87519463D01*
X107774180Y-87460498D01*
X107654482Y-87424188D01*
X107530000Y-87411928D01*
X105830000Y-87411928D01*
X105705518Y-87424188D01*
X105585820Y-87460498D01*
X105475506Y-87519463D01*
X105378815Y-87598815D01*
X105299463Y-87695506D01*
X105240498Y-87805820D01*
X105204188Y-87925518D01*
X105191928Y-88050000D01*
X105191928Y-89750000D01*
X105204188Y-89874482D01*
X105240498Y-89994180D01*
X105299463Y-90104494D01*
X105378815Y-90201185D01*
X105475506Y-90280537D01*
X105585820Y-90339502D01*
X105654687Y-90360393D01*
X105624866Y-90384866D01*
X105439294Y-90610986D01*
X105301401Y-90868966D01*
X105216487Y-91148889D01*
X105187815Y-91440000D01*
X104902000Y-91440000D01*
X104902000Y-79096890D01*
X105238524Y-79096890D01*
X105283175Y-79244099D01*
X105408359Y-79506920D01*
X105582412Y-79740269D01*
X105798645Y-79935178D01*
X105924255Y-80010000D01*
X105798645Y-80084822D01*
X105582412Y-80279731D01*
X105408359Y-80513080D01*
X105283175Y-80775901D01*
X105238524Y-80923110D01*
X105359845Y-81153000D01*
X106553000Y-81153000D01*
X106553000Y-78867000D01*
X105359845Y-78867000D01*
X105238524Y-79096890D01*
X104902000Y-79096890D01*
X104902000Y-68580000D01*
X105187815Y-68580000D01*
X105216487Y-68871111D01*
X105301401Y-69151034D01*
X105439294Y-69409014D01*
X105624866Y-69635134D01*
X105850986Y-69820706D01*
X105905791Y-69850000D01*
X105850986Y-69879294D01*
X105624866Y-70064866D01*
X105439294Y-70290986D01*
X105301401Y-70548966D01*
X105216487Y-70828889D01*
X105187815Y-71120000D01*
X105216487Y-71411111D01*
X105301401Y-71691034D01*
X105439294Y-71949014D01*
X105624866Y-72175134D01*
X105850986Y-72360706D01*
X105905791Y-72390000D01*
X105850986Y-72419294D01*
X105624866Y-72604866D01*
X105439294Y-72830986D01*
X105301401Y-73088966D01*
X105216487Y-73368889D01*
X105187815Y-73660000D01*
X105216487Y-73951111D01*
X105301401Y-74231034D01*
X105439294Y-74489014D01*
X105624866Y-74715134D01*
X105850986Y-74900706D01*
X105905791Y-74930000D01*
X105850986Y-74959294D01*
X105624866Y-75144866D01*
X105439294Y-75370986D01*
X105301401Y-75628966D01*
X105216487Y-75908889D01*
X105187815Y-76200000D01*
X105216487Y-76491111D01*
X105301401Y-76771034D01*
X105439294Y-77029014D01*
X105624866Y-77255134D01*
X105850986Y-77440706D01*
X105915523Y-77475201D01*
X105798645Y-77544822D01*
X105582412Y-77739731D01*
X105408359Y-77973080D01*
X105283175Y-78235901D01*
X105238524Y-78383110D01*
X105359845Y-78613000D01*
X106553000Y-78613000D01*
X106553000Y-78593000D01*
X106807000Y-78593000D01*
X106807000Y-78613000D01*
X106827000Y-78613000D01*
X106827000Y-78867000D01*
X106807000Y-78867000D01*
X106807000Y-81153000D01*
X106827000Y-81153000D01*
X106827000Y-81407000D01*
X106807000Y-81407000D01*
X106807000Y-81427000D01*
X106553000Y-81427000D01*
X106553000Y-81407000D01*
X105359845Y-81407000D01*
X105238524Y-81636890D01*
X105283175Y-81784099D01*
X105408359Y-82046920D01*
X105582412Y-82280269D01*
X105798645Y-82475178D01*
X105915523Y-82544799D01*
X105850986Y-82579294D01*
X105624866Y-82764866D01*
X105439294Y-82990986D01*
X105301401Y-83248966D01*
X105216487Y-83528889D01*
X105187815Y-83820000D01*
X105216487Y-84111111D01*
X105301401Y-84391034D01*
X105439294Y-84649014D01*
X105624866Y-84875134D01*
X105850986Y-85060706D01*
X106108966Y-85198599D01*
X106388889Y-85283513D01*
X106607050Y-85305000D01*
X106752950Y-85305000D01*
X106971111Y-85283513D01*
X107251034Y-85198599D01*
X107509014Y-85060706D01*
X107735134Y-84875134D01*
X107920706Y-84649014D01*
X107950000Y-84594209D01*
X107979294Y-84649014D01*
X108164866Y-84875134D01*
X108390986Y-85060706D01*
X108648966Y-85198599D01*
X108928889Y-85283513D01*
X109147050Y-85305000D01*
X109292950Y-85305000D01*
X109511111Y-85283513D01*
X109791034Y-85198599D01*
X110049014Y-85060706D01*
X110275134Y-84875134D01*
X110460706Y-84649014D01*
X110598599Y-84391034D01*
X110683513Y-84111111D01*
X110712185Y-83820000D01*
X110683513Y-83528889D01*
X110598599Y-83248966D01*
X110460706Y-82990986D01*
X110275134Y-82764866D01*
X110049014Y-82579294D01*
X109994209Y-82550000D01*
X110049014Y-82520706D01*
X110275134Y-82335134D01*
X110460706Y-82109014D01*
X110598599Y-81851034D01*
X110683513Y-81571111D01*
X110712185Y-81280000D01*
X110683513Y-80988889D01*
X110598599Y-80708966D01*
X110460706Y-80450986D01*
X110275134Y-80224866D01*
X110049014Y-80039294D01*
X109994209Y-80010000D01*
X110049014Y-79980706D01*
X110275134Y-79795134D01*
X110460706Y-79569014D01*
X110598599Y-79311034D01*
X110683513Y-79031111D01*
X110712185Y-78740000D01*
X110698634Y-78602408D01*
X116713000Y-78602408D01*
X116713000Y-78877592D01*
X116766686Y-79147490D01*
X116871995Y-79401727D01*
X117024880Y-79630535D01*
X117219465Y-79825120D01*
X117448273Y-79978005D01*
X117525515Y-80010000D01*
X117448273Y-80041995D01*
X117219465Y-80194880D01*
X117024880Y-80389465D01*
X116871995Y-80618273D01*
X116766686Y-80872510D01*
X116713000Y-81142408D01*
X116713000Y-81417592D01*
X116766686Y-81687490D01*
X116871995Y-81941727D01*
X117024880Y-82170535D01*
X117219465Y-82365120D01*
X117448273Y-82518005D01*
X117525515Y-82550000D01*
X117448273Y-82581995D01*
X117219465Y-82734880D01*
X117024880Y-82929465D01*
X116871995Y-83158273D01*
X116766686Y-83412510D01*
X116713000Y-83682408D01*
X116713000Y-83957592D01*
X116766686Y-84227490D01*
X116871995Y-84481727D01*
X117024880Y-84710535D01*
X117219465Y-84905120D01*
X117448273Y-85058005D01*
X117525515Y-85090000D01*
X117448273Y-85121995D01*
X117219465Y-85274880D01*
X117024880Y-85469465D01*
X116871995Y-85698273D01*
X116766686Y-85952510D01*
X116713000Y-86222408D01*
X116713000Y-86497592D01*
X116766686Y-86767490D01*
X116871995Y-87021727D01*
X117024880Y-87250535D01*
X117219465Y-87445120D01*
X117448273Y-87598005D01*
X117525515Y-87630000D01*
X117448273Y-87661995D01*
X117219465Y-87814880D01*
X117024880Y-88009465D01*
X116871995Y-88238273D01*
X116766686Y-88492510D01*
X116713000Y-88762408D01*
X116713000Y-89037592D01*
X116766686Y-89307490D01*
X116871995Y-89561727D01*
X117024880Y-89790535D01*
X117219465Y-89985120D01*
X117448273Y-90138005D01*
X117702510Y-90243314D01*
X117972408Y-90297000D01*
X118247592Y-90297000D01*
X118517490Y-90243314D01*
X118771727Y-90138005D01*
X119000535Y-89985120D01*
X119195120Y-89790535D01*
X119348005Y-89561727D01*
X119453314Y-89307490D01*
X119507000Y-89037592D01*
X119507000Y-88762408D01*
X139573000Y-88762408D01*
X139573000Y-89037592D01*
X139626686Y-89307490D01*
X139731995Y-89561727D01*
X139884880Y-89790535D01*
X140079465Y-89985120D01*
X140308273Y-90138005D01*
X140562510Y-90243314D01*
X140832408Y-90297000D01*
X141107592Y-90297000D01*
X141377490Y-90243314D01*
X141631727Y-90138005D01*
X141860535Y-89985120D01*
X142055120Y-89790535D01*
X142208005Y-89561727D01*
X142313314Y-89307490D01*
X142367000Y-89037592D01*
X142367000Y-88762408D01*
X142313314Y-88492510D01*
X142208005Y-88238273D01*
X142055120Y-88009465D01*
X141860535Y-87814880D01*
X141631727Y-87661995D01*
X141560057Y-87632308D01*
X141573023Y-87627636D01*
X141688980Y-87565656D01*
X141755960Y-87325565D01*
X140970000Y-86539605D01*
X140184040Y-87325565D01*
X140251020Y-87565656D01*
X140386760Y-87629485D01*
X140308273Y-87661995D01*
X140079465Y-87814880D01*
X139884880Y-88009465D01*
X139731995Y-88238273D01*
X139626686Y-88492510D01*
X139573000Y-88762408D01*
X119507000Y-88762408D01*
X119453314Y-88492510D01*
X119348005Y-88238273D01*
X119195120Y-88009465D01*
X119000535Y-87814880D01*
X118771727Y-87661995D01*
X118694485Y-87630000D01*
X118771727Y-87598005D01*
X119000535Y-87445120D01*
X119195120Y-87250535D01*
X119348005Y-87021727D01*
X119453314Y-86767490D01*
X119507000Y-86497592D01*
X119507000Y-86432017D01*
X139568090Y-86432017D01*
X139609078Y-86704133D01*
X139702364Y-86963023D01*
X139764344Y-87078980D01*
X140004435Y-87145960D01*
X140790395Y-86360000D01*
X141149605Y-86360000D01*
X141935565Y-87145960D01*
X142175656Y-87078980D01*
X142292756Y-86829952D01*
X142359023Y-86562865D01*
X142371910Y-86287983D01*
X142330922Y-86015867D01*
X142237636Y-85756977D01*
X142175656Y-85641020D01*
X141935565Y-85574040D01*
X141149605Y-86360000D01*
X140790395Y-86360000D01*
X140004435Y-85574040D01*
X139764344Y-85641020D01*
X139647244Y-85890048D01*
X139580977Y-86157135D01*
X139568090Y-86432017D01*
X119507000Y-86432017D01*
X119507000Y-86222408D01*
X119453314Y-85952510D01*
X119348005Y-85698273D01*
X119195120Y-85469465D01*
X119000535Y-85274880D01*
X118771727Y-85121995D01*
X118694485Y-85090000D01*
X118771727Y-85058005D01*
X119000535Y-84905120D01*
X119195120Y-84710535D01*
X119348005Y-84481727D01*
X119453314Y-84227490D01*
X119507000Y-83957592D01*
X119507000Y-83682408D01*
X119453314Y-83412510D01*
X119348005Y-83158273D01*
X119195120Y-82929465D01*
X119000535Y-82734880D01*
X118771727Y-82581995D01*
X118694485Y-82550000D01*
X118771727Y-82518005D01*
X119000535Y-82365120D01*
X119195120Y-82170535D01*
X119348005Y-81941727D01*
X119453314Y-81687490D01*
X119507000Y-81417592D01*
X119507000Y-81142408D01*
X119453314Y-80872510D01*
X119348005Y-80618273D01*
X119195120Y-80389465D01*
X119000535Y-80194880D01*
X118771727Y-80041995D01*
X118694485Y-80010000D01*
X118771727Y-79978005D01*
X119000535Y-79825120D01*
X119195120Y-79630535D01*
X119348005Y-79401727D01*
X119453314Y-79147490D01*
X119507000Y-78877592D01*
X119507000Y-78602408D01*
X119453314Y-78332510D01*
X119348005Y-78078273D01*
X119195120Y-77849465D01*
X119000535Y-77654880D01*
X118771727Y-77501995D01*
X118517490Y-77396686D01*
X118247592Y-77343000D01*
X117972408Y-77343000D01*
X117702510Y-77396686D01*
X117448273Y-77501995D01*
X117219465Y-77654880D01*
X117024880Y-77849465D01*
X116871995Y-78078273D01*
X116766686Y-78332510D01*
X116713000Y-78602408D01*
X110698634Y-78602408D01*
X110683513Y-78448889D01*
X110598599Y-78168966D01*
X110460706Y-77910986D01*
X110275134Y-77684866D01*
X110049014Y-77499294D01*
X109994209Y-77470000D01*
X110049014Y-77440706D01*
X110275134Y-77255134D01*
X110460706Y-77029014D01*
X110598599Y-76771034D01*
X110683513Y-76491111D01*
X110712185Y-76200000D01*
X110698634Y-76062408D01*
X139573000Y-76062408D01*
X139573000Y-76337592D01*
X139626686Y-76607490D01*
X139731995Y-76861727D01*
X139884880Y-77090535D01*
X140079465Y-77285120D01*
X140308273Y-77438005D01*
X140385515Y-77470000D01*
X140308273Y-77501995D01*
X140079465Y-77654880D01*
X139884880Y-77849465D01*
X139731995Y-78078273D01*
X139626686Y-78332510D01*
X139573000Y-78602408D01*
X139573000Y-78877592D01*
X139626686Y-79147490D01*
X139731995Y-79401727D01*
X139884880Y-79630535D01*
X140079465Y-79825120D01*
X140308273Y-79978005D01*
X140385515Y-80010000D01*
X140308273Y-80041995D01*
X140079465Y-80194880D01*
X139884880Y-80389465D01*
X139731995Y-80618273D01*
X139626686Y-80872510D01*
X139573000Y-81142408D01*
X139573000Y-81417592D01*
X139626686Y-81687490D01*
X139731995Y-81941727D01*
X139884880Y-82170535D01*
X140079465Y-82365120D01*
X140308273Y-82518005D01*
X140385515Y-82550000D01*
X140308273Y-82581995D01*
X140079465Y-82734880D01*
X139884880Y-82929465D01*
X139731995Y-83158273D01*
X139626686Y-83412510D01*
X139573000Y-83682408D01*
X139573000Y-83957592D01*
X139626686Y-84227490D01*
X139731995Y-84481727D01*
X139884880Y-84710535D01*
X140079465Y-84905120D01*
X140308273Y-85058005D01*
X140379943Y-85087692D01*
X140366977Y-85092364D01*
X140251020Y-85154344D01*
X140184040Y-85394435D01*
X140970000Y-86180395D01*
X141755960Y-85394435D01*
X141688980Y-85154344D01*
X141553240Y-85090515D01*
X141631727Y-85058005D01*
X141860535Y-84905120D01*
X142055120Y-84710535D01*
X142208005Y-84481727D01*
X142313314Y-84227490D01*
X142367000Y-83957592D01*
X142367000Y-83682408D01*
X142313314Y-83412510D01*
X142208005Y-83158273D01*
X142055120Y-82929465D01*
X141860535Y-82734880D01*
X141631727Y-82581995D01*
X141554485Y-82550000D01*
X141631727Y-82518005D01*
X141860535Y-82365120D01*
X142055120Y-82170535D01*
X142208005Y-81941727D01*
X142313314Y-81687490D01*
X142367000Y-81417592D01*
X142367000Y-81142408D01*
X142313314Y-80872510D01*
X142208005Y-80618273D01*
X142055120Y-80389465D01*
X141860535Y-80194880D01*
X141631727Y-80041995D01*
X141554485Y-80010000D01*
X141631727Y-79978005D01*
X141860535Y-79825120D01*
X142055120Y-79630535D01*
X142208005Y-79401727D01*
X142313314Y-79147490D01*
X142367000Y-78877592D01*
X142367000Y-78602408D01*
X142313314Y-78332510D01*
X142208005Y-78078273D01*
X142055120Y-77849465D01*
X141860535Y-77654880D01*
X141631727Y-77501995D01*
X141554485Y-77470000D01*
X141631727Y-77438005D01*
X141860535Y-77285120D01*
X142055120Y-77090535D01*
X142208005Y-76861727D01*
X142313314Y-76607490D01*
X142367000Y-76337592D01*
X142367000Y-76062408D01*
X142313314Y-75792510D01*
X142208005Y-75538273D01*
X142055120Y-75309465D01*
X141860535Y-75114880D01*
X141631727Y-74961995D01*
X141560057Y-74932308D01*
X141573023Y-74927636D01*
X141688980Y-74865656D01*
X141755960Y-74625565D01*
X140970000Y-73839605D01*
X140184040Y-74625565D01*
X140251020Y-74865656D01*
X140386760Y-74929485D01*
X140308273Y-74961995D01*
X140079465Y-75114880D01*
X139884880Y-75309465D01*
X139731995Y-75538273D01*
X139626686Y-75792510D01*
X139573000Y-76062408D01*
X110698634Y-76062408D01*
X110683513Y-75908889D01*
X110598599Y-75628966D01*
X110460706Y-75370986D01*
X110275134Y-75144866D01*
X110049014Y-74959294D01*
X109994209Y-74930000D01*
X110049014Y-74900706D01*
X110275134Y-74715134D01*
X110460706Y-74489014D01*
X110598599Y-74231034D01*
X110683513Y-73951111D01*
X110705091Y-73732017D01*
X139568090Y-73732017D01*
X139609078Y-74004133D01*
X139702364Y-74263023D01*
X139764344Y-74378980D01*
X140004435Y-74445960D01*
X140790395Y-73660000D01*
X141149605Y-73660000D01*
X141935565Y-74445960D01*
X142175656Y-74378980D01*
X142292756Y-74129952D01*
X142359023Y-73862865D01*
X142371910Y-73587983D01*
X142330922Y-73315867D01*
X142237636Y-73056977D01*
X142175656Y-72941020D01*
X141935565Y-72874040D01*
X141149605Y-73660000D01*
X140790395Y-73660000D01*
X140004435Y-72874040D01*
X139764344Y-72941020D01*
X139647244Y-73190048D01*
X139580977Y-73457135D01*
X139568090Y-73732017D01*
X110705091Y-73732017D01*
X110712185Y-73660000D01*
X110683513Y-73368889D01*
X110598599Y-73088966D01*
X110460706Y-72830986D01*
X110275134Y-72604866D01*
X110049014Y-72419294D01*
X109994209Y-72390000D01*
X110049014Y-72360706D01*
X110275134Y-72175134D01*
X110460706Y-71949014D01*
X110598599Y-71691034D01*
X110683513Y-71411111D01*
X110712185Y-71120000D01*
X110683513Y-70828889D01*
X110598599Y-70548966D01*
X110460706Y-70290986D01*
X110275134Y-70064866D01*
X110049014Y-69879294D01*
X109994209Y-69850000D01*
X110049014Y-69820706D01*
X110275134Y-69635134D01*
X110460706Y-69409014D01*
X110598599Y-69151034D01*
X110683513Y-68871111D01*
X110712185Y-68580000D01*
X110683513Y-68288889D01*
X110598599Y-68008966D01*
X110460706Y-67750986D01*
X110275134Y-67524866D01*
X110049014Y-67339294D01*
X109994209Y-67310000D01*
X110049014Y-67280706D01*
X110275134Y-67095134D01*
X110460706Y-66869014D01*
X110598599Y-66611034D01*
X110683513Y-66331111D01*
X110712185Y-66040000D01*
X110683513Y-65748889D01*
X110598599Y-65468966D01*
X110460706Y-65210986D01*
X110275134Y-64984866D01*
X110049014Y-64799294D01*
X109791034Y-64661401D01*
X109511111Y-64576487D01*
X109292950Y-64555000D01*
X109147050Y-64555000D01*
X108928889Y-64576487D01*
X108648966Y-64661401D01*
X108390986Y-64799294D01*
X108164866Y-64984866D01*
X108140393Y-65014687D01*
X108119502Y-64945820D01*
X108060537Y-64835506D01*
X107981185Y-64738815D01*
X107884494Y-64659463D01*
X107774180Y-64600498D01*
X107654482Y-64564188D01*
X107530000Y-64551928D01*
X105830000Y-64551928D01*
X105705518Y-64564188D01*
X105585820Y-64600498D01*
X105475506Y-64659463D01*
X105378815Y-64738815D01*
X105299463Y-64835506D01*
X105240498Y-64945820D01*
X105204188Y-65065518D01*
X105191928Y-65190000D01*
X105191928Y-66890000D01*
X105204188Y-67014482D01*
X105240498Y-67134180D01*
X105299463Y-67244494D01*
X105378815Y-67341185D01*
X105475506Y-67420537D01*
X105585820Y-67479502D01*
X105654687Y-67500393D01*
X105624866Y-67524866D01*
X105439294Y-67750986D01*
X105301401Y-68008966D01*
X105216487Y-68288889D01*
X105187815Y-68580000D01*
X104902000Y-68580000D01*
X104902000Y-55952017D01*
X139568090Y-55952017D01*
X139609078Y-56224133D01*
X139702364Y-56483023D01*
X139764344Y-56598980D01*
X140004435Y-56665960D01*
X140790395Y-55880000D01*
X141149605Y-55880000D01*
X141935565Y-56665960D01*
X142175656Y-56598980D01*
X142292756Y-56349952D01*
X142359023Y-56082865D01*
X142371910Y-55807983D01*
X142330922Y-55535867D01*
X142237636Y-55276977D01*
X142175656Y-55161020D01*
X141935565Y-55094040D01*
X141149605Y-55880000D01*
X140790395Y-55880000D01*
X140004435Y-55094040D01*
X139764344Y-55161020D01*
X139647244Y-55410048D01*
X139580977Y-55677135D01*
X139568090Y-55952017D01*
X104902000Y-55952017D01*
X104902000Y-54914435D01*
X140184040Y-54914435D01*
X140970000Y-55700395D01*
X141755960Y-54914435D01*
X141688980Y-54674344D01*
X141439952Y-54557244D01*
X141172865Y-54490977D01*
X140897983Y-54478090D01*
X140625867Y-54519078D01*
X140366977Y-54612364D01*
X140251020Y-54674344D01*
X140184040Y-54914435D01*
X104902000Y-54914435D01*
X104902000Y-50800000D01*
X134448057Y-50800000D01*
X134475764Y-51081309D01*
X134557818Y-51351808D01*
X134691068Y-51601101D01*
X134870392Y-51819608D01*
X135088899Y-51998932D01*
X135338192Y-52132182D01*
X135608691Y-52214236D01*
X135819508Y-52235000D01*
X135960492Y-52235000D01*
X136171309Y-52214236D01*
X136441808Y-52132182D01*
X136691101Y-51998932D01*
X136909608Y-51819608D01*
X137088932Y-51601101D01*
X137222182Y-51351808D01*
X137304236Y-51081309D01*
X137331943Y-50800000D01*
X139528057Y-50800000D01*
X139555764Y-51081309D01*
X139637818Y-51351808D01*
X139771068Y-51601101D01*
X139950392Y-51819608D01*
X140168899Y-51998932D01*
X140418192Y-52132182D01*
X140688691Y-52214236D01*
X140899508Y-52235000D01*
X141040492Y-52235000D01*
X141251309Y-52214236D01*
X141521808Y-52132182D01*
X141771101Y-51998932D01*
X141989608Y-51819608D01*
X142168932Y-51601101D01*
X142302182Y-51351808D01*
X142384236Y-51081309D01*
X142411943Y-50800000D01*
X142384236Y-50518691D01*
X142302182Y-50248192D01*
X142168932Y-49998899D01*
X141989608Y-49780392D01*
X141771101Y-49601068D01*
X141521808Y-49467818D01*
X141251309Y-49385764D01*
X141040492Y-49365000D01*
X140899508Y-49365000D01*
X140688691Y-49385764D01*
X140418192Y-49467818D01*
X140168899Y-49601068D01*
X139950392Y-49780392D01*
X139771068Y-49998899D01*
X139637818Y-50248192D01*
X139555764Y-50518691D01*
X139528057Y-50800000D01*
X137331943Y-50800000D01*
X137304236Y-50518691D01*
X137222182Y-50248192D01*
X137088932Y-49998899D01*
X136909608Y-49780392D01*
X136691101Y-49601068D01*
X136441808Y-49467818D01*
X136171309Y-49385764D01*
X135960492Y-49365000D01*
X135819508Y-49365000D01*
X135608691Y-49385764D01*
X135338192Y-49467818D01*
X135088899Y-49601068D01*
X134870392Y-49780392D01*
X134691068Y-49998899D01*
X134557818Y-50248192D01*
X134475764Y-50518691D01*
X134448057Y-50800000D01*
X104902000Y-50800000D01*
X104902000Y-48616890D01*
X150958524Y-48616890D01*
X151003175Y-48764099D01*
X151128359Y-49026920D01*
X151302412Y-49260269D01*
X151518645Y-49455178D01*
X151768748Y-49604157D01*
X152043109Y-49701481D01*
X152273000Y-49580814D01*
X152273000Y-48387000D01*
X151079845Y-48387000D01*
X150958524Y-48616890D01*
X104902000Y-48616890D01*
X104902000Y-40498665D01*
X134455000Y-40498665D01*
X134455000Y-40781335D01*
X134510147Y-41058574D01*
X134618320Y-41319727D01*
X134775363Y-41554759D01*
X134975241Y-41754637D01*
X135210273Y-41911680D01*
X135471426Y-42019853D01*
X135748665Y-42075000D01*
X136031335Y-42075000D01*
X136308574Y-42019853D01*
X136569727Y-41911680D01*
X136804759Y-41754637D01*
X137004637Y-41554759D01*
X137161680Y-41319727D01*
X137269853Y-41058574D01*
X137325000Y-40781335D01*
X137325000Y-40498665D01*
X139535000Y-40498665D01*
X139535000Y-40781335D01*
X139590147Y-41058574D01*
X139698320Y-41319727D01*
X139855363Y-41554759D01*
X140055241Y-41754637D01*
X140290273Y-41911680D01*
X140551426Y-42019853D01*
X140828665Y-42075000D01*
X141111335Y-42075000D01*
X141388574Y-42019853D01*
X141649727Y-41911680D01*
X141884759Y-41754637D01*
X142084637Y-41554759D01*
X142241680Y-41319727D01*
X142349853Y-41058574D01*
X142405000Y-40781335D01*
X142405000Y-40498665D01*
X142349853Y-40221426D01*
X142241680Y-39960273D01*
X142084637Y-39725241D01*
X141884759Y-39525363D01*
X141649727Y-39368320D01*
X141388574Y-39260147D01*
X141111335Y-39205000D01*
X140828665Y-39205000D01*
X140551426Y-39260147D01*
X140290273Y-39368320D01*
X140055241Y-39525363D01*
X139855363Y-39725241D01*
X139698320Y-39960273D01*
X139590147Y-40221426D01*
X139535000Y-40498665D01*
X137325000Y-40498665D01*
X137269853Y-40221426D01*
X137161680Y-39960273D01*
X137004637Y-39725241D01*
X136804759Y-39525363D01*
X136569727Y-39368320D01*
X136308574Y-39260147D01*
X136031335Y-39205000D01*
X135748665Y-39205000D01*
X135471426Y-39260147D01*
X135210273Y-39368320D01*
X134975241Y-39525363D01*
X134775363Y-39725241D01*
X134618320Y-39960273D01*
X134510147Y-40221426D01*
X134455000Y-40498665D01*
X104902000Y-40498665D01*
X104902000Y-35422408D01*
X116713000Y-35422408D01*
X116713000Y-35697592D01*
X116766686Y-35967490D01*
X116871995Y-36221727D01*
X117024880Y-36450535D01*
X117219465Y-36645120D01*
X117448273Y-36798005D01*
X117702510Y-36903314D01*
X117972408Y-36957000D01*
X118247592Y-36957000D01*
X118517490Y-36903314D01*
X118771727Y-36798005D01*
X119000535Y-36645120D01*
X119195120Y-36450535D01*
X119348005Y-36221727D01*
X119380000Y-36144485D01*
X119411995Y-36221727D01*
X119564880Y-36450535D01*
X119759465Y-36645120D01*
X119988273Y-36798005D01*
X120242510Y-36903314D01*
X120512408Y-36957000D01*
X120787592Y-36957000D01*
X121057490Y-36903314D01*
X121311727Y-36798005D01*
X121540535Y-36645120D01*
X121735120Y-36450535D01*
X121888005Y-36221727D01*
X121920000Y-36144485D01*
X121951995Y-36221727D01*
X122104880Y-36450535D01*
X122299465Y-36645120D01*
X122528273Y-36798005D01*
X122782510Y-36903314D01*
X123052408Y-36957000D01*
X123327592Y-36957000D01*
X123597490Y-36903314D01*
X123851727Y-36798005D01*
X124080535Y-36645120D01*
X124275120Y-36450535D01*
X124428005Y-36221727D01*
X124460000Y-36144485D01*
X124491995Y-36221727D01*
X124644880Y-36450535D01*
X124839465Y-36645120D01*
X125068273Y-36798005D01*
X125322510Y-36903314D01*
X125592408Y-36957000D01*
X125867592Y-36957000D01*
X126137490Y-36903314D01*
X126391727Y-36798005D01*
X126620535Y-36645120D01*
X126815120Y-36450535D01*
X126968005Y-36221727D01*
X127000000Y-36144485D01*
X127031995Y-36221727D01*
X127184880Y-36450535D01*
X127379465Y-36645120D01*
X127608273Y-36798005D01*
X127862510Y-36903314D01*
X128132408Y-36957000D01*
X128407592Y-36957000D01*
X128677490Y-36903314D01*
X128931727Y-36798005D01*
X129160535Y-36645120D01*
X129355120Y-36450535D01*
X129508005Y-36221727D01*
X129613314Y-35967490D01*
X129667000Y-35697592D01*
X129667000Y-35422408D01*
X129613314Y-35152510D01*
X129508005Y-34898273D01*
X129355120Y-34669465D01*
X129160535Y-34474880D01*
X128931727Y-34321995D01*
X128677490Y-34216686D01*
X128407592Y-34163000D01*
X128132408Y-34163000D01*
X127862510Y-34216686D01*
X127608273Y-34321995D01*
X127379465Y-34474880D01*
X127184880Y-34669465D01*
X127031995Y-34898273D01*
X127000000Y-34975515D01*
X126968005Y-34898273D01*
X126815120Y-34669465D01*
X126620535Y-34474880D01*
X126391727Y-34321995D01*
X126137490Y-34216686D01*
X125867592Y-34163000D01*
X125592408Y-34163000D01*
X125322510Y-34216686D01*
X125068273Y-34321995D01*
X124839465Y-34474880D01*
X124644880Y-34669465D01*
X124491995Y-34898273D01*
X124460000Y-34975515D01*
X124428005Y-34898273D01*
X124275120Y-34669465D01*
X124080535Y-34474880D01*
X123851727Y-34321995D01*
X123597490Y-34216686D01*
X123327592Y-34163000D01*
X123052408Y-34163000D01*
X122782510Y-34216686D01*
X122528273Y-34321995D01*
X122299465Y-34474880D01*
X122104880Y-34669465D01*
X121951995Y-34898273D01*
X121920000Y-34975515D01*
X121888005Y-34898273D01*
X121735120Y-34669465D01*
X121540535Y-34474880D01*
X121311727Y-34321995D01*
X121057490Y-34216686D01*
X120787592Y-34163000D01*
X120512408Y-34163000D01*
X120242510Y-34216686D01*
X119988273Y-34321995D01*
X119759465Y-34474880D01*
X119564880Y-34669465D01*
X119411995Y-34898273D01*
X119380000Y-34975515D01*
X119348005Y-34898273D01*
X119195120Y-34669465D01*
X119000535Y-34474880D01*
X118771727Y-34321995D01*
X118517490Y-34216686D01*
X118247592Y-34163000D01*
X117972408Y-34163000D01*
X117702510Y-34216686D01*
X117448273Y-34321995D01*
X117219465Y-34474880D01*
X117024880Y-34669465D01*
X116871995Y-34898273D01*
X116766686Y-35152510D01*
X116713000Y-35422408D01*
X104902000Y-35422408D01*
X104902000Y-33782000D01*
X156083000Y-33782000D01*
X156083000Y-37151931D01*
G36*
X155067000Y-109093000D02*
G01*
X155087000Y-109093000D01*
X155087000Y-109347000D01*
X155067000Y-109347000D01*
X155067000Y-109367000D01*
X154813000Y-109367000D01*
X154813000Y-109347000D01*
X154793000Y-109347000D01*
X154793000Y-109093000D01*
X154813000Y-109093000D01*
X154813000Y-109073000D01*
X155067000Y-109073000D01*
X155067000Y-109093000D01*
X155067000Y-109093000D01*
G37*
X155067000Y-109093000D02*
X155087000Y-109093000D01*
X155087000Y-109347000D01*
X155067000Y-109347000D01*
X155067000Y-109367000D01*
X154813000Y-109367000D01*
X154813000Y-109347000D01*
X154793000Y-109347000D01*
X154793000Y-109093000D01*
X154813000Y-109093000D01*
X154813000Y-109073000D01*
X155067000Y-109073000D01*
X155067000Y-109093000D01*
G36*
X153699294Y-107509014D02*
G01*
X153884866Y-107735134D01*
X154110986Y-107920706D01*
X154175523Y-107955201D01*
X154058645Y-108024822D01*
X153842412Y-108219731D01*
X153671584Y-108448756D01*
X153640706Y-108390986D01*
X153455134Y-108164866D01*
X153229014Y-107979294D01*
X153174209Y-107950000D01*
X153229014Y-107920706D01*
X153455134Y-107735134D01*
X153640706Y-107509014D01*
X153670000Y-107454209D01*
X153699294Y-107509014D01*
X153699294Y-107509014D01*
G37*
X153699294Y-107509014D02*
X153884866Y-107735134D01*
X154110986Y-107920706D01*
X154175523Y-107955201D01*
X154058645Y-108024822D01*
X153842412Y-108219731D01*
X153671584Y-108448756D01*
X153640706Y-108390986D01*
X153455134Y-108164866D01*
X153229014Y-107979294D01*
X153174209Y-107950000D01*
X153229014Y-107920706D01*
X153455134Y-107735134D01*
X153640706Y-107509014D01*
X153670000Y-107454209D01*
X153699294Y-107509014D01*
G36*
X155067000Y-64643000D02*
G01*
X155087000Y-64643000D01*
X155087000Y-64897000D01*
X155067000Y-64897000D01*
X155067000Y-64917000D01*
X154813000Y-64917000D01*
X154813000Y-64897000D01*
X154793000Y-64897000D01*
X154793000Y-64643000D01*
X154813000Y-64643000D01*
X154813000Y-64623000D01*
X155067000Y-64623000D01*
X155067000Y-64643000D01*
X155067000Y-64643000D01*
G37*
X155067000Y-64643000D02*
X155087000Y-64643000D01*
X155087000Y-64897000D01*
X155067000Y-64897000D01*
X155067000Y-64917000D01*
X154813000Y-64917000D01*
X154813000Y-64897000D01*
X154793000Y-64897000D01*
X154793000Y-64643000D01*
X154813000Y-64643000D01*
X154813000Y-64623000D01*
X155067000Y-64623000D01*
X155067000Y-64643000D01*
G36*
X153699294Y-63059014D02*
G01*
X153884866Y-63285134D01*
X154110986Y-63470706D01*
X154175523Y-63505201D01*
X154058645Y-63574822D01*
X153842412Y-63769731D01*
X153671584Y-63998756D01*
X153640706Y-63940986D01*
X153455134Y-63714866D01*
X153229014Y-63529294D01*
X153174209Y-63500000D01*
X153229014Y-63470706D01*
X153455134Y-63285134D01*
X153640706Y-63059014D01*
X153670000Y-63004209D01*
X153699294Y-63059014D01*
X153699294Y-63059014D01*
G37*
X153699294Y-63059014D02*
X153884866Y-63285134D01*
X154110986Y-63470706D01*
X154175523Y-63505201D01*
X154058645Y-63574822D01*
X153842412Y-63769731D01*
X153671584Y-63998756D01*
X153640706Y-63940986D01*
X153455134Y-63714866D01*
X153229014Y-63529294D01*
X153174209Y-63500000D01*
X153229014Y-63470706D01*
X153455134Y-63285134D01*
X153640706Y-63059014D01*
X153670000Y-63004209D01*
X153699294Y-63059014D01*
M02*
