M48
; DRILL file {KiCad 5.1.2-f72e74a~84~ubuntu16.04.1} date 2019年05月12日 21時04分11秒
; FORMAT={-:-/ absolute / inch / decimal}
; #@! TF.CreationDate,2019-05-12T21:04:11+09:00
; #@! TF.GenerationSoftware,Kicad,Pcbnew,5.1.2-f72e74a~84~ubuntu16.04.1
FMAT,2
INCH
T1C0.0157
T2C0.0315
T3C0.0354
T4C0.0394
%
G90
G05
T1
X4.85Y-3.7
X4.975Y-4.0
X4.975Y-4.1
X5.2Y-4.55
X5.2Y-4.65
X5.3Y-3.075
X5.3Y-3.2
X5.35Y-2.8
X5.35Y-2.925
X5.5095Y-3.1312
X5.525Y-3.375
X5.625Y-3.275
X5.6932Y-3.4084
X5.6955Y-3.45
X5.7828Y-2.8563
X5.8284Y-3.2534
X5.8289Y-3.3039
X5.8312Y-3.3938
X5.875Y-4.4
T2
X4.7Y-2.45
X5.1Y-2.45
X5.3Y-2.45
X5.7Y-2.45
X5.3Y-2.3
X5.7Y-2.3
X5.25Y-5.2
X5.65Y-5.2
X4.25Y-5.2
X4.65Y-5.2
X4.7Y-2.3
X5.1Y-2.3
X5.3Y-2.6
X5.7Y-2.6
X4.7Y-2.6
X5.1Y-2.6
T3
X4.75Y-5.2
X4.85Y-5.2
X5.05Y-5.2
X5.15Y-5.2
T4
X4.85Y-2.9
X4.85Y-4.6
X4.85Y-4.7
X4.85Y-4.8
X4.85Y-4.9
X4.85Y-5.0
X4.95Y-2.9
X5.05Y-2.9
X5.15Y-2.9
X5.25Y-2.9
X5.75Y-3.7
X5.75Y-3.8
X5.75Y-3.9
X5.75Y-4.0
X5.75Y-4.1
X5.75Y-4.2
X5.75Y-4.3
X5.75Y-4.4
X5.75Y-4.5
X5.75Y-4.6
X5.75Y-4.7
X5.75Y-4.8
X5.75Y-4.9
X5.75Y-5.0
X4.5Y-4.9
X4.7Y-2.8
X4.7Y-4.5
X4.7Y-4.6
X4.7Y-4.7
X4.7Y-4.8
X4.7Y-4.9
X4.8Y-2.8
X4.9Y-2.8
X5.0Y-2.8
X5.1Y-2.8
X5.6Y-3.6
X5.6Y-3.7
X5.6Y-3.8
X5.6Y-3.9
X5.6Y-4.0
X5.6Y-4.1
X5.6Y-4.2
X5.6Y-4.3
X5.6Y-4.4
X5.6Y-4.5
X5.6Y-4.6
X5.6Y-4.7
X5.6Y-4.8
X5.6Y-4.9
X4.5Y-4.15
X4.3Y-5.05
X6.0Y-5.2
X6.0Y-2.25
X6.0Y-2.35
X6.0Y-2.45
X6.0Y-2.55
X6.0Y-2.65
X6.0Y-2.75
X6.0Y-2.85
X6.0Y-2.95
X6.0Y-3.05
X6.0Y-3.15
X6.1Y-2.25
X6.1Y-2.35
X6.1Y-2.45
X6.1Y-2.55
X6.1Y-2.65
X6.1Y-2.75
X6.1Y-2.85
X6.1Y-2.95
X6.1Y-3.05
X6.1Y-3.15
X6.0Y-5.05
X5.825Y-5.2
X4.5Y-4.3
X4.2Y-2.6
X4.2Y-2.7
X4.2Y-2.8
X4.2Y-2.9
X4.2Y-3.0
X4.2Y-3.1
X4.2Y-3.2
X4.2Y-3.3
X4.3Y-2.6
X4.3Y-2.7
X4.3Y-2.8
X4.3Y-2.9
X4.3Y-3.0
X4.3Y-3.1
X4.3Y-3.2
X4.3Y-3.3
X4.2Y-3.5
X4.2Y-3.6
X4.2Y-3.7
X4.2Y-3.8
X4.2Y-3.9
X4.2Y-4.0
X4.2Y-4.1
X4.2Y-4.2
X4.2Y-4.3
X4.2Y-4.4
X4.2Y-4.5
X4.2Y-4.6
X4.2Y-4.7
X4.2Y-4.8
X4.2Y-4.9
X4.3Y-3.5
X4.3Y-3.6
X4.3Y-3.7
X4.3Y-3.8
X4.3Y-3.9
X4.3Y-4.0
X4.3Y-4.1
X4.3Y-4.2
X4.3Y-4.3
X4.3Y-4.4
X4.3Y-4.5
X4.3Y-4.6
X4.3Y-4.7
X4.3Y-4.8
X4.3Y-4.9
X4.5Y-4.5
X6.0Y-3.3
X6.0Y-3.4
X6.0Y-3.5
X6.0Y-3.6
X6.0Y-3.7
X6.0Y-3.8
X6.0Y-3.9
X6.0Y-4.0
X6.0Y-4.1
X6.0Y-4.2
X6.0Y-4.3
X6.0Y-4.4
X6.0Y-4.5
X6.0Y-4.6
X6.0Y-4.7
X6.0Y-4.8
X6.0Y-4.9
X6.1Y-3.3
X6.1Y-3.4
X6.1Y-3.5
X6.1Y-3.6
X6.1Y-3.7
X6.1Y-3.8
X6.1Y-3.9
X6.1Y-4.0
X6.1Y-4.1
X6.1Y-4.2
X6.1Y-4.3
X6.1Y-4.4
X6.1Y-4.5
X6.1Y-4.6
X6.1Y-4.7
X6.1Y-4.8
X6.1Y-4.9
X4.5Y-4.65
T0
M30
