M48
; DRILL file {KiCad 5.1.4-e60b266~84~ubuntu16.04.1} date 2019年10月31日 22時17分03秒
; FORMAT={-:-/ absolute / inch / decimal}
; #@! TF.CreationDate,2019-10-31T22:17:03+09:00
; #@! TF.GenerationSoftware,Kicad,Pcbnew,5.1.4-e60b266~84~ubuntu16.04.1
FMAT,2
INCH
T1C0.0157
T2C0.0315
T3C0.0354
T4C0.0394
%
G90
G05
T1
X5.825Y-2.55
X5.825Y-2.6
T2
X5.55Y-1.6
X5.55Y-2.0
X5.8Y-2.8
X5.8Y-3.2
X5.35Y-4.2
X5.35Y-4.6
X5.35Y-1.6
X5.35Y-2.0
X5.55Y-4.2
X5.55Y-4.6
T3
X5.55Y-4.75
X5.55Y-4.85
X5.35Y-4.75
X5.35Y-4.85
T4
X6.0Y-1.5
X6.0Y-1.6
X6.0Y-1.7
X6.0Y-1.8
X6.0Y-1.9
X6.1Y-1.5
X6.1Y-1.6
X6.1Y-1.7
X6.1Y-1.8
X6.1Y-1.9
X4.65Y-1.4
X4.65Y-3.1
X4.65Y-3.2
X4.65Y-3.3
X4.65Y-3.4
X4.65Y-3.5
X4.75Y-1.4
X4.85Y-1.4
X4.95Y-1.4
X5.05Y-1.4
X5.55Y-2.2
X5.55Y-2.3
X5.55Y-2.4
X5.55Y-2.5
X5.55Y-2.6
X5.55Y-2.7
X5.55Y-2.8
X5.55Y-2.9
X5.55Y-3.0
X5.55Y-3.1
X5.55Y-3.2
X5.55Y-3.3
X5.55Y-3.4
X5.55Y-3.5
X4.85Y-4.4
X6.0Y-2.25
X6.0Y-2.35
X6.0Y-2.45
X6.0Y-2.55
X6.0Y-2.65
X6.0Y-2.75
X6.0Y-2.85
X6.0Y-2.95
X6.0Y-3.05
X6.0Y-3.15
X6.1Y-2.25
X6.1Y-2.35
X6.1Y-2.45
X6.1Y-2.55
X6.1Y-2.65
X6.1Y-2.75
X6.1Y-2.85
X6.1Y-2.95
X6.1Y-3.05
X6.1Y-3.15
X4.65Y-4.4
X4.65Y-4.05
X4.85Y-4.7
X6.0Y-3.3
X6.0Y-3.4
X6.0Y-3.5
X6.0Y-3.6
X6.0Y-3.7
X6.0Y-3.8
X6.0Y-3.9
X6.0Y-4.0
X6.0Y-4.1
X6.0Y-4.2
X6.0Y-4.3
X6.0Y-4.4
X6.0Y-4.5
X6.0Y-4.6
X6.0Y-4.7
X6.0Y-4.8
X6.0Y-4.9
X6.1Y-3.3
X6.1Y-3.4
X6.1Y-3.5
X6.1Y-3.6
X6.1Y-3.7
X6.1Y-3.8
X6.1Y-3.9
X6.1Y-4.0
X6.1Y-4.1
X6.1Y-4.2
X6.1Y-4.3
X6.1Y-4.4
X6.1Y-4.5
X6.1Y-4.6
X6.1Y-4.7
X6.1Y-4.8
X6.1Y-4.9
X4.2Y-3.5
X4.2Y-3.6
X4.2Y-3.7
X4.2Y-3.8
X4.2Y-3.9
X4.2Y-4.0
X4.2Y-4.1
X4.2Y-4.2
X4.2Y-4.3
X4.2Y-4.4
X4.2Y-4.5
X4.2Y-4.6
X4.2Y-4.7
X4.2Y-4.8
X4.2Y-4.9
X4.3Y-3.5
X4.3Y-3.6
X4.3Y-3.7
X4.3Y-3.8
X4.3Y-3.9
X4.3Y-4.0
X4.3Y-4.1
X4.3Y-4.2
X4.3Y-4.3
X4.3Y-4.4
X4.3Y-4.5
X4.3Y-4.6
X4.3Y-4.7
X4.3Y-4.8
X4.3Y-4.9
X5.35Y-4.05
X5.55Y-4.05
X4.85Y-4.05
X4.2Y-2.6
X4.2Y-2.7
X4.2Y-2.8
X4.2Y-2.9
X4.2Y-3.0
X4.2Y-3.1
X4.2Y-3.2
X4.2Y-3.3
X4.3Y-2.6
X4.3Y-2.7
X4.3Y-2.8
X4.3Y-2.9
X4.3Y-3.0
X4.3Y-3.1
X4.3Y-3.2
X4.3Y-3.3
X5.05Y-4.05
X5.75Y-4.05
T0
M30
