G04 #@! TF.GenerationSoftware,KiCad,Pcbnew,5.1.0-060a0da~80~ubuntu16.04.1*
G04 #@! TF.CreationDate,2019-03-30T07:05:20+09:00*
G04 #@! TF.ProjectId,Akashi-02,416b6173-6869-42d3-9032-2e6b69636164,rev?*
G04 #@! TF.SameCoordinates,Original*
G04 #@! TF.FileFunction,Legend,Bot*
G04 #@! TF.FilePolarity,Positive*
%FSLAX46Y46*%
G04 Gerber Fmt 4.6, Leading zero omitted, Abs format (unit mm)*
G04 Created by KiCad (PCBNEW 5.1.0-060a0da~80~ubuntu16.04.1) date 2019-03-30 07:05:20*
%MOMM*%
%LPD*%
G04 APERTURE LIST*
%ADD10C,0.150000*%
%ADD11O,1.802000X1.802000*%
%ADD12R,1.802000X1.802000*%
%ADD13C,1.602000*%
%ADD14O,1.702000X1.702000*%
%ADD15C,1.702000*%
%ADD16C,1.626000*%
%ADD17C,1.902000*%
%ADD18R,1.902000X1.902000*%
G04 APERTURE END LIST*
D10*
X122323333Y-109567023D02*
X122323333Y-109090833D01*
X122037619Y-109662261D02*
X123037619Y-109328928D01*
X122037619Y-108995595D01*
X122037619Y-108662261D02*
X123037619Y-108662261D01*
X122418571Y-108567023D02*
X122037619Y-108281309D01*
X122704285Y-108281309D02*
X122323333Y-108662261D01*
X122037619Y-107424166D02*
X122561428Y-107424166D01*
X122656666Y-107471785D01*
X122704285Y-107567023D01*
X122704285Y-107757500D01*
X122656666Y-107852738D01*
X122085238Y-107424166D02*
X122037619Y-107519404D01*
X122037619Y-107757500D01*
X122085238Y-107852738D01*
X122180476Y-107900357D01*
X122275714Y-107900357D01*
X122370952Y-107852738D01*
X122418571Y-107757500D01*
X122418571Y-107519404D01*
X122466190Y-107424166D01*
X122085238Y-106995595D02*
X122037619Y-106900357D01*
X122037619Y-106709880D01*
X122085238Y-106614642D01*
X122180476Y-106567023D01*
X122228095Y-106567023D01*
X122323333Y-106614642D01*
X122370952Y-106709880D01*
X122370952Y-106852738D01*
X122418571Y-106947976D01*
X122513809Y-106995595D01*
X122561428Y-106995595D01*
X122656666Y-106947976D01*
X122704285Y-106852738D01*
X122704285Y-106709880D01*
X122656666Y-106614642D01*
X122037619Y-106138452D02*
X123037619Y-106138452D01*
X122037619Y-105709880D02*
X122561428Y-105709880D01*
X122656666Y-105757500D01*
X122704285Y-105852738D01*
X122704285Y-105995595D01*
X122656666Y-106090833D01*
X122609047Y-106138452D01*
X122037619Y-105233690D02*
X122704285Y-105233690D01*
X123037619Y-105233690D02*
X122990000Y-105281309D01*
X122942380Y-105233690D01*
X122990000Y-105186071D01*
X123037619Y-105233690D01*
X122942380Y-105233690D01*
X122418571Y-104757500D02*
X122418571Y-103995595D01*
X123037619Y-103328928D02*
X123037619Y-103233690D01*
X122990000Y-103138452D01*
X122942380Y-103090833D01*
X122847142Y-103043214D01*
X122656666Y-102995595D01*
X122418571Y-102995595D01*
X122228095Y-103043214D01*
X122132857Y-103090833D01*
X122085238Y-103138452D01*
X122037619Y-103233690D01*
X122037619Y-103328928D01*
X122085238Y-103424166D01*
X122132857Y-103471785D01*
X122228095Y-103519404D01*
X122418571Y-103567023D01*
X122656666Y-103567023D01*
X122847142Y-103519404D01*
X122942380Y-103471785D01*
X122990000Y-103424166D01*
X123037619Y-103328928D01*
X122942380Y-102614642D02*
X122990000Y-102567023D01*
X123037619Y-102471785D01*
X123037619Y-102233690D01*
X122990000Y-102138452D01*
X122942380Y-102090833D01*
X122847142Y-102043214D01*
X122751904Y-102043214D01*
X122609047Y-102090833D01*
X122037619Y-102662261D01*
X122037619Y-102043214D01*
X120482857Y-108947976D02*
X120435238Y-108995595D01*
X120387619Y-109138452D01*
X120387619Y-109233690D01*
X120435238Y-109376547D01*
X120530476Y-109471785D01*
X120625714Y-109519404D01*
X120816190Y-109567023D01*
X120959047Y-109567023D01*
X121149523Y-109519404D01*
X121244761Y-109471785D01*
X121340000Y-109376547D01*
X121387619Y-109233690D01*
X121387619Y-109138452D01*
X121340000Y-108995595D01*
X121292380Y-108947976D01*
X121387619Y-108328928D02*
X121387619Y-108138452D01*
X121340000Y-108043214D01*
X121244761Y-107947976D01*
X121054285Y-107900357D01*
X120720952Y-107900357D01*
X120530476Y-107947976D01*
X120435238Y-108043214D01*
X120387619Y-108138452D01*
X120387619Y-108328928D01*
X120435238Y-108424166D01*
X120530476Y-108519404D01*
X120720952Y-108567023D01*
X121054285Y-108567023D01*
X121244761Y-108519404D01*
X121340000Y-108424166D01*
X121387619Y-108328928D01*
X120387619Y-107471785D02*
X121387619Y-107471785D01*
X121387619Y-107233690D01*
X121340000Y-107090833D01*
X121244761Y-106995595D01*
X121149523Y-106947976D01*
X120959047Y-106900357D01*
X120816190Y-106900357D01*
X120625714Y-106947976D01*
X120530476Y-106995595D01*
X120435238Y-107090833D01*
X120387619Y-107233690D01*
X120387619Y-107471785D01*
X120911428Y-106471785D02*
X120911428Y-106138452D01*
X120387619Y-105995595D02*
X120387619Y-106471785D01*
X121387619Y-106471785D01*
X121387619Y-105995595D01*
X120482857Y-104995595D02*
X120435238Y-105043214D01*
X120387619Y-105186071D01*
X120387619Y-105281309D01*
X120435238Y-105424166D01*
X120530476Y-105519404D01*
X120625714Y-105567023D01*
X120816190Y-105614642D01*
X120959047Y-105614642D01*
X121149523Y-105567023D01*
X121244761Y-105519404D01*
X121340000Y-105424166D01*
X121387619Y-105281309D01*
X121387619Y-105186071D01*
X121340000Y-105043214D01*
X121292380Y-104995595D01*
X121387619Y-103947976D02*
X121387619Y-103376547D01*
X120387619Y-103662261D02*
X121387619Y-103662261D01*
X120435238Y-102662261D02*
X120387619Y-102757500D01*
X120387619Y-102947976D01*
X120435238Y-103043214D01*
X120530476Y-103090833D01*
X120911428Y-103090833D01*
X121006666Y-103043214D01*
X121054285Y-102947976D01*
X121054285Y-102757500D01*
X121006666Y-102662261D01*
X120911428Y-102614642D01*
X120816190Y-102614642D01*
X120720952Y-103090833D01*
X120435238Y-102233690D02*
X120387619Y-102138452D01*
X120387619Y-101947976D01*
X120435238Y-101852738D01*
X120530476Y-101805119D01*
X120578095Y-101805119D01*
X120673333Y-101852738D01*
X120720952Y-101947976D01*
X120720952Y-102090833D01*
X120768571Y-102186071D01*
X120863809Y-102233690D01*
X120911428Y-102233690D01*
X121006666Y-102186071D01*
X121054285Y-102090833D01*
X121054285Y-101947976D01*
X121006666Y-101852738D01*
X121054285Y-101519404D02*
X121054285Y-101138452D01*
X121387619Y-101376547D02*
X120530476Y-101376547D01*
X120435238Y-101328928D01*
X120387619Y-101233690D01*
X120387619Y-101138452D01*
X120387619Y-100043214D02*
X121387619Y-100043214D01*
X121006666Y-100043214D02*
X121054285Y-99947976D01*
X121054285Y-99757500D01*
X121006666Y-99662261D01*
X120959047Y-99614642D01*
X120863809Y-99567023D01*
X120578095Y-99567023D01*
X120482857Y-99614642D01*
X120435238Y-99662261D01*
X120387619Y-99757500D01*
X120387619Y-99947976D01*
X120435238Y-100043214D01*
X120387619Y-98995595D02*
X120435238Y-99090833D01*
X120482857Y-99138452D01*
X120578095Y-99186071D01*
X120863809Y-99186071D01*
X120959047Y-99138452D01*
X121006666Y-99090833D01*
X121054285Y-98995595D01*
X121054285Y-98852738D01*
X121006666Y-98757500D01*
X120959047Y-98709880D01*
X120863809Y-98662261D01*
X120578095Y-98662261D01*
X120482857Y-98709880D01*
X120435238Y-98757500D01*
X120387619Y-98852738D01*
X120387619Y-98995595D01*
X120387619Y-97805119D02*
X120911428Y-97805119D01*
X121006666Y-97852738D01*
X121054285Y-97947976D01*
X121054285Y-98138452D01*
X121006666Y-98233690D01*
X120435238Y-97805119D02*
X120387619Y-97900357D01*
X120387619Y-98138452D01*
X120435238Y-98233690D01*
X120530476Y-98281309D01*
X120625714Y-98281309D01*
X120720952Y-98233690D01*
X120768571Y-98138452D01*
X120768571Y-97900357D01*
X120816190Y-97805119D01*
X120387619Y-97328928D02*
X121054285Y-97328928D01*
X120863809Y-97328928D02*
X120959047Y-97281309D01*
X121006666Y-97233690D01*
X121054285Y-97138452D01*
X121054285Y-97043214D01*
X120387619Y-96281309D02*
X121387619Y-96281309D01*
X120435238Y-96281309D02*
X120387619Y-96376547D01*
X120387619Y-96567023D01*
X120435238Y-96662261D01*
X120482857Y-96709880D01*
X120578095Y-96757500D01*
X120863809Y-96757500D01*
X120959047Y-96709880D01*
X121006666Y-96662261D01*
X121054285Y-96567023D01*
X121054285Y-96376547D01*
X121006666Y-96281309D01*
X121054285Y-95186071D02*
X121054285Y-94805119D01*
X120387619Y-95043214D02*
X121244761Y-95043214D01*
X121340000Y-94995595D01*
X121387619Y-94900357D01*
X121387619Y-94805119D01*
X120387619Y-94328928D02*
X120435238Y-94424166D01*
X120482857Y-94471785D01*
X120578095Y-94519404D01*
X120863809Y-94519404D01*
X120959047Y-94471785D01*
X121006666Y-94424166D01*
X121054285Y-94328928D01*
X121054285Y-94186071D01*
X121006666Y-94090833D01*
X120959047Y-94043214D01*
X120863809Y-93995595D01*
X120578095Y-93995595D01*
X120482857Y-94043214D01*
X120435238Y-94090833D01*
X120387619Y-94186071D01*
X120387619Y-94328928D01*
X120387619Y-93567023D02*
X121054285Y-93567023D01*
X120863809Y-93567023D02*
X120959047Y-93519404D01*
X121006666Y-93471785D01*
X121054285Y-93376547D01*
X121054285Y-93281309D01*
X120387619Y-92186071D02*
X121387619Y-92186071D01*
X120387619Y-91614642D01*
X121387619Y-91614642D01*
X121054285Y-90709880D02*
X120387619Y-90709880D01*
X121054285Y-91138452D02*
X120530476Y-91138452D01*
X120435238Y-91090833D01*
X120387619Y-90995595D01*
X120387619Y-90852738D01*
X120435238Y-90757500D01*
X120482857Y-90709880D01*
X120435238Y-89805119D02*
X120387619Y-89900357D01*
X120387619Y-90090833D01*
X120435238Y-90186071D01*
X120482857Y-90233690D01*
X120578095Y-90281309D01*
X120863809Y-90281309D01*
X120959047Y-90233690D01*
X121006666Y-90186071D01*
X121054285Y-90090833D01*
X121054285Y-89900357D01*
X121006666Y-89805119D01*
X120387619Y-89233690D02*
X120435238Y-89328928D01*
X120530476Y-89376547D01*
X121387619Y-89376547D01*
X120435238Y-88471785D02*
X120387619Y-88567023D01*
X120387619Y-88757500D01*
X120435238Y-88852738D01*
X120530476Y-88900357D01*
X120911428Y-88900357D01*
X121006666Y-88852738D01*
X121054285Y-88757500D01*
X121054285Y-88567023D01*
X121006666Y-88471785D01*
X120911428Y-88424166D01*
X120816190Y-88424166D01*
X120720952Y-88900357D01*
X120387619Y-87852738D02*
X120435238Y-87947976D01*
X120482857Y-87995595D01*
X120578095Y-88043214D01*
X120863809Y-88043214D01*
X120959047Y-87995595D01*
X121006666Y-87947976D01*
X121054285Y-87852738D01*
X121054285Y-87709880D01*
X121006666Y-87614642D01*
X120959047Y-87567023D01*
X120863809Y-87519404D01*
X120578095Y-87519404D01*
X120482857Y-87567023D01*
X120435238Y-87614642D01*
X120387619Y-87709880D01*
X120387619Y-87852738D01*
X120387619Y-85805119D02*
X120387619Y-86376547D01*
X120387619Y-86090833D02*
X121387619Y-86090833D01*
X121244761Y-86186071D01*
X121149523Y-86281309D01*
X121101904Y-86376547D01*
X121054285Y-84947976D02*
X120387619Y-84947976D01*
X121435238Y-85186071D02*
X120720952Y-85424166D01*
X120720952Y-84805119D01*
X121054285Y-83995595D02*
X120387619Y-83995595D01*
X121435238Y-84233690D02*
X120720952Y-84471785D01*
X120720952Y-83852738D01*
X118356666Y-109233690D02*
X118404285Y-109281309D01*
X118547142Y-109376547D01*
X118642380Y-109424166D01*
X118785238Y-109471785D01*
X119023333Y-109519404D01*
X119213809Y-109519404D01*
X119451904Y-109471785D01*
X119594761Y-109424166D01*
X119690000Y-109376547D01*
X119832857Y-109281309D01*
X119880476Y-109233690D01*
X118832857Y-108281309D02*
X118785238Y-108328928D01*
X118737619Y-108471785D01*
X118737619Y-108567023D01*
X118785238Y-108709880D01*
X118880476Y-108805119D01*
X118975714Y-108852738D01*
X119166190Y-108900357D01*
X119309047Y-108900357D01*
X119499523Y-108852738D01*
X119594761Y-108805119D01*
X119690000Y-108709880D01*
X119737619Y-108567023D01*
X119737619Y-108471785D01*
X119690000Y-108328928D01*
X119642380Y-108281309D01*
X118356666Y-107947976D02*
X118404285Y-107900357D01*
X118547142Y-107805119D01*
X118642380Y-107757500D01*
X118785238Y-107709880D01*
X119023333Y-107662261D01*
X119213809Y-107662261D01*
X119451904Y-107709880D01*
X119594761Y-107757500D01*
X119690000Y-107805119D01*
X119832857Y-107900357D01*
X119880476Y-107947976D01*
X118785238Y-106471785D02*
X118737619Y-106328928D01*
X118737619Y-106090833D01*
X118785238Y-105995595D01*
X118832857Y-105947976D01*
X118928095Y-105900357D01*
X119023333Y-105900357D01*
X119118571Y-105947976D01*
X119166190Y-105995595D01*
X119213809Y-106090833D01*
X119261428Y-106281309D01*
X119309047Y-106376547D01*
X119356666Y-106424166D01*
X119451904Y-106471785D01*
X119547142Y-106471785D01*
X119642380Y-106424166D01*
X119690000Y-106376547D01*
X119737619Y-106281309D01*
X119737619Y-106043214D01*
X119690000Y-105900357D01*
X118785238Y-105090833D02*
X118737619Y-105186071D01*
X118737619Y-105376547D01*
X118785238Y-105471785D01*
X118880476Y-105519404D01*
X119261428Y-105519404D01*
X119356666Y-105471785D01*
X119404285Y-105376547D01*
X119404285Y-105186071D01*
X119356666Y-105090833D01*
X119261428Y-105043214D01*
X119166190Y-105043214D01*
X119070952Y-105519404D01*
X118737619Y-104614642D02*
X119404285Y-104614642D01*
X119737619Y-104614642D02*
X119690000Y-104662261D01*
X119642380Y-104614642D01*
X119690000Y-104567023D01*
X119737619Y-104614642D01*
X119642380Y-104614642D01*
X118737619Y-104138452D02*
X119404285Y-104138452D01*
X119737619Y-104138452D02*
X119690000Y-104186071D01*
X119642380Y-104138452D01*
X119690000Y-104090833D01*
X119737619Y-104138452D01*
X119642380Y-104138452D01*
X118785238Y-103233690D02*
X118737619Y-103328928D01*
X118737619Y-103519404D01*
X118785238Y-103614642D01*
X118832857Y-103662261D01*
X118928095Y-103709880D01*
X119213809Y-103709880D01*
X119309047Y-103662261D01*
X119356666Y-103614642D01*
X119404285Y-103519404D01*
X119404285Y-103328928D01*
X119356666Y-103233690D01*
X118737619Y-102805119D02*
X119737619Y-102805119D01*
X118737619Y-102376547D02*
X119261428Y-102376547D01*
X119356666Y-102424166D01*
X119404285Y-102519404D01*
X119404285Y-102662261D01*
X119356666Y-102757500D01*
X119309047Y-102805119D01*
X118737619Y-101900357D02*
X119404285Y-101900357D01*
X119737619Y-101900357D02*
X119690000Y-101947976D01*
X119642380Y-101900357D01*
X119690000Y-101852738D01*
X119737619Y-101900357D01*
X119642380Y-101900357D01*
X118737619Y-100662261D02*
X119737619Y-100662261D01*
X119261428Y-100662261D02*
X119261428Y-100090833D01*
X118737619Y-100090833D02*
X119737619Y-100090833D01*
X118737619Y-99471785D02*
X118785238Y-99567023D01*
X118832857Y-99614642D01*
X118928095Y-99662261D01*
X119213809Y-99662261D01*
X119309047Y-99614642D01*
X119356666Y-99567023D01*
X119404285Y-99471785D01*
X119404285Y-99328928D01*
X119356666Y-99233690D01*
X119309047Y-99186071D01*
X119213809Y-99138452D01*
X118928095Y-99138452D01*
X118832857Y-99186071D01*
X118785238Y-99233690D01*
X118737619Y-99328928D01*
X118737619Y-99471785D01*
X118737619Y-98709880D02*
X119404285Y-98709880D01*
X119213809Y-98709880D02*
X119309047Y-98662261D01*
X119356666Y-98614642D01*
X119404285Y-98519404D01*
X119404285Y-98424166D01*
X118737619Y-98090833D02*
X119404285Y-98090833D01*
X119737619Y-98090833D02*
X119690000Y-98138452D01*
X119642380Y-98090833D01*
X119690000Y-98043214D01*
X119737619Y-98090833D01*
X119642380Y-98090833D01*
X118785238Y-97233690D02*
X118737619Y-97328928D01*
X118737619Y-97519404D01*
X118785238Y-97614642D01*
X118880476Y-97662261D01*
X119261428Y-97662261D01*
X119356666Y-97614642D01*
X119404285Y-97519404D01*
X119404285Y-97328928D01*
X119356666Y-97233690D01*
X119261428Y-97186071D01*
X119166190Y-97186071D01*
X119070952Y-97662261D01*
X119642380Y-96043214D02*
X119690000Y-95995595D01*
X119737619Y-95900357D01*
X119737619Y-95662261D01*
X119690000Y-95567023D01*
X119642380Y-95519404D01*
X119547142Y-95471785D01*
X119451904Y-95471785D01*
X119309047Y-95519404D01*
X118737619Y-96090833D01*
X118737619Y-95471785D01*
X119737619Y-94852738D02*
X119737619Y-94757500D01*
X119690000Y-94662261D01*
X119642380Y-94614642D01*
X119547142Y-94567023D01*
X119356666Y-94519404D01*
X119118571Y-94519404D01*
X118928095Y-94567023D01*
X118832857Y-94614642D01*
X118785238Y-94662261D01*
X118737619Y-94757500D01*
X118737619Y-94852738D01*
X118785238Y-94947976D01*
X118832857Y-94995595D01*
X118928095Y-95043214D01*
X119118571Y-95090833D01*
X119356666Y-95090833D01*
X119547142Y-95043214D01*
X119642380Y-94995595D01*
X119690000Y-94947976D01*
X119737619Y-94852738D01*
X118737619Y-93567023D02*
X118737619Y-94138452D01*
X118737619Y-93852738D02*
X119737619Y-93852738D01*
X119594761Y-93947976D01*
X119499523Y-94043214D01*
X119451904Y-94138452D01*
X118737619Y-93090833D02*
X118737619Y-92900357D01*
X118785238Y-92805119D01*
X118832857Y-92757500D01*
X118975714Y-92662261D01*
X119166190Y-92614642D01*
X119547142Y-92614642D01*
X119642380Y-92662261D01*
X119690000Y-92709880D01*
X119737619Y-92805119D01*
X119737619Y-92995595D01*
X119690000Y-93090833D01*
X119642380Y-93138452D01*
X119547142Y-93186071D01*
X119309047Y-93186071D01*
X119213809Y-93138452D01*
X119166190Y-93090833D01*
X119118571Y-92995595D01*
X119118571Y-92805119D01*
X119166190Y-92709880D01*
X119213809Y-92662261D01*
X119309047Y-92614642D01*
X117087619Y-109519404D02*
X118087619Y-109519404D01*
X117087619Y-109090833D02*
X117611428Y-109090833D01*
X117706666Y-109138452D01*
X117754285Y-109233690D01*
X117754285Y-109376547D01*
X117706666Y-109471785D01*
X117659047Y-109519404D01*
X117754285Y-108757500D02*
X117754285Y-108376547D01*
X118087619Y-108614642D02*
X117230476Y-108614642D01*
X117135238Y-108567023D01*
X117087619Y-108471785D01*
X117087619Y-108376547D01*
X117754285Y-108186071D02*
X117754285Y-107805119D01*
X118087619Y-108043214D02*
X117230476Y-108043214D01*
X117135238Y-107995595D01*
X117087619Y-107900357D01*
X117087619Y-107805119D01*
X117754285Y-107471785D02*
X116754285Y-107471785D01*
X117706666Y-107471785D02*
X117754285Y-107376547D01*
X117754285Y-107186071D01*
X117706666Y-107090833D01*
X117659047Y-107043214D01*
X117563809Y-106995595D01*
X117278095Y-106995595D01*
X117182857Y-107043214D01*
X117135238Y-107090833D01*
X117087619Y-107186071D01*
X117087619Y-107376547D01*
X117135238Y-107471785D01*
X117135238Y-106614642D02*
X117087619Y-106519404D01*
X117087619Y-106328928D01*
X117135238Y-106233690D01*
X117230476Y-106186071D01*
X117278095Y-106186071D01*
X117373333Y-106233690D01*
X117420952Y-106328928D01*
X117420952Y-106471785D01*
X117468571Y-106567023D01*
X117563809Y-106614642D01*
X117611428Y-106614642D01*
X117706666Y-106567023D01*
X117754285Y-106471785D01*
X117754285Y-106328928D01*
X117706666Y-106233690D01*
X117182857Y-105757500D02*
X117135238Y-105709880D01*
X117087619Y-105757500D01*
X117135238Y-105805119D01*
X117182857Y-105757500D01*
X117087619Y-105757500D01*
X117706666Y-105757500D02*
X117659047Y-105709880D01*
X117611428Y-105757500D01*
X117659047Y-105805119D01*
X117706666Y-105757500D01*
X117611428Y-105757500D01*
X118135238Y-104567023D02*
X116849523Y-105424166D01*
X118135238Y-103519404D02*
X116849523Y-104376547D01*
X117754285Y-102757500D02*
X116944761Y-102757500D01*
X116849523Y-102805119D01*
X116801904Y-102852738D01*
X116754285Y-102947976D01*
X116754285Y-103090833D01*
X116801904Y-103186071D01*
X117135238Y-102757500D02*
X117087619Y-102852738D01*
X117087619Y-103043214D01*
X117135238Y-103138452D01*
X117182857Y-103186071D01*
X117278095Y-103233690D01*
X117563809Y-103233690D01*
X117659047Y-103186071D01*
X117706666Y-103138452D01*
X117754285Y-103043214D01*
X117754285Y-102852738D01*
X117706666Y-102757500D01*
X117087619Y-102281309D02*
X117754285Y-102281309D01*
X118087619Y-102281309D02*
X118040000Y-102328928D01*
X117992380Y-102281309D01*
X118040000Y-102233690D01*
X118087619Y-102281309D01*
X117992380Y-102281309D01*
X117754285Y-101947976D02*
X117754285Y-101567023D01*
X118087619Y-101805119D02*
X117230476Y-101805119D01*
X117135238Y-101757500D01*
X117087619Y-101662261D01*
X117087619Y-101567023D01*
X117087619Y-101233690D02*
X118087619Y-101233690D01*
X117087619Y-100805119D02*
X117611428Y-100805119D01*
X117706666Y-100852738D01*
X117754285Y-100947976D01*
X117754285Y-101090833D01*
X117706666Y-101186071D01*
X117659047Y-101233690D01*
X117754285Y-99900357D02*
X117087619Y-99900357D01*
X117754285Y-100328928D02*
X117230476Y-100328928D01*
X117135238Y-100281309D01*
X117087619Y-100186071D01*
X117087619Y-100043214D01*
X117135238Y-99947976D01*
X117182857Y-99900357D01*
X117087619Y-99424166D02*
X118087619Y-99424166D01*
X117706666Y-99424166D02*
X117754285Y-99328928D01*
X117754285Y-99138452D01*
X117706666Y-99043214D01*
X117659047Y-98995595D01*
X117563809Y-98947976D01*
X117278095Y-98947976D01*
X117182857Y-98995595D01*
X117135238Y-99043214D01*
X117087619Y-99138452D01*
X117087619Y-99328928D01*
X117135238Y-99424166D01*
X117182857Y-98519404D02*
X117135238Y-98471785D01*
X117087619Y-98519404D01*
X117135238Y-98567023D01*
X117182857Y-98519404D01*
X117087619Y-98519404D01*
X117135238Y-97614642D02*
X117087619Y-97709880D01*
X117087619Y-97900357D01*
X117135238Y-97995595D01*
X117182857Y-98043214D01*
X117278095Y-98090833D01*
X117563809Y-98090833D01*
X117659047Y-98043214D01*
X117706666Y-97995595D01*
X117754285Y-97900357D01*
X117754285Y-97709880D01*
X117706666Y-97614642D01*
X117087619Y-97043214D02*
X117135238Y-97138452D01*
X117182857Y-97186071D01*
X117278095Y-97233690D01*
X117563809Y-97233690D01*
X117659047Y-97186071D01*
X117706666Y-97138452D01*
X117754285Y-97043214D01*
X117754285Y-96900357D01*
X117706666Y-96805119D01*
X117659047Y-96757500D01*
X117563809Y-96709880D01*
X117278095Y-96709880D01*
X117182857Y-96757500D01*
X117135238Y-96805119D01*
X117087619Y-96900357D01*
X117087619Y-97043214D01*
X117087619Y-96281309D02*
X117754285Y-96281309D01*
X117659047Y-96281309D02*
X117706666Y-96233690D01*
X117754285Y-96138452D01*
X117754285Y-95995595D01*
X117706666Y-95900357D01*
X117611428Y-95852738D01*
X117087619Y-95852738D01*
X117611428Y-95852738D02*
X117706666Y-95805119D01*
X117754285Y-95709880D01*
X117754285Y-95567023D01*
X117706666Y-95471785D01*
X117611428Y-95424166D01*
X117087619Y-95424166D01*
X118135238Y-94233690D02*
X116849523Y-95090833D01*
X117135238Y-93947976D02*
X117087619Y-93852738D01*
X117087619Y-93662261D01*
X117135238Y-93567023D01*
X117230476Y-93519404D01*
X117278095Y-93519404D01*
X117373333Y-93567023D01*
X117420952Y-93662261D01*
X117420952Y-93805119D01*
X117468571Y-93900357D01*
X117563809Y-93947976D01*
X117611428Y-93947976D01*
X117706666Y-93900357D01*
X117754285Y-93805119D01*
X117754285Y-93662261D01*
X117706666Y-93567023D01*
X117754285Y-92662261D02*
X117087619Y-92662261D01*
X117754285Y-93090833D02*
X117230476Y-93090833D01*
X117135238Y-93043214D01*
X117087619Y-92947976D01*
X117087619Y-92805119D01*
X117135238Y-92709880D01*
X117182857Y-92662261D01*
X117087619Y-92186071D02*
X117754285Y-92186071D01*
X118087619Y-92186071D02*
X118040000Y-92233690D01*
X117992380Y-92186071D01*
X118040000Y-92138452D01*
X118087619Y-92186071D01*
X117992380Y-92186071D01*
X117087619Y-91709880D02*
X118087619Y-91709880D01*
X117468571Y-91614642D02*
X117087619Y-91328928D01*
X117754285Y-91328928D02*
X117373333Y-91709880D01*
X117087619Y-90471785D02*
X117611428Y-90471785D01*
X117706666Y-90519404D01*
X117754285Y-90614642D01*
X117754285Y-90805119D01*
X117706666Y-90900357D01*
X117135238Y-90471785D02*
X117087619Y-90567023D01*
X117087619Y-90805119D01*
X117135238Y-90900357D01*
X117230476Y-90947976D01*
X117325714Y-90947976D01*
X117420952Y-90900357D01*
X117468571Y-90805119D01*
X117468571Y-90567023D01*
X117516190Y-90471785D01*
X117754285Y-89995595D02*
X117087619Y-89995595D01*
X117659047Y-89995595D02*
X117706666Y-89947976D01*
X117754285Y-89852738D01*
X117754285Y-89709880D01*
X117706666Y-89614642D01*
X117611428Y-89567023D01*
X117087619Y-89567023D01*
X117754285Y-88662261D02*
X117087619Y-88662261D01*
X118135238Y-88900357D02*
X117420952Y-89138452D01*
X117420952Y-88519404D01*
X117754285Y-87709880D02*
X116944761Y-87709880D01*
X116849523Y-87757500D01*
X116801904Y-87805119D01*
X116754285Y-87900357D01*
X116754285Y-88043214D01*
X116801904Y-88138452D01*
X117135238Y-87709880D02*
X117087619Y-87805119D01*
X117087619Y-87995595D01*
X117135238Y-88090833D01*
X117182857Y-88138452D01*
X117278095Y-88186071D01*
X117563809Y-88186071D01*
X117659047Y-88138452D01*
X117706666Y-88090833D01*
X117754285Y-87995595D01*
X117754285Y-87805119D01*
X117706666Y-87709880D01*
X117087619Y-87233690D02*
X117754285Y-87233690D01*
X118087619Y-87233690D02*
X118040000Y-87281309D01*
X117992380Y-87233690D01*
X118040000Y-87186071D01*
X118087619Y-87233690D01*
X117992380Y-87233690D01*
X117754285Y-86900357D02*
X117754285Y-86519404D01*
X118087619Y-86757500D02*
X117230476Y-86757500D01*
X117135238Y-86709880D01*
X117087619Y-86614642D01*
X117087619Y-86519404D01*
X117087619Y-86186071D02*
X118087619Y-86186071D01*
X117087619Y-85757500D02*
X117611428Y-85757500D01*
X117706666Y-85805119D01*
X117754285Y-85900357D01*
X117754285Y-86043214D01*
X117706666Y-86138452D01*
X117659047Y-86186071D01*
X117754285Y-84852738D02*
X117087619Y-84852738D01*
X117754285Y-85281309D02*
X117230476Y-85281309D01*
X117135238Y-85233690D01*
X117087619Y-85138452D01*
X117087619Y-84995595D01*
X117135238Y-84900357D01*
X117182857Y-84852738D01*
X117087619Y-84376547D02*
X118087619Y-84376547D01*
X117706666Y-84376547D02*
X117754285Y-84281309D01*
X117754285Y-84090833D01*
X117706666Y-83995595D01*
X117659047Y-83947976D01*
X117563809Y-83900357D01*
X117278095Y-83900357D01*
X117182857Y-83947976D01*
X117135238Y-83995595D01*
X117087619Y-84090833D01*
X117087619Y-84281309D01*
X117135238Y-84376547D01*
X118135238Y-82757500D02*
X116849523Y-83614642D01*
X117373333Y-82471785D02*
X117373333Y-81995595D01*
X117087619Y-82567023D02*
X118087619Y-82233690D01*
X117087619Y-81900357D01*
X117087619Y-81567023D02*
X118087619Y-81567023D01*
X117468571Y-81471785D02*
X117087619Y-81186071D01*
X117754285Y-81186071D02*
X117373333Y-81567023D01*
X117087619Y-80328928D02*
X117611428Y-80328928D01*
X117706666Y-80376547D01*
X117754285Y-80471785D01*
X117754285Y-80662261D01*
X117706666Y-80757500D01*
X117135238Y-80328928D02*
X117087619Y-80424166D01*
X117087619Y-80662261D01*
X117135238Y-80757500D01*
X117230476Y-80805119D01*
X117325714Y-80805119D01*
X117420952Y-80757500D01*
X117468571Y-80662261D01*
X117468571Y-80424166D01*
X117516190Y-80328928D01*
X117135238Y-79900357D02*
X117087619Y-79805119D01*
X117087619Y-79614642D01*
X117135238Y-79519404D01*
X117230476Y-79471785D01*
X117278095Y-79471785D01*
X117373333Y-79519404D01*
X117420952Y-79614642D01*
X117420952Y-79757500D01*
X117468571Y-79852738D01*
X117563809Y-79900357D01*
X117611428Y-79900357D01*
X117706666Y-79852738D01*
X117754285Y-79757500D01*
X117754285Y-79614642D01*
X117706666Y-79519404D01*
X117087619Y-79043214D02*
X118087619Y-79043214D01*
X117087619Y-78614642D02*
X117611428Y-78614642D01*
X117706666Y-78662261D01*
X117754285Y-78757500D01*
X117754285Y-78900357D01*
X117706666Y-78995595D01*
X117659047Y-79043214D01*
X117087619Y-78138452D02*
X117754285Y-78138452D01*
X118087619Y-78138452D02*
X118040000Y-78186071D01*
X117992380Y-78138452D01*
X118040000Y-78090833D01*
X118087619Y-78138452D01*
X117992380Y-78138452D01*
X117468571Y-77662261D02*
X117468571Y-76900357D01*
X118087619Y-76233690D02*
X118087619Y-76138452D01*
X118040000Y-76043214D01*
X117992380Y-75995595D01*
X117897142Y-75947976D01*
X117706666Y-75900357D01*
X117468571Y-75900357D01*
X117278095Y-75947976D01*
X117182857Y-75995595D01*
X117135238Y-76043214D01*
X117087619Y-76138452D01*
X117087619Y-76233690D01*
X117135238Y-76328928D01*
X117182857Y-76376547D01*
X117278095Y-76424166D01*
X117468571Y-76471785D01*
X117706666Y-76471785D01*
X117897142Y-76424166D01*
X117992380Y-76376547D01*
X118040000Y-76328928D01*
X118087619Y-76233690D01*
X117992380Y-75519404D02*
X118040000Y-75471785D01*
X118087619Y-75376547D01*
X118087619Y-75138452D01*
X118040000Y-75043214D01*
X117992380Y-74995595D01*
X117897142Y-74947976D01*
X117801904Y-74947976D01*
X117659047Y-74995595D01*
X117087619Y-75567023D01*
X117087619Y-74947976D01*
%LPC*%
D11*
X154940000Y-80010000D03*
X152400000Y-80010000D03*
X154940000Y-77470000D03*
X152400000Y-77470000D03*
X154940000Y-74930000D03*
X152400000Y-74930000D03*
X154940000Y-72390000D03*
X152400000Y-72390000D03*
X154940000Y-69850000D03*
X152400000Y-69850000D03*
X154940000Y-67310000D03*
X152400000Y-67310000D03*
X154940000Y-64770000D03*
X152400000Y-64770000D03*
X154940000Y-62230000D03*
X152400000Y-62230000D03*
X154940000Y-59690000D03*
X152400000Y-59690000D03*
X154940000Y-57150000D03*
D12*
X152400000Y-57150000D03*
D13*
X114300000Y-114300000D03*
D11*
X154940000Y-124460000D03*
X152400000Y-124460000D03*
X154940000Y-121920000D03*
X152400000Y-121920000D03*
X154940000Y-119380000D03*
X152400000Y-119380000D03*
X154940000Y-116840000D03*
X152400000Y-116840000D03*
X154940000Y-114300000D03*
X152400000Y-114300000D03*
X154940000Y-111760000D03*
X152400000Y-111760000D03*
X154940000Y-109220000D03*
X152400000Y-109220000D03*
X154940000Y-106680000D03*
X152400000Y-106680000D03*
X154940000Y-104140000D03*
X152400000Y-104140000D03*
X154940000Y-101600000D03*
X152400000Y-101600000D03*
X154940000Y-99060000D03*
X152400000Y-99060000D03*
X154940000Y-96520000D03*
X152400000Y-96520000D03*
X154940000Y-93980000D03*
X152400000Y-93980000D03*
X154940000Y-91440000D03*
X152400000Y-91440000D03*
X154940000Y-88900000D03*
X152400000Y-88900000D03*
X154940000Y-86360000D03*
X152400000Y-86360000D03*
X154940000Y-83820000D03*
D12*
X152400000Y-83820000D03*
D11*
X109220000Y-124460000D03*
X106680000Y-124460000D03*
X109220000Y-121920000D03*
X106680000Y-121920000D03*
X109220000Y-119380000D03*
X106680000Y-119380000D03*
X109220000Y-116840000D03*
X106680000Y-116840000D03*
X109220000Y-114300000D03*
X106680000Y-114300000D03*
X109220000Y-111760000D03*
X106680000Y-111760000D03*
X109220000Y-109220000D03*
X106680000Y-109220000D03*
X109220000Y-106680000D03*
X106680000Y-106680000D03*
X109220000Y-104140000D03*
X106680000Y-104140000D03*
X109220000Y-101600000D03*
X106680000Y-101600000D03*
X109220000Y-99060000D03*
X106680000Y-99060000D03*
X109220000Y-96520000D03*
X106680000Y-96520000D03*
X109220000Y-93980000D03*
X106680000Y-93980000D03*
X109220000Y-91440000D03*
X106680000Y-91440000D03*
X109220000Y-88900000D03*
D12*
X106680000Y-88900000D03*
D11*
X109220000Y-83820000D03*
X106680000Y-83820000D03*
X109220000Y-81280000D03*
X106680000Y-81280000D03*
X109220000Y-78740000D03*
X106680000Y-78740000D03*
X109220000Y-76200000D03*
X106680000Y-76200000D03*
X109220000Y-73660000D03*
X106680000Y-73660000D03*
X109220000Y-71120000D03*
X106680000Y-71120000D03*
X109220000Y-68580000D03*
X106680000Y-68580000D03*
X109220000Y-66040000D03*
D12*
X106680000Y-66040000D03*
D14*
X119380000Y-58420000D03*
D15*
X129540000Y-58420000D03*
D14*
X129540000Y-66040000D03*
D15*
X119380000Y-66040000D03*
X119380000Y-62230000D03*
D14*
X129540000Y-62230000D03*
D15*
X107950000Y-132080000D03*
D14*
X118110000Y-132080000D03*
D15*
X143510000Y-132080000D03*
D14*
X133350000Y-132080000D03*
X144780000Y-58420000D03*
D15*
X134620000Y-58420000D03*
D13*
X114300000Y-105410000D03*
X114300000Y-109220000D03*
X114300000Y-118110000D03*
X114300000Y-124460000D03*
X109220000Y-128270000D03*
D16*
X133350000Y-73660000D03*
X130810000Y-73660000D03*
X128270000Y-73660000D03*
X125730000Y-73660000D03*
X123190000Y-73660000D03*
X123190000Y-116840000D03*
X123190000Y-119380000D03*
X123190000Y-121920000D03*
X123190000Y-124460000D03*
X123190000Y-127000000D03*
X146050000Y-93980000D03*
X146050000Y-96520000D03*
X146050000Y-99060000D03*
X146050000Y-101600000D03*
X146050000Y-104140000D03*
X146050000Y-106680000D03*
X146050000Y-109220000D03*
X146050000Y-111760000D03*
X146050000Y-114300000D03*
X146050000Y-116840000D03*
X146050000Y-119380000D03*
X146050000Y-121920000D03*
X146050000Y-124460000D03*
X146050000Y-127000000D03*
D13*
X152400000Y-132080000D03*
X152400000Y-128270000D03*
D17*
X120650000Y-132080000D03*
D18*
X123190000Y-132080000D03*
X128270000Y-132080000D03*
D17*
X130810000Y-132080000D03*
D15*
X134620000Y-62230000D03*
D14*
X144780000Y-62230000D03*
D15*
X134620000Y-66040000D03*
D14*
X144780000Y-66040000D03*
D16*
X129540000Y-71120000D03*
X127000000Y-71120000D03*
X124460000Y-71120000D03*
X121920000Y-71120000D03*
X119380000Y-71120000D03*
X119380000Y-114300000D03*
X119380000Y-116840000D03*
X119380000Y-119380000D03*
X119380000Y-121920000D03*
X119380000Y-124460000D03*
X142240000Y-91440000D03*
X142240000Y-93980000D03*
X142240000Y-96520000D03*
X142240000Y-99060000D03*
X142240000Y-101600000D03*
X142240000Y-104140000D03*
X142240000Y-106680000D03*
X142240000Y-109220000D03*
X142240000Y-111760000D03*
X142240000Y-114300000D03*
X142240000Y-116840000D03*
X142240000Y-119380000D03*
X142240000Y-121920000D03*
X142240000Y-124460000D03*
D13*
X147955000Y-132080000D03*
M02*
