G04 #@! TF.GenerationSoftware,KiCad,Pcbnew,5.1.4-e60b266~84~ubuntu16.04.1*
G04 #@! TF.CreationDate,2019-10-27T16:28:42+09:00*
G04 #@! TF.ProjectId,Akashi-02,416b6173-6869-42d3-9032-2e6b69636164,rev?*
G04 #@! TF.SameCoordinates,Original*
G04 #@! TF.FileFunction,Legend,Bot*
G04 #@! TF.FilePolarity,Positive*
%FSLAX46Y46*%
G04 Gerber Fmt 4.6, Leading zero omitted, Abs format (unit mm)*
G04 Created by KiCad (PCBNEW 5.1.4-e60b266~84~ubuntu16.04.1) date 2019-10-27 16:28:42*
%MOMM*%
%LPD*%
G04 APERTURE LIST*
%ADD10C,0.150000*%
%ADD11C,0.120000*%
%ADD12C,0.500000*%
%ADD13C,0.100000*%
%ADD14O,1.802000X1.802000*%
%ADD15R,1.802000X1.802000*%
%ADD16C,1.626000*%
%ADD17C,1.702000*%
%ADD18O,1.702000X1.702000*%
%ADD19C,1.902000*%
%ADD20R,1.902000X1.902000*%
%ADD21C,2.102000*%
G04 APERTURE END LIST*
D10*
X125692380Y-39356309D02*
X126406666Y-39356309D01*
X126549523Y-39308690D01*
X126644761Y-39213452D01*
X126692380Y-39070595D01*
X126692380Y-38975357D01*
X126692380Y-39832500D02*
X125692380Y-39832500D01*
X125692380Y-40213452D01*
X125740000Y-40308690D01*
X125787619Y-40356309D01*
X125882857Y-40403928D01*
X126025714Y-40403928D01*
X126120952Y-40356309D01*
X126168571Y-40308690D01*
X126216190Y-40213452D01*
X126216190Y-39832500D01*
X125692380Y-41308690D02*
X125692380Y-40832500D01*
X126168571Y-40784880D01*
X126120952Y-40832500D01*
X126073333Y-40927738D01*
X126073333Y-41165833D01*
X126120952Y-41261071D01*
X126168571Y-41308690D01*
X126263809Y-41356309D01*
X126501904Y-41356309D01*
X126597142Y-41308690D01*
X126644761Y-41261071D01*
X126692380Y-41165833D01*
X126692380Y-40927738D01*
X126644761Y-40832500D01*
X126597142Y-40784880D01*
X125692380Y-46642023D02*
X126406666Y-46642023D01*
X126549523Y-46594404D01*
X126644761Y-46499166D01*
X126692380Y-46356309D01*
X126692380Y-46261071D01*
X126692380Y-47118214D02*
X125692380Y-47118214D01*
X125692380Y-47499166D01*
X125740000Y-47594404D01*
X125787619Y-47642023D01*
X125882857Y-47689642D01*
X126025714Y-47689642D01*
X126120952Y-47642023D01*
X126168571Y-47594404D01*
X126216190Y-47499166D01*
X126216190Y-47118214D01*
X126025714Y-48546785D02*
X126692380Y-48546785D01*
X125644761Y-48308690D02*
X126359047Y-48070595D01*
X126359047Y-48689642D01*
X125692380Y-53165833D02*
X126406666Y-53165833D01*
X126549523Y-53118214D01*
X126644761Y-53022976D01*
X126692380Y-52880119D01*
X126692380Y-52784880D01*
X126692380Y-53642023D02*
X125692380Y-53642023D01*
X125692380Y-54022976D01*
X125740000Y-54118214D01*
X125787619Y-54165833D01*
X125882857Y-54213452D01*
X126025714Y-54213452D01*
X126120952Y-54165833D01*
X126168571Y-54118214D01*
X126216190Y-54022976D01*
X126216190Y-53642023D01*
X125692380Y-54546785D02*
X125692380Y-55165833D01*
X126073333Y-54832500D01*
X126073333Y-54975357D01*
X126120952Y-55070595D01*
X126168571Y-55118214D01*
X126263809Y-55165833D01*
X126501904Y-55165833D01*
X126597142Y-55118214D01*
X126644761Y-55070595D01*
X126692380Y-54975357D01*
X126692380Y-54689642D01*
X126644761Y-54594404D01*
X126597142Y-54546785D01*
X125692380Y-60451547D02*
X126406666Y-60451547D01*
X126549523Y-60403928D01*
X126644761Y-60308690D01*
X126692380Y-60165833D01*
X126692380Y-60070595D01*
X126692380Y-60927738D02*
X125692380Y-60927738D01*
X125692380Y-61308690D01*
X125740000Y-61403928D01*
X125787619Y-61451547D01*
X125882857Y-61499166D01*
X126025714Y-61499166D01*
X126120952Y-61451547D01*
X126168571Y-61403928D01*
X126216190Y-61308690D01*
X126216190Y-60927738D01*
X125787619Y-61880119D02*
X125740000Y-61927738D01*
X125692380Y-62022976D01*
X125692380Y-62261071D01*
X125740000Y-62356309D01*
X125787619Y-62403928D01*
X125882857Y-62451547D01*
X125978095Y-62451547D01*
X126120952Y-62403928D01*
X126692380Y-61832499D01*
X126692380Y-62451547D01*
X126597142Y-66689642D02*
X126644761Y-66737261D01*
X126692380Y-66689642D01*
X126644761Y-66642023D01*
X126597142Y-66689642D01*
X126692380Y-66689642D01*
X126073333Y-66689642D02*
X126120952Y-66737261D01*
X126168571Y-66689642D01*
X126120952Y-66642023D01*
X126073333Y-66689642D01*
X126168571Y-66689642D01*
X126692380Y-67927738D02*
X125692380Y-67927738D01*
X125787619Y-68356309D02*
X125740000Y-68403928D01*
X125692380Y-68499166D01*
X125692380Y-68737261D01*
X125740000Y-68832499D01*
X125787619Y-68880119D01*
X125882857Y-68927738D01*
X125978095Y-68927738D01*
X126120952Y-68880119D01*
X126692380Y-68308690D01*
X126692380Y-68927738D01*
X126597142Y-69927738D02*
X126644761Y-69880119D01*
X126692380Y-69737261D01*
X126692380Y-69642023D01*
X126644761Y-69499166D01*
X126549523Y-69403928D01*
X126454285Y-69356309D01*
X126263809Y-69308690D01*
X126120952Y-69308690D01*
X125930476Y-69356309D01*
X125835238Y-69403928D01*
X125740000Y-69499166D01*
X125692380Y-69642023D01*
X125692380Y-69737261D01*
X125740000Y-69880119D01*
X125787619Y-69927738D01*
X126406666Y-71070595D02*
X126406666Y-71546785D01*
X126692380Y-70975357D02*
X125692380Y-71308690D01*
X126692380Y-71642023D01*
X126692380Y-71975357D02*
X125692380Y-71975357D01*
X125692380Y-72213452D01*
X125740000Y-72356309D01*
X125835238Y-72451547D01*
X125930476Y-72499166D01*
X126120952Y-72546785D01*
X126263809Y-72546785D01*
X126454285Y-72499166D01*
X126549523Y-72451547D01*
X126644761Y-72356309D01*
X126692380Y-72213452D01*
X126692380Y-71975357D01*
X126692380Y-73546785D02*
X126216190Y-73213452D01*
X126692380Y-72975357D02*
X125692380Y-72975357D01*
X125692380Y-73356309D01*
X125740000Y-73451547D01*
X125787619Y-73499166D01*
X125882857Y-73546785D01*
X126025714Y-73546785D01*
X126120952Y-73499166D01*
X126168571Y-73451547D01*
X126216190Y-73356309D01*
X126216190Y-72975357D01*
X126644761Y-73927738D02*
X126692380Y-74070595D01*
X126692380Y-74308690D01*
X126644761Y-74403928D01*
X126597142Y-74451547D01*
X126501904Y-74499166D01*
X126406666Y-74499166D01*
X126311428Y-74451547D01*
X126263809Y-74403928D01*
X126216190Y-74308690D01*
X126168571Y-74118214D01*
X126120952Y-74022976D01*
X126073333Y-73975357D01*
X125978095Y-73927738D01*
X125882857Y-73927738D01*
X125787619Y-73975357D01*
X125740000Y-74022976D01*
X125692380Y-74118214D01*
X125692380Y-74356309D01*
X125740000Y-74499166D01*
X127342380Y-39261071D02*
X127342380Y-39451547D01*
X127390000Y-39546785D01*
X127485238Y-39642023D01*
X127675714Y-39689642D01*
X128009047Y-39689642D01*
X128199523Y-39642023D01*
X128294761Y-39546785D01*
X128342380Y-39451547D01*
X128342380Y-39261071D01*
X128294761Y-39165833D01*
X128199523Y-39070595D01*
X128009047Y-39022976D01*
X127675714Y-39022976D01*
X127485238Y-39070595D01*
X127390000Y-39165833D01*
X127342380Y-39261071D01*
X128342380Y-40118214D02*
X127342380Y-40118214D01*
X127342380Y-40499166D01*
X127390000Y-40594404D01*
X127437619Y-40642023D01*
X127532857Y-40689642D01*
X127675714Y-40689642D01*
X127770952Y-40642023D01*
X127818571Y-40594404D01*
X127866190Y-40499166D01*
X127866190Y-40118214D01*
X127818571Y-41118214D02*
X127818571Y-41451547D01*
X128342380Y-41594404D02*
X128342380Y-41118214D01*
X127342380Y-41118214D01*
X127342380Y-41594404D01*
X128342380Y-42022976D02*
X127342380Y-42022976D01*
X128342380Y-42594404D01*
X127342380Y-42594404D01*
X127818571Y-43070595D02*
X127818571Y-43403928D01*
X128342380Y-43546785D02*
X128342380Y-43070595D01*
X127342380Y-43070595D01*
X127342380Y-43546785D01*
X128342380Y-43975357D02*
X127342380Y-43975357D01*
X127342380Y-44213452D01*
X127390000Y-44356309D01*
X127485238Y-44451547D01*
X127580476Y-44499166D01*
X127770952Y-44546785D01*
X127913809Y-44546785D01*
X128104285Y-44499166D01*
X128199523Y-44451547D01*
X128294761Y-44356309D01*
X128342380Y-44213452D01*
X128342380Y-43975357D01*
X128247142Y-46308690D02*
X128294761Y-46261071D01*
X128342380Y-46118214D01*
X128342380Y-46022976D01*
X128294761Y-45880119D01*
X128199523Y-45784880D01*
X128104285Y-45737261D01*
X127913809Y-45689642D01*
X127770952Y-45689642D01*
X127580476Y-45737261D01*
X127485238Y-45784880D01*
X127390000Y-45880119D01*
X127342380Y-46022976D01*
X127342380Y-46118214D01*
X127390000Y-46261071D01*
X127437619Y-46308690D01*
X128342380Y-47213452D02*
X128342380Y-46737261D01*
X127342380Y-46737261D01*
X127342380Y-47737261D02*
X127342380Y-47927738D01*
X127390000Y-48022976D01*
X127485238Y-48118214D01*
X127675714Y-48165833D01*
X128009047Y-48165833D01*
X128199523Y-48118214D01*
X128294761Y-48022976D01*
X128342380Y-47927738D01*
X128342380Y-47737261D01*
X128294761Y-47642023D01*
X128199523Y-47546785D01*
X128009047Y-47499166D01*
X127675714Y-47499166D01*
X127485238Y-47546785D01*
X127390000Y-47642023D01*
X127342380Y-47737261D01*
X128294761Y-48546785D02*
X128342380Y-48689642D01*
X128342380Y-48927738D01*
X128294761Y-49022976D01*
X128247142Y-49070595D01*
X128151904Y-49118214D01*
X128056666Y-49118214D01*
X127961428Y-49070595D01*
X127913809Y-49022976D01*
X127866190Y-48927738D01*
X127818571Y-48737261D01*
X127770952Y-48642023D01*
X127723333Y-48594404D01*
X127628095Y-48546785D01*
X127532857Y-48546785D01*
X127437619Y-48594404D01*
X127390000Y-48642023D01*
X127342380Y-48737261D01*
X127342380Y-48975357D01*
X127390000Y-49118214D01*
X127818571Y-49546785D02*
X127818571Y-49880119D01*
X128342380Y-50022976D02*
X128342380Y-49546785D01*
X127342380Y-49546785D01*
X127342380Y-50022976D01*
X128342380Y-50451547D02*
X127342380Y-50451547D01*
X127342380Y-50689642D01*
X127390000Y-50832500D01*
X127485238Y-50927738D01*
X127580476Y-50975357D01*
X127770952Y-51022976D01*
X127913809Y-51022976D01*
X128104285Y-50975357D01*
X128199523Y-50927738D01*
X128294761Y-50832500D01*
X128342380Y-50689642D01*
X128342380Y-50451547D01*
X127342380Y-52403928D02*
X127342380Y-52594404D01*
X127390000Y-52689642D01*
X127485238Y-52784880D01*
X127675714Y-52832500D01*
X128009047Y-52832500D01*
X128199523Y-52784880D01*
X128294761Y-52689642D01*
X128342380Y-52594404D01*
X128342380Y-52403928D01*
X128294761Y-52308690D01*
X128199523Y-52213452D01*
X128009047Y-52165833D01*
X127675714Y-52165833D01*
X127485238Y-52213452D01*
X127390000Y-52308690D01*
X127342380Y-52403928D01*
X128342380Y-53261071D02*
X127342380Y-53261071D01*
X127342380Y-53642023D01*
X127390000Y-53737261D01*
X127437619Y-53784880D01*
X127532857Y-53832500D01*
X127675714Y-53832500D01*
X127770952Y-53784880D01*
X127818571Y-53737261D01*
X127866190Y-53642023D01*
X127866190Y-53261071D01*
X127818571Y-54261071D02*
X127818571Y-54594404D01*
X128342380Y-54737261D02*
X128342380Y-54261071D01*
X127342380Y-54261071D01*
X127342380Y-54737261D01*
X128342380Y-55165833D02*
X127342380Y-55165833D01*
X128342380Y-55737261D01*
X127342380Y-55737261D01*
X127818571Y-56213452D02*
X127818571Y-56546785D01*
X128342380Y-56689642D02*
X128342380Y-56213452D01*
X127342380Y-56213452D01*
X127342380Y-56689642D01*
X128342380Y-57118214D02*
X127342380Y-57118214D01*
X127342380Y-57356309D01*
X127390000Y-57499166D01*
X127485238Y-57594404D01*
X127580476Y-57642023D01*
X127770952Y-57689642D01*
X127913809Y-57689642D01*
X128104285Y-57642023D01*
X128199523Y-57594404D01*
X128294761Y-57499166D01*
X128342380Y-57356309D01*
X128342380Y-57118214D01*
X128247142Y-60213452D02*
X128294761Y-60165833D01*
X128342380Y-60022976D01*
X128342380Y-59927738D01*
X128294761Y-59784880D01*
X128199523Y-59689642D01*
X128104285Y-59642023D01*
X127913809Y-59594404D01*
X127770952Y-59594404D01*
X127580476Y-59642023D01*
X127485238Y-59689642D01*
X127390000Y-59784880D01*
X127342380Y-59927738D01*
X127342380Y-60022976D01*
X127390000Y-60165833D01*
X127437619Y-60213452D01*
X128342380Y-61118214D02*
X128342380Y-60642023D01*
X127342380Y-60642023D01*
X127342380Y-61642023D02*
X127342380Y-61832500D01*
X127390000Y-61927738D01*
X127485238Y-62022976D01*
X127675714Y-62070595D01*
X128009047Y-62070595D01*
X128199523Y-62022976D01*
X128294761Y-61927738D01*
X128342380Y-61832500D01*
X128342380Y-61642023D01*
X128294761Y-61546785D01*
X128199523Y-61451547D01*
X128009047Y-61403928D01*
X127675714Y-61403928D01*
X127485238Y-61451547D01*
X127390000Y-61546785D01*
X127342380Y-61642023D01*
X128294761Y-62451547D02*
X128342380Y-62594404D01*
X128342380Y-62832500D01*
X128294761Y-62927738D01*
X128247142Y-62975357D01*
X128151904Y-63022976D01*
X128056666Y-63022976D01*
X127961428Y-62975357D01*
X127913809Y-62927738D01*
X127866190Y-62832500D01*
X127818571Y-62642023D01*
X127770952Y-62546785D01*
X127723333Y-62499166D01*
X127628095Y-62451547D01*
X127532857Y-62451547D01*
X127437619Y-62499166D01*
X127390000Y-62546785D01*
X127342380Y-62642023D01*
X127342380Y-62880119D01*
X127390000Y-63022976D01*
X127818571Y-63451547D02*
X127818571Y-63784880D01*
X128342380Y-63927738D02*
X128342380Y-63451547D01*
X127342380Y-63451547D01*
X127342380Y-63927738D01*
X128342380Y-64356309D02*
X127342380Y-64356309D01*
X127342380Y-64594404D01*
X127390000Y-64737261D01*
X127485238Y-64832500D01*
X127580476Y-64880119D01*
X127770952Y-64927738D01*
X127913809Y-64927738D01*
X128104285Y-64880119D01*
X128199523Y-64832500D01*
X128294761Y-64737261D01*
X128342380Y-64594404D01*
X128342380Y-64356309D01*
X128247142Y-66118214D02*
X128294761Y-66165833D01*
X128342380Y-66118214D01*
X128294761Y-66070595D01*
X128247142Y-66118214D01*
X128342380Y-66118214D01*
X127723333Y-66118214D02*
X127770952Y-66165833D01*
X127818571Y-66118214D01*
X127770952Y-66070595D01*
X127723333Y-66118214D01*
X127818571Y-66118214D01*
X127342380Y-67546785D02*
X127342380Y-67642023D01*
X127390000Y-67737261D01*
X127437619Y-67784880D01*
X127532857Y-67832500D01*
X127723333Y-67880119D01*
X127961428Y-67880119D01*
X128151904Y-67832500D01*
X128247142Y-67784880D01*
X128294761Y-67737261D01*
X128342380Y-67642023D01*
X128342380Y-67546785D01*
X128294761Y-67451547D01*
X128247142Y-67403928D01*
X128151904Y-67356309D01*
X127961428Y-67308690D01*
X127723333Y-67308690D01*
X127532857Y-67356309D01*
X127437619Y-67403928D01*
X127390000Y-67451547D01*
X127342380Y-67546785D01*
X128342380Y-68213452D02*
X127675714Y-68737261D01*
X127675714Y-68213452D02*
X128342380Y-68737261D01*
X127342380Y-69022976D02*
X127342380Y-69642023D01*
X127723333Y-69308690D01*
X127723333Y-69451547D01*
X127770952Y-69546785D01*
X127818571Y-69594404D01*
X127913809Y-69642023D01*
X128151904Y-69642023D01*
X128247142Y-69594404D01*
X128294761Y-69546785D01*
X128342380Y-69451547D01*
X128342380Y-69165833D01*
X128294761Y-69070595D01*
X128247142Y-69022976D01*
X127770952Y-70213452D02*
X127723333Y-70118214D01*
X127675714Y-70070595D01*
X127580476Y-70022976D01*
X127532857Y-70022976D01*
X127437619Y-70070595D01*
X127390000Y-70118214D01*
X127342380Y-70213452D01*
X127342380Y-70403928D01*
X127390000Y-70499166D01*
X127437619Y-70546785D01*
X127532857Y-70594404D01*
X127580476Y-70594404D01*
X127675714Y-70546785D01*
X127723333Y-70499166D01*
X127770952Y-70403928D01*
X127770952Y-70213452D01*
X127818571Y-70118214D01*
X127866190Y-70070595D01*
X127961428Y-70022976D01*
X128151904Y-70022976D01*
X128247142Y-70070595D01*
X128294761Y-70118214D01*
X128342380Y-70213452D01*
X128342380Y-70403928D01*
X128294761Y-70499166D01*
X128247142Y-70546785D01*
X128151904Y-70594404D01*
X127961428Y-70594404D01*
X127866190Y-70546785D01*
X127818571Y-70499166D01*
X127770952Y-70403928D01*
X129897142Y-39642023D02*
X129944761Y-39594404D01*
X129992380Y-39451547D01*
X129992380Y-39356309D01*
X129944761Y-39213452D01*
X129849523Y-39118214D01*
X129754285Y-39070595D01*
X129563809Y-39022976D01*
X129420952Y-39022976D01*
X129230476Y-39070595D01*
X129135238Y-39118214D01*
X129040000Y-39213452D01*
X128992380Y-39356309D01*
X128992380Y-39451547D01*
X129040000Y-39594404D01*
X129087619Y-39642023D01*
X129992380Y-40546785D02*
X129992380Y-40070595D01*
X128992380Y-40070595D01*
X128992380Y-41070595D02*
X128992380Y-41261071D01*
X129040000Y-41356309D01*
X129135238Y-41451547D01*
X129325714Y-41499166D01*
X129659047Y-41499166D01*
X129849523Y-41451547D01*
X129944761Y-41356309D01*
X129992380Y-41261071D01*
X129992380Y-41070595D01*
X129944761Y-40975357D01*
X129849523Y-40880119D01*
X129659047Y-40832500D01*
X129325714Y-40832500D01*
X129135238Y-40880119D01*
X129040000Y-40975357D01*
X128992380Y-41070595D01*
X129944761Y-41880119D02*
X129992380Y-42022976D01*
X129992380Y-42261071D01*
X129944761Y-42356309D01*
X129897142Y-42403928D01*
X129801904Y-42451547D01*
X129706666Y-42451547D01*
X129611428Y-42403928D01*
X129563809Y-42356309D01*
X129516190Y-42261071D01*
X129468571Y-42070595D01*
X129420952Y-41975357D01*
X129373333Y-41927738D01*
X129278095Y-41880119D01*
X129182857Y-41880119D01*
X129087619Y-41927738D01*
X129040000Y-41975357D01*
X128992380Y-42070595D01*
X128992380Y-42308690D01*
X129040000Y-42451547D01*
X129468571Y-42880119D02*
X129468571Y-43213452D01*
X129992380Y-43356309D02*
X129992380Y-42880119D01*
X128992380Y-42880119D01*
X128992380Y-43356309D01*
X129992380Y-43784880D02*
X128992380Y-43784880D01*
X128992380Y-44022976D01*
X129040000Y-44165833D01*
X129135238Y-44261071D01*
X129230476Y-44308690D01*
X129420952Y-44356309D01*
X129563809Y-44356309D01*
X129754285Y-44308690D01*
X129849523Y-44261071D01*
X129944761Y-44165833D01*
X129992380Y-44022976D01*
X129992380Y-43784880D01*
X128992380Y-45737261D02*
X128992380Y-45927738D01*
X129040000Y-46022976D01*
X129135238Y-46118214D01*
X129325714Y-46165833D01*
X129659047Y-46165833D01*
X129849523Y-46118214D01*
X129944761Y-46022976D01*
X129992380Y-45927738D01*
X129992380Y-45737261D01*
X129944761Y-45642023D01*
X129849523Y-45546785D01*
X129659047Y-45499166D01*
X129325714Y-45499166D01*
X129135238Y-45546785D01*
X129040000Y-45642023D01*
X128992380Y-45737261D01*
X129992380Y-46594404D02*
X128992380Y-46594404D01*
X128992380Y-46975357D01*
X129040000Y-47070595D01*
X129087619Y-47118214D01*
X129182857Y-47165833D01*
X129325714Y-47165833D01*
X129420952Y-47118214D01*
X129468571Y-47070595D01*
X129516190Y-46975357D01*
X129516190Y-46594404D01*
X129468571Y-47594404D02*
X129468571Y-47927738D01*
X129992380Y-48070595D02*
X129992380Y-47594404D01*
X128992380Y-47594404D01*
X128992380Y-48070595D01*
X129992380Y-48499166D02*
X128992380Y-48499166D01*
X129992380Y-49070595D01*
X128992380Y-49070595D01*
X129468571Y-49546785D02*
X129468571Y-49880119D01*
X129992380Y-50022976D02*
X129992380Y-49546785D01*
X128992380Y-49546785D01*
X128992380Y-50022976D01*
X129992380Y-50451547D02*
X128992380Y-50451547D01*
X128992380Y-50689642D01*
X129040000Y-50832499D01*
X129135238Y-50927738D01*
X129230476Y-50975357D01*
X129420952Y-51022976D01*
X129563809Y-51022976D01*
X129754285Y-50975357D01*
X129849523Y-50927738D01*
X129944761Y-50832499D01*
X129992380Y-50689642D01*
X129992380Y-50451547D01*
X129897142Y-53546785D02*
X129944761Y-53499166D01*
X129992380Y-53356309D01*
X129992380Y-53261071D01*
X129944761Y-53118214D01*
X129849523Y-53022976D01*
X129754285Y-52975357D01*
X129563809Y-52927738D01*
X129420952Y-52927738D01*
X129230476Y-52975357D01*
X129135238Y-53022976D01*
X129040000Y-53118214D01*
X128992380Y-53261071D01*
X128992380Y-53356309D01*
X129040000Y-53499166D01*
X129087619Y-53546785D01*
X129992380Y-54451547D02*
X129992380Y-53975357D01*
X128992380Y-53975357D01*
X128992380Y-54975357D02*
X128992380Y-55165833D01*
X129040000Y-55261071D01*
X129135238Y-55356309D01*
X129325714Y-55403928D01*
X129659047Y-55403928D01*
X129849523Y-55356309D01*
X129944761Y-55261071D01*
X129992380Y-55165833D01*
X129992380Y-54975357D01*
X129944761Y-54880119D01*
X129849523Y-54784880D01*
X129659047Y-54737261D01*
X129325714Y-54737261D01*
X129135238Y-54784880D01*
X129040000Y-54880119D01*
X128992380Y-54975357D01*
X129944761Y-55784880D02*
X129992380Y-55927738D01*
X129992380Y-56165833D01*
X129944761Y-56261071D01*
X129897142Y-56308690D01*
X129801904Y-56356309D01*
X129706666Y-56356309D01*
X129611428Y-56308690D01*
X129563809Y-56261071D01*
X129516190Y-56165833D01*
X129468571Y-55975357D01*
X129420952Y-55880119D01*
X129373333Y-55832499D01*
X129278095Y-55784880D01*
X129182857Y-55784880D01*
X129087619Y-55832499D01*
X129040000Y-55880119D01*
X128992380Y-55975357D01*
X128992380Y-56213452D01*
X129040000Y-56356309D01*
X129468571Y-56784880D02*
X129468571Y-57118214D01*
X129992380Y-57261071D02*
X129992380Y-56784880D01*
X128992380Y-56784880D01*
X128992380Y-57261071D01*
X129992380Y-57689642D02*
X128992380Y-57689642D01*
X128992380Y-57927738D01*
X129040000Y-58070595D01*
X129135238Y-58165833D01*
X129230476Y-58213452D01*
X129420952Y-58261071D01*
X129563809Y-58261071D01*
X129754285Y-58213452D01*
X129849523Y-58165833D01*
X129944761Y-58070595D01*
X129992380Y-57927738D01*
X129992380Y-57689642D01*
X128992380Y-59642023D02*
X128992380Y-59832499D01*
X129040000Y-59927738D01*
X129135238Y-60022976D01*
X129325714Y-60070595D01*
X129659047Y-60070595D01*
X129849523Y-60022976D01*
X129944761Y-59927738D01*
X129992380Y-59832499D01*
X129992380Y-59642023D01*
X129944761Y-59546785D01*
X129849523Y-59451547D01*
X129659047Y-59403928D01*
X129325714Y-59403928D01*
X129135238Y-59451547D01*
X129040000Y-59546785D01*
X128992380Y-59642023D01*
X129992380Y-60499166D02*
X128992380Y-60499166D01*
X128992380Y-60880119D01*
X129040000Y-60975357D01*
X129087619Y-61022976D01*
X129182857Y-61070595D01*
X129325714Y-61070595D01*
X129420952Y-61022976D01*
X129468571Y-60975357D01*
X129516190Y-60880119D01*
X129516190Y-60499166D01*
X129468571Y-61499166D02*
X129468571Y-61832499D01*
X129992380Y-61975357D02*
X129992380Y-61499166D01*
X128992380Y-61499166D01*
X128992380Y-61975357D01*
X129992380Y-62403928D02*
X128992380Y-62403928D01*
X129992380Y-62975357D01*
X128992380Y-62975357D01*
X129468571Y-63451547D02*
X129468571Y-63784880D01*
X129992380Y-63927738D02*
X129992380Y-63451547D01*
X128992380Y-63451547D01*
X128992380Y-63927738D01*
X129992380Y-64356309D02*
X128992380Y-64356309D01*
X128992380Y-64594404D01*
X129040000Y-64737261D01*
X129135238Y-64832499D01*
X129230476Y-64880119D01*
X129420952Y-64927738D01*
X129563809Y-64927738D01*
X129754285Y-64880119D01*
X129849523Y-64832499D01*
X129944761Y-64737261D01*
X129992380Y-64594404D01*
X129992380Y-64356309D01*
X129897142Y-66880119D02*
X129944761Y-66927738D01*
X129992380Y-66880119D01*
X129944761Y-66832499D01*
X129897142Y-66880119D01*
X129992380Y-66880119D01*
X129373333Y-66880119D02*
X129420952Y-66927738D01*
X129468571Y-66880119D01*
X129420952Y-66832499D01*
X129373333Y-66880119D01*
X129468571Y-66880119D01*
X129992380Y-68118214D02*
X128992380Y-68118214D01*
X128992380Y-68499166D01*
X129040000Y-68594404D01*
X129087619Y-68642023D01*
X129182857Y-68689642D01*
X129325714Y-68689642D01*
X129420952Y-68642023D01*
X129468571Y-68594404D01*
X129516190Y-68499166D01*
X129516190Y-68118214D01*
X129992380Y-69118214D02*
X129325714Y-69118214D01*
X129516190Y-69118214D02*
X129420952Y-69165833D01*
X129373333Y-69213452D01*
X129325714Y-69308690D01*
X129325714Y-69403928D01*
X129325714Y-70165833D02*
X130135238Y-70165833D01*
X130230476Y-70118214D01*
X130278095Y-70070595D01*
X130325714Y-69975357D01*
X130325714Y-69832499D01*
X130278095Y-69737261D01*
X129944761Y-70165833D02*
X129992380Y-70070595D01*
X129992380Y-69880119D01*
X129944761Y-69784880D01*
X129897142Y-69737261D01*
X129801904Y-69689642D01*
X129516190Y-69689642D01*
X129420952Y-69737261D01*
X129373333Y-69784880D01*
X129325714Y-69880119D01*
X129325714Y-70070595D01*
X129373333Y-70165833D01*
X129897142Y-71975357D02*
X129944761Y-71927738D01*
X129992380Y-71784880D01*
X129992380Y-71689642D01*
X129944761Y-71546785D01*
X129849523Y-71451547D01*
X129754285Y-71403928D01*
X129563809Y-71356309D01*
X129420952Y-71356309D01*
X129230476Y-71403928D01*
X129135238Y-71451547D01*
X129040000Y-71546785D01*
X128992380Y-71689642D01*
X128992380Y-71784880D01*
X129040000Y-71927738D01*
X129087619Y-71975357D01*
X129325714Y-72261071D02*
X129325714Y-72642023D01*
X128992380Y-72403928D02*
X129849523Y-72403928D01*
X129944761Y-72451547D01*
X129992380Y-72546785D01*
X129992380Y-72642023D01*
X129992380Y-72975357D02*
X129325714Y-72975357D01*
X129516190Y-72975357D02*
X129420952Y-73022976D01*
X129373333Y-73070595D01*
X129325714Y-73165833D01*
X129325714Y-73261071D01*
X129992380Y-73737261D02*
X129944761Y-73642023D01*
X129849523Y-73594404D01*
X128992380Y-73594404D01*
X133292380Y-39070595D02*
X132292380Y-39070595D01*
X132292380Y-39451547D01*
X132340000Y-39546785D01*
X132387619Y-39594404D01*
X132482857Y-39642023D01*
X132625714Y-39642023D01*
X132720952Y-39594404D01*
X132768571Y-39546785D01*
X132816190Y-39451547D01*
X132816190Y-39070595D01*
X133292380Y-40070595D02*
X132625714Y-40070595D01*
X132816190Y-40070595D02*
X132720952Y-40118214D01*
X132673333Y-40165833D01*
X132625714Y-40261071D01*
X132625714Y-40356309D01*
X132625714Y-41118214D02*
X133435238Y-41118214D01*
X133530476Y-41070595D01*
X133578095Y-41022976D01*
X133625714Y-40927738D01*
X133625714Y-40784880D01*
X133578095Y-40689642D01*
X133244761Y-41118214D02*
X133292380Y-41022976D01*
X133292380Y-40832500D01*
X133244761Y-40737261D01*
X133197142Y-40689642D01*
X133101904Y-40642023D01*
X132816190Y-40642023D01*
X132720952Y-40689642D01*
X132673333Y-40737261D01*
X132625714Y-40832500D01*
X132625714Y-41022976D01*
X132673333Y-41118214D01*
X133197142Y-42927738D02*
X133244761Y-42880119D01*
X133292380Y-42737261D01*
X133292380Y-42642023D01*
X133244761Y-42499166D01*
X133149523Y-42403928D01*
X133054285Y-42356309D01*
X132863809Y-42308690D01*
X132720952Y-42308690D01*
X132530476Y-42356309D01*
X132435238Y-42403928D01*
X132340000Y-42499166D01*
X132292380Y-42642023D01*
X132292380Y-42737261D01*
X132340000Y-42880119D01*
X132387619Y-42927738D01*
X132625714Y-43213452D02*
X132625714Y-43594404D01*
X132292380Y-43356309D02*
X133149523Y-43356309D01*
X133244761Y-43403928D01*
X133292380Y-43499166D01*
X133292380Y-43594404D01*
X133292380Y-43927738D02*
X132625714Y-43927738D01*
X132816190Y-43927738D02*
X132720952Y-43975357D01*
X132673333Y-44022976D01*
X132625714Y-44118214D01*
X132625714Y-44213452D01*
X133292380Y-44689642D02*
X133244761Y-44594404D01*
X133149523Y-44546785D01*
X132292380Y-44546785D01*
X133197142Y-45832500D02*
X133244761Y-45880119D01*
X133292380Y-45832500D01*
X133244761Y-45784880D01*
X133197142Y-45832500D01*
X133292380Y-45832500D01*
X132673333Y-45832500D02*
X132720952Y-45880119D01*
X132768571Y-45832500D01*
X132720952Y-45784880D01*
X132673333Y-45832500D01*
X132768571Y-45832500D01*
X133292380Y-47070595D02*
X132292380Y-47070595D01*
X132387619Y-47499166D02*
X132340000Y-47546785D01*
X132292380Y-47642023D01*
X132292380Y-47880119D01*
X132340000Y-47975357D01*
X132387619Y-48022976D01*
X132482857Y-48070595D01*
X132578095Y-48070595D01*
X132720952Y-48022976D01*
X133292380Y-47451547D01*
X133292380Y-48070595D01*
X133197142Y-49070595D02*
X133244761Y-49022976D01*
X133292380Y-48880119D01*
X133292380Y-48784880D01*
X133244761Y-48642023D01*
X133149523Y-48546785D01*
X133054285Y-48499166D01*
X132863809Y-48451547D01*
X132720952Y-48451547D01*
X132530476Y-48499166D01*
X132435238Y-48546785D01*
X132340000Y-48642023D01*
X132292380Y-48784880D01*
X132292380Y-48880119D01*
X132340000Y-49022976D01*
X132387619Y-49070595D01*
X133006666Y-50213452D02*
X133006666Y-50689642D01*
X133292380Y-50118214D02*
X132292380Y-50451547D01*
X133292380Y-50784880D01*
X133292380Y-51546785D02*
X132292380Y-51546785D01*
X133244761Y-51546785D02*
X133292380Y-51451547D01*
X133292380Y-51261071D01*
X133244761Y-51165833D01*
X133197142Y-51118214D01*
X133101904Y-51070595D01*
X132816190Y-51070595D01*
X132720952Y-51118214D01*
X132673333Y-51165833D01*
X132625714Y-51261071D01*
X132625714Y-51451547D01*
X132673333Y-51546785D01*
X133292380Y-52451547D02*
X132292380Y-52451547D01*
X133244761Y-52451547D02*
X133292380Y-52356309D01*
X133292380Y-52165833D01*
X133244761Y-52070595D01*
X133197142Y-52022976D01*
X133101904Y-51975357D01*
X132816190Y-51975357D01*
X132720952Y-52022976D01*
X132673333Y-52070595D01*
X132625714Y-52165833D01*
X132625714Y-52356309D01*
X132673333Y-52451547D01*
X133292380Y-52927738D02*
X132625714Y-52927738D01*
X132816190Y-52927738D02*
X132720952Y-52975357D01*
X132673333Y-53022976D01*
X132625714Y-53118214D01*
X132625714Y-53213452D01*
X133244761Y-53927738D02*
X133292380Y-53832500D01*
X133292380Y-53642023D01*
X133244761Y-53546785D01*
X133149523Y-53499166D01*
X132768571Y-53499166D01*
X132673333Y-53546785D01*
X132625714Y-53642023D01*
X132625714Y-53832500D01*
X132673333Y-53927738D01*
X132768571Y-53975357D01*
X132863809Y-53975357D01*
X132959047Y-53499166D01*
X133244761Y-54356309D02*
X133292380Y-54451547D01*
X133292380Y-54642023D01*
X133244761Y-54737261D01*
X133149523Y-54784880D01*
X133101904Y-54784880D01*
X133006666Y-54737261D01*
X132959047Y-54642023D01*
X132959047Y-54499166D01*
X132911428Y-54403928D01*
X132816190Y-54356309D01*
X132768571Y-54356309D01*
X132673333Y-54403928D01*
X132625714Y-54499166D01*
X132625714Y-54642023D01*
X132673333Y-54737261D01*
X133244761Y-55165833D02*
X133292380Y-55261071D01*
X133292380Y-55451547D01*
X133244761Y-55546785D01*
X133149523Y-55594404D01*
X133101904Y-55594404D01*
X133006666Y-55546785D01*
X132959047Y-55451547D01*
X132959047Y-55308690D01*
X132911428Y-55213452D01*
X132816190Y-55165833D01*
X132768571Y-55165833D01*
X132673333Y-55213452D01*
X132625714Y-55308690D01*
X132625714Y-55451547D01*
X132673333Y-55546785D01*
X132768571Y-56784880D02*
X132768571Y-57546785D01*
X133054285Y-57546785D02*
X133054285Y-56784880D01*
X132292380Y-58975357D02*
X132292380Y-59070595D01*
X132340000Y-59165833D01*
X132387619Y-59213452D01*
X132482857Y-59261071D01*
X132673333Y-59308690D01*
X132911428Y-59308690D01*
X133101904Y-59261071D01*
X133197142Y-59213452D01*
X133244761Y-59165833D01*
X133292380Y-59070595D01*
X133292380Y-58975357D01*
X133244761Y-58880119D01*
X133197142Y-58832500D01*
X133101904Y-58784880D01*
X132911428Y-58737261D01*
X132673333Y-58737261D01*
X132482857Y-58784880D01*
X132387619Y-58832500D01*
X132340000Y-58880119D01*
X132292380Y-58975357D01*
X133292380Y-59642023D02*
X132625714Y-60165833D01*
X132625714Y-59642023D02*
X133292380Y-60165833D01*
X132292380Y-60451547D02*
X132292380Y-61070595D01*
X132673333Y-60737261D01*
X132673333Y-60880119D01*
X132720952Y-60975357D01*
X132768571Y-61022976D01*
X132863809Y-61070595D01*
X133101904Y-61070595D01*
X133197142Y-61022976D01*
X133244761Y-60975357D01*
X133292380Y-60880119D01*
X133292380Y-60594404D01*
X133244761Y-60499166D01*
X133197142Y-60451547D01*
X132720952Y-61642023D02*
X132673333Y-61546785D01*
X132625714Y-61499166D01*
X132530476Y-61451547D01*
X132482857Y-61451547D01*
X132387619Y-61499166D01*
X132340000Y-61546785D01*
X132292380Y-61642023D01*
X132292380Y-61832500D01*
X132340000Y-61927738D01*
X132387619Y-61975357D01*
X132482857Y-62022976D01*
X132530476Y-62022976D01*
X132625714Y-61975357D01*
X132673333Y-61927738D01*
X132720952Y-61832500D01*
X132720952Y-61642023D01*
X132768571Y-61546785D01*
X132816190Y-61499166D01*
X132911428Y-61451547D01*
X133101904Y-61451547D01*
X133197142Y-61499166D01*
X133244761Y-61546785D01*
X133292380Y-61642023D01*
X133292380Y-61832500D01*
X133244761Y-61927738D01*
X133197142Y-61975357D01*
X133101904Y-62022976D01*
X132911428Y-62022976D01*
X132816190Y-61975357D01*
X132768571Y-61927738D01*
X132720952Y-61832500D01*
X132911428Y-62451547D02*
X132911428Y-63213452D01*
X133292380Y-62832500D02*
X132530476Y-62832500D01*
X133292380Y-63689642D02*
X132292380Y-63689642D01*
X132292380Y-64070595D01*
X132340000Y-64165833D01*
X132387619Y-64213452D01*
X132482857Y-64261071D01*
X132625714Y-64261071D01*
X132720952Y-64213452D01*
X132768571Y-64165833D01*
X132816190Y-64070595D01*
X132816190Y-63689642D01*
X132768571Y-65022976D02*
X132816190Y-65165833D01*
X132863809Y-65213452D01*
X132959047Y-65261071D01*
X133101904Y-65261071D01*
X133197142Y-65213452D01*
X133244761Y-65165833D01*
X133292380Y-65070595D01*
X133292380Y-64689642D01*
X132292380Y-64689642D01*
X132292380Y-65022976D01*
X132340000Y-65118214D01*
X132387619Y-65165833D01*
X132482857Y-65213452D01*
X132578095Y-65213452D01*
X132673333Y-65165833D01*
X132720952Y-65118214D01*
X132768571Y-65022976D01*
X132768571Y-64689642D01*
X133292380Y-66213452D02*
X133292380Y-65642023D01*
X133292380Y-65927738D02*
X132292380Y-65927738D01*
X132435238Y-65832500D01*
X132530476Y-65737261D01*
X132578095Y-65642023D01*
X132387619Y-66594404D02*
X132340000Y-66642023D01*
X132292380Y-66737261D01*
X132292380Y-66975357D01*
X132340000Y-67070595D01*
X132387619Y-67118214D01*
X132482857Y-67165833D01*
X132578095Y-67165833D01*
X132720952Y-67118214D01*
X133292380Y-66546785D01*
X133292380Y-67165833D01*
X133197142Y-67594404D02*
X133244761Y-67642023D01*
X133292380Y-67594404D01*
X133244761Y-67546785D01*
X133197142Y-67594404D01*
X133292380Y-67594404D01*
X132673333Y-67594404D02*
X132720952Y-67642023D01*
X132768571Y-67594404D01*
X132720952Y-67546785D01*
X132673333Y-67594404D01*
X132768571Y-67594404D01*
X133292380Y-68070595D02*
X132292380Y-68070595D01*
X132292380Y-68451547D01*
X132340000Y-68546785D01*
X132387619Y-68594404D01*
X132482857Y-68642023D01*
X132625714Y-68642023D01*
X132720952Y-68594404D01*
X132768571Y-68546785D01*
X132816190Y-68451547D01*
X132816190Y-68070595D01*
X133006666Y-69022976D02*
X133006666Y-69499166D01*
X133292380Y-68927738D02*
X132292380Y-69261071D01*
X133292380Y-69594404D01*
X133292380Y-70451547D02*
X133292380Y-69880119D01*
X133292380Y-70165833D02*
X132292380Y-70165833D01*
X132435238Y-70070595D01*
X132530476Y-69975357D01*
X132578095Y-69880119D01*
X132292380Y-71356309D02*
X132292380Y-70880119D01*
X132768571Y-70832500D01*
X132720952Y-70880119D01*
X132673333Y-70975357D01*
X132673333Y-71213452D01*
X132720952Y-71308690D01*
X132768571Y-71356309D01*
X132863809Y-71403928D01*
X133101904Y-71403928D01*
X133197142Y-71356309D01*
X133244761Y-71308690D01*
X133292380Y-71213452D01*
X133292380Y-70975357D01*
X133244761Y-70880119D01*
X133197142Y-70832500D01*
X130834761Y-77757976D02*
X130882380Y-77900833D01*
X130882380Y-78138928D01*
X130834761Y-78234166D01*
X130787142Y-78281785D01*
X130691904Y-78329404D01*
X130596666Y-78329404D01*
X130501428Y-78281785D01*
X130453809Y-78234166D01*
X130406190Y-78138928D01*
X130358571Y-77948452D01*
X130310952Y-77853214D01*
X130263333Y-77805595D01*
X130168095Y-77757976D01*
X130072857Y-77757976D01*
X129977619Y-77805595D01*
X129930000Y-77853214D01*
X129882380Y-77948452D01*
X129882380Y-78186547D01*
X129930000Y-78329404D01*
X130596666Y-78710357D02*
X130596666Y-79186547D01*
X130882380Y-78615119D02*
X129882380Y-78948452D01*
X130882380Y-79281785D01*
X130882380Y-79615119D02*
X129882380Y-79615119D01*
X130787142Y-80853214D02*
X130834761Y-80900833D01*
X130882380Y-80853214D01*
X130834761Y-80805595D01*
X130787142Y-80853214D01*
X130882380Y-80853214D01*
X130263333Y-80853214D02*
X130310952Y-80900833D01*
X130358571Y-80853214D01*
X130310952Y-80805595D01*
X130263333Y-80853214D01*
X130358571Y-80853214D01*
X130882380Y-82662738D02*
X130406190Y-82329404D01*
X130882380Y-82091309D02*
X129882380Y-82091309D01*
X129882380Y-82472261D01*
X129930000Y-82567500D01*
X129977619Y-82615119D01*
X130072857Y-82662738D01*
X130215714Y-82662738D01*
X130310952Y-82615119D01*
X130358571Y-82567500D01*
X130406190Y-82472261D01*
X130406190Y-82091309D01*
X129882380Y-83567500D02*
X129882380Y-83091309D01*
X130358571Y-83043690D01*
X130310952Y-83091309D01*
X130263333Y-83186547D01*
X130263333Y-83424642D01*
X130310952Y-83519880D01*
X130358571Y-83567500D01*
X130453809Y-83615119D01*
X130691904Y-83615119D01*
X130787142Y-83567500D01*
X130834761Y-83519880D01*
X130882380Y-83424642D01*
X130882380Y-83186547D01*
X130834761Y-83091309D01*
X130787142Y-83043690D01*
X130358571Y-84043690D02*
X130358571Y-84805595D01*
X130644285Y-84805595D02*
X130644285Y-84043690D01*
X130882380Y-85853214D02*
X130406190Y-85519880D01*
X130882380Y-85281785D02*
X129882380Y-85281785D01*
X129882380Y-85662738D01*
X129930000Y-85757976D01*
X129977619Y-85805595D01*
X130072857Y-85853214D01*
X130215714Y-85853214D01*
X130310952Y-85805595D01*
X130358571Y-85757976D01*
X130406190Y-85662738D01*
X130406190Y-85281785D01*
X130834761Y-86662738D02*
X130882380Y-86567500D01*
X130882380Y-86377023D01*
X130834761Y-86281785D01*
X130739523Y-86234166D01*
X130358571Y-86234166D01*
X130263333Y-86281785D01*
X130215714Y-86377023D01*
X130215714Y-86567500D01*
X130263333Y-86662738D01*
X130358571Y-86710357D01*
X130453809Y-86710357D01*
X130549047Y-86234166D01*
X130882380Y-87138928D02*
X130215714Y-87138928D01*
X130310952Y-87138928D02*
X130263333Y-87186547D01*
X130215714Y-87281785D01*
X130215714Y-87424642D01*
X130263333Y-87519880D01*
X130358571Y-87567500D01*
X130882380Y-87567500D01*
X130358571Y-87567500D02*
X130263333Y-87615119D01*
X130215714Y-87710357D01*
X130215714Y-87853214D01*
X130263333Y-87948452D01*
X130358571Y-87996071D01*
X130882380Y-87996071D01*
X130882380Y-88615119D02*
X130834761Y-88519880D01*
X130787142Y-88472261D01*
X130691904Y-88424642D01*
X130406190Y-88424642D01*
X130310952Y-88472261D01*
X130263333Y-88519880D01*
X130215714Y-88615119D01*
X130215714Y-88757976D01*
X130263333Y-88853214D01*
X130310952Y-88900833D01*
X130406190Y-88948452D01*
X130691904Y-88948452D01*
X130787142Y-88900833D01*
X130834761Y-88853214D01*
X130882380Y-88757976D01*
X130882380Y-88615119D01*
X130215714Y-89281785D02*
X130882380Y-89519880D01*
X130215714Y-89757976D01*
X130834761Y-90519880D02*
X130882380Y-90424642D01*
X130882380Y-90234166D01*
X130834761Y-90138928D01*
X130739523Y-90091309D01*
X130358571Y-90091309D01*
X130263333Y-90138928D01*
X130215714Y-90234166D01*
X130215714Y-90424642D01*
X130263333Y-90519880D01*
X130358571Y-90567500D01*
X130453809Y-90567500D01*
X130549047Y-90091309D01*
X130882380Y-91424642D02*
X129882380Y-91424642D01*
X130834761Y-91424642D02*
X130882380Y-91329404D01*
X130882380Y-91138928D01*
X130834761Y-91043690D01*
X130787142Y-90996071D01*
X130691904Y-90948452D01*
X130406190Y-90948452D01*
X130310952Y-90996071D01*
X130263333Y-91043690D01*
X130215714Y-91138928D01*
X130215714Y-91329404D01*
X130263333Y-91424642D01*
X130834761Y-91948452D02*
X130882380Y-91948452D01*
X130977619Y-91900833D01*
X131025238Y-91853214D01*
X129882380Y-93424642D02*
X130596666Y-93424642D01*
X130739523Y-93377023D01*
X130834761Y-93281785D01*
X130882380Y-93138928D01*
X130882380Y-93043690D01*
X130882380Y-93900833D02*
X129882380Y-93900833D01*
X129882380Y-94281785D01*
X129930000Y-94377023D01*
X129977619Y-94424642D01*
X130072857Y-94472261D01*
X130215714Y-94472261D01*
X130310952Y-94424642D01*
X130358571Y-94377023D01*
X130406190Y-94281785D01*
X130406190Y-93900833D01*
X130882380Y-95424642D02*
X130882380Y-94853214D01*
X130882380Y-95138928D02*
X129882380Y-95138928D01*
X130025238Y-95043690D01*
X130120476Y-94948452D01*
X130168095Y-94853214D01*
X130358571Y-95853214D02*
X130358571Y-96615119D01*
X130644285Y-96615119D02*
X130644285Y-95853214D01*
X129882380Y-97281785D02*
X129882380Y-97472261D01*
X129930000Y-97567500D01*
X130025238Y-97662738D01*
X130215714Y-97710357D01*
X130549047Y-97710357D01*
X130739523Y-97662738D01*
X130834761Y-97567500D01*
X130882380Y-97472261D01*
X130882380Y-97281785D01*
X130834761Y-97186547D01*
X130739523Y-97091309D01*
X130549047Y-97043690D01*
X130215714Y-97043690D01*
X130025238Y-97091309D01*
X129930000Y-97186547D01*
X129882380Y-97281785D01*
X130215714Y-98138928D02*
X131215714Y-98138928D01*
X130263333Y-98138928D02*
X130215714Y-98234166D01*
X130215714Y-98424642D01*
X130263333Y-98519880D01*
X130310952Y-98567500D01*
X130406190Y-98615119D01*
X130691904Y-98615119D01*
X130787142Y-98567500D01*
X130834761Y-98519880D01*
X130882380Y-98424642D01*
X130882380Y-98234166D01*
X130834761Y-98138928D01*
X130834761Y-99424642D02*
X130882380Y-99329404D01*
X130882380Y-99138928D01*
X130834761Y-99043690D01*
X130739523Y-98996071D01*
X130358571Y-98996071D01*
X130263333Y-99043690D01*
X130215714Y-99138928D01*
X130215714Y-99329404D01*
X130263333Y-99424642D01*
X130358571Y-99472261D01*
X130453809Y-99472261D01*
X130549047Y-98996071D01*
X130215714Y-99900833D02*
X130882380Y-99900833D01*
X130310952Y-99900833D02*
X130263333Y-99948452D01*
X130215714Y-100043690D01*
X130215714Y-100186547D01*
X130263333Y-100281785D01*
X130358571Y-100329404D01*
X130882380Y-100329404D01*
X130834761Y-101186547D02*
X130882380Y-101091309D01*
X130882380Y-100900833D01*
X130834761Y-100805595D01*
X130739523Y-100757976D01*
X130358571Y-100757976D01*
X130263333Y-100805595D01*
X130215714Y-100900833D01*
X130215714Y-101091309D01*
X130263333Y-101186547D01*
X130358571Y-101234166D01*
X130453809Y-101234166D01*
X130549047Y-100757976D01*
X130882380Y-102091309D02*
X129882380Y-102091309D01*
X130834761Y-102091309D02*
X130882380Y-101996071D01*
X130882380Y-101805595D01*
X130834761Y-101710357D01*
X130787142Y-101662738D01*
X130691904Y-101615119D01*
X130406190Y-101615119D01*
X130310952Y-101662738D01*
X130263333Y-101710357D01*
X130215714Y-101805595D01*
X130215714Y-101996071D01*
X130263333Y-102091309D01*
X130834761Y-102615119D02*
X130882380Y-102615119D01*
X130977619Y-102567500D01*
X131025238Y-102519880D01*
X129882380Y-104091309D02*
X130596666Y-104091309D01*
X130739523Y-104043690D01*
X130834761Y-103948452D01*
X130882380Y-103805595D01*
X130882380Y-103710357D01*
X130882380Y-104567500D02*
X129882380Y-104567500D01*
X129882380Y-104948452D01*
X129930000Y-105043690D01*
X129977619Y-105091309D01*
X130072857Y-105138928D01*
X130215714Y-105138928D01*
X130310952Y-105091309D01*
X130358571Y-105043690D01*
X130406190Y-104948452D01*
X130406190Y-104567500D01*
X129882380Y-105996071D02*
X129882380Y-105805595D01*
X129930000Y-105710357D01*
X129977619Y-105662738D01*
X130120476Y-105567500D01*
X130310952Y-105519880D01*
X130691904Y-105519880D01*
X130787142Y-105567500D01*
X130834761Y-105615119D01*
X130882380Y-105710357D01*
X130882380Y-105900833D01*
X130834761Y-105996071D01*
X130787142Y-106043690D01*
X130691904Y-106091309D01*
X130453809Y-106091309D01*
X130358571Y-106043690D01*
X130310952Y-105996071D01*
X130263333Y-105900833D01*
X130263333Y-105710357D01*
X130310952Y-105615119D01*
X130358571Y-105567500D01*
X130453809Y-105519880D01*
X130358571Y-106519880D02*
X130358571Y-107281785D01*
X130644285Y-107281785D02*
X130644285Y-106519880D01*
X130787142Y-108329404D02*
X130834761Y-108281785D01*
X130882380Y-108138928D01*
X130882380Y-108043690D01*
X130834761Y-107900833D01*
X130739523Y-107805595D01*
X130644285Y-107757976D01*
X130453809Y-107710357D01*
X130310952Y-107710357D01*
X130120476Y-107757976D01*
X130025238Y-107805595D01*
X129930000Y-107900833D01*
X129882380Y-108043690D01*
X129882380Y-108138928D01*
X129930000Y-108281785D01*
X129977619Y-108329404D01*
X130882380Y-108900833D02*
X130834761Y-108805595D01*
X130739523Y-108757976D01*
X129882380Y-108757976D01*
X130882380Y-109424642D02*
X130834761Y-109329404D01*
X130787142Y-109281785D01*
X130691904Y-109234166D01*
X130406190Y-109234166D01*
X130310952Y-109281785D01*
X130263333Y-109329404D01*
X130215714Y-109424642D01*
X130215714Y-109567500D01*
X130263333Y-109662738D01*
X130310952Y-109710357D01*
X130406190Y-109757976D01*
X130691904Y-109757976D01*
X130787142Y-109710357D01*
X130834761Y-109662738D01*
X130882380Y-109567500D01*
X130882380Y-109424642D01*
X130834761Y-110138928D02*
X130882380Y-110234166D01*
X130882380Y-110424642D01*
X130834761Y-110519880D01*
X130739523Y-110567500D01*
X130691904Y-110567500D01*
X130596666Y-110519880D01*
X130549047Y-110424642D01*
X130549047Y-110281785D01*
X130501428Y-110186547D01*
X130406190Y-110138928D01*
X130358571Y-110138928D01*
X130263333Y-110186547D01*
X130215714Y-110281785D01*
X130215714Y-110424642D01*
X130263333Y-110519880D01*
X130834761Y-111377023D02*
X130882380Y-111281785D01*
X130882380Y-111091309D01*
X130834761Y-110996071D01*
X130739523Y-110948452D01*
X130358571Y-110948452D01*
X130263333Y-110996071D01*
X130215714Y-111091309D01*
X130215714Y-111281785D01*
X130263333Y-111377023D01*
X130358571Y-111424642D01*
X130453809Y-111424642D01*
X130549047Y-110948452D01*
X130882380Y-112281785D02*
X129882380Y-112281785D01*
X130834761Y-112281785D02*
X130882380Y-112186547D01*
X130882380Y-111996071D01*
X130834761Y-111900833D01*
X130787142Y-111853214D01*
X130691904Y-111805595D01*
X130406190Y-111805595D01*
X130310952Y-111853214D01*
X130263333Y-111900833D01*
X130215714Y-111996071D01*
X130215714Y-112186547D01*
X130263333Y-112281785D01*
X132532380Y-77805595D02*
X131532380Y-77805595D01*
X131627619Y-78234166D02*
X131580000Y-78281785D01*
X131532380Y-78377023D01*
X131532380Y-78615119D01*
X131580000Y-78710357D01*
X131627619Y-78757976D01*
X131722857Y-78805595D01*
X131818095Y-78805595D01*
X131960952Y-78757976D01*
X132532380Y-78186547D01*
X132532380Y-78805595D01*
X132484761Y-79186547D02*
X132532380Y-79329404D01*
X132532380Y-79567500D01*
X132484761Y-79662738D01*
X132437142Y-79710357D01*
X132341904Y-79757976D01*
X132246666Y-79757976D01*
X132151428Y-79710357D01*
X132103809Y-79662738D01*
X132056190Y-79567500D01*
X132008571Y-79377023D01*
X131960952Y-79281785D01*
X131913333Y-79234166D01*
X131818095Y-79186547D01*
X131722857Y-79186547D01*
X131627619Y-79234166D01*
X131580000Y-79281785D01*
X131532380Y-79377023D01*
X131532380Y-79615119D01*
X131580000Y-79757976D01*
X132437142Y-80948452D02*
X132484761Y-80996071D01*
X132532380Y-80948452D01*
X132484761Y-80900833D01*
X132437142Y-80948452D01*
X132532380Y-80948452D01*
X131913333Y-80948452D02*
X131960952Y-80996071D01*
X132008571Y-80948452D01*
X131960952Y-80900833D01*
X131913333Y-80948452D01*
X132008571Y-80948452D01*
X132532380Y-82757976D02*
X132056190Y-82424642D01*
X132532380Y-82186547D02*
X131532380Y-82186547D01*
X131532380Y-82567500D01*
X131580000Y-82662738D01*
X131627619Y-82710357D01*
X131722857Y-82757976D01*
X131865714Y-82757976D01*
X131960952Y-82710357D01*
X132008571Y-82662738D01*
X132056190Y-82567500D01*
X132056190Y-82186547D01*
X131532380Y-83662738D02*
X131532380Y-83186547D01*
X132008571Y-83138928D01*
X131960952Y-83186547D01*
X131913333Y-83281785D01*
X131913333Y-83519880D01*
X131960952Y-83615119D01*
X132008571Y-83662738D01*
X132103809Y-83710357D01*
X132341904Y-83710357D01*
X132437142Y-83662738D01*
X132484761Y-83615119D01*
X132532380Y-83519880D01*
X132532380Y-83281785D01*
X132484761Y-83186547D01*
X132437142Y-83138928D01*
X132008571Y-84138928D02*
X132008571Y-84900833D01*
X132294285Y-84900833D02*
X132294285Y-84138928D01*
X132532380Y-85948452D02*
X132056190Y-85615119D01*
X132532380Y-85377023D02*
X131532380Y-85377023D01*
X131532380Y-85757976D01*
X131580000Y-85853214D01*
X131627619Y-85900833D01*
X131722857Y-85948452D01*
X131865714Y-85948452D01*
X131960952Y-85900833D01*
X132008571Y-85853214D01*
X132056190Y-85757976D01*
X132056190Y-85377023D01*
X132484761Y-86757976D02*
X132532380Y-86662738D01*
X132532380Y-86472261D01*
X132484761Y-86377023D01*
X132389523Y-86329404D01*
X132008571Y-86329404D01*
X131913333Y-86377023D01*
X131865714Y-86472261D01*
X131865714Y-86662738D01*
X131913333Y-86757976D01*
X132008571Y-86805595D01*
X132103809Y-86805595D01*
X132199047Y-86329404D01*
X132532380Y-87234166D02*
X131865714Y-87234166D01*
X131960952Y-87234166D02*
X131913333Y-87281785D01*
X131865714Y-87377023D01*
X131865714Y-87519880D01*
X131913333Y-87615119D01*
X132008571Y-87662738D01*
X132532380Y-87662738D01*
X132008571Y-87662738D02*
X131913333Y-87710357D01*
X131865714Y-87805595D01*
X131865714Y-87948452D01*
X131913333Y-88043690D01*
X132008571Y-88091309D01*
X132532380Y-88091309D01*
X132532380Y-88710357D02*
X132484761Y-88615119D01*
X132437142Y-88567500D01*
X132341904Y-88519880D01*
X132056190Y-88519880D01*
X131960952Y-88567500D01*
X131913333Y-88615119D01*
X131865714Y-88710357D01*
X131865714Y-88853214D01*
X131913333Y-88948452D01*
X131960952Y-88996071D01*
X132056190Y-89043690D01*
X132341904Y-89043690D01*
X132437142Y-88996071D01*
X132484761Y-88948452D01*
X132532380Y-88853214D01*
X132532380Y-88710357D01*
X131865714Y-89377023D02*
X132532380Y-89615119D01*
X131865714Y-89853214D01*
X132484761Y-90615119D02*
X132532380Y-90519880D01*
X132532380Y-90329404D01*
X132484761Y-90234166D01*
X132389523Y-90186547D01*
X132008571Y-90186547D01*
X131913333Y-90234166D01*
X131865714Y-90329404D01*
X131865714Y-90519880D01*
X131913333Y-90615119D01*
X132008571Y-90662738D01*
X132103809Y-90662738D01*
X132199047Y-90186547D01*
X132532380Y-91519880D02*
X131532380Y-91519880D01*
X132484761Y-91519880D02*
X132532380Y-91424642D01*
X132532380Y-91234166D01*
X132484761Y-91138928D01*
X132437142Y-91091309D01*
X132341904Y-91043690D01*
X132056190Y-91043690D01*
X131960952Y-91091309D01*
X131913333Y-91138928D01*
X131865714Y-91234166D01*
X131865714Y-91424642D01*
X131913333Y-91519880D01*
X132484761Y-92043690D02*
X132532380Y-92043690D01*
X132627619Y-91996071D01*
X132675238Y-91948452D01*
X131532380Y-93519880D02*
X132246666Y-93519880D01*
X132389523Y-93472261D01*
X132484761Y-93377023D01*
X132532380Y-93234166D01*
X132532380Y-93138928D01*
X132532380Y-93996071D02*
X131532380Y-93996071D01*
X131532380Y-94377023D01*
X131580000Y-94472261D01*
X131627619Y-94519880D01*
X131722857Y-94567500D01*
X131865714Y-94567500D01*
X131960952Y-94519880D01*
X132008571Y-94472261D01*
X132056190Y-94377023D01*
X132056190Y-93996071D01*
X132532380Y-95519880D02*
X132532380Y-94948452D01*
X132532380Y-95234166D02*
X131532380Y-95234166D01*
X131675238Y-95138928D01*
X131770476Y-95043690D01*
X131818095Y-94948452D01*
X132008571Y-95948452D02*
X132008571Y-96710357D01*
X132294285Y-96710357D02*
X132294285Y-95948452D01*
X132437142Y-97757976D02*
X132484761Y-97710357D01*
X132532380Y-97567500D01*
X132532380Y-97472261D01*
X132484761Y-97329404D01*
X132389523Y-97234166D01*
X132294285Y-97186547D01*
X132103809Y-97138928D01*
X131960952Y-97138928D01*
X131770476Y-97186547D01*
X131675238Y-97234166D01*
X131580000Y-97329404D01*
X131532380Y-97472261D01*
X131532380Y-97567500D01*
X131580000Y-97710357D01*
X131627619Y-97757976D01*
X132532380Y-98329404D02*
X132484761Y-98234166D01*
X132389523Y-98186547D01*
X131532380Y-98186547D01*
X132532380Y-98853214D02*
X132484761Y-98757976D01*
X132437142Y-98710357D01*
X132341904Y-98662738D01*
X132056190Y-98662738D01*
X131960952Y-98710357D01*
X131913333Y-98757976D01*
X131865714Y-98853214D01*
X131865714Y-98996071D01*
X131913333Y-99091309D01*
X131960952Y-99138928D01*
X132056190Y-99186547D01*
X132341904Y-99186547D01*
X132437142Y-99138928D01*
X132484761Y-99091309D01*
X132532380Y-98996071D01*
X132532380Y-98853214D01*
X132484761Y-99567500D02*
X132532380Y-99662738D01*
X132532380Y-99853214D01*
X132484761Y-99948452D01*
X132389523Y-99996071D01*
X132341904Y-99996071D01*
X132246666Y-99948452D01*
X132199047Y-99853214D01*
X132199047Y-99710357D01*
X132151428Y-99615119D01*
X132056190Y-99567500D01*
X132008571Y-99567500D01*
X131913333Y-99615119D01*
X131865714Y-99710357D01*
X131865714Y-99853214D01*
X131913333Y-99948452D01*
X132484761Y-100805595D02*
X132532380Y-100710357D01*
X132532380Y-100519880D01*
X132484761Y-100424642D01*
X132389523Y-100377023D01*
X132008571Y-100377023D01*
X131913333Y-100424642D01*
X131865714Y-100519880D01*
X131865714Y-100710357D01*
X131913333Y-100805595D01*
X132008571Y-100853214D01*
X132103809Y-100853214D01*
X132199047Y-100377023D01*
X132532380Y-101710357D02*
X131532380Y-101710357D01*
X132484761Y-101710357D02*
X132532380Y-101615119D01*
X132532380Y-101424642D01*
X132484761Y-101329404D01*
X132437142Y-101281785D01*
X132341904Y-101234166D01*
X132056190Y-101234166D01*
X131960952Y-101281785D01*
X131913333Y-101329404D01*
X131865714Y-101424642D01*
X131865714Y-101615119D01*
X131913333Y-101710357D01*
X132484761Y-102234166D02*
X132532380Y-102234166D01*
X132627619Y-102186547D01*
X132675238Y-102138928D01*
X131532380Y-103710357D02*
X132246666Y-103710357D01*
X132389523Y-103662738D01*
X132484761Y-103567500D01*
X132532380Y-103424642D01*
X132532380Y-103329404D01*
X132532380Y-104186547D02*
X131532380Y-104186547D01*
X131532380Y-104567500D01*
X131580000Y-104662738D01*
X131627619Y-104710357D01*
X131722857Y-104757976D01*
X131865714Y-104757976D01*
X131960952Y-104710357D01*
X132008571Y-104662738D01*
X132056190Y-104567500D01*
X132056190Y-104186547D01*
X131532380Y-105615119D02*
X131532380Y-105424642D01*
X131580000Y-105329404D01*
X131627619Y-105281785D01*
X131770476Y-105186547D01*
X131960952Y-105138928D01*
X132341904Y-105138928D01*
X132437142Y-105186547D01*
X132484761Y-105234166D01*
X132532380Y-105329404D01*
X132532380Y-105519880D01*
X132484761Y-105615119D01*
X132437142Y-105662738D01*
X132341904Y-105710357D01*
X132103809Y-105710357D01*
X132008571Y-105662738D01*
X131960952Y-105615119D01*
X131913333Y-105519880D01*
X131913333Y-105329404D01*
X131960952Y-105234166D01*
X132008571Y-105186547D01*
X132103809Y-105138928D01*
X132008571Y-106138928D02*
X132008571Y-106900833D01*
X132294285Y-106900833D02*
X132294285Y-106138928D01*
X131532380Y-107567500D02*
X131532380Y-107757976D01*
X131580000Y-107853214D01*
X131675238Y-107948452D01*
X131865714Y-107996071D01*
X132199047Y-107996071D01*
X132389523Y-107948452D01*
X132484761Y-107853214D01*
X132532380Y-107757976D01*
X132532380Y-107567500D01*
X132484761Y-107472261D01*
X132389523Y-107377023D01*
X132199047Y-107329404D01*
X131865714Y-107329404D01*
X131675238Y-107377023D01*
X131580000Y-107472261D01*
X131532380Y-107567500D01*
X131865714Y-108424642D02*
X132865714Y-108424642D01*
X131913333Y-108424642D02*
X131865714Y-108519880D01*
X131865714Y-108710357D01*
X131913333Y-108805595D01*
X131960952Y-108853214D01*
X132056190Y-108900833D01*
X132341904Y-108900833D01*
X132437142Y-108853214D01*
X132484761Y-108805595D01*
X132532380Y-108710357D01*
X132532380Y-108519880D01*
X132484761Y-108424642D01*
X132484761Y-109710357D02*
X132532380Y-109615119D01*
X132532380Y-109424642D01*
X132484761Y-109329404D01*
X132389523Y-109281785D01*
X132008571Y-109281785D01*
X131913333Y-109329404D01*
X131865714Y-109424642D01*
X131865714Y-109615119D01*
X131913333Y-109710357D01*
X132008571Y-109757976D01*
X132103809Y-109757976D01*
X132199047Y-109281785D01*
X131865714Y-110186547D02*
X132532380Y-110186547D01*
X131960952Y-110186547D02*
X131913333Y-110234166D01*
X131865714Y-110329404D01*
X131865714Y-110472261D01*
X131913333Y-110567500D01*
X132008571Y-110615119D01*
X132532380Y-110615119D01*
X132484761Y-111472261D02*
X132532380Y-111377023D01*
X132532380Y-111186547D01*
X132484761Y-111091309D01*
X132389523Y-111043690D01*
X132008571Y-111043690D01*
X131913333Y-111091309D01*
X131865714Y-111186547D01*
X131865714Y-111377023D01*
X131913333Y-111472261D01*
X132008571Y-111519880D01*
X132103809Y-111519880D01*
X132199047Y-111043690D01*
X132532380Y-112377023D02*
X131532380Y-112377023D01*
X132484761Y-112377023D02*
X132532380Y-112281785D01*
X132532380Y-112091309D01*
X132484761Y-111996071D01*
X132437142Y-111948452D01*
X132341904Y-111900833D01*
X132056190Y-111900833D01*
X131960952Y-111948452D01*
X131913333Y-111996071D01*
X131865714Y-112091309D01*
X131865714Y-112281785D01*
X131913333Y-112377023D01*
X133658571Y-78138928D02*
X133706190Y-78281785D01*
X133753809Y-78329404D01*
X133849047Y-78377023D01*
X133991904Y-78377023D01*
X134087142Y-78329404D01*
X134134761Y-78281785D01*
X134182380Y-78186547D01*
X134182380Y-77805595D01*
X133182380Y-77805595D01*
X133182380Y-78138928D01*
X133230000Y-78234166D01*
X133277619Y-78281785D01*
X133372857Y-78329404D01*
X133468095Y-78329404D01*
X133563333Y-78281785D01*
X133610952Y-78234166D01*
X133658571Y-78138928D01*
X133658571Y-77805595D01*
X133182380Y-78996071D02*
X133182380Y-79186547D01*
X133230000Y-79281785D01*
X133325238Y-79377023D01*
X133515714Y-79424642D01*
X133849047Y-79424642D01*
X134039523Y-79377023D01*
X134134761Y-79281785D01*
X134182380Y-79186547D01*
X134182380Y-78996071D01*
X134134761Y-78900833D01*
X134039523Y-78805595D01*
X133849047Y-78757976D01*
X133515714Y-78757976D01*
X133325238Y-78805595D01*
X133230000Y-78900833D01*
X133182380Y-78996071D01*
X133182380Y-79710357D02*
X133182380Y-80281785D01*
X134182380Y-79996071D02*
X133182380Y-79996071D01*
X134182380Y-80615119D02*
X133182380Y-80615119D01*
X133658571Y-80615119D02*
X133658571Y-81186547D01*
X134182380Y-81186547D02*
X133182380Y-81186547D01*
X134087142Y-82424642D02*
X134134761Y-82472261D01*
X134182380Y-82424642D01*
X134134761Y-82377023D01*
X134087142Y-82424642D01*
X134182380Y-82424642D01*
X133563333Y-82424642D02*
X133610952Y-82472261D01*
X133658571Y-82424642D01*
X133610952Y-82377023D01*
X133563333Y-82424642D01*
X133658571Y-82424642D01*
X134182380Y-84234166D02*
X133706190Y-83900833D01*
X134182380Y-83662738D02*
X133182380Y-83662738D01*
X133182380Y-84043690D01*
X133230000Y-84138928D01*
X133277619Y-84186547D01*
X133372857Y-84234166D01*
X133515714Y-84234166D01*
X133610952Y-84186547D01*
X133658571Y-84138928D01*
X133706190Y-84043690D01*
X133706190Y-83662738D01*
X133182380Y-85138928D02*
X133182380Y-84662738D01*
X133658571Y-84615119D01*
X133610952Y-84662738D01*
X133563333Y-84757976D01*
X133563333Y-84996071D01*
X133610952Y-85091309D01*
X133658571Y-85138928D01*
X133753809Y-85186547D01*
X133991904Y-85186547D01*
X134087142Y-85138928D01*
X134134761Y-85091309D01*
X134182380Y-84996071D01*
X134182380Y-84757976D01*
X134134761Y-84662738D01*
X134087142Y-84615119D01*
X133658571Y-85615119D02*
X133658571Y-86377023D01*
X133944285Y-86377023D02*
X133944285Y-85615119D01*
X134182380Y-86853214D02*
X133182380Y-86853214D01*
X133515714Y-87329404D02*
X134182380Y-87329404D01*
X133610952Y-87329404D02*
X133563333Y-87377023D01*
X133515714Y-87472261D01*
X133515714Y-87615119D01*
X133563333Y-87710357D01*
X133658571Y-87757976D01*
X134182380Y-87757976D01*
X134134761Y-88186547D02*
X134182380Y-88281785D01*
X134182380Y-88472261D01*
X134134761Y-88567500D01*
X134039523Y-88615119D01*
X133991904Y-88615119D01*
X133896666Y-88567500D01*
X133849047Y-88472261D01*
X133849047Y-88329404D01*
X133801428Y-88234166D01*
X133706190Y-88186547D01*
X133658571Y-88186547D01*
X133563333Y-88234166D01*
X133515714Y-88329404D01*
X133515714Y-88472261D01*
X133563333Y-88567500D01*
X133515714Y-88900833D02*
X133515714Y-89281785D01*
X133182380Y-89043690D02*
X134039523Y-89043690D01*
X134134761Y-89091309D01*
X134182380Y-89186547D01*
X134182380Y-89281785D01*
X134182380Y-90043690D02*
X133658571Y-90043690D01*
X133563333Y-89996071D01*
X133515714Y-89900833D01*
X133515714Y-89710357D01*
X133563333Y-89615119D01*
X134134761Y-90043690D02*
X134182380Y-89948452D01*
X134182380Y-89710357D01*
X134134761Y-89615119D01*
X134039523Y-89567500D01*
X133944285Y-89567500D01*
X133849047Y-89615119D01*
X133801428Y-89710357D01*
X133801428Y-89948452D01*
X133753809Y-90043690D01*
X134182380Y-90662738D02*
X134134761Y-90567500D01*
X134039523Y-90519880D01*
X133182380Y-90519880D01*
X134182380Y-91186547D02*
X134134761Y-91091309D01*
X134039523Y-91043690D01*
X133182380Y-91043690D01*
X134134761Y-91615119D02*
X134182380Y-91615119D01*
X134277619Y-91567499D01*
X134325238Y-91519880D01*
X133182380Y-93091309D02*
X133896666Y-93091309D01*
X134039523Y-93043690D01*
X134134761Y-92948452D01*
X134182380Y-92805595D01*
X134182380Y-92710357D01*
X134182380Y-93567499D02*
X133182380Y-93567499D01*
X133182380Y-93948452D01*
X133230000Y-94043690D01*
X133277619Y-94091309D01*
X133372857Y-94138928D01*
X133515714Y-94138928D01*
X133610952Y-94091309D01*
X133658571Y-94043690D01*
X133706190Y-93948452D01*
X133706190Y-93567499D01*
X134182380Y-95091309D02*
X134182380Y-94519880D01*
X134182380Y-94805595D02*
X133182380Y-94805595D01*
X133325238Y-94710357D01*
X133420476Y-94615119D01*
X133468095Y-94519880D01*
X133658571Y-95519880D02*
X133658571Y-96281785D01*
X133944285Y-96281785D02*
X133944285Y-95519880D01*
X133182380Y-96948452D02*
X133182380Y-97138928D01*
X133230000Y-97234166D01*
X133325238Y-97329404D01*
X133515714Y-97377023D01*
X133849047Y-97377023D01*
X134039523Y-97329404D01*
X134134761Y-97234166D01*
X134182380Y-97138928D01*
X134182380Y-96948452D01*
X134134761Y-96853214D01*
X134039523Y-96757976D01*
X133849047Y-96710357D01*
X133515714Y-96710357D01*
X133325238Y-96757976D01*
X133230000Y-96853214D01*
X133182380Y-96948452D01*
X133515714Y-97805595D02*
X134515714Y-97805595D01*
X133563333Y-97805595D02*
X133515714Y-97900833D01*
X133515714Y-98091309D01*
X133563333Y-98186547D01*
X133610952Y-98234166D01*
X133706190Y-98281785D01*
X133991904Y-98281785D01*
X134087142Y-98234166D01*
X134134761Y-98186547D01*
X134182380Y-98091309D01*
X134182380Y-97900833D01*
X134134761Y-97805595D01*
X134134761Y-99091309D02*
X134182380Y-98996071D01*
X134182380Y-98805595D01*
X134134761Y-98710357D01*
X134039523Y-98662738D01*
X133658571Y-98662738D01*
X133563333Y-98710357D01*
X133515714Y-98805595D01*
X133515714Y-98996071D01*
X133563333Y-99091309D01*
X133658571Y-99138928D01*
X133753809Y-99138928D01*
X133849047Y-98662738D01*
X133515714Y-99567499D02*
X134182380Y-99567499D01*
X133610952Y-99567499D02*
X133563333Y-99615119D01*
X133515714Y-99710357D01*
X133515714Y-99853214D01*
X133563333Y-99948452D01*
X133658571Y-99996071D01*
X134182380Y-99996071D01*
X134134761Y-100853214D02*
X134182380Y-100757976D01*
X134182380Y-100567499D01*
X134134761Y-100472261D01*
X134039523Y-100424642D01*
X133658571Y-100424642D01*
X133563333Y-100472261D01*
X133515714Y-100567499D01*
X133515714Y-100757976D01*
X133563333Y-100853214D01*
X133658571Y-100900833D01*
X133753809Y-100900833D01*
X133849047Y-100424642D01*
X134182380Y-101757976D02*
X133182380Y-101757976D01*
X134134761Y-101757976D02*
X134182380Y-101662738D01*
X134182380Y-101472261D01*
X134134761Y-101377023D01*
X134087142Y-101329404D01*
X133991904Y-101281785D01*
X133706190Y-101281785D01*
X133610952Y-101329404D01*
X133563333Y-101377023D01*
X133515714Y-101472261D01*
X133515714Y-101662738D01*
X133563333Y-101757976D01*
X134134761Y-102281785D02*
X134182380Y-102281785D01*
X134277619Y-102234166D01*
X134325238Y-102186547D01*
X133182380Y-103757976D02*
X133896666Y-103757976D01*
X134039523Y-103710357D01*
X134134761Y-103615119D01*
X134182380Y-103472261D01*
X134182380Y-103377023D01*
X134182380Y-104234166D02*
X133182380Y-104234166D01*
X133182380Y-104615119D01*
X133230000Y-104710357D01*
X133277619Y-104757976D01*
X133372857Y-104805595D01*
X133515714Y-104805595D01*
X133610952Y-104757976D01*
X133658571Y-104710357D01*
X133706190Y-104615119D01*
X133706190Y-104234166D01*
X133182380Y-105662738D02*
X133182380Y-105472261D01*
X133230000Y-105377023D01*
X133277619Y-105329404D01*
X133420476Y-105234166D01*
X133610952Y-105186547D01*
X133991904Y-105186547D01*
X134087142Y-105234166D01*
X134134761Y-105281785D01*
X134182380Y-105377023D01*
X134182380Y-105567499D01*
X134134761Y-105662738D01*
X134087142Y-105710357D01*
X133991904Y-105757976D01*
X133753809Y-105757976D01*
X133658571Y-105710357D01*
X133610952Y-105662738D01*
X133563333Y-105567499D01*
X133563333Y-105377023D01*
X133610952Y-105281785D01*
X133658571Y-105234166D01*
X133753809Y-105186547D01*
X133658571Y-106186547D02*
X133658571Y-106948452D01*
X133944285Y-106948452D02*
X133944285Y-106186547D01*
X134087142Y-107996071D02*
X134134761Y-107948452D01*
X134182380Y-107805595D01*
X134182380Y-107710357D01*
X134134761Y-107567499D01*
X134039523Y-107472261D01*
X133944285Y-107424642D01*
X133753809Y-107377023D01*
X133610952Y-107377023D01*
X133420476Y-107424642D01*
X133325238Y-107472261D01*
X133230000Y-107567499D01*
X133182380Y-107710357D01*
X133182380Y-107805595D01*
X133230000Y-107948452D01*
X133277619Y-107996071D01*
X134182380Y-108567499D02*
X134134761Y-108472261D01*
X134039523Y-108424642D01*
X133182380Y-108424642D01*
X134182380Y-109091309D02*
X134134761Y-108996071D01*
X134087142Y-108948452D01*
X133991904Y-108900833D01*
X133706190Y-108900833D01*
X133610952Y-108948452D01*
X133563333Y-108996071D01*
X133515714Y-109091309D01*
X133515714Y-109234166D01*
X133563333Y-109329404D01*
X133610952Y-109377023D01*
X133706190Y-109424642D01*
X133991904Y-109424642D01*
X134087142Y-109377023D01*
X134134761Y-109329404D01*
X134182380Y-109234166D01*
X134182380Y-109091309D01*
X134134761Y-109805595D02*
X134182380Y-109900833D01*
X134182380Y-110091309D01*
X134134761Y-110186547D01*
X134039523Y-110234166D01*
X133991904Y-110234166D01*
X133896666Y-110186547D01*
X133849047Y-110091309D01*
X133849047Y-109948452D01*
X133801428Y-109853214D01*
X133706190Y-109805595D01*
X133658571Y-109805595D01*
X133563333Y-109853214D01*
X133515714Y-109948452D01*
X133515714Y-110091309D01*
X133563333Y-110186547D01*
X134134761Y-111043690D02*
X134182380Y-110948452D01*
X134182380Y-110757976D01*
X134134761Y-110662738D01*
X134039523Y-110615119D01*
X133658571Y-110615119D01*
X133563333Y-110662738D01*
X133515714Y-110757976D01*
X133515714Y-110948452D01*
X133563333Y-111043690D01*
X133658571Y-111091309D01*
X133753809Y-111091309D01*
X133849047Y-110615119D01*
X134182380Y-111948452D02*
X133182380Y-111948452D01*
X134134761Y-111948452D02*
X134182380Y-111853214D01*
X134182380Y-111662738D01*
X134134761Y-111567499D01*
X134087142Y-111519880D01*
X133991904Y-111472261D01*
X133706190Y-111472261D01*
X133610952Y-111519880D01*
X133563333Y-111567499D01*
X133515714Y-111662738D01*
X133515714Y-111853214D01*
X133563333Y-111948452D01*
X114125000Y-39118214D02*
X114125000Y-39832500D01*
X114553571Y-38975357D02*
X113053571Y-39475357D01*
X114553571Y-39975357D01*
X114553571Y-40475357D02*
X113053571Y-40475357D01*
X113982142Y-40618214D02*
X114553571Y-41046785D01*
X113553571Y-41046785D02*
X114125000Y-40475357D01*
X114553571Y-42332500D02*
X113767857Y-42332500D01*
X113625000Y-42261071D01*
X113553571Y-42118214D01*
X113553571Y-41832500D01*
X113625000Y-41689642D01*
X114482142Y-42332500D02*
X114553571Y-42189642D01*
X114553571Y-41832500D01*
X114482142Y-41689642D01*
X114339285Y-41618214D01*
X114196428Y-41618214D01*
X114053571Y-41689642D01*
X113982142Y-41832500D01*
X113982142Y-42189642D01*
X113910714Y-42332500D01*
X114482142Y-42975357D02*
X114553571Y-43118214D01*
X114553571Y-43403928D01*
X114482142Y-43546785D01*
X114339285Y-43618214D01*
X114267857Y-43618214D01*
X114125000Y-43546785D01*
X114053571Y-43403928D01*
X114053571Y-43189642D01*
X113982142Y-43046785D01*
X113839285Y-42975357D01*
X113767857Y-42975357D01*
X113625000Y-43046785D01*
X113553571Y-43189642D01*
X113553571Y-43403928D01*
X113625000Y-43546785D01*
X114553571Y-44261071D02*
X113053571Y-44261071D01*
X114553571Y-44903928D02*
X113767857Y-44903928D01*
X113625000Y-44832500D01*
X113553571Y-44689642D01*
X113553571Y-44475357D01*
X113625000Y-44332500D01*
X113696428Y-44261071D01*
X114553571Y-45618214D02*
X113553571Y-45618214D01*
X113053571Y-45618214D02*
X113125000Y-45546785D01*
X113196428Y-45618214D01*
X113125000Y-45689642D01*
X113053571Y-45618214D01*
X113196428Y-45618214D01*
X113982142Y-46332500D02*
X113982142Y-47475357D01*
X113053571Y-48475357D02*
X113053571Y-48618214D01*
X113125000Y-48761071D01*
X113196428Y-48832500D01*
X113339285Y-48903928D01*
X113625000Y-48975357D01*
X113982142Y-48975357D01*
X114267857Y-48903928D01*
X114410714Y-48832500D01*
X114482142Y-48761071D01*
X114553571Y-48618214D01*
X114553571Y-48475357D01*
X114482142Y-48332500D01*
X114410714Y-48261071D01*
X114267857Y-48189642D01*
X113982142Y-48118214D01*
X113625000Y-48118214D01*
X113339285Y-48189642D01*
X113196428Y-48261071D01*
X113125000Y-48332500D01*
X113053571Y-48475357D01*
X113196428Y-49546785D02*
X113125000Y-49618214D01*
X113053571Y-49761071D01*
X113053571Y-50118214D01*
X113125000Y-50261071D01*
X113196428Y-50332500D01*
X113339285Y-50403928D01*
X113482142Y-50403928D01*
X113696428Y-50332500D01*
X114553571Y-49475357D01*
X114553571Y-50403928D01*
X113553571Y-52046785D02*
X114553571Y-52403928D01*
X113553571Y-52761071D01*
X113196428Y-53261071D02*
X113125000Y-53332500D01*
X113053571Y-53475357D01*
X113053571Y-53832500D01*
X113125000Y-53975357D01*
X113196428Y-54046785D01*
X113339285Y-54118214D01*
X113482142Y-54118214D01*
X113696428Y-54046785D01*
X114553571Y-53189642D01*
X114553571Y-54118214D01*
X114410714Y-54761071D02*
X114482142Y-54832500D01*
X114553571Y-54761071D01*
X114482142Y-54689642D01*
X114410714Y-54761071D01*
X114553571Y-54761071D01*
X113053571Y-55761071D02*
X113053571Y-55903928D01*
X113125000Y-56046785D01*
X113196428Y-56118214D01*
X113339285Y-56189642D01*
X113625000Y-56261071D01*
X113982142Y-56261071D01*
X114267857Y-56189642D01*
X114410714Y-56118214D01*
X114482142Y-56046785D01*
X114553571Y-55903928D01*
X114553571Y-55761071D01*
X114482142Y-55618214D01*
X114410714Y-55546785D01*
X114267857Y-55475357D01*
X113982142Y-55403928D01*
X113625000Y-55403928D01*
X113339285Y-55475357D01*
X113196428Y-55546785D01*
X113125000Y-55618214D01*
X113053571Y-55761071D01*
X114410714Y-56903928D02*
X114482142Y-56975357D01*
X114553571Y-56903928D01*
X114482142Y-56832500D01*
X114410714Y-56903928D01*
X114553571Y-56903928D01*
X113053571Y-57903928D02*
X113053571Y-58046785D01*
X113125000Y-58189642D01*
X113196428Y-58261071D01*
X113339285Y-58332500D01*
X113625000Y-58403928D01*
X113982142Y-58403928D01*
X114267857Y-58332500D01*
X114410714Y-58261071D01*
X114482142Y-58189642D01*
X114553571Y-58046785D01*
X114553571Y-57903928D01*
X114482142Y-57761071D01*
X114410714Y-57689642D01*
X114267857Y-57618214D01*
X113982142Y-57546785D01*
X113625000Y-57546785D01*
X113339285Y-57618214D01*
X113196428Y-57689642D01*
X113125000Y-57761071D01*
X113053571Y-57903928D01*
X116810714Y-40046785D02*
X116882142Y-39975357D01*
X116953571Y-39761071D01*
X116953571Y-39618214D01*
X116882142Y-39403928D01*
X116739285Y-39261071D01*
X116596428Y-39189642D01*
X116310714Y-39118214D01*
X116096428Y-39118214D01*
X115810714Y-39189642D01*
X115667857Y-39261071D01*
X115525000Y-39403928D01*
X115453571Y-39618214D01*
X115453571Y-39761071D01*
X115525000Y-39975357D01*
X115596428Y-40046785D01*
X115453571Y-40975357D02*
X115453571Y-41261071D01*
X115525000Y-41403928D01*
X115667857Y-41546785D01*
X115953571Y-41618214D01*
X116453571Y-41618214D01*
X116739285Y-41546785D01*
X116882142Y-41403928D01*
X116953571Y-41261071D01*
X116953571Y-40975357D01*
X116882142Y-40832500D01*
X116739285Y-40689642D01*
X116453571Y-40618214D01*
X115953571Y-40618214D01*
X115667857Y-40689642D01*
X115525000Y-40832500D01*
X115453571Y-40975357D01*
X116953571Y-42261071D02*
X115453571Y-42261071D01*
X115453571Y-42618214D01*
X115525000Y-42832500D01*
X115667857Y-42975357D01*
X115810714Y-43046785D01*
X116096428Y-43118214D01*
X116310714Y-43118214D01*
X116596428Y-43046785D01*
X116739285Y-42975357D01*
X116882142Y-42832500D01*
X116953571Y-42618214D01*
X116953571Y-42261071D01*
X116167857Y-43761071D02*
X116167857Y-44261071D01*
X116953571Y-44475357D02*
X116953571Y-43761071D01*
X115453571Y-43761071D01*
X115453571Y-44475357D01*
X116810714Y-45975357D02*
X116882142Y-45903928D01*
X116953571Y-45689642D01*
X116953571Y-45546785D01*
X116882142Y-45332500D01*
X116739285Y-45189642D01*
X116596428Y-45118214D01*
X116310714Y-45046785D01*
X116096428Y-45046785D01*
X115810714Y-45118214D01*
X115667857Y-45189642D01*
X115525000Y-45332500D01*
X115453571Y-45546785D01*
X115453571Y-45689642D01*
X115525000Y-45903928D01*
X115596428Y-45975357D01*
X116953571Y-47761071D02*
X115453571Y-47761071D01*
X116025000Y-47761071D02*
X115953571Y-47903928D01*
X115953571Y-48189642D01*
X116025000Y-48332500D01*
X116096428Y-48403928D01*
X116239285Y-48475357D01*
X116667857Y-48475357D01*
X116810714Y-48403928D01*
X116882142Y-48332500D01*
X116953571Y-48189642D01*
X116953571Y-47903928D01*
X116882142Y-47761071D01*
X116953571Y-49332500D02*
X116882142Y-49189642D01*
X116810714Y-49118214D01*
X116667857Y-49046785D01*
X116239285Y-49046785D01*
X116096428Y-49118214D01*
X116025000Y-49189642D01*
X115953571Y-49332500D01*
X115953571Y-49546785D01*
X116025000Y-49689642D01*
X116096428Y-49761071D01*
X116239285Y-49832500D01*
X116667857Y-49832500D01*
X116810714Y-49761071D01*
X116882142Y-49689642D01*
X116953571Y-49546785D01*
X116953571Y-49332500D01*
X116953571Y-51118214D02*
X116167857Y-51118214D01*
X116025000Y-51046785D01*
X115953571Y-50903928D01*
X115953571Y-50618214D01*
X116025000Y-50475357D01*
X116882142Y-51118214D02*
X116953571Y-50975357D01*
X116953571Y-50618214D01*
X116882142Y-50475357D01*
X116739285Y-50403928D01*
X116596428Y-50403928D01*
X116453571Y-50475357D01*
X116382142Y-50618214D01*
X116382142Y-50975357D01*
X116310714Y-51118214D01*
X116953571Y-51832500D02*
X115953571Y-51832500D01*
X116239285Y-51832500D02*
X116096428Y-51903928D01*
X116025000Y-51975357D01*
X115953571Y-52118214D01*
X115953571Y-52261071D01*
X116953571Y-53403928D02*
X115453571Y-53403928D01*
X116882142Y-53403928D02*
X116953571Y-53261071D01*
X116953571Y-52975357D01*
X116882142Y-52832500D01*
X116810714Y-52761071D01*
X116667857Y-52689642D01*
X116239285Y-52689642D01*
X116096428Y-52761071D01*
X116025000Y-52832500D01*
X115953571Y-52975357D01*
X115953571Y-53261071D01*
X116025000Y-53403928D01*
X115953571Y-55046785D02*
X115953571Y-55618214D01*
X116953571Y-55261071D02*
X115667857Y-55261071D01*
X115525000Y-55332500D01*
X115453571Y-55475357D01*
X115453571Y-55618214D01*
X116953571Y-56332500D02*
X116882142Y-56189642D01*
X116810714Y-56118214D01*
X116667857Y-56046785D01*
X116239285Y-56046785D01*
X116096428Y-56118214D01*
X116025000Y-56189642D01*
X115953571Y-56332500D01*
X115953571Y-56546785D01*
X116025000Y-56689642D01*
X116096428Y-56761071D01*
X116239285Y-56832500D01*
X116667857Y-56832500D01*
X116810714Y-56761071D01*
X116882142Y-56689642D01*
X116953571Y-56546785D01*
X116953571Y-56332500D01*
X116953571Y-57475357D02*
X115953571Y-57475357D01*
X116239285Y-57475357D02*
X116096428Y-57546785D01*
X116025000Y-57618214D01*
X115953571Y-57761071D01*
X115953571Y-57903928D01*
X116953571Y-59546785D02*
X115453571Y-59546785D01*
X116953571Y-60403928D01*
X115453571Y-60403928D01*
X115953571Y-61761071D02*
X116953571Y-61761071D01*
X115953571Y-61118214D02*
X116739285Y-61118214D01*
X116882142Y-61189642D01*
X116953571Y-61332500D01*
X116953571Y-61546785D01*
X116882142Y-61689642D01*
X116810714Y-61761071D01*
X116882142Y-63118214D02*
X116953571Y-62975357D01*
X116953571Y-62689642D01*
X116882142Y-62546785D01*
X116810714Y-62475357D01*
X116667857Y-62403928D01*
X116239285Y-62403928D01*
X116096428Y-62475357D01*
X116025000Y-62546785D01*
X115953571Y-62689642D01*
X115953571Y-62975357D01*
X116025000Y-63118214D01*
X116953571Y-63975357D02*
X116882142Y-63832500D01*
X116739285Y-63761071D01*
X115453571Y-63761071D01*
X116882142Y-65118214D02*
X116953571Y-64975357D01*
X116953571Y-64689642D01*
X116882142Y-64546785D01*
X116739285Y-64475357D01*
X116167857Y-64475357D01*
X116025000Y-64546785D01*
X115953571Y-64689642D01*
X115953571Y-64975357D01*
X116025000Y-65118214D01*
X116167857Y-65189642D01*
X116310714Y-65189642D01*
X116453571Y-64475357D01*
X116953571Y-66046785D02*
X116882142Y-65903928D01*
X116810714Y-65832500D01*
X116667857Y-65761071D01*
X116239285Y-65761071D01*
X116096428Y-65832500D01*
X116025000Y-65903928D01*
X115953571Y-66046785D01*
X115953571Y-66261071D01*
X116025000Y-66403928D01*
X116096428Y-66475357D01*
X116239285Y-66546785D01*
X116667857Y-66546785D01*
X116810714Y-66475357D01*
X116882142Y-66403928D01*
X116953571Y-66261071D01*
X116953571Y-66046785D01*
X116953571Y-69118214D02*
X116953571Y-68261071D01*
X116953571Y-68689642D02*
X115453571Y-68689642D01*
X115667857Y-68546785D01*
X115810714Y-68403928D01*
X115882142Y-68261071D01*
X115953571Y-70403928D02*
X116953571Y-70403928D01*
X115382142Y-70046785D02*
X116453571Y-69689642D01*
X116453571Y-70618214D01*
X115953571Y-71832500D02*
X116953571Y-71832500D01*
X115382142Y-71475357D02*
X116453571Y-71118214D01*
X116453571Y-72046785D01*
X119925000Y-39618214D02*
X119853571Y-39546785D01*
X119639285Y-39403928D01*
X119496428Y-39332500D01*
X119282142Y-39261071D01*
X118925000Y-39189642D01*
X118639285Y-39189642D01*
X118282142Y-39261071D01*
X118067857Y-39332500D01*
X117925000Y-39403928D01*
X117710714Y-39546785D01*
X117639285Y-39618214D01*
X119210714Y-41046785D02*
X119282142Y-40975357D01*
X119353571Y-40761071D01*
X119353571Y-40618214D01*
X119282142Y-40403928D01*
X119139285Y-40261071D01*
X118996428Y-40189642D01*
X118710714Y-40118214D01*
X118496428Y-40118214D01*
X118210714Y-40189642D01*
X118067857Y-40261071D01*
X117925000Y-40403928D01*
X117853571Y-40618214D01*
X117853571Y-40761071D01*
X117925000Y-40975357D01*
X117996428Y-41046785D01*
X119925000Y-41546785D02*
X119853571Y-41618214D01*
X119639285Y-41761071D01*
X119496428Y-41832500D01*
X119282142Y-41903928D01*
X118925000Y-41975357D01*
X118639285Y-41975357D01*
X118282142Y-41903928D01*
X118067857Y-41832500D01*
X117925000Y-41761071D01*
X117710714Y-41618214D01*
X117639285Y-41546785D01*
X119282142Y-43761071D02*
X119353571Y-43975357D01*
X119353571Y-44332500D01*
X119282142Y-44475357D01*
X119210714Y-44546785D01*
X119067857Y-44618214D01*
X118925000Y-44618214D01*
X118782142Y-44546785D01*
X118710714Y-44475357D01*
X118639285Y-44332500D01*
X118567857Y-44046785D01*
X118496428Y-43903928D01*
X118425000Y-43832500D01*
X118282142Y-43761071D01*
X118139285Y-43761071D01*
X117996428Y-43832500D01*
X117925000Y-43903928D01*
X117853571Y-44046785D01*
X117853571Y-44403928D01*
X117925000Y-44618214D01*
X119282142Y-45832500D02*
X119353571Y-45689642D01*
X119353571Y-45403928D01*
X119282142Y-45261071D01*
X119139285Y-45189642D01*
X118567857Y-45189642D01*
X118425000Y-45261071D01*
X118353571Y-45403928D01*
X118353571Y-45689642D01*
X118425000Y-45832500D01*
X118567857Y-45903928D01*
X118710714Y-45903928D01*
X118853571Y-45189642D01*
X119353571Y-46546785D02*
X118353571Y-46546785D01*
X117853571Y-46546785D02*
X117925000Y-46475357D01*
X117996428Y-46546785D01*
X117925000Y-46618214D01*
X117853571Y-46546785D01*
X117996428Y-46546785D01*
X119353571Y-47261071D02*
X118353571Y-47261071D01*
X117853571Y-47261071D02*
X117925000Y-47189642D01*
X117996428Y-47261071D01*
X117925000Y-47332500D01*
X117853571Y-47261071D01*
X117996428Y-47261071D01*
X119282142Y-48618214D02*
X119353571Y-48475357D01*
X119353571Y-48189642D01*
X119282142Y-48046785D01*
X119210714Y-47975357D01*
X119067857Y-47903928D01*
X118639285Y-47903928D01*
X118496428Y-47975357D01*
X118425000Y-48046785D01*
X118353571Y-48189642D01*
X118353571Y-48475357D01*
X118425000Y-48618214D01*
X119353571Y-49261071D02*
X117853571Y-49261071D01*
X119353571Y-49903928D02*
X118567857Y-49903928D01*
X118425000Y-49832500D01*
X118353571Y-49689642D01*
X118353571Y-49475357D01*
X118425000Y-49332500D01*
X118496428Y-49261071D01*
X119353571Y-50618214D02*
X118353571Y-50618214D01*
X117853571Y-50618214D02*
X117925000Y-50546785D01*
X117996428Y-50618214D01*
X117925000Y-50689642D01*
X117853571Y-50618214D01*
X117996428Y-50618214D01*
X119353571Y-52475357D02*
X117853571Y-52475357D01*
X118567857Y-52475357D02*
X118567857Y-53332500D01*
X119353571Y-53332500D02*
X117853571Y-53332500D01*
X119353571Y-54261071D02*
X119282142Y-54118214D01*
X119210714Y-54046785D01*
X119067857Y-53975357D01*
X118639285Y-53975357D01*
X118496428Y-54046785D01*
X118425000Y-54118214D01*
X118353571Y-54261071D01*
X118353571Y-54475357D01*
X118425000Y-54618214D01*
X118496428Y-54689642D01*
X118639285Y-54761071D01*
X119067857Y-54761071D01*
X119210714Y-54689642D01*
X119282142Y-54618214D01*
X119353571Y-54475357D01*
X119353571Y-54261071D01*
X119353571Y-55403928D02*
X118353571Y-55403928D01*
X118639285Y-55403928D02*
X118496428Y-55475357D01*
X118425000Y-55546785D01*
X118353571Y-55689642D01*
X118353571Y-55832500D01*
X119353571Y-56332500D02*
X118353571Y-56332500D01*
X117853571Y-56332500D02*
X117925000Y-56261071D01*
X117996428Y-56332500D01*
X117925000Y-56403928D01*
X117853571Y-56332500D01*
X117996428Y-56332500D01*
X119282142Y-57618214D02*
X119353571Y-57475357D01*
X119353571Y-57189642D01*
X119282142Y-57046785D01*
X119139285Y-56975357D01*
X118567857Y-56975357D01*
X118425000Y-57046785D01*
X118353571Y-57189642D01*
X118353571Y-57475357D01*
X118425000Y-57618214D01*
X118567857Y-57689642D01*
X118710714Y-57689642D01*
X118853571Y-56975357D01*
X117996428Y-59403928D02*
X117925000Y-59475357D01*
X117853571Y-59618214D01*
X117853571Y-59975357D01*
X117925000Y-60118214D01*
X117996428Y-60189642D01*
X118139285Y-60261071D01*
X118282142Y-60261071D01*
X118496428Y-60189642D01*
X119353571Y-59332500D01*
X119353571Y-60261071D01*
X117853571Y-61189642D02*
X117853571Y-61332500D01*
X117925000Y-61475357D01*
X117996428Y-61546785D01*
X118139285Y-61618214D01*
X118425000Y-61689642D01*
X118782142Y-61689642D01*
X119067857Y-61618214D01*
X119210714Y-61546785D01*
X119282142Y-61475357D01*
X119353571Y-61332500D01*
X119353571Y-61189642D01*
X119282142Y-61046785D01*
X119210714Y-60975357D01*
X119067857Y-60903928D01*
X118782142Y-60832500D01*
X118425000Y-60832500D01*
X118139285Y-60903928D01*
X117996428Y-60975357D01*
X117925000Y-61046785D01*
X117853571Y-61189642D01*
X119353571Y-63118214D02*
X119353571Y-62261071D01*
X119353571Y-62689642D02*
X117853571Y-62689642D01*
X118067857Y-62546785D01*
X118210714Y-62403928D01*
X118282142Y-62261071D01*
X119353571Y-63832499D02*
X119353571Y-64118214D01*
X119282142Y-64261071D01*
X119210714Y-64332499D01*
X118996428Y-64475357D01*
X118710714Y-64546785D01*
X118139285Y-64546785D01*
X117996428Y-64475357D01*
X117925000Y-64403928D01*
X117853571Y-64261071D01*
X117853571Y-63975357D01*
X117925000Y-63832499D01*
X117996428Y-63761071D01*
X118139285Y-63689642D01*
X118496428Y-63689642D01*
X118639285Y-63761071D01*
X118710714Y-63832499D01*
X118782142Y-63975357D01*
X118782142Y-64261071D01*
X118710714Y-64403928D01*
X118639285Y-64475357D01*
X118496428Y-64546785D01*
X121753571Y-39189642D02*
X120253571Y-39189642D01*
X121753571Y-39832500D02*
X120967857Y-39832500D01*
X120825000Y-39761071D01*
X120753571Y-39618214D01*
X120753571Y-39403928D01*
X120825000Y-39261071D01*
X120896428Y-39189642D01*
X120753571Y-40332500D02*
X120753571Y-40903928D01*
X120253571Y-40546785D02*
X121539285Y-40546785D01*
X121682142Y-40618214D01*
X121753571Y-40761071D01*
X121753571Y-40903928D01*
X120753571Y-41189642D02*
X120753571Y-41761071D01*
X120253571Y-41403928D02*
X121539285Y-41403928D01*
X121682142Y-41475357D01*
X121753571Y-41618214D01*
X121753571Y-41761071D01*
X120753571Y-42261071D02*
X122253571Y-42261071D01*
X120825000Y-42261071D02*
X120753571Y-42403928D01*
X120753571Y-42689642D01*
X120825000Y-42832500D01*
X120896428Y-42903928D01*
X121039285Y-42975357D01*
X121467857Y-42975357D01*
X121610714Y-42903928D01*
X121682142Y-42832500D01*
X121753571Y-42689642D01*
X121753571Y-42403928D01*
X121682142Y-42261071D01*
X121682142Y-43546785D02*
X121753571Y-43689642D01*
X121753571Y-43975357D01*
X121682142Y-44118214D01*
X121539285Y-44189642D01*
X121467857Y-44189642D01*
X121325000Y-44118214D01*
X121253571Y-43975357D01*
X121253571Y-43761071D01*
X121182142Y-43618214D01*
X121039285Y-43546785D01*
X120967857Y-43546785D01*
X120825000Y-43618214D01*
X120753571Y-43761071D01*
X120753571Y-43975357D01*
X120825000Y-44118214D01*
X121610714Y-44832500D02*
X121682142Y-44903928D01*
X121753571Y-44832500D01*
X121682142Y-44761071D01*
X121610714Y-44832500D01*
X121753571Y-44832500D01*
X120825000Y-44832500D02*
X120896428Y-44903928D01*
X120967857Y-44832500D01*
X120896428Y-44761071D01*
X120825000Y-44832500D01*
X120967857Y-44832500D01*
X120182142Y-46618214D02*
X122110714Y-45332500D01*
X120182142Y-48189642D02*
X122110714Y-46903928D01*
X120753571Y-49332500D02*
X121967857Y-49332500D01*
X122110714Y-49261071D01*
X122182142Y-49189642D01*
X122253571Y-49046785D01*
X122253571Y-48832500D01*
X122182142Y-48689642D01*
X121682142Y-49332500D02*
X121753571Y-49189642D01*
X121753571Y-48903928D01*
X121682142Y-48761071D01*
X121610714Y-48689642D01*
X121467857Y-48618214D01*
X121039285Y-48618214D01*
X120896428Y-48689642D01*
X120825000Y-48761071D01*
X120753571Y-48903928D01*
X120753571Y-49189642D01*
X120825000Y-49332500D01*
X121753571Y-50046785D02*
X120753571Y-50046785D01*
X120253571Y-50046785D02*
X120325000Y-49975357D01*
X120396428Y-50046785D01*
X120325000Y-50118214D01*
X120253571Y-50046785D01*
X120396428Y-50046785D01*
X120753571Y-50546785D02*
X120753571Y-51118214D01*
X120253571Y-50761071D02*
X121539285Y-50761071D01*
X121682142Y-50832500D01*
X121753571Y-50975357D01*
X121753571Y-51118214D01*
X121753571Y-51618214D02*
X120253571Y-51618214D01*
X121753571Y-52261071D02*
X120967857Y-52261071D01*
X120825000Y-52189642D01*
X120753571Y-52046785D01*
X120753571Y-51832500D01*
X120825000Y-51689642D01*
X120896428Y-51618214D01*
X120753571Y-53618214D02*
X121753571Y-53618214D01*
X120753571Y-52975357D02*
X121539285Y-52975357D01*
X121682142Y-53046785D01*
X121753571Y-53189642D01*
X121753571Y-53403928D01*
X121682142Y-53546785D01*
X121610714Y-53618214D01*
X121753571Y-54332500D02*
X120253571Y-54332500D01*
X120825000Y-54332500D02*
X120753571Y-54475357D01*
X120753571Y-54761071D01*
X120825000Y-54903928D01*
X120896428Y-54975357D01*
X121039285Y-55046785D01*
X121467857Y-55046785D01*
X121610714Y-54975357D01*
X121682142Y-54903928D01*
X121753571Y-54761071D01*
X121753571Y-54475357D01*
X121682142Y-54332500D01*
X121610714Y-55689642D02*
X121682142Y-55761071D01*
X121753571Y-55689642D01*
X121682142Y-55618214D01*
X121610714Y-55689642D01*
X121753571Y-55689642D01*
X121682142Y-57046785D02*
X121753571Y-56903928D01*
X121753571Y-56618214D01*
X121682142Y-56475357D01*
X121610714Y-56403928D01*
X121467857Y-56332500D01*
X121039285Y-56332500D01*
X120896428Y-56403928D01*
X120825000Y-56475357D01*
X120753571Y-56618214D01*
X120753571Y-56903928D01*
X120825000Y-57046785D01*
X121753571Y-57903928D02*
X121682142Y-57761071D01*
X121610714Y-57689642D01*
X121467857Y-57618214D01*
X121039285Y-57618214D01*
X120896428Y-57689642D01*
X120825000Y-57761071D01*
X120753571Y-57903928D01*
X120753571Y-58118214D01*
X120825000Y-58261071D01*
X120896428Y-58332500D01*
X121039285Y-58403928D01*
X121467857Y-58403928D01*
X121610714Y-58332500D01*
X121682142Y-58261071D01*
X121753571Y-58118214D01*
X121753571Y-57903928D01*
X121753571Y-59046785D02*
X120753571Y-59046785D01*
X120896428Y-59046785D02*
X120825000Y-59118214D01*
X120753571Y-59261071D01*
X120753571Y-59475357D01*
X120825000Y-59618214D01*
X120967857Y-59689642D01*
X121753571Y-59689642D01*
X120967857Y-59689642D02*
X120825000Y-59761071D01*
X120753571Y-59903928D01*
X120753571Y-60118214D01*
X120825000Y-60261071D01*
X120967857Y-60332500D01*
X121753571Y-60332500D01*
X120182142Y-62118214D02*
X122110714Y-60832500D01*
X121682142Y-62546785D02*
X121753571Y-62689642D01*
X121753571Y-62975357D01*
X121682142Y-63118214D01*
X121539285Y-63189642D01*
X121467857Y-63189642D01*
X121325000Y-63118214D01*
X121253571Y-62975357D01*
X121253571Y-62761071D01*
X121182142Y-62618214D01*
X121039285Y-62546785D01*
X120967857Y-62546785D01*
X120825000Y-62618214D01*
X120753571Y-62761071D01*
X120753571Y-62975357D01*
X120825000Y-63118214D01*
X120753571Y-64475357D02*
X121753571Y-64475357D01*
X120753571Y-63832500D02*
X121539285Y-63832500D01*
X121682142Y-63903928D01*
X121753571Y-64046785D01*
X121753571Y-64261071D01*
X121682142Y-64403928D01*
X121610714Y-64475357D01*
X121753571Y-65189642D02*
X120753571Y-65189642D01*
X120253571Y-65189642D02*
X120325000Y-65118214D01*
X120396428Y-65189642D01*
X120325000Y-65261071D01*
X120253571Y-65189642D01*
X120396428Y-65189642D01*
X121753571Y-65903928D02*
X120253571Y-65903928D01*
X121182142Y-66046785D02*
X121753571Y-66475357D01*
X120753571Y-66475357D02*
X121325000Y-65903928D01*
X121753571Y-67761071D02*
X120967857Y-67761071D01*
X120825000Y-67689642D01*
X120753571Y-67546785D01*
X120753571Y-67261071D01*
X120825000Y-67118214D01*
X121682142Y-67761071D02*
X121753571Y-67618214D01*
X121753571Y-67261071D01*
X121682142Y-67118214D01*
X121539285Y-67046785D01*
X121396428Y-67046785D01*
X121253571Y-67118214D01*
X121182142Y-67261071D01*
X121182142Y-67618214D01*
X121110714Y-67761071D01*
X120753571Y-68475357D02*
X121753571Y-68475357D01*
X120896428Y-68475357D02*
X120825000Y-68546785D01*
X120753571Y-68689642D01*
X120753571Y-68903928D01*
X120825000Y-69046785D01*
X120967857Y-69118214D01*
X121753571Y-69118214D01*
X120753571Y-70475357D02*
X121753571Y-70475357D01*
X120182142Y-70118214D02*
X121253571Y-69761071D01*
X121253571Y-70689642D01*
X120753571Y-71903928D02*
X121967857Y-71903928D01*
X122110714Y-71832500D01*
X122182142Y-71761071D01*
X122253571Y-71618214D01*
X122253571Y-71403928D01*
X122182142Y-71261071D01*
X121682142Y-71903928D02*
X121753571Y-71761071D01*
X121753571Y-71475357D01*
X121682142Y-71332500D01*
X121610714Y-71261071D01*
X121467857Y-71189642D01*
X121039285Y-71189642D01*
X120896428Y-71261071D01*
X120825000Y-71332500D01*
X120753571Y-71475357D01*
X120753571Y-71761071D01*
X120825000Y-71903928D01*
X121753571Y-72618214D02*
X120753571Y-72618214D01*
X120253571Y-72618214D02*
X120325000Y-72546785D01*
X120396428Y-72618214D01*
X120325000Y-72689642D01*
X120253571Y-72618214D01*
X120396428Y-72618214D01*
X120753571Y-73118214D02*
X120753571Y-73689642D01*
X120253571Y-73332500D02*
X121539285Y-73332500D01*
X121682142Y-73403928D01*
X121753571Y-73546785D01*
X121753571Y-73689642D01*
X121753571Y-74189642D02*
X120253571Y-74189642D01*
X121753571Y-74832500D02*
X120967857Y-74832500D01*
X120825000Y-74761071D01*
X120753571Y-74618214D01*
X120753571Y-74403928D01*
X120825000Y-74261071D01*
X120896428Y-74189642D01*
X120753571Y-76189642D02*
X121753571Y-76189642D01*
X120753571Y-75546785D02*
X121539285Y-75546785D01*
X121682142Y-75618214D01*
X121753571Y-75761071D01*
X121753571Y-75975357D01*
X121682142Y-76118214D01*
X121610714Y-76189642D01*
X121753571Y-76903928D02*
X120253571Y-76903928D01*
X120825000Y-76903928D02*
X120753571Y-77046785D01*
X120753571Y-77332500D01*
X120825000Y-77475357D01*
X120896428Y-77546785D01*
X121039285Y-77618214D01*
X121467857Y-77618214D01*
X121610714Y-77546785D01*
X121682142Y-77475357D01*
X121753571Y-77332500D01*
X121753571Y-77046785D01*
X121682142Y-76903928D01*
X120182142Y-79332500D02*
X122110714Y-78046785D01*
X121325000Y-79761071D02*
X121325000Y-80475357D01*
X121753571Y-79618214D02*
X120253571Y-80118214D01*
X121753571Y-80618214D01*
X121753571Y-81118214D02*
X120253571Y-81118214D01*
X121182142Y-81261071D02*
X121753571Y-81689642D01*
X120753571Y-81689642D02*
X121325000Y-81118214D01*
X121753571Y-82975357D02*
X120967857Y-82975357D01*
X120825000Y-82903928D01*
X120753571Y-82761071D01*
X120753571Y-82475357D01*
X120825000Y-82332500D01*
X121682142Y-82975357D02*
X121753571Y-82832500D01*
X121753571Y-82475357D01*
X121682142Y-82332500D01*
X121539285Y-82261071D01*
X121396428Y-82261071D01*
X121253571Y-82332500D01*
X121182142Y-82475357D01*
X121182142Y-82832500D01*
X121110714Y-82975357D01*
X121682142Y-83618214D02*
X121753571Y-83761071D01*
X121753571Y-84046785D01*
X121682142Y-84189642D01*
X121539285Y-84261071D01*
X121467857Y-84261071D01*
X121325000Y-84189642D01*
X121253571Y-84046785D01*
X121253571Y-83832500D01*
X121182142Y-83689642D01*
X121039285Y-83618214D01*
X120967857Y-83618214D01*
X120825000Y-83689642D01*
X120753571Y-83832500D01*
X120753571Y-84046785D01*
X120825000Y-84189642D01*
X121753571Y-84903928D02*
X120253571Y-84903928D01*
X121753571Y-85546785D02*
X120967857Y-85546785D01*
X120825000Y-85475357D01*
X120753571Y-85332500D01*
X120753571Y-85118214D01*
X120825000Y-84975357D01*
X120896428Y-84903928D01*
X121753571Y-86261071D02*
X120753571Y-86261071D01*
X120253571Y-86261071D02*
X120325000Y-86189642D01*
X120396428Y-86261071D01*
X120325000Y-86332500D01*
X120253571Y-86261071D01*
X120396428Y-86261071D01*
X121182142Y-86975357D02*
X121182142Y-88118214D01*
X120253571Y-89118214D02*
X120253571Y-89261071D01*
X120325000Y-89403928D01*
X120396428Y-89475357D01*
X120539285Y-89546785D01*
X120825000Y-89618214D01*
X121182142Y-89618214D01*
X121467857Y-89546785D01*
X121610714Y-89475357D01*
X121682142Y-89403928D01*
X121753571Y-89261071D01*
X121753571Y-89118214D01*
X121682142Y-88975357D01*
X121610714Y-88903928D01*
X121467857Y-88832500D01*
X121182142Y-88761071D01*
X120825000Y-88761071D01*
X120539285Y-88832500D01*
X120396428Y-88903928D01*
X120325000Y-88975357D01*
X120253571Y-89118214D01*
X120396428Y-90189642D02*
X120325000Y-90261071D01*
X120253571Y-90403928D01*
X120253571Y-90761071D01*
X120325000Y-90903928D01*
X120396428Y-90975357D01*
X120539285Y-91046785D01*
X120682142Y-91046785D01*
X120896428Y-90975357D01*
X121753571Y-90118214D01*
X121753571Y-91046785D01*
D11*
X113600000Y-115300000D02*
X115000000Y-115300000D01*
X115700000Y-114600000D02*
X115700000Y-114000000D01*
X115000000Y-113300000D02*
X113600000Y-113300000D01*
X112900000Y-114000000D02*
X112900000Y-114600000D01*
X112900000Y-114600000D02*
G75*
G03X113600000Y-115300000I700000J0D01*
G01*
X113600000Y-113300000D02*
G75*
G03X112900000Y-114000000I0J-700000D01*
G01*
X115700000Y-114000000D02*
G75*
G03X115000000Y-113300000I-700000J0D01*
G01*
X115000000Y-115300000D02*
G75*
G03X115700000Y-114600000I0J700000D01*
G01*
X145480000Y-65040000D02*
X144080000Y-65040000D01*
X143380000Y-65740000D02*
X143380000Y-66340000D01*
X144080000Y-67040000D02*
X145480000Y-67040000D01*
X146180000Y-66340000D02*
X146180000Y-65740000D01*
X146180000Y-65740000D02*
G75*
G03X145480000Y-65040000I-700000J0D01*
G01*
X145480000Y-67040000D02*
G75*
G03X146180000Y-66340000I0J700000D01*
G01*
X143380000Y-66340000D02*
G75*
G03X144080000Y-67040000I700000J0D01*
G01*
X144080000Y-65040000D02*
G75*
G03X143380000Y-65740000I0J-700000D01*
G01*
X137860000Y-65040000D02*
X136460000Y-65040000D01*
X135760000Y-65740000D02*
X135760000Y-66340000D01*
X136460000Y-67040000D02*
X137860000Y-67040000D01*
X138560000Y-66340000D02*
X138560000Y-65740000D01*
X138560000Y-65740000D02*
G75*
G03X137860000Y-65040000I-700000J0D01*
G01*
X137860000Y-67040000D02*
G75*
G03X138560000Y-66340000I0J700000D01*
G01*
X135760000Y-66340000D02*
G75*
G03X136460000Y-67040000I700000J0D01*
G01*
X136460000Y-65040000D02*
G75*
G03X135760000Y-65740000I0J-700000D01*
G01*
X145480000Y-57420000D02*
X144080000Y-57420000D01*
X143380000Y-58120000D02*
X143380000Y-58720000D01*
X144080000Y-59420000D02*
X145480000Y-59420000D01*
X146180000Y-58720000D02*
X146180000Y-58120000D01*
X146180000Y-58120000D02*
G75*
G03X145480000Y-57420000I-700000J0D01*
G01*
X145480000Y-59420000D02*
G75*
G03X146180000Y-58720000I0J700000D01*
G01*
X143380000Y-58720000D02*
G75*
G03X144080000Y-59420000I700000J0D01*
G01*
X144080000Y-57420000D02*
G75*
G03X143380000Y-58120000I0J-700000D01*
G01*
X146320000Y-75500000D02*
X146320000Y-76900000D01*
X147020000Y-77600000D02*
X147620000Y-77600000D01*
X148320000Y-76900000D02*
X148320000Y-75500000D01*
X147620000Y-74800000D02*
X147020000Y-74800000D01*
X147020000Y-74800000D02*
G75*
G03X146320000Y-75500000I0J-700000D01*
G01*
X148320000Y-75500000D02*
G75*
G03X147620000Y-74800000I-700000J0D01*
G01*
X147620000Y-77600000D02*
G75*
G03X148320000Y-76900000I0J700000D01*
G01*
X146320000Y-76900000D02*
G75*
G03X147020000Y-77600000I700000J0D01*
G01*
X140970000Y-49760000D02*
X140970000Y-48990000D01*
X140970000Y-41680000D02*
X140970000Y-42450000D01*
X139600000Y-48990000D02*
X139600000Y-42450000D01*
X142340000Y-48990000D02*
X139600000Y-48990000D01*
X142340000Y-42450000D02*
X142340000Y-48990000D01*
X139600000Y-42450000D02*
X142340000Y-42450000D01*
X134520000Y-42450000D02*
X137260000Y-42450000D01*
X137260000Y-42450000D02*
X137260000Y-48990000D01*
X137260000Y-48990000D02*
X134520000Y-48990000D01*
X134520000Y-48990000D02*
X134520000Y-42450000D01*
X135890000Y-41680000D02*
X135890000Y-42450000D01*
X135890000Y-49760000D02*
X135890000Y-48990000D01*
X136460000Y-57420000D02*
G75*
G03X135760000Y-58120000I0J-700000D01*
G01*
X135760000Y-58720000D02*
G75*
G03X136460000Y-59420000I700000J0D01*
G01*
X137860000Y-59420000D02*
G75*
G03X138560000Y-58720000I0J700000D01*
G01*
X138560000Y-58120000D02*
G75*
G03X137860000Y-57420000I-700000J0D01*
G01*
X138560000Y-58720000D02*
X138560000Y-58120000D01*
X136460000Y-59420000D02*
X137860000Y-59420000D01*
X135760000Y-58120000D02*
X135760000Y-58720000D01*
X137860000Y-57420000D02*
X136460000Y-57420000D01*
D10*
X115133333Y-115552380D02*
X115133333Y-116266666D01*
X115180952Y-116409523D01*
X115276190Y-116504761D01*
X115419047Y-116552380D01*
X115514285Y-116552380D01*
X114657142Y-116552380D02*
X114657142Y-115552380D01*
X114276190Y-115552380D01*
X114180952Y-115600000D01*
X114133333Y-115647619D01*
X114085714Y-115742857D01*
X114085714Y-115885714D01*
X114133333Y-115980952D01*
X114180952Y-116028571D01*
X114276190Y-116076190D01*
X114657142Y-116076190D01*
X113228571Y-115552380D02*
X113419047Y-115552380D01*
X113514285Y-115600000D01*
X113561904Y-115647619D01*
X113657142Y-115790476D01*
X113704761Y-115980952D01*
X113704761Y-116361904D01*
X113657142Y-116457142D01*
X113609523Y-116504761D01*
X113514285Y-116552380D01*
X113323809Y-116552380D01*
X113228571Y-116504761D01*
X113180952Y-116457142D01*
X113133333Y-116361904D01*
X113133333Y-116123809D01*
X113180952Y-116028571D01*
X113228571Y-115980952D01*
X113323809Y-115933333D01*
X113514285Y-115933333D01*
X113609523Y-115980952D01*
X113657142Y-116028571D01*
X113704761Y-116123809D01*
X145613333Y-63692380D02*
X145613333Y-64406666D01*
X145660952Y-64549523D01*
X145756190Y-64644761D01*
X145899047Y-64692380D01*
X145994285Y-64692380D01*
X145137142Y-64692380D02*
X145137142Y-63692380D01*
X144756190Y-63692380D01*
X144660952Y-63740000D01*
X144613333Y-63787619D01*
X144565714Y-63882857D01*
X144565714Y-64025714D01*
X144613333Y-64120952D01*
X144660952Y-64168571D01*
X144756190Y-64216190D01*
X145137142Y-64216190D01*
X144232380Y-63692380D02*
X143613333Y-63692380D01*
X143946666Y-64073333D01*
X143803809Y-64073333D01*
X143708571Y-64120952D01*
X143660952Y-64168571D01*
X143613333Y-64263809D01*
X143613333Y-64501904D01*
X143660952Y-64597142D01*
X143708571Y-64644761D01*
X143803809Y-64692380D01*
X144089523Y-64692380D01*
X144184761Y-64644761D01*
X144232380Y-64597142D01*
X137993333Y-63692380D02*
X137993333Y-64406666D01*
X138040952Y-64549523D01*
X138136190Y-64644761D01*
X138279047Y-64692380D01*
X138374285Y-64692380D01*
X137517142Y-64692380D02*
X137517142Y-63692380D01*
X137136190Y-63692380D01*
X137040952Y-63740000D01*
X136993333Y-63787619D01*
X136945714Y-63882857D01*
X136945714Y-64025714D01*
X136993333Y-64120952D01*
X137040952Y-64168571D01*
X137136190Y-64216190D01*
X137517142Y-64216190D01*
X136564761Y-63787619D02*
X136517142Y-63740000D01*
X136421904Y-63692380D01*
X136183809Y-63692380D01*
X136088571Y-63740000D01*
X136040952Y-63787619D01*
X135993333Y-63882857D01*
X135993333Y-63978095D01*
X136040952Y-64120952D01*
X136612380Y-64692380D01*
X135993333Y-64692380D01*
X145613333Y-56072380D02*
X145613333Y-56786666D01*
X145660952Y-56929523D01*
X145756190Y-57024761D01*
X145899047Y-57072380D01*
X145994285Y-57072380D01*
X145137142Y-57072380D02*
X145137142Y-56072380D01*
X144756190Y-56072380D01*
X144660952Y-56120000D01*
X144613333Y-56167619D01*
X144565714Y-56262857D01*
X144565714Y-56405714D01*
X144613333Y-56500952D01*
X144660952Y-56548571D01*
X144756190Y-56596190D01*
X145137142Y-56596190D01*
X143660952Y-56072380D02*
X144137142Y-56072380D01*
X144184761Y-56548571D01*
X144137142Y-56500952D01*
X144041904Y-56453333D01*
X143803809Y-56453333D01*
X143708571Y-56500952D01*
X143660952Y-56548571D01*
X143613333Y-56643809D01*
X143613333Y-56881904D01*
X143660952Y-56977142D01*
X143708571Y-57024761D01*
X143803809Y-57072380D01*
X144041904Y-57072380D01*
X144137142Y-57024761D01*
X144184761Y-56977142D01*
X144972380Y-75366666D02*
X145686666Y-75366666D01*
X145829523Y-75319047D01*
X145924761Y-75223809D01*
X145972380Y-75080952D01*
X145972380Y-74985714D01*
X145972380Y-75842857D02*
X144972380Y-75842857D01*
X144972380Y-76223809D01*
X145020000Y-76319047D01*
X145067619Y-76366666D01*
X145162857Y-76414285D01*
X145305714Y-76414285D01*
X145400952Y-76366666D01*
X145448571Y-76319047D01*
X145496190Y-76223809D01*
X145496190Y-75842857D01*
X145972380Y-77366666D02*
X145972380Y-76795238D01*
X145972380Y-77080952D02*
X144972380Y-77080952D01*
X145115238Y-76985714D01*
X145210476Y-76890476D01*
X145258095Y-76795238D01*
X141422380Y-38568333D02*
X140946190Y-38235000D01*
X141422380Y-37996904D02*
X140422380Y-37996904D01*
X140422380Y-38377857D01*
X140470000Y-38473095D01*
X140517619Y-38520714D01*
X140612857Y-38568333D01*
X140755714Y-38568333D01*
X140850952Y-38520714D01*
X140898571Y-38473095D01*
X140946190Y-38377857D01*
X140946190Y-37996904D01*
X141422380Y-39520714D02*
X141422380Y-38949285D01*
X141422380Y-39235000D02*
X140422380Y-39235000D01*
X140565238Y-39139761D01*
X140660476Y-39044523D01*
X140708095Y-38949285D01*
X140517619Y-44315238D02*
X140470000Y-44362857D01*
X140422380Y-44458095D01*
X140422380Y-44696190D01*
X140470000Y-44791428D01*
X140517619Y-44839047D01*
X140612857Y-44886666D01*
X140708095Y-44886666D01*
X140850952Y-44839047D01*
X141422380Y-44267619D01*
X141422380Y-44886666D01*
X141327142Y-45315238D02*
X141374761Y-45362857D01*
X141422380Y-45315238D01*
X141374761Y-45267619D01*
X141327142Y-45315238D01*
X141422380Y-45315238D01*
X140517619Y-45743809D02*
X140470000Y-45791428D01*
X140422380Y-45886666D01*
X140422380Y-46124761D01*
X140470000Y-46220000D01*
X140517619Y-46267619D01*
X140612857Y-46315238D01*
X140708095Y-46315238D01*
X140850952Y-46267619D01*
X141422380Y-45696190D01*
X141422380Y-46315238D01*
X141422380Y-46743809D02*
X140422380Y-46743809D01*
X141041428Y-46839047D02*
X141422380Y-47124761D01*
X140755714Y-47124761D02*
X141136666Y-46743809D01*
X136342380Y-38568333D02*
X135866190Y-38235000D01*
X136342380Y-37996904D02*
X135342380Y-37996904D01*
X135342380Y-38377857D01*
X135390000Y-38473095D01*
X135437619Y-38520714D01*
X135532857Y-38568333D01*
X135675714Y-38568333D01*
X135770952Y-38520714D01*
X135818571Y-38473095D01*
X135866190Y-38377857D01*
X135866190Y-37996904D01*
X135437619Y-38949285D02*
X135390000Y-38996904D01*
X135342380Y-39092142D01*
X135342380Y-39330238D01*
X135390000Y-39425476D01*
X135437619Y-39473095D01*
X135532857Y-39520714D01*
X135628095Y-39520714D01*
X135770952Y-39473095D01*
X136342380Y-38901666D01*
X136342380Y-39520714D01*
X135437619Y-44315238D02*
X135390000Y-44362857D01*
X135342380Y-44458095D01*
X135342380Y-44696190D01*
X135390000Y-44791428D01*
X135437619Y-44839047D01*
X135532857Y-44886666D01*
X135628095Y-44886666D01*
X135770952Y-44839047D01*
X136342380Y-44267619D01*
X136342380Y-44886666D01*
X136247142Y-45315238D02*
X136294761Y-45362857D01*
X136342380Y-45315238D01*
X136294761Y-45267619D01*
X136247142Y-45315238D01*
X136342380Y-45315238D01*
X135437619Y-45743809D02*
X135390000Y-45791428D01*
X135342380Y-45886666D01*
X135342380Y-46124761D01*
X135390000Y-46220000D01*
X135437619Y-46267619D01*
X135532857Y-46315238D01*
X135628095Y-46315238D01*
X135770952Y-46267619D01*
X136342380Y-45696190D01*
X136342380Y-46315238D01*
X136342380Y-46743809D02*
X135342380Y-46743809D01*
X135961428Y-46839047D02*
X136342380Y-47124761D01*
X135675714Y-47124761D02*
X136056666Y-46743809D01*
X137993333Y-56072380D02*
X137993333Y-56786666D01*
X138040952Y-56929523D01*
X138136190Y-57024761D01*
X138279047Y-57072380D01*
X138374285Y-57072380D01*
X137517142Y-57072380D02*
X137517142Y-56072380D01*
X137136190Y-56072380D01*
X137040952Y-56120000D01*
X136993333Y-56167619D01*
X136945714Y-56262857D01*
X136945714Y-56405714D01*
X136993333Y-56500952D01*
X137040952Y-56548571D01*
X137136190Y-56596190D01*
X137517142Y-56596190D01*
X136088571Y-56405714D02*
X136088571Y-57072380D01*
X136326666Y-56024761D02*
X136564761Y-56739047D01*
X135945714Y-56739047D01*
%LPC*%
D12*
X113650000Y-114300000D03*
D13*
G36*
X114159950Y-113499980D02*
G01*
X114169517Y-113502882D01*
X114178334Y-113507595D01*
X114186062Y-113513938D01*
X114192405Y-113521666D01*
X114197118Y-113530483D01*
X114200020Y-113540050D01*
X114201000Y-113550000D01*
X114201000Y-115050000D01*
X114200020Y-115059950D01*
X114197118Y-115069517D01*
X114192405Y-115078334D01*
X114186062Y-115086062D01*
X114178334Y-115092405D01*
X114169517Y-115097118D01*
X114159950Y-115100020D01*
X114150000Y-115101000D01*
X113650000Y-115101000D01*
X113643888Y-115100398D01*
X113625466Y-115100398D01*
X113620467Y-115100152D01*
X113571636Y-115095342D01*
X113566686Y-115094608D01*
X113518561Y-115085036D01*
X113513705Y-115083820D01*
X113466750Y-115069576D01*
X113462039Y-115067890D01*
X113416706Y-115049113D01*
X113412180Y-115046973D01*
X113368907Y-115023842D01*
X113364616Y-115021269D01*
X113323817Y-114994009D01*
X113319796Y-114991027D01*
X113281867Y-114959899D01*
X113278159Y-114956538D01*
X113243462Y-114921841D01*
X113240101Y-114918133D01*
X113208973Y-114880204D01*
X113205991Y-114876183D01*
X113178731Y-114835384D01*
X113176158Y-114831093D01*
X113153027Y-114787820D01*
X113150887Y-114783294D01*
X113132110Y-114737961D01*
X113130424Y-114733250D01*
X113116180Y-114686295D01*
X113114964Y-114681439D01*
X113105392Y-114633314D01*
X113104658Y-114628364D01*
X113099848Y-114579533D01*
X113099602Y-114574534D01*
X113099602Y-114556112D01*
X113099000Y-114550000D01*
X113099000Y-114050000D01*
X113099602Y-114043888D01*
X113099602Y-114025466D01*
X113099848Y-114020467D01*
X113104658Y-113971636D01*
X113105392Y-113966686D01*
X113114964Y-113918561D01*
X113116180Y-113913705D01*
X113130424Y-113866750D01*
X113132110Y-113862039D01*
X113150887Y-113816706D01*
X113153027Y-113812180D01*
X113176158Y-113768907D01*
X113178731Y-113764616D01*
X113205991Y-113723817D01*
X113208973Y-113719796D01*
X113240101Y-113681867D01*
X113243462Y-113678159D01*
X113278159Y-113643462D01*
X113281867Y-113640101D01*
X113319796Y-113608973D01*
X113323817Y-113605991D01*
X113364616Y-113578731D01*
X113368907Y-113576158D01*
X113412180Y-113553027D01*
X113416706Y-113550887D01*
X113462039Y-113532110D01*
X113466750Y-113530424D01*
X113513705Y-113516180D01*
X113518561Y-113514964D01*
X113566686Y-113505392D01*
X113571636Y-113504658D01*
X113620467Y-113499848D01*
X113625466Y-113499602D01*
X113643888Y-113499602D01*
X113650000Y-113499000D01*
X114150000Y-113499000D01*
X114159950Y-113499980D01*
X114159950Y-113499980D01*
G37*
D12*
X114950000Y-114300000D03*
D13*
G36*
X114956112Y-113499602D02*
G01*
X114974534Y-113499602D01*
X114979533Y-113499848D01*
X115028364Y-113504658D01*
X115033314Y-113505392D01*
X115081439Y-113514964D01*
X115086295Y-113516180D01*
X115133250Y-113530424D01*
X115137961Y-113532110D01*
X115183294Y-113550887D01*
X115187820Y-113553027D01*
X115231093Y-113576158D01*
X115235384Y-113578731D01*
X115276183Y-113605991D01*
X115280204Y-113608973D01*
X115318133Y-113640101D01*
X115321841Y-113643462D01*
X115356538Y-113678159D01*
X115359899Y-113681867D01*
X115391027Y-113719796D01*
X115394009Y-113723817D01*
X115421269Y-113764616D01*
X115423842Y-113768907D01*
X115446973Y-113812180D01*
X115449113Y-113816706D01*
X115467890Y-113862039D01*
X115469576Y-113866750D01*
X115483820Y-113913705D01*
X115485036Y-113918561D01*
X115494608Y-113966686D01*
X115495342Y-113971636D01*
X115500152Y-114020467D01*
X115500398Y-114025466D01*
X115500398Y-114043888D01*
X115501000Y-114050000D01*
X115501000Y-114550000D01*
X115500398Y-114556112D01*
X115500398Y-114574534D01*
X115500152Y-114579533D01*
X115495342Y-114628364D01*
X115494608Y-114633314D01*
X115485036Y-114681439D01*
X115483820Y-114686295D01*
X115469576Y-114733250D01*
X115467890Y-114737961D01*
X115449113Y-114783294D01*
X115446973Y-114787820D01*
X115423842Y-114831093D01*
X115421269Y-114835384D01*
X115394009Y-114876183D01*
X115391027Y-114880204D01*
X115359899Y-114918133D01*
X115356538Y-114921841D01*
X115321841Y-114956538D01*
X115318133Y-114959899D01*
X115280204Y-114991027D01*
X115276183Y-114994009D01*
X115235384Y-115021269D01*
X115231093Y-115023842D01*
X115187820Y-115046973D01*
X115183294Y-115049113D01*
X115137961Y-115067890D01*
X115133250Y-115069576D01*
X115086295Y-115083820D01*
X115081439Y-115085036D01*
X115033314Y-115094608D01*
X115028364Y-115095342D01*
X114979533Y-115100152D01*
X114974534Y-115100398D01*
X114956112Y-115100398D01*
X114950000Y-115101000D01*
X114450000Y-115101000D01*
X114440050Y-115100020D01*
X114430483Y-115097118D01*
X114421666Y-115092405D01*
X114413938Y-115086062D01*
X114407595Y-115078334D01*
X114402882Y-115069517D01*
X114399980Y-115059950D01*
X114399000Y-115050000D01*
X114399000Y-113550000D01*
X114399980Y-113540050D01*
X114402882Y-113530483D01*
X114407595Y-113521666D01*
X114413938Y-113513938D01*
X114421666Y-113507595D01*
X114430483Y-113502882D01*
X114440050Y-113499980D01*
X114450000Y-113499000D01*
X114950000Y-113499000D01*
X114956112Y-113499602D01*
X114956112Y-113499602D01*
G37*
D14*
X154940000Y-48260000D03*
X152400000Y-48260000D03*
X154940000Y-45720000D03*
X152400000Y-45720000D03*
X154940000Y-43180000D03*
X152400000Y-43180000D03*
X154940000Y-40640000D03*
X152400000Y-40640000D03*
X154940000Y-38100000D03*
D15*
X152400000Y-38100000D03*
D16*
X140970000Y-88900000D03*
X140970000Y-86360000D03*
X140970000Y-83820000D03*
X140970000Y-81280000D03*
X140970000Y-78740000D03*
X140970000Y-76200000D03*
X140970000Y-73660000D03*
X140970000Y-71120000D03*
X140970000Y-68580000D03*
X140970000Y-66040000D03*
X140970000Y-63500000D03*
X140970000Y-60960000D03*
X140970000Y-58420000D03*
X140970000Y-55880000D03*
X118110000Y-88900000D03*
X118110000Y-86360000D03*
X118110000Y-83820000D03*
X118110000Y-81280000D03*
X118110000Y-78740000D03*
X118110000Y-35560000D03*
X120650000Y-35560000D03*
X123190000Y-35560000D03*
X125730000Y-35560000D03*
X128270000Y-35560000D03*
D12*
X144130000Y-66040000D03*
D13*
G36*
X144123888Y-66840398D02*
G01*
X144105466Y-66840398D01*
X144100467Y-66840152D01*
X144051636Y-66835342D01*
X144046686Y-66834608D01*
X143998561Y-66825036D01*
X143993705Y-66823820D01*
X143946750Y-66809576D01*
X143942039Y-66807890D01*
X143896706Y-66789113D01*
X143892180Y-66786973D01*
X143848907Y-66763842D01*
X143844616Y-66761269D01*
X143803817Y-66734009D01*
X143799796Y-66731027D01*
X143761867Y-66699899D01*
X143758159Y-66696538D01*
X143723462Y-66661841D01*
X143720101Y-66658133D01*
X143688973Y-66620204D01*
X143685991Y-66616183D01*
X143658731Y-66575384D01*
X143656158Y-66571093D01*
X143633027Y-66527820D01*
X143630887Y-66523294D01*
X143612110Y-66477961D01*
X143610424Y-66473250D01*
X143596180Y-66426295D01*
X143594964Y-66421439D01*
X143585392Y-66373314D01*
X143584658Y-66368364D01*
X143579848Y-66319533D01*
X143579602Y-66314534D01*
X143579602Y-66296112D01*
X143579000Y-66290000D01*
X143579000Y-65790000D01*
X143579602Y-65783888D01*
X143579602Y-65765466D01*
X143579848Y-65760467D01*
X143584658Y-65711636D01*
X143585392Y-65706686D01*
X143594964Y-65658561D01*
X143596180Y-65653705D01*
X143610424Y-65606750D01*
X143612110Y-65602039D01*
X143630887Y-65556706D01*
X143633027Y-65552180D01*
X143656158Y-65508907D01*
X143658731Y-65504616D01*
X143685991Y-65463817D01*
X143688973Y-65459796D01*
X143720101Y-65421867D01*
X143723462Y-65418159D01*
X143758159Y-65383462D01*
X143761867Y-65380101D01*
X143799796Y-65348973D01*
X143803817Y-65345991D01*
X143844616Y-65318731D01*
X143848907Y-65316158D01*
X143892180Y-65293027D01*
X143896706Y-65290887D01*
X143942039Y-65272110D01*
X143946750Y-65270424D01*
X143993705Y-65256180D01*
X143998561Y-65254964D01*
X144046686Y-65245392D01*
X144051636Y-65244658D01*
X144100467Y-65239848D01*
X144105466Y-65239602D01*
X144123888Y-65239602D01*
X144130000Y-65239000D01*
X144630000Y-65239000D01*
X144639950Y-65239980D01*
X144649517Y-65242882D01*
X144658334Y-65247595D01*
X144666062Y-65253938D01*
X144672405Y-65261666D01*
X144677118Y-65270483D01*
X144680020Y-65280050D01*
X144681000Y-65290000D01*
X144681000Y-66790000D01*
X144680020Y-66799950D01*
X144677118Y-66809517D01*
X144672405Y-66818334D01*
X144666062Y-66826062D01*
X144658334Y-66832405D01*
X144649517Y-66837118D01*
X144639950Y-66840020D01*
X144630000Y-66841000D01*
X144130000Y-66841000D01*
X144123888Y-66840398D01*
X144123888Y-66840398D01*
G37*
D12*
X145430000Y-66040000D03*
D13*
G36*
X144920050Y-66840020D02*
G01*
X144910483Y-66837118D01*
X144901666Y-66832405D01*
X144893938Y-66826062D01*
X144887595Y-66818334D01*
X144882882Y-66809517D01*
X144879980Y-66799950D01*
X144879000Y-66790000D01*
X144879000Y-65290000D01*
X144879980Y-65280050D01*
X144882882Y-65270483D01*
X144887595Y-65261666D01*
X144893938Y-65253938D01*
X144901666Y-65247595D01*
X144910483Y-65242882D01*
X144920050Y-65239980D01*
X144930000Y-65239000D01*
X145430000Y-65239000D01*
X145436112Y-65239602D01*
X145454534Y-65239602D01*
X145459533Y-65239848D01*
X145508364Y-65244658D01*
X145513314Y-65245392D01*
X145561439Y-65254964D01*
X145566295Y-65256180D01*
X145613250Y-65270424D01*
X145617961Y-65272110D01*
X145663294Y-65290887D01*
X145667820Y-65293027D01*
X145711093Y-65316158D01*
X145715384Y-65318731D01*
X145756183Y-65345991D01*
X145760204Y-65348973D01*
X145798133Y-65380101D01*
X145801841Y-65383462D01*
X145836538Y-65418159D01*
X145839899Y-65421867D01*
X145871027Y-65459796D01*
X145874009Y-65463817D01*
X145901269Y-65504616D01*
X145903842Y-65508907D01*
X145926973Y-65552180D01*
X145929113Y-65556706D01*
X145947890Y-65602039D01*
X145949576Y-65606750D01*
X145963820Y-65653705D01*
X145965036Y-65658561D01*
X145974608Y-65706686D01*
X145975342Y-65711636D01*
X145980152Y-65760467D01*
X145980398Y-65765466D01*
X145980398Y-65783888D01*
X145981000Y-65790000D01*
X145981000Y-66290000D01*
X145980398Y-66296112D01*
X145980398Y-66314534D01*
X145980152Y-66319533D01*
X145975342Y-66368364D01*
X145974608Y-66373314D01*
X145965036Y-66421439D01*
X145963820Y-66426295D01*
X145949576Y-66473250D01*
X145947890Y-66477961D01*
X145929113Y-66523294D01*
X145926973Y-66527820D01*
X145903842Y-66571093D01*
X145901269Y-66575384D01*
X145874009Y-66616183D01*
X145871027Y-66620204D01*
X145839899Y-66658133D01*
X145836538Y-66661841D01*
X145801841Y-66696538D01*
X145798133Y-66699899D01*
X145760204Y-66731027D01*
X145756183Y-66734009D01*
X145715384Y-66761269D01*
X145711093Y-66763842D01*
X145667820Y-66786973D01*
X145663294Y-66789113D01*
X145617961Y-66807890D01*
X145613250Y-66809576D01*
X145566295Y-66823820D01*
X145561439Y-66825036D01*
X145513314Y-66834608D01*
X145508364Y-66835342D01*
X145459533Y-66840152D01*
X145454534Y-66840398D01*
X145436112Y-66840398D01*
X145430000Y-66841000D01*
X144930000Y-66841000D01*
X144920050Y-66840020D01*
X144920050Y-66840020D01*
G37*
D12*
X137810000Y-66040000D03*
D13*
G36*
X137300050Y-66840020D02*
G01*
X137290483Y-66837118D01*
X137281666Y-66832405D01*
X137273938Y-66826062D01*
X137267595Y-66818334D01*
X137262882Y-66809517D01*
X137259980Y-66799950D01*
X137259000Y-66790000D01*
X137259000Y-65290000D01*
X137259980Y-65280050D01*
X137262882Y-65270483D01*
X137267595Y-65261666D01*
X137273938Y-65253938D01*
X137281666Y-65247595D01*
X137290483Y-65242882D01*
X137300050Y-65239980D01*
X137310000Y-65239000D01*
X137810000Y-65239000D01*
X137816112Y-65239602D01*
X137834534Y-65239602D01*
X137839533Y-65239848D01*
X137888364Y-65244658D01*
X137893314Y-65245392D01*
X137941439Y-65254964D01*
X137946295Y-65256180D01*
X137993250Y-65270424D01*
X137997961Y-65272110D01*
X138043294Y-65290887D01*
X138047820Y-65293027D01*
X138091093Y-65316158D01*
X138095384Y-65318731D01*
X138136183Y-65345991D01*
X138140204Y-65348973D01*
X138178133Y-65380101D01*
X138181841Y-65383462D01*
X138216538Y-65418159D01*
X138219899Y-65421867D01*
X138251027Y-65459796D01*
X138254009Y-65463817D01*
X138281269Y-65504616D01*
X138283842Y-65508907D01*
X138306973Y-65552180D01*
X138309113Y-65556706D01*
X138327890Y-65602039D01*
X138329576Y-65606750D01*
X138343820Y-65653705D01*
X138345036Y-65658561D01*
X138354608Y-65706686D01*
X138355342Y-65711636D01*
X138360152Y-65760467D01*
X138360398Y-65765466D01*
X138360398Y-65783888D01*
X138361000Y-65790000D01*
X138361000Y-66290000D01*
X138360398Y-66296112D01*
X138360398Y-66314534D01*
X138360152Y-66319533D01*
X138355342Y-66368364D01*
X138354608Y-66373314D01*
X138345036Y-66421439D01*
X138343820Y-66426295D01*
X138329576Y-66473250D01*
X138327890Y-66477961D01*
X138309113Y-66523294D01*
X138306973Y-66527820D01*
X138283842Y-66571093D01*
X138281269Y-66575384D01*
X138254009Y-66616183D01*
X138251027Y-66620204D01*
X138219899Y-66658133D01*
X138216538Y-66661841D01*
X138181841Y-66696538D01*
X138178133Y-66699899D01*
X138140204Y-66731027D01*
X138136183Y-66734009D01*
X138095384Y-66761269D01*
X138091093Y-66763842D01*
X138047820Y-66786973D01*
X138043294Y-66789113D01*
X137997961Y-66807890D01*
X137993250Y-66809576D01*
X137946295Y-66823820D01*
X137941439Y-66825036D01*
X137893314Y-66834608D01*
X137888364Y-66835342D01*
X137839533Y-66840152D01*
X137834534Y-66840398D01*
X137816112Y-66840398D01*
X137810000Y-66841000D01*
X137310000Y-66841000D01*
X137300050Y-66840020D01*
X137300050Y-66840020D01*
G37*
D12*
X136510000Y-66040000D03*
D13*
G36*
X136503888Y-66840398D02*
G01*
X136485466Y-66840398D01*
X136480467Y-66840152D01*
X136431636Y-66835342D01*
X136426686Y-66834608D01*
X136378561Y-66825036D01*
X136373705Y-66823820D01*
X136326750Y-66809576D01*
X136322039Y-66807890D01*
X136276706Y-66789113D01*
X136272180Y-66786973D01*
X136228907Y-66763842D01*
X136224616Y-66761269D01*
X136183817Y-66734009D01*
X136179796Y-66731027D01*
X136141867Y-66699899D01*
X136138159Y-66696538D01*
X136103462Y-66661841D01*
X136100101Y-66658133D01*
X136068973Y-66620204D01*
X136065991Y-66616183D01*
X136038731Y-66575384D01*
X136036158Y-66571093D01*
X136013027Y-66527820D01*
X136010887Y-66523294D01*
X135992110Y-66477961D01*
X135990424Y-66473250D01*
X135976180Y-66426295D01*
X135974964Y-66421439D01*
X135965392Y-66373314D01*
X135964658Y-66368364D01*
X135959848Y-66319533D01*
X135959602Y-66314534D01*
X135959602Y-66296112D01*
X135959000Y-66290000D01*
X135959000Y-65790000D01*
X135959602Y-65783888D01*
X135959602Y-65765466D01*
X135959848Y-65760467D01*
X135964658Y-65711636D01*
X135965392Y-65706686D01*
X135974964Y-65658561D01*
X135976180Y-65653705D01*
X135990424Y-65606750D01*
X135992110Y-65602039D01*
X136010887Y-65556706D01*
X136013027Y-65552180D01*
X136036158Y-65508907D01*
X136038731Y-65504616D01*
X136065991Y-65463817D01*
X136068973Y-65459796D01*
X136100101Y-65421867D01*
X136103462Y-65418159D01*
X136138159Y-65383462D01*
X136141867Y-65380101D01*
X136179796Y-65348973D01*
X136183817Y-65345991D01*
X136224616Y-65318731D01*
X136228907Y-65316158D01*
X136272180Y-65293027D01*
X136276706Y-65290887D01*
X136322039Y-65272110D01*
X136326750Y-65270424D01*
X136373705Y-65256180D01*
X136378561Y-65254964D01*
X136426686Y-65245392D01*
X136431636Y-65244658D01*
X136480467Y-65239848D01*
X136485466Y-65239602D01*
X136503888Y-65239602D01*
X136510000Y-65239000D01*
X137010000Y-65239000D01*
X137019950Y-65239980D01*
X137029517Y-65242882D01*
X137038334Y-65247595D01*
X137046062Y-65253938D01*
X137052405Y-65261666D01*
X137057118Y-65270483D01*
X137060020Y-65280050D01*
X137061000Y-65290000D01*
X137061000Y-66790000D01*
X137060020Y-66799950D01*
X137057118Y-66809517D01*
X137052405Y-66818334D01*
X137046062Y-66826062D01*
X137038334Y-66832405D01*
X137029517Y-66837118D01*
X137019950Y-66840020D01*
X137010000Y-66841000D01*
X136510000Y-66841000D01*
X136503888Y-66840398D01*
X136503888Y-66840398D01*
G37*
D12*
X144130000Y-58420000D03*
D13*
G36*
X144123888Y-59220398D02*
G01*
X144105466Y-59220398D01*
X144100467Y-59220152D01*
X144051636Y-59215342D01*
X144046686Y-59214608D01*
X143998561Y-59205036D01*
X143993705Y-59203820D01*
X143946750Y-59189576D01*
X143942039Y-59187890D01*
X143896706Y-59169113D01*
X143892180Y-59166973D01*
X143848907Y-59143842D01*
X143844616Y-59141269D01*
X143803817Y-59114009D01*
X143799796Y-59111027D01*
X143761867Y-59079899D01*
X143758159Y-59076538D01*
X143723462Y-59041841D01*
X143720101Y-59038133D01*
X143688973Y-59000204D01*
X143685991Y-58996183D01*
X143658731Y-58955384D01*
X143656158Y-58951093D01*
X143633027Y-58907820D01*
X143630887Y-58903294D01*
X143612110Y-58857961D01*
X143610424Y-58853250D01*
X143596180Y-58806295D01*
X143594964Y-58801439D01*
X143585392Y-58753314D01*
X143584658Y-58748364D01*
X143579848Y-58699533D01*
X143579602Y-58694534D01*
X143579602Y-58676112D01*
X143579000Y-58670000D01*
X143579000Y-58170000D01*
X143579602Y-58163888D01*
X143579602Y-58145466D01*
X143579848Y-58140467D01*
X143584658Y-58091636D01*
X143585392Y-58086686D01*
X143594964Y-58038561D01*
X143596180Y-58033705D01*
X143610424Y-57986750D01*
X143612110Y-57982039D01*
X143630887Y-57936706D01*
X143633027Y-57932180D01*
X143656158Y-57888907D01*
X143658731Y-57884616D01*
X143685991Y-57843817D01*
X143688973Y-57839796D01*
X143720101Y-57801867D01*
X143723462Y-57798159D01*
X143758159Y-57763462D01*
X143761867Y-57760101D01*
X143799796Y-57728973D01*
X143803817Y-57725991D01*
X143844616Y-57698731D01*
X143848907Y-57696158D01*
X143892180Y-57673027D01*
X143896706Y-57670887D01*
X143942039Y-57652110D01*
X143946750Y-57650424D01*
X143993705Y-57636180D01*
X143998561Y-57634964D01*
X144046686Y-57625392D01*
X144051636Y-57624658D01*
X144100467Y-57619848D01*
X144105466Y-57619602D01*
X144123888Y-57619602D01*
X144130000Y-57619000D01*
X144630000Y-57619000D01*
X144639950Y-57619980D01*
X144649517Y-57622882D01*
X144658334Y-57627595D01*
X144666062Y-57633938D01*
X144672405Y-57641666D01*
X144677118Y-57650483D01*
X144680020Y-57660050D01*
X144681000Y-57670000D01*
X144681000Y-59170000D01*
X144680020Y-59179950D01*
X144677118Y-59189517D01*
X144672405Y-59198334D01*
X144666062Y-59206062D01*
X144658334Y-59212405D01*
X144649517Y-59217118D01*
X144639950Y-59220020D01*
X144630000Y-59221000D01*
X144130000Y-59221000D01*
X144123888Y-59220398D01*
X144123888Y-59220398D01*
G37*
D12*
X145430000Y-58420000D03*
D13*
G36*
X144920050Y-59220020D02*
G01*
X144910483Y-59217118D01*
X144901666Y-59212405D01*
X144893938Y-59206062D01*
X144887595Y-59198334D01*
X144882882Y-59189517D01*
X144879980Y-59179950D01*
X144879000Y-59170000D01*
X144879000Y-57670000D01*
X144879980Y-57660050D01*
X144882882Y-57650483D01*
X144887595Y-57641666D01*
X144893938Y-57633938D01*
X144901666Y-57627595D01*
X144910483Y-57622882D01*
X144920050Y-57619980D01*
X144930000Y-57619000D01*
X145430000Y-57619000D01*
X145436112Y-57619602D01*
X145454534Y-57619602D01*
X145459533Y-57619848D01*
X145508364Y-57624658D01*
X145513314Y-57625392D01*
X145561439Y-57634964D01*
X145566295Y-57636180D01*
X145613250Y-57650424D01*
X145617961Y-57652110D01*
X145663294Y-57670887D01*
X145667820Y-57673027D01*
X145711093Y-57696158D01*
X145715384Y-57698731D01*
X145756183Y-57725991D01*
X145760204Y-57728973D01*
X145798133Y-57760101D01*
X145801841Y-57763462D01*
X145836538Y-57798159D01*
X145839899Y-57801867D01*
X145871027Y-57839796D01*
X145874009Y-57843817D01*
X145901269Y-57884616D01*
X145903842Y-57888907D01*
X145926973Y-57932180D01*
X145929113Y-57936706D01*
X145947890Y-57982039D01*
X145949576Y-57986750D01*
X145963820Y-58033705D01*
X145965036Y-58038561D01*
X145974608Y-58086686D01*
X145975342Y-58091636D01*
X145980152Y-58140467D01*
X145980398Y-58145466D01*
X145980398Y-58163888D01*
X145981000Y-58170000D01*
X145981000Y-58670000D01*
X145980398Y-58676112D01*
X145980398Y-58694534D01*
X145980152Y-58699533D01*
X145975342Y-58748364D01*
X145974608Y-58753314D01*
X145965036Y-58801439D01*
X145963820Y-58806295D01*
X145949576Y-58853250D01*
X145947890Y-58857961D01*
X145929113Y-58903294D01*
X145926973Y-58907820D01*
X145903842Y-58951093D01*
X145901269Y-58955384D01*
X145874009Y-58996183D01*
X145871027Y-59000204D01*
X145839899Y-59038133D01*
X145836538Y-59041841D01*
X145801841Y-59076538D01*
X145798133Y-59079899D01*
X145760204Y-59111027D01*
X145756183Y-59114009D01*
X145715384Y-59141269D01*
X145711093Y-59143842D01*
X145667820Y-59166973D01*
X145663294Y-59169113D01*
X145617961Y-59187890D01*
X145613250Y-59189576D01*
X145566295Y-59203820D01*
X145561439Y-59205036D01*
X145513314Y-59214608D01*
X145508364Y-59215342D01*
X145459533Y-59220152D01*
X145454534Y-59220398D01*
X145436112Y-59220398D01*
X145430000Y-59221000D01*
X144930000Y-59221000D01*
X144920050Y-59220020D01*
X144920050Y-59220020D01*
G37*
D12*
X147320000Y-76850000D03*
D13*
G36*
X148120398Y-76856112D02*
G01*
X148120398Y-76874534D01*
X148120152Y-76879533D01*
X148115342Y-76928364D01*
X148114608Y-76933314D01*
X148105036Y-76981439D01*
X148103820Y-76986295D01*
X148089576Y-77033250D01*
X148087890Y-77037961D01*
X148069113Y-77083294D01*
X148066973Y-77087820D01*
X148043842Y-77131093D01*
X148041269Y-77135384D01*
X148014009Y-77176183D01*
X148011027Y-77180204D01*
X147979899Y-77218133D01*
X147976538Y-77221841D01*
X147941841Y-77256538D01*
X147938133Y-77259899D01*
X147900204Y-77291027D01*
X147896183Y-77294009D01*
X147855384Y-77321269D01*
X147851093Y-77323842D01*
X147807820Y-77346973D01*
X147803294Y-77349113D01*
X147757961Y-77367890D01*
X147753250Y-77369576D01*
X147706295Y-77383820D01*
X147701439Y-77385036D01*
X147653314Y-77394608D01*
X147648364Y-77395342D01*
X147599533Y-77400152D01*
X147594534Y-77400398D01*
X147576112Y-77400398D01*
X147570000Y-77401000D01*
X147070000Y-77401000D01*
X147063888Y-77400398D01*
X147045466Y-77400398D01*
X147040467Y-77400152D01*
X146991636Y-77395342D01*
X146986686Y-77394608D01*
X146938561Y-77385036D01*
X146933705Y-77383820D01*
X146886750Y-77369576D01*
X146882039Y-77367890D01*
X146836706Y-77349113D01*
X146832180Y-77346973D01*
X146788907Y-77323842D01*
X146784616Y-77321269D01*
X146743817Y-77294009D01*
X146739796Y-77291027D01*
X146701867Y-77259899D01*
X146698159Y-77256538D01*
X146663462Y-77221841D01*
X146660101Y-77218133D01*
X146628973Y-77180204D01*
X146625991Y-77176183D01*
X146598731Y-77135384D01*
X146596158Y-77131093D01*
X146573027Y-77087820D01*
X146570887Y-77083294D01*
X146552110Y-77037961D01*
X146550424Y-77033250D01*
X146536180Y-76986295D01*
X146534964Y-76981439D01*
X146525392Y-76933314D01*
X146524658Y-76928364D01*
X146519848Y-76879533D01*
X146519602Y-76874534D01*
X146519602Y-76856112D01*
X146519000Y-76850000D01*
X146519000Y-76350000D01*
X146519980Y-76340050D01*
X146522882Y-76330483D01*
X146527595Y-76321666D01*
X146533938Y-76313938D01*
X146541666Y-76307595D01*
X146550483Y-76302882D01*
X146560050Y-76299980D01*
X146570000Y-76299000D01*
X148070000Y-76299000D01*
X148079950Y-76299980D01*
X148089517Y-76302882D01*
X148098334Y-76307595D01*
X148106062Y-76313938D01*
X148112405Y-76321666D01*
X148117118Y-76330483D01*
X148120020Y-76340050D01*
X148121000Y-76350000D01*
X148121000Y-76850000D01*
X148120398Y-76856112D01*
X148120398Y-76856112D01*
G37*
D12*
X147320000Y-75550000D03*
D13*
G36*
X148120020Y-76059950D02*
G01*
X148117118Y-76069517D01*
X148112405Y-76078334D01*
X148106062Y-76086062D01*
X148098334Y-76092405D01*
X148089517Y-76097118D01*
X148079950Y-76100020D01*
X148070000Y-76101000D01*
X146570000Y-76101000D01*
X146560050Y-76100020D01*
X146550483Y-76097118D01*
X146541666Y-76092405D01*
X146533938Y-76086062D01*
X146527595Y-76078334D01*
X146522882Y-76069517D01*
X146519980Y-76059950D01*
X146519000Y-76050000D01*
X146519000Y-75550000D01*
X146519602Y-75543888D01*
X146519602Y-75525466D01*
X146519848Y-75520467D01*
X146524658Y-75471636D01*
X146525392Y-75466686D01*
X146534964Y-75418561D01*
X146536180Y-75413705D01*
X146550424Y-75366750D01*
X146552110Y-75362039D01*
X146570887Y-75316706D01*
X146573027Y-75312180D01*
X146596158Y-75268907D01*
X146598731Y-75264616D01*
X146625991Y-75223817D01*
X146628973Y-75219796D01*
X146660101Y-75181867D01*
X146663462Y-75178159D01*
X146698159Y-75143462D01*
X146701867Y-75140101D01*
X146739796Y-75108973D01*
X146743817Y-75105991D01*
X146784616Y-75078731D01*
X146788907Y-75076158D01*
X146832180Y-75053027D01*
X146836706Y-75050887D01*
X146882039Y-75032110D01*
X146886750Y-75030424D01*
X146933705Y-75016180D01*
X146938561Y-75014964D01*
X146986686Y-75005392D01*
X146991636Y-75004658D01*
X147040467Y-74999848D01*
X147045466Y-74999602D01*
X147063888Y-74999602D01*
X147070000Y-74999000D01*
X147570000Y-74999000D01*
X147576112Y-74999602D01*
X147594534Y-74999602D01*
X147599533Y-74999848D01*
X147648364Y-75004658D01*
X147653314Y-75005392D01*
X147701439Y-75014964D01*
X147706295Y-75016180D01*
X147753250Y-75030424D01*
X147757961Y-75032110D01*
X147803294Y-75050887D01*
X147807820Y-75053027D01*
X147851093Y-75076158D01*
X147855384Y-75078731D01*
X147896183Y-75105991D01*
X147900204Y-75108973D01*
X147938133Y-75140101D01*
X147941841Y-75143462D01*
X147976538Y-75178159D01*
X147979899Y-75181867D01*
X148011027Y-75219796D01*
X148014009Y-75223817D01*
X148041269Y-75264616D01*
X148043842Y-75268907D01*
X148066973Y-75312180D01*
X148069113Y-75316706D01*
X148087890Y-75362039D01*
X148089576Y-75366750D01*
X148103820Y-75413705D01*
X148105036Y-75418561D01*
X148114608Y-75466686D01*
X148115342Y-75471636D01*
X148120152Y-75520467D01*
X148120398Y-75525466D01*
X148120398Y-75543888D01*
X148121000Y-75550000D01*
X148121000Y-76050000D01*
X148120020Y-76059950D01*
X148120020Y-76059950D01*
G37*
D14*
X154940000Y-80010000D03*
X152400000Y-80010000D03*
X154940000Y-77470000D03*
X152400000Y-77470000D03*
X154940000Y-74930000D03*
X152400000Y-74930000D03*
X154940000Y-72390000D03*
X152400000Y-72390000D03*
X154940000Y-69850000D03*
X152400000Y-69850000D03*
X154940000Y-67310000D03*
X152400000Y-67310000D03*
X154940000Y-64770000D03*
X152400000Y-64770000D03*
X154940000Y-62230000D03*
X152400000Y-62230000D03*
X154940000Y-59690000D03*
X152400000Y-59690000D03*
X154940000Y-57150000D03*
D15*
X152400000Y-57150000D03*
D14*
X154940000Y-124460000D03*
X152400000Y-124460000D03*
X154940000Y-121920000D03*
X152400000Y-121920000D03*
X154940000Y-119380000D03*
X152400000Y-119380000D03*
X154940000Y-116840000D03*
X152400000Y-116840000D03*
X154940000Y-114300000D03*
X152400000Y-114300000D03*
X154940000Y-111760000D03*
X152400000Y-111760000D03*
X154940000Y-109220000D03*
X152400000Y-109220000D03*
X154940000Y-106680000D03*
X152400000Y-106680000D03*
X154940000Y-104140000D03*
X152400000Y-104140000D03*
X154940000Y-101600000D03*
X152400000Y-101600000D03*
X154940000Y-99060000D03*
X152400000Y-99060000D03*
X154940000Y-96520000D03*
X152400000Y-96520000D03*
X154940000Y-93980000D03*
X152400000Y-93980000D03*
X154940000Y-91440000D03*
X152400000Y-91440000D03*
X154940000Y-88900000D03*
X152400000Y-88900000D03*
X154940000Y-86360000D03*
X152400000Y-86360000D03*
X154940000Y-83820000D03*
D15*
X152400000Y-83820000D03*
X106680000Y-88900000D03*
D14*
X109220000Y-88900000D03*
X106680000Y-91440000D03*
X109220000Y-91440000D03*
X106680000Y-93980000D03*
X109220000Y-93980000D03*
X106680000Y-96520000D03*
X109220000Y-96520000D03*
X106680000Y-99060000D03*
X109220000Y-99060000D03*
X106680000Y-101600000D03*
X109220000Y-101600000D03*
X106680000Y-104140000D03*
X109220000Y-104140000D03*
X106680000Y-106680000D03*
X109220000Y-106680000D03*
X106680000Y-109220000D03*
X109220000Y-109220000D03*
X106680000Y-111760000D03*
X109220000Y-111760000D03*
X106680000Y-114300000D03*
X109220000Y-114300000D03*
X106680000Y-116840000D03*
X109220000Y-116840000D03*
X106680000Y-119380000D03*
X109220000Y-119380000D03*
X106680000Y-121920000D03*
X109220000Y-121920000D03*
X106680000Y-124460000D03*
X109220000Y-124460000D03*
X109220000Y-83820000D03*
X106680000Y-83820000D03*
X109220000Y-81280000D03*
X106680000Y-81280000D03*
X109220000Y-78740000D03*
X106680000Y-78740000D03*
X109220000Y-76200000D03*
X106680000Y-76200000D03*
X109220000Y-73660000D03*
X106680000Y-73660000D03*
X109220000Y-71120000D03*
X106680000Y-71120000D03*
X109220000Y-68580000D03*
X106680000Y-68580000D03*
X109220000Y-66040000D03*
D15*
X106680000Y-66040000D03*
D17*
X147320000Y-81280000D03*
D18*
X147320000Y-71120000D03*
D17*
X140970000Y-106680000D03*
D18*
X140970000Y-116840000D03*
D17*
X135890000Y-106680000D03*
D18*
X135890000Y-116840000D03*
X140970000Y-50800000D03*
D17*
X140970000Y-40640000D03*
D19*
X140970000Y-120650000D03*
D20*
X140970000Y-123190000D03*
X135890000Y-123190000D03*
D19*
X135890000Y-120650000D03*
D17*
X135890000Y-40640000D03*
D18*
X135890000Y-50800000D03*
D21*
X118110000Y-102870000D03*
X123190000Y-102870000D03*
X128270000Y-102870000D03*
X118110000Y-111760000D03*
X123190000Y-111760000D03*
X123190000Y-119380000D03*
X140970000Y-102870000D03*
X135890000Y-102870000D03*
X146050000Y-102870000D03*
D12*
X136510000Y-58420000D03*
D13*
G36*
X136503888Y-59220398D02*
G01*
X136485466Y-59220398D01*
X136480467Y-59220152D01*
X136431636Y-59215342D01*
X136426686Y-59214608D01*
X136378561Y-59205036D01*
X136373705Y-59203820D01*
X136326750Y-59189576D01*
X136322039Y-59187890D01*
X136276706Y-59169113D01*
X136272180Y-59166973D01*
X136228907Y-59143842D01*
X136224616Y-59141269D01*
X136183817Y-59114009D01*
X136179796Y-59111027D01*
X136141867Y-59079899D01*
X136138159Y-59076538D01*
X136103462Y-59041841D01*
X136100101Y-59038133D01*
X136068973Y-59000204D01*
X136065991Y-58996183D01*
X136038731Y-58955384D01*
X136036158Y-58951093D01*
X136013027Y-58907820D01*
X136010887Y-58903294D01*
X135992110Y-58857961D01*
X135990424Y-58853250D01*
X135976180Y-58806295D01*
X135974964Y-58801439D01*
X135965392Y-58753314D01*
X135964658Y-58748364D01*
X135959848Y-58699533D01*
X135959602Y-58694534D01*
X135959602Y-58676112D01*
X135959000Y-58670000D01*
X135959000Y-58170000D01*
X135959602Y-58163888D01*
X135959602Y-58145466D01*
X135959848Y-58140467D01*
X135964658Y-58091636D01*
X135965392Y-58086686D01*
X135974964Y-58038561D01*
X135976180Y-58033705D01*
X135990424Y-57986750D01*
X135992110Y-57982039D01*
X136010887Y-57936706D01*
X136013027Y-57932180D01*
X136036158Y-57888907D01*
X136038731Y-57884616D01*
X136065991Y-57843817D01*
X136068973Y-57839796D01*
X136100101Y-57801867D01*
X136103462Y-57798159D01*
X136138159Y-57763462D01*
X136141867Y-57760101D01*
X136179796Y-57728973D01*
X136183817Y-57725991D01*
X136224616Y-57698731D01*
X136228907Y-57696158D01*
X136272180Y-57673027D01*
X136276706Y-57670887D01*
X136322039Y-57652110D01*
X136326750Y-57650424D01*
X136373705Y-57636180D01*
X136378561Y-57634964D01*
X136426686Y-57625392D01*
X136431636Y-57624658D01*
X136480467Y-57619848D01*
X136485466Y-57619602D01*
X136503888Y-57619602D01*
X136510000Y-57619000D01*
X137010000Y-57619000D01*
X137019950Y-57619980D01*
X137029517Y-57622882D01*
X137038334Y-57627595D01*
X137046062Y-57633938D01*
X137052405Y-57641666D01*
X137057118Y-57650483D01*
X137060020Y-57660050D01*
X137061000Y-57670000D01*
X137061000Y-59170000D01*
X137060020Y-59179950D01*
X137057118Y-59189517D01*
X137052405Y-59198334D01*
X137046062Y-59206062D01*
X137038334Y-59212405D01*
X137029517Y-59217118D01*
X137019950Y-59220020D01*
X137010000Y-59221000D01*
X136510000Y-59221000D01*
X136503888Y-59220398D01*
X136503888Y-59220398D01*
G37*
D12*
X137810000Y-58420000D03*
D13*
G36*
X137300050Y-59220020D02*
G01*
X137290483Y-59217118D01*
X137281666Y-59212405D01*
X137273938Y-59206062D01*
X137267595Y-59198334D01*
X137262882Y-59189517D01*
X137259980Y-59179950D01*
X137259000Y-59170000D01*
X137259000Y-57670000D01*
X137259980Y-57660050D01*
X137262882Y-57650483D01*
X137267595Y-57641666D01*
X137273938Y-57633938D01*
X137281666Y-57627595D01*
X137290483Y-57622882D01*
X137300050Y-57619980D01*
X137310000Y-57619000D01*
X137810000Y-57619000D01*
X137816112Y-57619602D01*
X137834534Y-57619602D01*
X137839533Y-57619848D01*
X137888364Y-57624658D01*
X137893314Y-57625392D01*
X137941439Y-57634964D01*
X137946295Y-57636180D01*
X137993250Y-57650424D01*
X137997961Y-57652110D01*
X138043294Y-57670887D01*
X138047820Y-57673027D01*
X138091093Y-57696158D01*
X138095384Y-57698731D01*
X138136183Y-57725991D01*
X138140204Y-57728973D01*
X138178133Y-57760101D01*
X138181841Y-57763462D01*
X138216538Y-57798159D01*
X138219899Y-57801867D01*
X138251027Y-57839796D01*
X138254009Y-57843817D01*
X138281269Y-57884616D01*
X138283842Y-57888907D01*
X138306973Y-57932180D01*
X138309113Y-57936706D01*
X138327890Y-57982039D01*
X138329576Y-57986750D01*
X138343820Y-58033705D01*
X138345036Y-58038561D01*
X138354608Y-58086686D01*
X138355342Y-58091636D01*
X138360152Y-58140467D01*
X138360398Y-58145466D01*
X138360398Y-58163888D01*
X138361000Y-58170000D01*
X138361000Y-58670000D01*
X138360398Y-58676112D01*
X138360398Y-58694534D01*
X138360152Y-58699533D01*
X138355342Y-58748364D01*
X138354608Y-58753314D01*
X138345036Y-58801439D01*
X138343820Y-58806295D01*
X138329576Y-58853250D01*
X138327890Y-58857961D01*
X138309113Y-58903294D01*
X138306973Y-58907820D01*
X138283842Y-58951093D01*
X138281269Y-58955384D01*
X138254009Y-58996183D01*
X138251027Y-59000204D01*
X138219899Y-59038133D01*
X138216538Y-59041841D01*
X138181841Y-59076538D01*
X138178133Y-59079899D01*
X138140204Y-59111027D01*
X138136183Y-59114009D01*
X138095384Y-59141269D01*
X138091093Y-59143842D01*
X138047820Y-59166973D01*
X138043294Y-59169113D01*
X137997961Y-59187890D01*
X137993250Y-59189576D01*
X137946295Y-59203820D01*
X137941439Y-59205036D01*
X137893314Y-59214608D01*
X137888364Y-59215342D01*
X137839533Y-59220152D01*
X137834534Y-59220398D01*
X137816112Y-59220398D01*
X137810000Y-59221000D01*
X137310000Y-59221000D01*
X137300050Y-59220020D01*
X137300050Y-59220020D01*
G37*
M02*
