G04 #@! TF.GenerationSoftware,KiCad,Pcbnew,5.1.0-060a0da~80~ubuntu16.04.1*
G04 #@! TF.CreationDate,2019-03-30T07:05:20+09:00*
G04 #@! TF.ProjectId,Akashi-02,416b6173-6869-42d3-9032-2e6b69636164,rev?*
G04 #@! TF.SameCoordinates,Original*
G04 #@! TF.FileFunction,Legend,Top*
G04 #@! TF.FilePolarity,Positive*
%FSLAX46Y46*%
G04 Gerber Fmt 4.6, Leading zero omitted, Abs format (unit mm)*
G04 Created by KiCad (PCBNEW 5.1.0-060a0da~80~ubuntu16.04.1) date 2019-03-30 07:05:20*
%MOMM*%
%LPD*%
G04 APERTURE LIST*
%ADD10C,0.150000*%
%ADD11C,0.120000*%
%ADD12C,0.100000*%
%ADD13C,0.500000*%
%ADD14O,1.802000X1.802000*%
%ADD15R,1.802000X1.802000*%
%ADD16C,1.602000*%
%ADD17O,1.702000X1.702000*%
%ADD18C,1.702000*%
%ADD19C,1.626000*%
%ADD20C,1.902000*%
%ADD21R,1.902000X1.902000*%
G04 APERTURE END LIST*
D10*
X126103095Y-133167380D02*
X126103095Y-132167380D01*
X126674523Y-133167380D02*
X126245952Y-132595952D01*
X126674523Y-132167380D02*
X126103095Y-132738809D01*
X124833095Y-131897380D02*
X124833095Y-130897380D01*
X125404523Y-131897380D02*
X124975952Y-131325952D01*
X125404523Y-130897380D02*
X124833095Y-131468809D01*
X123317142Y-134389761D02*
X123460000Y-134437380D01*
X123698095Y-134437380D01*
X123793333Y-134389761D01*
X123840952Y-134342142D01*
X123888571Y-134246904D01*
X123888571Y-134151666D01*
X123840952Y-134056428D01*
X123793333Y-134008809D01*
X123698095Y-133961190D01*
X123507619Y-133913571D01*
X123412380Y-133865952D01*
X123364761Y-133818333D01*
X123317142Y-133723095D01*
X123317142Y-133627857D01*
X123364761Y-133532619D01*
X123412380Y-133485000D01*
X123507619Y-133437380D01*
X123745714Y-133437380D01*
X123888571Y-133485000D01*
X124174285Y-133437380D02*
X124745714Y-133437380D01*
X124460000Y-134437380D02*
X124460000Y-133437380D01*
X125269523Y-133437380D02*
X125364761Y-133437380D01*
X125460000Y-133485000D01*
X125507619Y-133532619D01*
X125555238Y-133627857D01*
X125602857Y-133818333D01*
X125602857Y-134056428D01*
X125555238Y-134246904D01*
X125507619Y-134342142D01*
X125460000Y-134389761D01*
X125364761Y-134437380D01*
X125269523Y-134437380D01*
X125174285Y-134389761D01*
X125126666Y-134342142D01*
X125079047Y-134246904D01*
X125031428Y-134056428D01*
X125031428Y-133818333D01*
X125079047Y-133627857D01*
X125126666Y-133532619D01*
X125174285Y-133485000D01*
X125269523Y-133437380D01*
X131572142Y-134389761D02*
X131715000Y-134437380D01*
X131953095Y-134437380D01*
X132048333Y-134389761D01*
X132095952Y-134342142D01*
X132143571Y-134246904D01*
X132143571Y-134151666D01*
X132095952Y-134056428D01*
X132048333Y-134008809D01*
X131953095Y-133961190D01*
X131762619Y-133913571D01*
X131667380Y-133865952D01*
X131619761Y-133818333D01*
X131572142Y-133723095D01*
X131572142Y-133627857D01*
X131619761Y-133532619D01*
X131667380Y-133485000D01*
X131762619Y-133437380D01*
X132000714Y-133437380D01*
X132143571Y-133485000D01*
X132429285Y-133437380D02*
X133000714Y-133437380D01*
X132715000Y-134437380D02*
X132715000Y-133437380D01*
X133857857Y-134437380D02*
X133286428Y-134437380D01*
X133572142Y-134437380D02*
X133572142Y-133437380D01*
X133476904Y-133580238D01*
X133381666Y-133675476D01*
X133286428Y-133723095D01*
D11*
X115570000Y-77470000D02*
X115570000Y-101600000D01*
X113030000Y-77470000D02*
X115570000Y-77470000D01*
X113030000Y-78740000D02*
X113030000Y-77470000D01*
X113030000Y-101600000D02*
X113030000Y-78740000D01*
X115570000Y-101600000D02*
X113030000Y-101600000D01*
X138430000Y-125730000D02*
X140970000Y-125730000D01*
X138430000Y-90170000D02*
X138430000Y-125730000D01*
X140970000Y-90170000D02*
X138430000Y-90170000D01*
X139065000Y-72390000D02*
X134620000Y-72390000D01*
X139065000Y-79375000D02*
X139065000Y-72390000D01*
X121920000Y-79375000D02*
X139065000Y-79375000D01*
X121920000Y-74930000D02*
X121920000Y-79375000D01*
D12*
G36*
X134620000Y-74930000D02*
G01*
X121920000Y-74930000D01*
X121920000Y-72390000D01*
X134620000Y-72390000D01*
X134620000Y-74930000D01*
G37*
X134620000Y-74930000D02*
X121920000Y-74930000D01*
X121920000Y-72390000D01*
X134620000Y-72390000D01*
X134620000Y-74930000D01*
D10*
X122255595Y-76097380D02*
X122255595Y-76906904D01*
X122303214Y-77002142D01*
X122350833Y-77049761D01*
X122446071Y-77097380D01*
X122636547Y-77097380D01*
X122731785Y-77049761D01*
X122779404Y-77002142D01*
X122827023Y-76906904D01*
X122827023Y-76097380D01*
X123303214Y-77097380D02*
X123303214Y-76097380D01*
X123636547Y-76811666D01*
X123969880Y-76097380D01*
X123969880Y-77097380D01*
X124779404Y-76573571D02*
X124922261Y-76621190D01*
X124969880Y-76668809D01*
X125017500Y-76764047D01*
X125017500Y-76906904D01*
X124969880Y-77002142D01*
X124922261Y-77049761D01*
X124827023Y-77097380D01*
X124446071Y-77097380D01*
X124446071Y-76097380D01*
X124779404Y-76097380D01*
X124874642Y-76145000D01*
X124922261Y-76192619D01*
X124969880Y-76287857D01*
X124969880Y-76383095D01*
X124922261Y-76478333D01*
X124874642Y-76525952D01*
X124779404Y-76573571D01*
X124446071Y-76573571D01*
X125446071Y-76716428D02*
X126207976Y-76716428D01*
X126636547Y-77049761D02*
X126779404Y-77097380D01*
X127017500Y-77097380D01*
X127112738Y-77049761D01*
X127160357Y-77002142D01*
X127207976Y-76906904D01*
X127207976Y-76811666D01*
X127160357Y-76716428D01*
X127112738Y-76668809D01*
X127017500Y-76621190D01*
X126827023Y-76573571D01*
X126731785Y-76525952D01*
X126684166Y-76478333D01*
X126636547Y-76383095D01*
X126636547Y-76287857D01*
X126684166Y-76192619D01*
X126731785Y-76145000D01*
X126827023Y-76097380D01*
X127065119Y-76097380D01*
X127207976Y-76145000D01*
X127588928Y-77049761D02*
X127731785Y-77097380D01*
X127969880Y-77097380D01*
X128065119Y-77049761D01*
X128112738Y-77002142D01*
X128160357Y-76906904D01*
X128160357Y-76811666D01*
X128112738Y-76716428D01*
X128065119Y-76668809D01*
X127969880Y-76621190D01*
X127779404Y-76573571D01*
X127684166Y-76525952D01*
X127636547Y-76478333D01*
X127588928Y-76383095D01*
X127588928Y-76287857D01*
X127636547Y-76192619D01*
X127684166Y-76145000D01*
X127779404Y-76097380D01*
X128017500Y-76097380D01*
X128160357Y-76145000D01*
X128588928Y-77097380D02*
X128588928Y-76097380D01*
X128922261Y-76811666D01*
X129255595Y-76097380D01*
X129255595Y-77097380D01*
X129684166Y-76192619D02*
X129731785Y-76145000D01*
X129827023Y-76097380D01*
X130065119Y-76097380D01*
X130160357Y-76145000D01*
X130207976Y-76192619D01*
X130255595Y-76287857D01*
X130255595Y-76383095D01*
X130207976Y-76525952D01*
X129636547Y-77097380D01*
X130255595Y-77097380D01*
X131112738Y-76097380D02*
X130922261Y-76097380D01*
X130827023Y-76145000D01*
X130779404Y-76192619D01*
X130684166Y-76335476D01*
X130636547Y-76525952D01*
X130636547Y-76906904D01*
X130684166Y-77002142D01*
X130731785Y-77049761D01*
X130827023Y-77097380D01*
X131017500Y-77097380D01*
X131112738Y-77049761D01*
X131160357Y-77002142D01*
X131207976Y-76906904D01*
X131207976Y-76668809D01*
X131160357Y-76573571D01*
X131112738Y-76525952D01*
X131017500Y-76478333D01*
X130827023Y-76478333D01*
X130731785Y-76525952D01*
X130684166Y-76573571D01*
X130636547Y-76668809D01*
X131827023Y-76097380D02*
X131922261Y-76097380D01*
X132017500Y-76145000D01*
X132065119Y-76192619D01*
X132112738Y-76287857D01*
X132160357Y-76478333D01*
X132160357Y-76716428D01*
X132112738Y-76906904D01*
X132065119Y-77002142D01*
X132017500Y-77049761D01*
X131922261Y-77097380D01*
X131827023Y-77097380D01*
X131731785Y-77049761D01*
X131684166Y-77002142D01*
X131636547Y-76906904D01*
X131588928Y-76716428D01*
X131588928Y-76478333D01*
X131636547Y-76287857D01*
X131684166Y-76192619D01*
X131731785Y-76145000D01*
X131827023Y-76097380D01*
X132493690Y-76097380D02*
X133112738Y-76097380D01*
X132779404Y-76478333D01*
X132922261Y-76478333D01*
X133017500Y-76525952D01*
X133065119Y-76573571D01*
X133112738Y-76668809D01*
X133112738Y-76906904D01*
X133065119Y-77002142D01*
X133017500Y-77049761D01*
X132922261Y-77097380D01*
X132636547Y-77097380D01*
X132541309Y-77049761D01*
X132493690Y-77002142D01*
X133874642Y-76573571D02*
X134017500Y-76621190D01*
X134065119Y-76668809D01*
X134112738Y-76764047D01*
X134112738Y-76906904D01*
X134065119Y-77002142D01*
X134017500Y-77049761D01*
X133922261Y-77097380D01*
X133541309Y-77097380D01*
X133541309Y-76097380D01*
X133874642Y-76097380D01*
X133969880Y-76145000D01*
X134017500Y-76192619D01*
X134065119Y-76287857D01*
X134065119Y-76383095D01*
X134017500Y-76478333D01*
X133969880Y-76525952D01*
X133874642Y-76573571D01*
X133541309Y-76573571D01*
X122255595Y-78747380D02*
X122255595Y-78080714D01*
X122255595Y-78175952D02*
X122303214Y-78128333D01*
X122398452Y-78080714D01*
X122541309Y-78080714D01*
X122636547Y-78128333D01*
X122684166Y-78223571D01*
X122684166Y-78747380D01*
X122684166Y-78223571D02*
X122731785Y-78128333D01*
X122827023Y-78080714D01*
X122969880Y-78080714D01*
X123065119Y-78128333D01*
X123112738Y-78223571D01*
X123112738Y-78747380D01*
X124017500Y-78080714D02*
X124017500Y-78747380D01*
X123588928Y-78080714D02*
X123588928Y-78604523D01*
X123636547Y-78699761D01*
X123731785Y-78747380D01*
X123874642Y-78747380D01*
X123969880Y-78699761D01*
X124017500Y-78652142D01*
X124446071Y-78699761D02*
X124541309Y-78747380D01*
X124731785Y-78747380D01*
X124827023Y-78699761D01*
X124874642Y-78604523D01*
X124874642Y-78556904D01*
X124827023Y-78461666D01*
X124731785Y-78414047D01*
X124588928Y-78414047D01*
X124493690Y-78366428D01*
X124446071Y-78271190D01*
X124446071Y-78223571D01*
X124493690Y-78128333D01*
X124588928Y-78080714D01*
X124731785Y-78080714D01*
X124827023Y-78128333D01*
X125160357Y-78080714D02*
X125541309Y-78080714D01*
X125303214Y-77747380D02*
X125303214Y-78604523D01*
X125350833Y-78699761D01*
X125446071Y-78747380D01*
X125541309Y-78747380D01*
X127065119Y-78080714D02*
X127065119Y-78747380D01*
X126636547Y-78080714D02*
X126636547Y-78604523D01*
X126684166Y-78699761D01*
X126779404Y-78747380D01*
X126922261Y-78747380D01*
X127017500Y-78699761D01*
X127065119Y-78652142D01*
X127493690Y-78699761D02*
X127588928Y-78747380D01*
X127779404Y-78747380D01*
X127874642Y-78699761D01*
X127922261Y-78604523D01*
X127922261Y-78556904D01*
X127874642Y-78461666D01*
X127779404Y-78414047D01*
X127636547Y-78414047D01*
X127541309Y-78366428D01*
X127493690Y-78271190D01*
X127493690Y-78223571D01*
X127541309Y-78128333D01*
X127636547Y-78080714D01*
X127779404Y-78080714D01*
X127874642Y-78128333D01*
X128731785Y-78699761D02*
X128636547Y-78747380D01*
X128446071Y-78747380D01*
X128350833Y-78699761D01*
X128303214Y-78604523D01*
X128303214Y-78223571D01*
X128350833Y-78128333D01*
X128446071Y-78080714D01*
X128636547Y-78080714D01*
X128731785Y-78128333D01*
X128779404Y-78223571D01*
X128779404Y-78318809D01*
X128303214Y-78414047D01*
X129827023Y-78080714D02*
X130207976Y-78080714D01*
X129969880Y-77747380D02*
X129969880Y-78604523D01*
X130017500Y-78699761D01*
X130112738Y-78747380D01*
X130207976Y-78747380D01*
X130541309Y-78747380D02*
X130541309Y-77747380D01*
X130969880Y-78747380D02*
X130969880Y-78223571D01*
X130922261Y-78128333D01*
X130827023Y-78080714D01*
X130684166Y-78080714D01*
X130588928Y-78128333D01*
X130541309Y-78175952D01*
X131827023Y-78699761D02*
X131731785Y-78747380D01*
X131541309Y-78747380D01*
X131446071Y-78699761D01*
X131398452Y-78604523D01*
X131398452Y-78223571D01*
X131446071Y-78128333D01*
X131541309Y-78080714D01*
X131731785Y-78080714D01*
X131827023Y-78128333D01*
X131874642Y-78223571D01*
X131874642Y-78318809D01*
X131398452Y-78414047D01*
X132255595Y-78699761D02*
X132350833Y-78747380D01*
X132541309Y-78747380D01*
X132636547Y-78699761D01*
X132684166Y-78604523D01*
X132684166Y-78556904D01*
X132636547Y-78461666D01*
X132541309Y-78414047D01*
X132398452Y-78414047D01*
X132303214Y-78366428D01*
X132255595Y-78271190D01*
X132255595Y-78223571D01*
X132303214Y-78128333D01*
X132398452Y-78080714D01*
X132541309Y-78080714D01*
X132636547Y-78128333D01*
X133493690Y-78699761D02*
X133398452Y-78747380D01*
X133207976Y-78747380D01*
X133112738Y-78699761D01*
X133065119Y-78604523D01*
X133065119Y-78223571D01*
X133112738Y-78128333D01*
X133207976Y-78080714D01*
X133398452Y-78080714D01*
X133493690Y-78128333D01*
X133541309Y-78223571D01*
X133541309Y-78318809D01*
X133065119Y-78414047D01*
X134731785Y-78747380D02*
X134731785Y-77747380D01*
X135160357Y-78747380D02*
X135160357Y-78223571D01*
X135112738Y-78128333D01*
X135017500Y-78080714D01*
X134874642Y-78080714D01*
X134779404Y-78128333D01*
X134731785Y-78175952D01*
X135779404Y-78747380D02*
X135684166Y-78699761D01*
X135636547Y-78652142D01*
X135588928Y-78556904D01*
X135588928Y-78271190D01*
X135636547Y-78175952D01*
X135684166Y-78128333D01*
X135779404Y-78080714D01*
X135922261Y-78080714D01*
X136017500Y-78128333D01*
X136065119Y-78175952D01*
X136112738Y-78271190D01*
X136112738Y-78556904D01*
X136065119Y-78652142D01*
X136017500Y-78699761D01*
X135922261Y-78747380D01*
X135779404Y-78747380D01*
X136684166Y-78747380D02*
X136588928Y-78699761D01*
X136541309Y-78604523D01*
X136541309Y-77747380D01*
X137446071Y-78699761D02*
X137350833Y-78747380D01*
X137160357Y-78747380D01*
X137065119Y-78699761D01*
X137017500Y-78604523D01*
X137017500Y-78223571D01*
X137065119Y-78128333D01*
X137160357Y-78080714D01*
X137350833Y-78080714D01*
X137446071Y-78128333D01*
X137493690Y-78223571D01*
X137493690Y-78318809D01*
X137017500Y-78414047D01*
X137874642Y-78699761D02*
X137969880Y-78747380D01*
X138160357Y-78747380D01*
X138255595Y-78699761D01*
X138303214Y-78604523D01*
X138303214Y-78556904D01*
X138255595Y-78461666D01*
X138160357Y-78414047D01*
X138017500Y-78414047D01*
X137922261Y-78366428D01*
X137874642Y-78271190D01*
X137874642Y-78223571D01*
X137922261Y-78128333D01*
X138017500Y-78080714D01*
X138160357Y-78080714D01*
X138255595Y-78128333D01*
X139152380Y-123394523D02*
X139961904Y-123394523D01*
X140057142Y-123346904D01*
X140104761Y-123299285D01*
X140152380Y-123204047D01*
X140152380Y-123013571D01*
X140104761Y-122918333D01*
X140057142Y-122870714D01*
X139961904Y-122823095D01*
X139152380Y-122823095D01*
X140152380Y-122346904D02*
X139152380Y-122346904D01*
X139866666Y-122013571D01*
X139152380Y-121680238D01*
X140152380Y-121680238D01*
X139628571Y-120870714D02*
X139676190Y-120727857D01*
X139723809Y-120680238D01*
X139819047Y-120632619D01*
X139961904Y-120632619D01*
X140057142Y-120680238D01*
X140104761Y-120727857D01*
X140152380Y-120823095D01*
X140152380Y-121204047D01*
X139152380Y-121204047D01*
X139152380Y-120870714D01*
X139200000Y-120775476D01*
X139247619Y-120727857D01*
X139342857Y-120680238D01*
X139438095Y-120680238D01*
X139533333Y-120727857D01*
X139580952Y-120775476D01*
X139628571Y-120870714D01*
X139628571Y-121204047D01*
X139771428Y-120204047D02*
X139771428Y-119442142D01*
X139866666Y-119013571D02*
X139866666Y-118537380D01*
X140152380Y-119108809D02*
X139152380Y-118775476D01*
X140152380Y-118442142D01*
X140152380Y-118108809D02*
X139152380Y-118108809D01*
X139152380Y-117870714D01*
X139200000Y-117727857D01*
X139295238Y-117632619D01*
X139390476Y-117585000D01*
X139580952Y-117537380D01*
X139723809Y-117537380D01*
X139914285Y-117585000D01*
X140009523Y-117632619D01*
X140104761Y-117727857D01*
X140152380Y-117870714D01*
X140152380Y-118108809D01*
X139866666Y-117156428D02*
X139866666Y-116680238D01*
X140152380Y-117251666D02*
X139152380Y-116918333D01*
X140152380Y-116585000D01*
X139152380Y-116251666D02*
X139961904Y-116251666D01*
X140057142Y-116204047D01*
X140104761Y-116156428D01*
X140152380Y-116061190D01*
X140152380Y-115870714D01*
X140104761Y-115775476D01*
X140057142Y-115727857D01*
X139961904Y-115680238D01*
X139152380Y-115680238D01*
X140152380Y-114680238D02*
X140152380Y-115251666D01*
X140152380Y-114965952D02*
X139152380Y-114965952D01*
X139295238Y-115061190D01*
X139390476Y-115156428D01*
X139438095Y-115251666D01*
X139152380Y-114346904D02*
X139152380Y-113727857D01*
X139533333Y-114061190D01*
X139533333Y-113918333D01*
X139580952Y-113823095D01*
X139628571Y-113775476D01*
X139723809Y-113727857D01*
X139961904Y-113727857D01*
X140057142Y-113775476D01*
X140104761Y-113823095D01*
X140152380Y-113918333D01*
X140152380Y-114204047D01*
X140104761Y-114299285D01*
X140057142Y-114346904D01*
X139152380Y-112870714D02*
X139152380Y-113061190D01*
X139200000Y-113156428D01*
X139247619Y-113204047D01*
X139390476Y-113299285D01*
X139580952Y-113346904D01*
X139961904Y-113346904D01*
X140057142Y-113299285D01*
X140104761Y-113251666D01*
X140152380Y-113156428D01*
X140152380Y-112965952D01*
X140104761Y-112870714D01*
X140057142Y-112823095D01*
X139961904Y-112775476D01*
X139723809Y-112775476D01*
X139628571Y-112823095D01*
X139580952Y-112870714D01*
X139533333Y-112965952D01*
X139533333Y-113156428D01*
X139580952Y-113251666D01*
X139628571Y-113299285D01*
X139723809Y-113346904D01*
X140152380Y-111823095D02*
X140152380Y-112394523D01*
X140152380Y-112108809D02*
X139152380Y-112108809D01*
X139295238Y-112204047D01*
X139390476Y-112299285D01*
X139438095Y-112394523D01*
X139866666Y-111442142D02*
X139866666Y-110965952D01*
X140152380Y-111537380D02*
X139152380Y-111204047D01*
X140152380Y-110870714D01*
X140152380Y-109775476D02*
X139485714Y-109775476D01*
X139580952Y-109775476D02*
X139533333Y-109727857D01*
X139485714Y-109632619D01*
X139485714Y-109489761D01*
X139533333Y-109394523D01*
X139628571Y-109346904D01*
X140152380Y-109346904D01*
X139628571Y-109346904D02*
X139533333Y-109299285D01*
X139485714Y-109204047D01*
X139485714Y-109061190D01*
X139533333Y-108965952D01*
X139628571Y-108918333D01*
X140152380Y-108918333D01*
X139485714Y-108013571D02*
X140152380Y-108013571D01*
X139485714Y-108442142D02*
X140009523Y-108442142D01*
X140104761Y-108394523D01*
X140152380Y-108299285D01*
X140152380Y-108156428D01*
X140104761Y-108061190D01*
X140057142Y-108013571D01*
X140104761Y-107585000D02*
X140152380Y-107489761D01*
X140152380Y-107299285D01*
X140104761Y-107204047D01*
X140009523Y-107156428D01*
X139961904Y-107156428D01*
X139866666Y-107204047D01*
X139819047Y-107299285D01*
X139819047Y-107442142D01*
X139771428Y-107537380D01*
X139676190Y-107585000D01*
X139628571Y-107585000D01*
X139533333Y-107537380D01*
X139485714Y-107442142D01*
X139485714Y-107299285D01*
X139533333Y-107204047D01*
X139485714Y-106870714D02*
X139485714Y-106489761D01*
X139152380Y-106727857D02*
X140009523Y-106727857D01*
X140104761Y-106680238D01*
X140152380Y-106585000D01*
X140152380Y-106489761D01*
X139485714Y-104965952D02*
X140152380Y-104965952D01*
X139485714Y-105394523D02*
X140009523Y-105394523D01*
X140104761Y-105346904D01*
X140152380Y-105251666D01*
X140152380Y-105108809D01*
X140104761Y-105013571D01*
X140057142Y-104965952D01*
X140104761Y-104537380D02*
X140152380Y-104442142D01*
X140152380Y-104251666D01*
X140104761Y-104156428D01*
X140009523Y-104108809D01*
X139961904Y-104108809D01*
X139866666Y-104156428D01*
X139819047Y-104251666D01*
X139819047Y-104394523D01*
X139771428Y-104489761D01*
X139676190Y-104537380D01*
X139628571Y-104537380D01*
X139533333Y-104489761D01*
X139485714Y-104394523D01*
X139485714Y-104251666D01*
X139533333Y-104156428D01*
X140104761Y-103299285D02*
X140152380Y-103394523D01*
X140152380Y-103585000D01*
X140104761Y-103680238D01*
X140009523Y-103727857D01*
X139628571Y-103727857D01*
X139533333Y-103680238D01*
X139485714Y-103585000D01*
X139485714Y-103394523D01*
X139533333Y-103299285D01*
X139628571Y-103251666D01*
X139723809Y-103251666D01*
X139819047Y-103727857D01*
X139485714Y-102204047D02*
X139485714Y-101823095D01*
X139152380Y-102061190D02*
X140009523Y-102061190D01*
X140104761Y-102013571D01*
X140152380Y-101918333D01*
X140152380Y-101823095D01*
X140152380Y-101489761D02*
X139152380Y-101489761D01*
X140152380Y-101061190D02*
X139628571Y-101061190D01*
X139533333Y-101108809D01*
X139485714Y-101204047D01*
X139485714Y-101346904D01*
X139533333Y-101442142D01*
X139580952Y-101489761D01*
X140104761Y-100204047D02*
X140152380Y-100299285D01*
X140152380Y-100489761D01*
X140104761Y-100585000D01*
X140009523Y-100632619D01*
X139628571Y-100632619D01*
X139533333Y-100585000D01*
X139485714Y-100489761D01*
X139485714Y-100299285D01*
X139533333Y-100204047D01*
X139628571Y-100156428D01*
X139723809Y-100156428D01*
X139819047Y-100632619D01*
X140104761Y-99775476D02*
X140152380Y-99680238D01*
X140152380Y-99489761D01*
X140104761Y-99394523D01*
X140009523Y-99346904D01*
X139961904Y-99346904D01*
X139866666Y-99394523D01*
X139819047Y-99489761D01*
X139819047Y-99632619D01*
X139771428Y-99727857D01*
X139676190Y-99775476D01*
X139628571Y-99775476D01*
X139533333Y-99727857D01*
X139485714Y-99632619D01*
X139485714Y-99489761D01*
X139533333Y-99394523D01*
X140104761Y-98537380D02*
X140152380Y-98632619D01*
X140152380Y-98823095D01*
X140104761Y-98918333D01*
X140009523Y-98965952D01*
X139628571Y-98965952D01*
X139533333Y-98918333D01*
X139485714Y-98823095D01*
X139485714Y-98632619D01*
X139533333Y-98537380D01*
X139628571Y-98489761D01*
X139723809Y-98489761D01*
X139819047Y-98965952D01*
X140152380Y-97299285D02*
X139152380Y-97299285D01*
X140152380Y-96870714D02*
X139628571Y-96870714D01*
X139533333Y-96918333D01*
X139485714Y-97013571D01*
X139485714Y-97156428D01*
X139533333Y-97251666D01*
X139580952Y-97299285D01*
X140152380Y-96251666D02*
X140104761Y-96346904D01*
X140057142Y-96394523D01*
X139961904Y-96442142D01*
X139676190Y-96442142D01*
X139580952Y-96394523D01*
X139533333Y-96346904D01*
X139485714Y-96251666D01*
X139485714Y-96108809D01*
X139533333Y-96013571D01*
X139580952Y-95965952D01*
X139676190Y-95918333D01*
X139961904Y-95918333D01*
X140057142Y-95965952D01*
X140104761Y-96013571D01*
X140152380Y-96108809D01*
X140152380Y-96251666D01*
X140152380Y-95346904D02*
X140104761Y-95442142D01*
X140009523Y-95489761D01*
X139152380Y-95489761D01*
X140104761Y-94585000D02*
X140152380Y-94680238D01*
X140152380Y-94870714D01*
X140104761Y-94965952D01*
X140009523Y-95013571D01*
X139628571Y-95013571D01*
X139533333Y-94965952D01*
X139485714Y-94870714D01*
X139485714Y-94680238D01*
X139533333Y-94585000D01*
X139628571Y-94537380D01*
X139723809Y-94537380D01*
X139819047Y-95013571D01*
X140104761Y-94156428D02*
X140152380Y-94061190D01*
X140152380Y-93870714D01*
X140104761Y-93775476D01*
X140009523Y-93727857D01*
X139961904Y-93727857D01*
X139866666Y-93775476D01*
X139819047Y-93870714D01*
X139819047Y-94013571D01*
X139771428Y-94108809D01*
X139676190Y-94156428D01*
X139628571Y-94156428D01*
X139533333Y-94108809D01*
X139485714Y-94013571D01*
X139485714Y-93870714D01*
X139533333Y-93775476D01*
D12*
G36*
X143510000Y-125730000D02*
G01*
X140970000Y-125730000D01*
X140970000Y-90170000D01*
X143510000Y-90170000D01*
X143510000Y-125730000D01*
G37*
X143510000Y-125730000D02*
X140970000Y-125730000D01*
X140970000Y-90170000D01*
X143510000Y-90170000D01*
X143510000Y-125730000D01*
D10*
X114657142Y-93644404D02*
X114704761Y-93596785D01*
X114752380Y-93644404D01*
X114704761Y-93692023D01*
X114657142Y-93644404D01*
X114752380Y-93644404D01*
X114133333Y-93644404D02*
X114180952Y-93596785D01*
X114228571Y-93644404D01*
X114180952Y-93692023D01*
X114133333Y-93644404D01*
X114228571Y-93644404D01*
X114466666Y-93215833D02*
X114466666Y-92739642D01*
X114752380Y-93311071D02*
X113752380Y-92977738D01*
X114752380Y-92644404D01*
X114752380Y-92311071D02*
X113752380Y-92311071D01*
X113752380Y-92072976D01*
X113800000Y-91930119D01*
X113895238Y-91834880D01*
X113990476Y-91787261D01*
X114180952Y-91739642D01*
X114323809Y-91739642D01*
X114514285Y-91787261D01*
X114609523Y-91834880D01*
X114704761Y-91930119D01*
X114752380Y-92072976D01*
X114752380Y-92311071D01*
X114466666Y-91358690D02*
X114466666Y-90882500D01*
X114752380Y-91453928D02*
X113752380Y-91120595D01*
X114752380Y-90787261D01*
X113752380Y-90453928D02*
X114561904Y-90453928D01*
X114657142Y-90406309D01*
X114704761Y-90358690D01*
X114752380Y-90263452D01*
X114752380Y-90072976D01*
X114704761Y-89977738D01*
X114657142Y-89930119D01*
X114561904Y-89882500D01*
X113752380Y-89882500D01*
X114752380Y-88882500D02*
X114752380Y-89453928D01*
X114752380Y-89168214D02*
X113752380Y-89168214D01*
X113895238Y-89263452D01*
X113990476Y-89358690D01*
X114038095Y-89453928D01*
X113752380Y-88549166D02*
X113752380Y-87930119D01*
X114133333Y-88263452D01*
X114133333Y-88120595D01*
X114180952Y-88025357D01*
X114228571Y-87977738D01*
X114323809Y-87930119D01*
X114561904Y-87930119D01*
X114657142Y-87977738D01*
X114704761Y-88025357D01*
X114752380Y-88120595D01*
X114752380Y-88406309D01*
X114704761Y-88501547D01*
X114657142Y-88549166D01*
X113752380Y-87072976D02*
X113752380Y-87263452D01*
X113800000Y-87358690D01*
X113847619Y-87406309D01*
X113990476Y-87501547D01*
X114180952Y-87549166D01*
X114561904Y-87549166D01*
X114657142Y-87501547D01*
X114704761Y-87453928D01*
X114752380Y-87358690D01*
X114752380Y-87168214D01*
X114704761Y-87072976D01*
X114657142Y-87025357D01*
X114561904Y-86977738D01*
X114323809Y-86977738D01*
X114228571Y-87025357D01*
X114180952Y-87072976D01*
X114133333Y-87168214D01*
X114133333Y-87358690D01*
X114180952Y-87453928D01*
X114228571Y-87501547D01*
X114323809Y-87549166D01*
X114752380Y-86025357D02*
X114752380Y-86596785D01*
X114752380Y-86311071D02*
X113752380Y-86311071D01*
X113895238Y-86406309D01*
X113990476Y-86501547D01*
X114038095Y-86596785D01*
X114371428Y-85596785D02*
X114371428Y-84834880D01*
X114085714Y-84358690D02*
X114371428Y-83596785D01*
X114657142Y-84358690D01*
X114704761Y-83168214D02*
X114752380Y-83025357D01*
X114752380Y-82787261D01*
X114704761Y-82692023D01*
X114657142Y-82644404D01*
X114561904Y-82596785D01*
X114466666Y-82596785D01*
X114371428Y-82644404D01*
X114323809Y-82692023D01*
X114276190Y-82787261D01*
X114228571Y-82977738D01*
X114180952Y-83072976D01*
X114133333Y-83120595D01*
X114038095Y-83168214D01*
X113942857Y-83168214D01*
X113847619Y-83120595D01*
X113800000Y-83072976D01*
X113752380Y-82977738D01*
X113752380Y-82739642D01*
X113800000Y-82596785D01*
X114752380Y-82168214D02*
X113752380Y-82168214D01*
X114228571Y-82168214D02*
X114228571Y-81596785D01*
X114752380Y-81596785D02*
X113752380Y-81596785D01*
X113752380Y-80930119D02*
X113752380Y-80739642D01*
X113800000Y-80644404D01*
X113895238Y-80549166D01*
X114085714Y-80501547D01*
X114419047Y-80501547D01*
X114609523Y-80549166D01*
X114704761Y-80644404D01*
X114752380Y-80739642D01*
X114752380Y-80930119D01*
X114704761Y-81025357D01*
X114609523Y-81120595D01*
X114419047Y-81168214D01*
X114085714Y-81168214D01*
X113895238Y-81120595D01*
X113800000Y-81025357D01*
X113752380Y-80930119D01*
X114752380Y-79501547D02*
X114276190Y-79834880D01*
X114752380Y-80072976D02*
X113752380Y-80072976D01*
X113752380Y-79692023D01*
X113800000Y-79596785D01*
X113847619Y-79549166D01*
X113942857Y-79501547D01*
X114085714Y-79501547D01*
X114180952Y-79549166D01*
X114228571Y-79596785D01*
X114276190Y-79692023D01*
X114276190Y-80072976D01*
X113752380Y-79215833D02*
X113752380Y-78644404D01*
X114752380Y-78930119D02*
X113752380Y-78930119D01*
D11*
X113300000Y-98360000D02*
G75*
G02X114000000Y-97660000I700000J0D01*
G01*
X114600000Y-97660000D02*
G75*
G02X115300000Y-98360000I0J-700000D01*
G01*
X115300000Y-99760000D02*
G75*
G02X114600000Y-100460000I-700000J0D01*
G01*
X114000000Y-100460000D02*
G75*
G02X113300000Y-99760000I0J700000D01*
G01*
X114600000Y-100460000D02*
X114000000Y-100460000D01*
X115300000Y-98360000D02*
X115300000Y-99760000D01*
X114000000Y-97660000D02*
X114600000Y-97660000D01*
X113300000Y-99760000D02*
X113300000Y-98360000D01*
X151070000Y-55820000D02*
X152400000Y-55820000D01*
X151070000Y-57150000D02*
X151070000Y-55820000D01*
X153670000Y-55820000D02*
X156270000Y-55820000D01*
X153670000Y-58420000D02*
X153670000Y-55820000D01*
X151070000Y-58420000D02*
X153670000Y-58420000D01*
X156270000Y-55820000D02*
X156270000Y-81340000D01*
X151070000Y-58420000D02*
X151070000Y-81340000D01*
X151070000Y-81340000D02*
X156270000Y-81340000D01*
X115250000Y-114300000D02*
G75*
G03X115250000Y-114300000I-950000J0D01*
G01*
X151070000Y-82490000D02*
X152400000Y-82490000D01*
X151070000Y-83820000D02*
X151070000Y-82490000D01*
X153670000Y-82490000D02*
X156270000Y-82490000D01*
X153670000Y-85090000D02*
X153670000Y-82490000D01*
X151070000Y-85090000D02*
X153670000Y-85090000D01*
X156270000Y-82490000D02*
X156270000Y-125790000D01*
X151070000Y-85090000D02*
X151070000Y-125790000D01*
X151070000Y-125790000D02*
X156270000Y-125790000D01*
X105350000Y-87570000D02*
X106680000Y-87570000D01*
X105350000Y-88900000D02*
X105350000Y-87570000D01*
X107950000Y-87570000D02*
X110550000Y-87570000D01*
X107950000Y-90170000D02*
X107950000Y-87570000D01*
X105350000Y-90170000D02*
X107950000Y-90170000D01*
X110550000Y-87570000D02*
X110550000Y-125790000D01*
X105350000Y-90170000D02*
X105350000Y-125790000D01*
X105350000Y-125790000D02*
X110550000Y-125790000D01*
X105350000Y-64710000D02*
X106680000Y-64710000D01*
X105350000Y-66040000D02*
X105350000Y-64710000D01*
X107950000Y-64710000D02*
X110550000Y-64710000D01*
X107950000Y-67310000D02*
X107950000Y-64710000D01*
X105350000Y-67310000D02*
X107950000Y-67310000D01*
X110550000Y-64710000D02*
X110550000Y-85150000D01*
X105350000Y-67310000D02*
X105350000Y-85150000D01*
X105350000Y-85150000D02*
X110550000Y-85150000D01*
X120420000Y-58420000D02*
X121190000Y-58420000D01*
X128500000Y-58420000D02*
X127730000Y-58420000D01*
X121190000Y-59790000D02*
X127730000Y-59790000D01*
X121190000Y-57050000D02*
X121190000Y-59790000D01*
X127730000Y-57050000D02*
X121190000Y-57050000D01*
X127730000Y-59790000D02*
X127730000Y-57050000D01*
X128500000Y-66040000D02*
X127730000Y-66040000D01*
X120420000Y-66040000D02*
X121190000Y-66040000D01*
X127730000Y-64670000D02*
X121190000Y-64670000D01*
X127730000Y-67410000D02*
X127730000Y-64670000D01*
X121190000Y-67410000D02*
X127730000Y-67410000D01*
X121190000Y-64670000D02*
X121190000Y-67410000D01*
X121190000Y-60860000D02*
X121190000Y-63600000D01*
X121190000Y-63600000D02*
X127730000Y-63600000D01*
X127730000Y-63600000D02*
X127730000Y-60860000D01*
X127730000Y-60860000D02*
X121190000Y-60860000D01*
X120420000Y-62230000D02*
X121190000Y-62230000D01*
X128500000Y-62230000D02*
X127730000Y-62230000D01*
X109760000Y-130710000D02*
X109760000Y-133450000D01*
X109760000Y-133450000D02*
X116300000Y-133450000D01*
X116300000Y-133450000D02*
X116300000Y-130710000D01*
X116300000Y-130710000D02*
X109760000Y-130710000D01*
X108990000Y-132080000D02*
X109760000Y-132080000D01*
X117070000Y-132080000D02*
X116300000Y-132080000D01*
X141700000Y-133450000D02*
X141700000Y-130710000D01*
X141700000Y-130710000D02*
X135160000Y-130710000D01*
X135160000Y-130710000D02*
X135160000Y-133450000D01*
X135160000Y-133450000D02*
X141700000Y-133450000D01*
X142470000Y-132080000D02*
X141700000Y-132080000D01*
X134390000Y-132080000D02*
X135160000Y-132080000D01*
X143740000Y-58420000D02*
X142970000Y-58420000D01*
X135660000Y-58420000D02*
X136430000Y-58420000D01*
X142970000Y-57050000D02*
X136430000Y-57050000D01*
X142970000Y-59790000D02*
X142970000Y-57050000D01*
X136430000Y-59790000D02*
X142970000Y-59790000D01*
X136430000Y-57050000D02*
X136430000Y-59790000D01*
X115250000Y-105410000D02*
G75*
G03X115250000Y-105410000I-950000J0D01*
G01*
X115250000Y-109220000D02*
G75*
G03X115250000Y-109220000I-950000J0D01*
G01*
X115250000Y-118110000D02*
G75*
G03X115250000Y-118110000I-950000J0D01*
G01*
X115250000Y-124460000D02*
G75*
G03X115250000Y-124460000I-950000J0D01*
G01*
X110170000Y-128270000D02*
G75*
G03X110170000Y-128270000I-950000J0D01*
G01*
D10*
X148590000Y-71120000D02*
X148590000Y-129540000D01*
X120650000Y-71120000D02*
X148590000Y-71120000D01*
X120650000Y-129540000D02*
X120650000Y-71120000D01*
X148590000Y-129540000D02*
X120650000Y-129540000D01*
D11*
X153350000Y-132080000D02*
G75*
G03X153350000Y-132080000I-950000J0D01*
G01*
X153350000Y-128270000D02*
G75*
G03X153350000Y-128270000I-950000J0D01*
G01*
X120878870Y-131000163D02*
G75*
G02X122960961Y-131000000I1041130J-1079837D01*
G01*
X120878870Y-133159837D02*
G75*
G03X122960961Y-133160000I1041130J1079837D01*
G01*
X120247665Y-131001392D02*
G75*
G02X123480000Y-130844484I1672335J-1078608D01*
G01*
X120247665Y-133158608D02*
G75*
G03X123480000Y-133315516I1672335J1078608D01*
G01*
X123480000Y-131000000D02*
X123480000Y-130844000D01*
X123480000Y-133316000D02*
X123480000Y-133160000D01*
X127980000Y-130844000D02*
X127980000Y-131000000D01*
X127980000Y-133160000D02*
X127980000Y-133316000D01*
X131212335Y-131001392D02*
G75*
G03X127980000Y-130844484I-1672335J-1078608D01*
G01*
X131212335Y-133158608D02*
G75*
G02X127980000Y-133315516I-1672335J1078608D01*
G01*
X130581130Y-131000163D02*
G75*
G03X128499039Y-131000000I-1041130J-1079837D01*
G01*
X130581130Y-133159837D02*
G75*
G02X128499039Y-133160000I-1041130J1079837D01*
G01*
X136430000Y-60860000D02*
X136430000Y-63600000D01*
X136430000Y-63600000D02*
X142970000Y-63600000D01*
X142970000Y-63600000D02*
X142970000Y-60860000D01*
X142970000Y-60860000D02*
X136430000Y-60860000D01*
X135660000Y-62230000D02*
X136430000Y-62230000D01*
X143740000Y-62230000D02*
X142970000Y-62230000D01*
X136430000Y-64670000D02*
X136430000Y-67410000D01*
X136430000Y-67410000D02*
X142970000Y-67410000D01*
X142970000Y-67410000D02*
X142970000Y-64670000D01*
X142970000Y-64670000D02*
X136430000Y-64670000D01*
X135660000Y-66040000D02*
X136430000Y-66040000D01*
X143740000Y-66040000D02*
X142970000Y-66040000D01*
D10*
X144780000Y-68580000D02*
X144780000Y-127000000D01*
X116840000Y-68580000D02*
X144780000Y-68580000D01*
X116840000Y-127000000D02*
X116840000Y-68580000D01*
X144780000Y-127000000D02*
X116840000Y-127000000D01*
D11*
X148905000Y-132080000D02*
G75*
G03X148905000Y-132080000I-950000J0D01*
G01*
D10*
X113752380Y-96083333D02*
X114466666Y-96083333D01*
X114609523Y-96130952D01*
X114704761Y-96226190D01*
X114752380Y-96369047D01*
X114752380Y-96464285D01*
X114752380Y-95607142D02*
X113752380Y-95607142D01*
X113752380Y-95226190D01*
X113800000Y-95130952D01*
X113847619Y-95083333D01*
X113942857Y-95035714D01*
X114085714Y-95035714D01*
X114180952Y-95083333D01*
X114228571Y-95130952D01*
X114276190Y-95226190D01*
X114276190Y-95607142D01*
X114752380Y-94083333D02*
X114752380Y-94654761D01*
X114752380Y-94369047D02*
X113752380Y-94369047D01*
X113895238Y-94464285D01*
X113990476Y-94559523D01*
X114038095Y-94654761D01*
X150217142Y-58475476D02*
X150264761Y-58523095D01*
X150312380Y-58665952D01*
X150312380Y-58761190D01*
X150264761Y-58904047D01*
X150169523Y-58999285D01*
X150074285Y-59046904D01*
X149883809Y-59094523D01*
X149740952Y-59094523D01*
X149550476Y-59046904D01*
X149455238Y-58999285D01*
X149360000Y-58904047D01*
X149312380Y-58761190D01*
X149312380Y-58665952D01*
X149360000Y-58523095D01*
X149407619Y-58475476D01*
X150312380Y-58046904D02*
X149312380Y-58046904D01*
X150312380Y-57475476D01*
X149312380Y-57475476D01*
X149312380Y-57094523D02*
X149312380Y-56427857D01*
X150312380Y-56856428D01*
X110498095Y-113752380D02*
X111069523Y-113752380D01*
X110783809Y-114752380D02*
X110783809Y-113752380D01*
X111402857Y-114752380D02*
X111402857Y-113752380D01*
X111783809Y-113752380D01*
X111879047Y-113800000D01*
X111926666Y-113847619D01*
X111974285Y-113942857D01*
X111974285Y-114085714D01*
X111926666Y-114180952D01*
X111879047Y-114228571D01*
X111783809Y-114276190D01*
X111402857Y-114276190D01*
X112307619Y-113752380D02*
X112926666Y-113752380D01*
X112593333Y-114133333D01*
X112736190Y-114133333D01*
X112831428Y-114180952D01*
X112879047Y-114228571D01*
X112926666Y-114323809D01*
X112926666Y-114561904D01*
X112879047Y-114657142D01*
X112831428Y-114704761D01*
X112736190Y-114752380D01*
X112450476Y-114752380D01*
X112355238Y-114704761D01*
X112307619Y-114657142D01*
X113061904Y-116216666D02*
X113538095Y-116216666D01*
X112966666Y-116502380D02*
X113300000Y-115502380D01*
X113633333Y-116502380D01*
X113966666Y-116502380D02*
X113966666Y-115502380D01*
X114204761Y-115502380D01*
X114347619Y-115550000D01*
X114442857Y-115645238D01*
X114490476Y-115740476D01*
X114538095Y-115930952D01*
X114538095Y-116073809D01*
X114490476Y-116264285D01*
X114442857Y-116359523D01*
X114347619Y-116454761D01*
X114204761Y-116502380D01*
X113966666Y-116502380D01*
X115538095Y-116407142D02*
X115490476Y-116454761D01*
X115347619Y-116502380D01*
X115252380Y-116502380D01*
X115109523Y-116454761D01*
X115014285Y-116359523D01*
X114966666Y-116264285D01*
X114919047Y-116073809D01*
X114919047Y-115930952D01*
X114966666Y-115740476D01*
X115014285Y-115645238D01*
X115109523Y-115550000D01*
X115252380Y-115502380D01*
X115347619Y-115502380D01*
X115490476Y-115550000D01*
X115538095Y-115597619D01*
X150217142Y-85621666D02*
X150264761Y-85669285D01*
X150312380Y-85812142D01*
X150312380Y-85907380D01*
X150264761Y-86050238D01*
X150169523Y-86145476D01*
X150074285Y-86193095D01*
X149883809Y-86240714D01*
X149740952Y-86240714D01*
X149550476Y-86193095D01*
X149455238Y-86145476D01*
X149360000Y-86050238D01*
X149312380Y-85907380D01*
X149312380Y-85812142D01*
X149360000Y-85669285D01*
X149407619Y-85621666D01*
X150312380Y-85193095D02*
X149312380Y-85193095D01*
X150312380Y-84621666D01*
X149312380Y-84621666D01*
X150312380Y-83621666D02*
X150312380Y-84193095D01*
X150312380Y-83907380D02*
X149312380Y-83907380D01*
X149455238Y-84002619D01*
X149550476Y-84097857D01*
X149598095Y-84193095D01*
X149312380Y-83002619D02*
X149312380Y-82907380D01*
X149360000Y-82812142D01*
X149407619Y-82764523D01*
X149502857Y-82716904D01*
X149693333Y-82669285D01*
X149931428Y-82669285D01*
X150121904Y-82716904D01*
X150217142Y-82764523D01*
X150264761Y-82812142D01*
X150312380Y-82907380D01*
X150312380Y-83002619D01*
X150264761Y-83097857D01*
X150217142Y-83145476D01*
X150121904Y-83193095D01*
X149931428Y-83240714D01*
X149693333Y-83240714D01*
X149502857Y-83193095D01*
X149407619Y-83145476D01*
X149360000Y-83097857D01*
X149312380Y-83002619D01*
X112117142Y-89590476D02*
X112164761Y-89638095D01*
X112212380Y-89780952D01*
X112212380Y-89876190D01*
X112164761Y-90019047D01*
X112069523Y-90114285D01*
X111974285Y-90161904D01*
X111783809Y-90209523D01*
X111640952Y-90209523D01*
X111450476Y-90161904D01*
X111355238Y-90114285D01*
X111260000Y-90019047D01*
X111212380Y-89876190D01*
X111212380Y-89780952D01*
X111260000Y-89638095D01*
X111307619Y-89590476D01*
X112212380Y-89161904D02*
X111212380Y-89161904D01*
X112212380Y-88590476D01*
X111212380Y-88590476D01*
X112212380Y-88066666D02*
X112212380Y-87876190D01*
X112164761Y-87780952D01*
X112117142Y-87733333D01*
X111974285Y-87638095D01*
X111783809Y-87590476D01*
X111402857Y-87590476D01*
X111307619Y-87638095D01*
X111260000Y-87685714D01*
X111212380Y-87780952D01*
X111212380Y-87971428D01*
X111260000Y-88066666D01*
X111307619Y-88114285D01*
X111402857Y-88161904D01*
X111640952Y-88161904D01*
X111736190Y-88114285D01*
X111783809Y-88066666D01*
X111831428Y-87971428D01*
X111831428Y-87780952D01*
X111783809Y-87685714D01*
X111736190Y-87638095D01*
X111640952Y-87590476D01*
X112117142Y-67365476D02*
X112164761Y-67413095D01*
X112212380Y-67555952D01*
X112212380Y-67651190D01*
X112164761Y-67794047D01*
X112069523Y-67889285D01*
X111974285Y-67936904D01*
X111783809Y-67984523D01*
X111640952Y-67984523D01*
X111450476Y-67936904D01*
X111355238Y-67889285D01*
X111260000Y-67794047D01*
X111212380Y-67651190D01*
X111212380Y-67555952D01*
X111260000Y-67413095D01*
X111307619Y-67365476D01*
X112212380Y-66936904D02*
X111212380Y-66936904D01*
X112212380Y-66365476D01*
X111212380Y-66365476D01*
X111640952Y-65746428D02*
X111593333Y-65841666D01*
X111545714Y-65889285D01*
X111450476Y-65936904D01*
X111402857Y-65936904D01*
X111307619Y-65889285D01*
X111260000Y-65841666D01*
X111212380Y-65746428D01*
X111212380Y-65555952D01*
X111260000Y-65460714D01*
X111307619Y-65413095D01*
X111402857Y-65365476D01*
X111450476Y-65365476D01*
X111545714Y-65413095D01*
X111593333Y-65460714D01*
X111640952Y-65555952D01*
X111640952Y-65746428D01*
X111688571Y-65841666D01*
X111736190Y-65889285D01*
X111831428Y-65936904D01*
X112021904Y-65936904D01*
X112117142Y-65889285D01*
X112164761Y-65841666D01*
X112212380Y-65746428D01*
X112212380Y-65555952D01*
X112164761Y-65460714D01*
X112117142Y-65413095D01*
X112021904Y-65365476D01*
X111831428Y-65365476D01*
X111736190Y-65413095D01*
X111688571Y-65460714D01*
X111640952Y-65555952D01*
X116673333Y-58872380D02*
X116340000Y-58396190D01*
X116101904Y-58872380D02*
X116101904Y-57872380D01*
X116482857Y-57872380D01*
X116578095Y-57920000D01*
X116625714Y-57967619D01*
X116673333Y-58062857D01*
X116673333Y-58205714D01*
X116625714Y-58300952D01*
X116578095Y-58348571D01*
X116482857Y-58396190D01*
X116101904Y-58396190D01*
X117625714Y-58872380D02*
X117054285Y-58872380D01*
X117340000Y-58872380D02*
X117340000Y-57872380D01*
X117244761Y-58015238D01*
X117149523Y-58110476D01*
X117054285Y-58158095D01*
X123650476Y-57872380D02*
X124269523Y-57872380D01*
X123936190Y-58253333D01*
X124079047Y-58253333D01*
X124174285Y-58300952D01*
X124221904Y-58348571D01*
X124269523Y-58443809D01*
X124269523Y-58681904D01*
X124221904Y-58777142D01*
X124174285Y-58824761D01*
X124079047Y-58872380D01*
X123793333Y-58872380D01*
X123698095Y-58824761D01*
X123650476Y-58777142D01*
X124602857Y-57872380D02*
X125221904Y-57872380D01*
X124888571Y-58253333D01*
X125031428Y-58253333D01*
X125126666Y-58300952D01*
X125174285Y-58348571D01*
X125221904Y-58443809D01*
X125221904Y-58681904D01*
X125174285Y-58777142D01*
X125126666Y-58824761D01*
X125031428Y-58872380D01*
X124745714Y-58872380D01*
X124650476Y-58824761D01*
X124602857Y-58777142D01*
X116673333Y-66492380D02*
X116340000Y-66016190D01*
X116101904Y-66492380D02*
X116101904Y-65492380D01*
X116482857Y-65492380D01*
X116578095Y-65540000D01*
X116625714Y-65587619D01*
X116673333Y-65682857D01*
X116673333Y-65825714D01*
X116625714Y-65920952D01*
X116578095Y-65968571D01*
X116482857Y-66016190D01*
X116101904Y-66016190D01*
X117006666Y-65492380D02*
X117625714Y-65492380D01*
X117292380Y-65873333D01*
X117435238Y-65873333D01*
X117530476Y-65920952D01*
X117578095Y-65968571D01*
X117625714Y-66063809D01*
X117625714Y-66301904D01*
X117578095Y-66397142D01*
X117530476Y-66444761D01*
X117435238Y-66492380D01*
X117149523Y-66492380D01*
X117054285Y-66444761D01*
X117006666Y-66397142D01*
X123531428Y-65825714D02*
X123531428Y-66492380D01*
X123293333Y-65444761D02*
X123055238Y-66159047D01*
X123674285Y-66159047D01*
X124055238Y-66397142D02*
X124102857Y-66444761D01*
X124055238Y-66492380D01*
X124007619Y-66444761D01*
X124055238Y-66397142D01*
X124055238Y-66492380D01*
X124436190Y-65492380D02*
X125102857Y-65492380D01*
X124674285Y-66492380D01*
X125483809Y-66492380D02*
X125483809Y-65492380D01*
X125579047Y-66111428D02*
X125864761Y-66492380D01*
X125864761Y-65825714D02*
X125483809Y-66206666D01*
X116673333Y-62682380D02*
X116340000Y-62206190D01*
X116101904Y-62682380D02*
X116101904Y-61682380D01*
X116482857Y-61682380D01*
X116578095Y-61730000D01*
X116625714Y-61777619D01*
X116673333Y-61872857D01*
X116673333Y-62015714D01*
X116625714Y-62110952D01*
X116578095Y-62158571D01*
X116482857Y-62206190D01*
X116101904Y-62206190D01*
X117530476Y-62015714D02*
X117530476Y-62682380D01*
X117292380Y-61634761D02*
X117054285Y-62349047D01*
X117673333Y-62349047D01*
X123650476Y-61682380D02*
X124269523Y-61682380D01*
X123936190Y-62063333D01*
X124079047Y-62063333D01*
X124174285Y-62110952D01*
X124221904Y-62158571D01*
X124269523Y-62253809D01*
X124269523Y-62491904D01*
X124221904Y-62587142D01*
X124174285Y-62634761D01*
X124079047Y-62682380D01*
X123793333Y-62682380D01*
X123698095Y-62634761D01*
X123650476Y-62587142D01*
X124602857Y-61682380D02*
X125221904Y-61682380D01*
X124888571Y-62063333D01*
X125031428Y-62063333D01*
X125126666Y-62110952D01*
X125174285Y-62158571D01*
X125221904Y-62253809D01*
X125221904Y-62491904D01*
X125174285Y-62587142D01*
X125126666Y-62634761D01*
X125031428Y-62682380D01*
X124745714Y-62682380D01*
X124650476Y-62634761D01*
X124602857Y-62587142D01*
X116038333Y-134437380D02*
X115705000Y-133961190D01*
X115466904Y-134437380D02*
X115466904Y-133437380D01*
X115847857Y-133437380D01*
X115943095Y-133485000D01*
X115990714Y-133532619D01*
X116038333Y-133627857D01*
X116038333Y-133770714D01*
X115990714Y-133865952D01*
X115943095Y-133913571D01*
X115847857Y-133961190D01*
X115466904Y-133961190D01*
X116943095Y-133437380D02*
X116466904Y-133437380D01*
X116419285Y-133913571D01*
X116466904Y-133865952D01*
X116562142Y-133818333D01*
X116800238Y-133818333D01*
X116895476Y-133865952D01*
X116943095Y-133913571D01*
X116990714Y-134008809D01*
X116990714Y-134246904D01*
X116943095Y-134342142D01*
X116895476Y-134389761D01*
X116800238Y-134437380D01*
X116562142Y-134437380D01*
X116466904Y-134389761D01*
X116419285Y-134342142D01*
X112910952Y-132532380D02*
X112339523Y-132532380D01*
X112625238Y-132532380D02*
X112625238Y-131532380D01*
X112530000Y-131675238D01*
X112434761Y-131770476D01*
X112339523Y-131818095D01*
X113339523Y-132532380D02*
X113339523Y-131532380D01*
X113434761Y-132151428D02*
X113720476Y-132532380D01*
X113720476Y-131865714D02*
X113339523Y-132246666D01*
X141438333Y-134437380D02*
X141105000Y-133961190D01*
X140866904Y-134437380D02*
X140866904Y-133437380D01*
X141247857Y-133437380D01*
X141343095Y-133485000D01*
X141390714Y-133532619D01*
X141438333Y-133627857D01*
X141438333Y-133770714D01*
X141390714Y-133865952D01*
X141343095Y-133913571D01*
X141247857Y-133961190D01*
X140866904Y-133961190D01*
X142295476Y-133437380D02*
X142105000Y-133437380D01*
X142009761Y-133485000D01*
X141962142Y-133532619D01*
X141866904Y-133675476D01*
X141819285Y-133865952D01*
X141819285Y-134246904D01*
X141866904Y-134342142D01*
X141914523Y-134389761D01*
X142009761Y-134437380D01*
X142200238Y-134437380D01*
X142295476Y-134389761D01*
X142343095Y-134342142D01*
X142390714Y-134246904D01*
X142390714Y-134008809D01*
X142343095Y-133913571D01*
X142295476Y-133865952D01*
X142200238Y-133818333D01*
X142009761Y-133818333D01*
X141914523Y-133865952D01*
X141866904Y-133913571D01*
X141819285Y-134008809D01*
X138310952Y-132532380D02*
X137739523Y-132532380D01*
X138025238Y-132532380D02*
X138025238Y-131532380D01*
X137930000Y-131675238D01*
X137834761Y-131770476D01*
X137739523Y-131818095D01*
X138739523Y-132532380D02*
X138739523Y-131532380D01*
X138834761Y-132151428D02*
X139120476Y-132532380D01*
X139120476Y-131865714D02*
X138739523Y-132246666D01*
X132548333Y-58872380D02*
X132215000Y-58396190D01*
X131976904Y-58872380D02*
X131976904Y-57872380D01*
X132357857Y-57872380D01*
X132453095Y-57920000D01*
X132500714Y-57967619D01*
X132548333Y-58062857D01*
X132548333Y-58205714D01*
X132500714Y-58300952D01*
X132453095Y-58348571D01*
X132357857Y-58396190D01*
X131976904Y-58396190D01*
X132881666Y-57872380D02*
X133548333Y-57872380D01*
X133119761Y-58872380D01*
X138295238Y-57967619D02*
X138342857Y-57920000D01*
X138438095Y-57872380D01*
X138676190Y-57872380D01*
X138771428Y-57920000D01*
X138819047Y-57967619D01*
X138866666Y-58062857D01*
X138866666Y-58158095D01*
X138819047Y-58300952D01*
X138247619Y-58872380D01*
X138866666Y-58872380D01*
X139295238Y-58777142D02*
X139342857Y-58824761D01*
X139295238Y-58872380D01*
X139247619Y-58824761D01*
X139295238Y-58777142D01*
X139295238Y-58872380D01*
X139723809Y-57967619D02*
X139771428Y-57920000D01*
X139866666Y-57872380D01*
X140104761Y-57872380D01*
X140200000Y-57920000D01*
X140247619Y-57967619D01*
X140295238Y-58062857D01*
X140295238Y-58158095D01*
X140247619Y-58300952D01*
X139676190Y-58872380D01*
X140295238Y-58872380D01*
X140723809Y-58872380D02*
X140723809Y-57872380D01*
X140819047Y-58491428D02*
X141104761Y-58872380D01*
X141104761Y-58205714D02*
X140723809Y-58586666D01*
X110498095Y-104862380D02*
X111069523Y-104862380D01*
X110783809Y-105862380D02*
X110783809Y-104862380D01*
X111402857Y-105862380D02*
X111402857Y-104862380D01*
X111783809Y-104862380D01*
X111879047Y-104910000D01*
X111926666Y-104957619D01*
X111974285Y-105052857D01*
X111974285Y-105195714D01*
X111926666Y-105290952D01*
X111879047Y-105338571D01*
X111783809Y-105386190D01*
X111402857Y-105386190D01*
X112926666Y-105862380D02*
X112355238Y-105862380D01*
X112640952Y-105862380D02*
X112640952Y-104862380D01*
X112545714Y-105005238D01*
X112450476Y-105100476D01*
X112355238Y-105148095D01*
X113157142Y-107088571D02*
X112823809Y-107088571D01*
X112823809Y-107612380D02*
X112823809Y-106612380D01*
X113300000Y-106612380D01*
X113633333Y-107564761D02*
X113776190Y-107612380D01*
X114014285Y-107612380D01*
X114109523Y-107564761D01*
X114157142Y-107517142D01*
X114204761Y-107421904D01*
X114204761Y-107326666D01*
X114157142Y-107231428D01*
X114109523Y-107183809D01*
X114014285Y-107136190D01*
X113823809Y-107088571D01*
X113728571Y-107040952D01*
X113680952Y-106993333D01*
X113633333Y-106898095D01*
X113633333Y-106802857D01*
X113680952Y-106707619D01*
X113728571Y-106660000D01*
X113823809Y-106612380D01*
X114061904Y-106612380D01*
X114204761Y-106660000D01*
X114395238Y-107707619D02*
X115157142Y-107707619D01*
X115347619Y-107326666D02*
X115823809Y-107326666D01*
X115252380Y-107612380D02*
X115585714Y-106612380D01*
X115919047Y-107612380D01*
X110498095Y-108672380D02*
X111069523Y-108672380D01*
X110783809Y-109672380D02*
X110783809Y-108672380D01*
X111402857Y-109672380D02*
X111402857Y-108672380D01*
X111783809Y-108672380D01*
X111879047Y-108720000D01*
X111926666Y-108767619D01*
X111974285Y-108862857D01*
X111974285Y-109005714D01*
X111926666Y-109100952D01*
X111879047Y-109148571D01*
X111783809Y-109196190D01*
X111402857Y-109196190D01*
X112355238Y-108767619D02*
X112402857Y-108720000D01*
X112498095Y-108672380D01*
X112736190Y-108672380D01*
X112831428Y-108720000D01*
X112879047Y-108767619D01*
X112926666Y-108862857D01*
X112926666Y-108958095D01*
X112879047Y-109100952D01*
X112307619Y-109672380D01*
X112926666Y-109672380D01*
X112204761Y-111374761D02*
X112347619Y-111422380D01*
X112585714Y-111422380D01*
X112680952Y-111374761D01*
X112728571Y-111327142D01*
X112776190Y-111231904D01*
X112776190Y-111136666D01*
X112728571Y-111041428D01*
X112680952Y-110993809D01*
X112585714Y-110946190D01*
X112395238Y-110898571D01*
X112300000Y-110850952D01*
X112252380Y-110803333D01*
X112204761Y-110708095D01*
X112204761Y-110612857D01*
X112252380Y-110517619D01*
X112300000Y-110470000D01*
X112395238Y-110422380D01*
X112633333Y-110422380D01*
X112776190Y-110470000D01*
X113776190Y-111327142D02*
X113728571Y-111374761D01*
X113585714Y-111422380D01*
X113490476Y-111422380D01*
X113347619Y-111374761D01*
X113252380Y-111279523D01*
X113204761Y-111184285D01*
X113157142Y-110993809D01*
X113157142Y-110850952D01*
X113204761Y-110660476D01*
X113252380Y-110565238D01*
X113347619Y-110470000D01*
X113490476Y-110422380D01*
X113585714Y-110422380D01*
X113728571Y-110470000D01*
X113776190Y-110517619D01*
X114204761Y-111422380D02*
X114204761Y-110422380D01*
X114776190Y-111422380D02*
X114347619Y-110850952D01*
X114776190Y-110422380D02*
X114204761Y-110993809D01*
X114966666Y-111517619D02*
X115728571Y-111517619D01*
X115919047Y-111136666D02*
X116395238Y-111136666D01*
X115823809Y-111422380D02*
X116157142Y-110422380D01*
X116490476Y-111422380D01*
X110498095Y-117562380D02*
X111069523Y-117562380D01*
X110783809Y-118562380D02*
X110783809Y-117562380D01*
X111402857Y-118562380D02*
X111402857Y-117562380D01*
X111783809Y-117562380D01*
X111879047Y-117610000D01*
X111926666Y-117657619D01*
X111974285Y-117752857D01*
X111974285Y-117895714D01*
X111926666Y-117990952D01*
X111879047Y-118038571D01*
X111783809Y-118086190D01*
X111402857Y-118086190D01*
X112831428Y-117895714D02*
X112831428Y-118562380D01*
X112593333Y-117514761D02*
X112355238Y-118229047D01*
X112974285Y-118229047D01*
X113109523Y-120312380D02*
X113109523Y-119312380D01*
X113347619Y-119312380D01*
X113490476Y-119360000D01*
X113585714Y-119455238D01*
X113633333Y-119550476D01*
X113680952Y-119740952D01*
X113680952Y-119883809D01*
X113633333Y-120074285D01*
X113585714Y-120169523D01*
X113490476Y-120264761D01*
X113347619Y-120312380D01*
X113109523Y-120312380D01*
X114061904Y-120026666D02*
X114538095Y-120026666D01*
X113966666Y-120312380D02*
X114300000Y-119312380D01*
X114633333Y-120312380D01*
X115538095Y-120217142D02*
X115490476Y-120264761D01*
X115347619Y-120312380D01*
X115252380Y-120312380D01*
X115109523Y-120264761D01*
X115014285Y-120169523D01*
X114966666Y-120074285D01*
X114919047Y-119883809D01*
X114919047Y-119740952D01*
X114966666Y-119550476D01*
X115014285Y-119455238D01*
X115109523Y-119360000D01*
X115252380Y-119312380D01*
X115347619Y-119312380D01*
X115490476Y-119360000D01*
X115538095Y-119407619D01*
X110498095Y-123912380D02*
X111069523Y-123912380D01*
X110783809Y-124912380D02*
X110783809Y-123912380D01*
X111402857Y-124912380D02*
X111402857Y-123912380D01*
X111783809Y-123912380D01*
X111879047Y-123960000D01*
X111926666Y-124007619D01*
X111974285Y-124102857D01*
X111974285Y-124245714D01*
X111926666Y-124340952D01*
X111879047Y-124388571D01*
X111783809Y-124436190D01*
X111402857Y-124436190D01*
X112879047Y-123912380D02*
X112402857Y-123912380D01*
X112355238Y-124388571D01*
X112402857Y-124340952D01*
X112498095Y-124293333D01*
X112736190Y-124293333D01*
X112831428Y-124340952D01*
X112879047Y-124388571D01*
X112926666Y-124483809D01*
X112926666Y-124721904D01*
X112879047Y-124817142D01*
X112831428Y-124864761D01*
X112736190Y-124912380D01*
X112498095Y-124912380D01*
X112402857Y-124864761D01*
X112355238Y-124817142D01*
X113085714Y-126138571D02*
X112752380Y-126138571D01*
X112752380Y-126662380D02*
X112752380Y-125662380D01*
X113228571Y-125662380D01*
X113561904Y-126614761D02*
X113704761Y-126662380D01*
X113942857Y-126662380D01*
X114038095Y-126614761D01*
X114085714Y-126567142D01*
X114133333Y-126471904D01*
X114133333Y-126376666D01*
X114085714Y-126281428D01*
X114038095Y-126233809D01*
X113942857Y-126186190D01*
X113752380Y-126138571D01*
X113657142Y-126090952D01*
X113609523Y-126043333D01*
X113561904Y-125948095D01*
X113561904Y-125852857D01*
X113609523Y-125757619D01*
X113657142Y-125710000D01*
X113752380Y-125662380D01*
X113990476Y-125662380D01*
X114133333Y-125710000D01*
X114323809Y-126757619D02*
X115085714Y-126757619D01*
X115657142Y-126138571D02*
X115800000Y-126186190D01*
X115847619Y-126233809D01*
X115895238Y-126329047D01*
X115895238Y-126471904D01*
X115847619Y-126567142D01*
X115800000Y-126614761D01*
X115704761Y-126662380D01*
X115323809Y-126662380D01*
X115323809Y-125662380D01*
X115657142Y-125662380D01*
X115752380Y-125710000D01*
X115800000Y-125757619D01*
X115847619Y-125852857D01*
X115847619Y-125948095D01*
X115800000Y-126043333D01*
X115752380Y-126090952D01*
X115657142Y-126138571D01*
X115323809Y-126138571D01*
X105418095Y-127722380D02*
X105989523Y-127722380D01*
X105703809Y-128722380D02*
X105703809Y-127722380D01*
X106322857Y-128722380D02*
X106322857Y-127722380D01*
X106703809Y-127722380D01*
X106799047Y-127770000D01*
X106846666Y-127817619D01*
X106894285Y-127912857D01*
X106894285Y-128055714D01*
X106846666Y-128150952D01*
X106799047Y-128198571D01*
X106703809Y-128246190D01*
X106322857Y-128246190D01*
X107751428Y-127722380D02*
X107560952Y-127722380D01*
X107465714Y-127770000D01*
X107418095Y-127817619D01*
X107322857Y-127960476D01*
X107275238Y-128150952D01*
X107275238Y-128531904D01*
X107322857Y-128627142D01*
X107370476Y-128674761D01*
X107465714Y-128722380D01*
X107656190Y-128722380D01*
X107751428Y-128674761D01*
X107799047Y-128627142D01*
X107846666Y-128531904D01*
X107846666Y-128293809D01*
X107799047Y-128198571D01*
X107751428Y-128150952D01*
X107656190Y-128103333D01*
X107465714Y-128103333D01*
X107370476Y-128150952D01*
X107322857Y-128198571D01*
X107275238Y-128293809D01*
X110998095Y-127770000D02*
X110902857Y-127722380D01*
X110760000Y-127722380D01*
X110617142Y-127770000D01*
X110521904Y-127865238D01*
X110474285Y-127960476D01*
X110426666Y-128150952D01*
X110426666Y-128293809D01*
X110474285Y-128484285D01*
X110521904Y-128579523D01*
X110617142Y-128674761D01*
X110760000Y-128722380D01*
X110855238Y-128722380D01*
X110998095Y-128674761D01*
X111045714Y-128627142D01*
X111045714Y-128293809D01*
X110855238Y-128293809D01*
X111474285Y-128722380D02*
X111474285Y-127722380D01*
X112045714Y-128722380D01*
X112045714Y-127722380D01*
X112521904Y-128722380D02*
X112521904Y-127722380D01*
X112760000Y-127722380D01*
X112902857Y-127770000D01*
X112998095Y-127865238D01*
X113045714Y-127960476D01*
X113093333Y-128150952D01*
X113093333Y-128293809D01*
X113045714Y-128484285D01*
X112998095Y-128579523D01*
X112902857Y-128674761D01*
X112760000Y-128722380D01*
X112521904Y-128722380D01*
X145502380Y-89661904D02*
X146311904Y-89661904D01*
X146407142Y-89614285D01*
X146454761Y-89566666D01*
X146502380Y-89471428D01*
X146502380Y-89280952D01*
X146454761Y-89185714D01*
X146407142Y-89138095D01*
X146311904Y-89090476D01*
X145502380Y-89090476D01*
X145597619Y-88661904D02*
X145550000Y-88614285D01*
X145502380Y-88519047D01*
X145502380Y-88280952D01*
X145550000Y-88185714D01*
X145597619Y-88138095D01*
X145692857Y-88090476D01*
X145788095Y-88090476D01*
X145930952Y-88138095D01*
X146502380Y-88709523D01*
X146502380Y-88090476D01*
X145502380Y-86835476D02*
X146311904Y-86835476D01*
X146407142Y-86787857D01*
X146454761Y-86740238D01*
X146502380Y-86645000D01*
X146502380Y-86454523D01*
X146454761Y-86359285D01*
X146407142Y-86311666D01*
X146311904Y-86264047D01*
X145502380Y-86264047D01*
X146502380Y-85787857D02*
X145502380Y-85787857D01*
X146216666Y-85454523D01*
X145502380Y-85121190D01*
X146502380Y-85121190D01*
X145978571Y-84311666D02*
X146026190Y-84168809D01*
X146073809Y-84121190D01*
X146169047Y-84073571D01*
X146311904Y-84073571D01*
X146407142Y-84121190D01*
X146454761Y-84168809D01*
X146502380Y-84264047D01*
X146502380Y-84645000D01*
X145502380Y-84645000D01*
X145502380Y-84311666D01*
X145550000Y-84216428D01*
X145597619Y-84168809D01*
X145692857Y-84121190D01*
X145788095Y-84121190D01*
X145883333Y-84168809D01*
X145930952Y-84216428D01*
X145978571Y-84311666D01*
X145978571Y-84645000D01*
X146121428Y-83645000D02*
X146121428Y-82883095D01*
X146216666Y-82454523D02*
X146216666Y-81978333D01*
X146502380Y-82549761D02*
X145502380Y-82216428D01*
X146502380Y-81883095D01*
X146502380Y-81549761D02*
X145502380Y-81549761D01*
X145502380Y-81311666D01*
X145550000Y-81168809D01*
X145645238Y-81073571D01*
X145740476Y-81025952D01*
X145930952Y-80978333D01*
X146073809Y-80978333D01*
X146264285Y-81025952D01*
X146359523Y-81073571D01*
X146454761Y-81168809D01*
X146502380Y-81311666D01*
X146502380Y-81549761D01*
X146216666Y-80597380D02*
X146216666Y-80121190D01*
X146502380Y-80692619D02*
X145502380Y-80359285D01*
X146502380Y-80025952D01*
X145502380Y-79692619D02*
X146311904Y-79692619D01*
X146407142Y-79645000D01*
X146454761Y-79597380D01*
X146502380Y-79502142D01*
X146502380Y-79311666D01*
X146454761Y-79216428D01*
X146407142Y-79168809D01*
X146311904Y-79121190D01*
X145502380Y-79121190D01*
X146502380Y-78121190D02*
X146502380Y-78692619D01*
X146502380Y-78406904D02*
X145502380Y-78406904D01*
X145645238Y-78502142D01*
X145740476Y-78597380D01*
X145788095Y-78692619D01*
X145502380Y-77787857D02*
X145502380Y-77168809D01*
X145883333Y-77502142D01*
X145883333Y-77359285D01*
X145930952Y-77264047D01*
X145978571Y-77216428D01*
X146073809Y-77168809D01*
X146311904Y-77168809D01*
X146407142Y-77216428D01*
X146454761Y-77264047D01*
X146502380Y-77359285D01*
X146502380Y-77645000D01*
X146454761Y-77740238D01*
X146407142Y-77787857D01*
X145502380Y-76311666D02*
X145502380Y-76502142D01*
X145550000Y-76597380D01*
X145597619Y-76645000D01*
X145740476Y-76740238D01*
X145930952Y-76787857D01*
X146311904Y-76787857D01*
X146407142Y-76740238D01*
X146454761Y-76692619D01*
X146502380Y-76597380D01*
X146502380Y-76406904D01*
X146454761Y-76311666D01*
X146407142Y-76264047D01*
X146311904Y-76216428D01*
X146073809Y-76216428D01*
X145978571Y-76264047D01*
X145930952Y-76311666D01*
X145883333Y-76406904D01*
X145883333Y-76597380D01*
X145930952Y-76692619D01*
X145978571Y-76740238D01*
X146073809Y-76787857D01*
X146502380Y-75264047D02*
X146502380Y-75835476D01*
X146502380Y-75549761D02*
X145502380Y-75549761D01*
X145645238Y-75645000D01*
X145740476Y-75740238D01*
X145788095Y-75835476D01*
X146216666Y-74883095D02*
X146216666Y-74406904D01*
X146502380Y-74978333D02*
X145502380Y-74645000D01*
X146502380Y-74311666D01*
X149947380Y-133341904D02*
X149947380Y-132770476D01*
X150947380Y-133056190D02*
X149947380Y-133056190D01*
X150947380Y-132437142D02*
X149947380Y-132437142D01*
X149947380Y-132056190D01*
X149995000Y-131960952D01*
X150042619Y-131913333D01*
X150137857Y-131865714D01*
X150280714Y-131865714D01*
X150375952Y-131913333D01*
X150423571Y-131960952D01*
X150471190Y-132056190D01*
X150471190Y-132437142D01*
X149947380Y-131532380D02*
X149947380Y-130865714D01*
X150947380Y-131294285D01*
X154709761Y-133222857D02*
X154757380Y-133080000D01*
X154757380Y-132841904D01*
X154709761Y-132746666D01*
X154662142Y-132699047D01*
X154566904Y-132651428D01*
X154471666Y-132651428D01*
X154376428Y-132699047D01*
X154328809Y-132746666D01*
X154281190Y-132841904D01*
X154233571Y-133032380D01*
X154185952Y-133127619D01*
X154138333Y-133175238D01*
X154043095Y-133222857D01*
X153947857Y-133222857D01*
X153852619Y-133175238D01*
X153805000Y-133127619D01*
X153757380Y-133032380D01*
X153757380Y-132794285D01*
X153805000Y-132651428D01*
X153757380Y-132365714D02*
X153757380Y-131794285D01*
X154757380Y-132080000D02*
X153757380Y-132080000D01*
X153757380Y-131270476D02*
X153757380Y-131175238D01*
X153805000Y-131080000D01*
X153852619Y-131032380D01*
X153947857Y-130984761D01*
X154138333Y-130937142D01*
X154376428Y-130937142D01*
X154566904Y-130984761D01*
X154662142Y-131032380D01*
X154709761Y-131080000D01*
X154757380Y-131175238D01*
X154757380Y-131270476D01*
X154709761Y-131365714D01*
X154662142Y-131413333D01*
X154566904Y-131460952D01*
X154376428Y-131508571D01*
X154138333Y-131508571D01*
X153947857Y-131460952D01*
X153852619Y-131413333D01*
X153805000Y-131365714D01*
X153757380Y-131270476D01*
X149947380Y-129531904D02*
X149947380Y-128960476D01*
X150947380Y-129246190D02*
X149947380Y-129246190D01*
X150947380Y-128627142D02*
X149947380Y-128627142D01*
X149947380Y-128246190D01*
X149995000Y-128150952D01*
X150042619Y-128103333D01*
X150137857Y-128055714D01*
X150280714Y-128055714D01*
X150375952Y-128103333D01*
X150423571Y-128150952D01*
X150471190Y-128246190D01*
X150471190Y-128627142D01*
X150375952Y-127484285D02*
X150328333Y-127579523D01*
X150280714Y-127627142D01*
X150185476Y-127674761D01*
X150137857Y-127674761D01*
X150042619Y-127627142D01*
X149995000Y-127579523D01*
X149947380Y-127484285D01*
X149947380Y-127293809D01*
X149995000Y-127198571D01*
X150042619Y-127150952D01*
X150137857Y-127103333D01*
X150185476Y-127103333D01*
X150280714Y-127150952D01*
X150328333Y-127198571D01*
X150375952Y-127293809D01*
X150375952Y-127484285D01*
X150423571Y-127579523D01*
X150471190Y-127627142D01*
X150566428Y-127674761D01*
X150756904Y-127674761D01*
X150852142Y-127627142D01*
X150899761Y-127579523D01*
X150947380Y-127484285D01*
X150947380Y-127293809D01*
X150899761Y-127198571D01*
X150852142Y-127150952D01*
X150756904Y-127103333D01*
X150566428Y-127103333D01*
X150471190Y-127150952D01*
X150423571Y-127198571D01*
X150375952Y-127293809D01*
X154709761Y-129412857D02*
X154757380Y-129270000D01*
X154757380Y-129031904D01*
X154709761Y-128936666D01*
X154662142Y-128889047D01*
X154566904Y-128841428D01*
X154471666Y-128841428D01*
X154376428Y-128889047D01*
X154328809Y-128936666D01*
X154281190Y-129031904D01*
X154233571Y-129222380D01*
X154185952Y-129317619D01*
X154138333Y-129365238D01*
X154043095Y-129412857D01*
X153947857Y-129412857D01*
X153852619Y-129365238D01*
X153805000Y-129317619D01*
X153757380Y-129222380D01*
X153757380Y-128984285D01*
X153805000Y-128841428D01*
X153757380Y-128555714D02*
X153757380Y-127984285D01*
X154757380Y-128270000D02*
X153757380Y-128270000D01*
X154757380Y-127127142D02*
X154757380Y-127698571D01*
X154757380Y-127412857D02*
X153757380Y-127412857D01*
X153900238Y-127508095D01*
X153995476Y-127603333D01*
X154043095Y-127698571D01*
X118641904Y-130627380D02*
X118641904Y-129627380D01*
X118880000Y-129627380D01*
X119022857Y-129675000D01*
X119118095Y-129770238D01*
X119165714Y-129865476D01*
X119213333Y-130055952D01*
X119213333Y-130198809D01*
X119165714Y-130389285D01*
X119118095Y-130484523D01*
X119022857Y-130579761D01*
X118880000Y-130627380D01*
X118641904Y-130627380D01*
X120165714Y-130627380D02*
X119594285Y-130627380D01*
X119880000Y-130627380D02*
X119880000Y-129627380D01*
X119784761Y-129770238D01*
X119689523Y-129865476D01*
X119594285Y-129913095D01*
X131341904Y-130627380D02*
X131341904Y-129627380D01*
X131580000Y-129627380D01*
X131722857Y-129675000D01*
X131818095Y-129770238D01*
X131865714Y-129865476D01*
X131913333Y-130055952D01*
X131913333Y-130198809D01*
X131865714Y-130389285D01*
X131818095Y-130484523D01*
X131722857Y-130579761D01*
X131580000Y-130627380D01*
X131341904Y-130627380D01*
X132294285Y-129722619D02*
X132341904Y-129675000D01*
X132437142Y-129627380D01*
X132675238Y-129627380D01*
X132770476Y-129675000D01*
X132818095Y-129722619D01*
X132865714Y-129817857D01*
X132865714Y-129913095D01*
X132818095Y-130055952D01*
X132246666Y-130627380D01*
X132865714Y-130627380D01*
X132548333Y-62682380D02*
X132215000Y-62206190D01*
X131976904Y-62682380D02*
X131976904Y-61682380D01*
X132357857Y-61682380D01*
X132453095Y-61730000D01*
X132500714Y-61777619D01*
X132548333Y-61872857D01*
X132548333Y-62015714D01*
X132500714Y-62110952D01*
X132453095Y-62158571D01*
X132357857Y-62206190D01*
X131976904Y-62206190D01*
X133119761Y-62110952D02*
X133024523Y-62063333D01*
X132976904Y-62015714D01*
X132929285Y-61920476D01*
X132929285Y-61872857D01*
X132976904Y-61777619D01*
X133024523Y-61730000D01*
X133119761Y-61682380D01*
X133310238Y-61682380D01*
X133405476Y-61730000D01*
X133453095Y-61777619D01*
X133500714Y-61872857D01*
X133500714Y-61920476D01*
X133453095Y-62015714D01*
X133405476Y-62063333D01*
X133310238Y-62110952D01*
X133119761Y-62110952D01*
X133024523Y-62158571D01*
X132976904Y-62206190D01*
X132929285Y-62301428D01*
X132929285Y-62491904D01*
X132976904Y-62587142D01*
X133024523Y-62634761D01*
X133119761Y-62682380D01*
X133310238Y-62682380D01*
X133405476Y-62634761D01*
X133453095Y-62587142D01*
X133500714Y-62491904D01*
X133500714Y-62301428D01*
X133453095Y-62206190D01*
X133405476Y-62158571D01*
X133310238Y-62110952D01*
X138295238Y-61777619D02*
X138342857Y-61730000D01*
X138438095Y-61682380D01*
X138676190Y-61682380D01*
X138771428Y-61730000D01*
X138819047Y-61777619D01*
X138866666Y-61872857D01*
X138866666Y-61968095D01*
X138819047Y-62110952D01*
X138247619Y-62682380D01*
X138866666Y-62682380D01*
X139295238Y-62587142D02*
X139342857Y-62634761D01*
X139295238Y-62682380D01*
X139247619Y-62634761D01*
X139295238Y-62587142D01*
X139295238Y-62682380D01*
X139723809Y-61777619D02*
X139771428Y-61730000D01*
X139866666Y-61682380D01*
X140104761Y-61682380D01*
X140200000Y-61730000D01*
X140247619Y-61777619D01*
X140295238Y-61872857D01*
X140295238Y-61968095D01*
X140247619Y-62110952D01*
X139676190Y-62682380D01*
X140295238Y-62682380D01*
X140723809Y-62682380D02*
X140723809Y-61682380D01*
X140819047Y-62301428D02*
X141104761Y-62682380D01*
X141104761Y-62015714D02*
X140723809Y-62396666D01*
X132548333Y-66492380D02*
X132215000Y-66016190D01*
X131976904Y-66492380D02*
X131976904Y-65492380D01*
X132357857Y-65492380D01*
X132453095Y-65540000D01*
X132500714Y-65587619D01*
X132548333Y-65682857D01*
X132548333Y-65825714D01*
X132500714Y-65920952D01*
X132453095Y-65968571D01*
X132357857Y-66016190D01*
X131976904Y-66016190D01*
X132929285Y-65587619D02*
X132976904Y-65540000D01*
X133072142Y-65492380D01*
X133310238Y-65492380D01*
X133405476Y-65540000D01*
X133453095Y-65587619D01*
X133500714Y-65682857D01*
X133500714Y-65778095D01*
X133453095Y-65920952D01*
X132881666Y-66492380D01*
X133500714Y-66492380D01*
X138771428Y-65825714D02*
X138771428Y-66492380D01*
X138533333Y-65444761D02*
X138295238Y-66159047D01*
X138914285Y-66159047D01*
X139295238Y-66397142D02*
X139342857Y-66444761D01*
X139295238Y-66492380D01*
X139247619Y-66444761D01*
X139295238Y-66397142D01*
X139295238Y-66492380D01*
X139676190Y-65492380D02*
X140342857Y-65492380D01*
X139914285Y-66492380D01*
X140723809Y-66492380D02*
X140723809Y-65492380D01*
X140819047Y-66111428D02*
X141104761Y-66492380D01*
X141104761Y-65825714D02*
X140723809Y-66206666D01*
X118832380Y-97916904D02*
X119641904Y-97916904D01*
X119737142Y-97869285D01*
X119784761Y-97821666D01*
X119832380Y-97726428D01*
X119832380Y-97535952D01*
X119784761Y-97440714D01*
X119737142Y-97393095D01*
X119641904Y-97345476D01*
X118832380Y-97345476D01*
X119832380Y-96345476D02*
X119832380Y-96916904D01*
X119832380Y-96631190D02*
X118832380Y-96631190D01*
X118975238Y-96726428D01*
X119070476Y-96821666D01*
X119118095Y-96916904D01*
X118832380Y-94804761D02*
X119641904Y-94804761D01*
X119737142Y-94757142D01*
X119784761Y-94709523D01*
X119832380Y-94614285D01*
X119832380Y-94423809D01*
X119784761Y-94328571D01*
X119737142Y-94280952D01*
X119641904Y-94233333D01*
X118832380Y-94233333D01*
X119832380Y-93757142D02*
X118832380Y-93757142D01*
X119546666Y-93423809D01*
X118832380Y-93090476D01*
X119832380Y-93090476D01*
X119308571Y-92280952D02*
X119356190Y-92138095D01*
X119403809Y-92090476D01*
X119499047Y-92042857D01*
X119641904Y-92042857D01*
X119737142Y-92090476D01*
X119784761Y-92138095D01*
X119832380Y-92233333D01*
X119832380Y-92614285D01*
X118832380Y-92614285D01*
X118832380Y-92280952D01*
X118880000Y-92185714D01*
X118927619Y-92138095D01*
X119022857Y-92090476D01*
X119118095Y-92090476D01*
X119213333Y-92138095D01*
X119260952Y-92185714D01*
X119308571Y-92280952D01*
X119308571Y-92614285D01*
X119451428Y-91614285D02*
X119451428Y-90852380D01*
X119784761Y-90423809D02*
X119832380Y-90280952D01*
X119832380Y-90042857D01*
X119784761Y-89947619D01*
X119737142Y-89900000D01*
X119641904Y-89852380D01*
X119546666Y-89852380D01*
X119451428Y-89900000D01*
X119403809Y-89947619D01*
X119356190Y-90042857D01*
X119308571Y-90233333D01*
X119260952Y-90328571D01*
X119213333Y-90376190D01*
X119118095Y-90423809D01*
X119022857Y-90423809D01*
X118927619Y-90376190D01*
X118880000Y-90328571D01*
X118832380Y-90233333D01*
X118832380Y-89995238D01*
X118880000Y-89852380D01*
X119784761Y-89471428D02*
X119832380Y-89328571D01*
X119832380Y-89090476D01*
X119784761Y-88995238D01*
X119737142Y-88947619D01*
X119641904Y-88900000D01*
X119546666Y-88900000D01*
X119451428Y-88947619D01*
X119403809Y-88995238D01*
X119356190Y-89090476D01*
X119308571Y-89280952D01*
X119260952Y-89376190D01*
X119213333Y-89423809D01*
X119118095Y-89471428D01*
X119022857Y-89471428D01*
X118927619Y-89423809D01*
X118880000Y-89376190D01*
X118832380Y-89280952D01*
X118832380Y-89042857D01*
X118880000Y-88900000D01*
X119832380Y-88471428D02*
X118832380Y-88471428D01*
X119546666Y-88138095D01*
X118832380Y-87804761D01*
X119832380Y-87804761D01*
X118927619Y-87376190D02*
X118880000Y-87328571D01*
X118832380Y-87233333D01*
X118832380Y-86995238D01*
X118880000Y-86900000D01*
X118927619Y-86852380D01*
X119022857Y-86804761D01*
X119118095Y-86804761D01*
X119260952Y-86852380D01*
X119832380Y-87423809D01*
X119832380Y-86804761D01*
X118832380Y-85947619D02*
X118832380Y-86138095D01*
X118880000Y-86233333D01*
X118927619Y-86280952D01*
X119070476Y-86376190D01*
X119260952Y-86423809D01*
X119641904Y-86423809D01*
X119737142Y-86376190D01*
X119784761Y-86328571D01*
X119832380Y-86233333D01*
X119832380Y-86042857D01*
X119784761Y-85947619D01*
X119737142Y-85900000D01*
X119641904Y-85852380D01*
X119403809Y-85852380D01*
X119308571Y-85900000D01*
X119260952Y-85947619D01*
X119213333Y-86042857D01*
X119213333Y-86233333D01*
X119260952Y-86328571D01*
X119308571Y-86376190D01*
X119403809Y-86423809D01*
X118832380Y-85233333D02*
X118832380Y-85138095D01*
X118880000Y-85042857D01*
X118927619Y-84995238D01*
X119022857Y-84947619D01*
X119213333Y-84900000D01*
X119451428Y-84900000D01*
X119641904Y-84947619D01*
X119737142Y-84995238D01*
X119784761Y-85042857D01*
X119832380Y-85138095D01*
X119832380Y-85233333D01*
X119784761Y-85328571D01*
X119737142Y-85376190D01*
X119641904Y-85423809D01*
X119451428Y-85471428D01*
X119213333Y-85471428D01*
X119022857Y-85423809D01*
X118927619Y-85376190D01*
X118880000Y-85328571D01*
X118832380Y-85233333D01*
X118832380Y-84566666D02*
X118832380Y-83947619D01*
X119213333Y-84280952D01*
X119213333Y-84138095D01*
X119260952Y-84042857D01*
X119308571Y-83995238D01*
X119403809Y-83947619D01*
X119641904Y-83947619D01*
X119737142Y-83995238D01*
X119784761Y-84042857D01*
X119832380Y-84138095D01*
X119832380Y-84423809D01*
X119784761Y-84519047D01*
X119737142Y-84566666D01*
X119308571Y-83185714D02*
X119356190Y-83042857D01*
X119403809Y-82995238D01*
X119499047Y-82947619D01*
X119641904Y-82947619D01*
X119737142Y-82995238D01*
X119784761Y-83042857D01*
X119832380Y-83138095D01*
X119832380Y-83519047D01*
X118832380Y-83519047D01*
X118832380Y-83185714D01*
X118880000Y-83090476D01*
X118927619Y-83042857D01*
X119022857Y-82995238D01*
X119118095Y-82995238D01*
X119213333Y-83042857D01*
X119260952Y-83090476D01*
X119308571Y-83185714D01*
X119308571Y-83519047D01*
X146693095Y-129884380D02*
X147264523Y-129884380D01*
X146978809Y-130884380D02*
X146978809Y-129884380D01*
X147597857Y-130884380D02*
X147597857Y-129884380D01*
X147978809Y-129884380D01*
X148074047Y-129932000D01*
X148121666Y-129979619D01*
X148169285Y-130074857D01*
X148169285Y-130217714D01*
X148121666Y-130312952D01*
X148074047Y-130360571D01*
X147978809Y-130408190D01*
X147597857Y-130408190D01*
X148645476Y-130884380D02*
X148835952Y-130884380D01*
X148931190Y-130836761D01*
X148978809Y-130789142D01*
X149074047Y-130646285D01*
X149121666Y-130455809D01*
X149121666Y-130074857D01*
X149074047Y-129979619D01*
X149026428Y-129932000D01*
X148931190Y-129884380D01*
X148740714Y-129884380D01*
X148645476Y-129932000D01*
X148597857Y-129979619D01*
X148550238Y-130074857D01*
X148550238Y-130312952D01*
X148597857Y-130408190D01*
X148645476Y-130455809D01*
X148740714Y-130503428D01*
X148931190Y-130503428D01*
X149026428Y-130455809D01*
X149074047Y-130408190D01*
X149121666Y-130312952D01*
X147193095Y-133330000D02*
X147097857Y-133282380D01*
X146955000Y-133282380D01*
X146812142Y-133330000D01*
X146716904Y-133425238D01*
X146669285Y-133520476D01*
X146621666Y-133710952D01*
X146621666Y-133853809D01*
X146669285Y-134044285D01*
X146716904Y-134139523D01*
X146812142Y-134234761D01*
X146955000Y-134282380D01*
X147050238Y-134282380D01*
X147193095Y-134234761D01*
X147240714Y-134187142D01*
X147240714Y-133853809D01*
X147050238Y-133853809D01*
X147669285Y-134282380D02*
X147669285Y-133282380D01*
X148240714Y-134282380D01*
X148240714Y-133282380D01*
X148716904Y-134282380D02*
X148716904Y-133282380D01*
X148955000Y-133282380D01*
X149097857Y-133330000D01*
X149193095Y-133425238D01*
X149240714Y-133520476D01*
X149288333Y-133710952D01*
X149288333Y-133853809D01*
X149240714Y-134044285D01*
X149193095Y-134139523D01*
X149097857Y-134234761D01*
X148955000Y-134282380D01*
X148716904Y-134282380D01*
%LPC*%
D13*
X114300000Y-99710000D03*
D12*
G36*
X113499980Y-99200050D02*
G01*
X113502882Y-99190483D01*
X113507595Y-99181666D01*
X113513938Y-99173938D01*
X113521666Y-99167595D01*
X113530483Y-99162882D01*
X113540050Y-99159980D01*
X113550000Y-99159000D01*
X115050000Y-99159000D01*
X115059950Y-99159980D01*
X115069517Y-99162882D01*
X115078334Y-99167595D01*
X115086062Y-99173938D01*
X115092405Y-99181666D01*
X115097118Y-99190483D01*
X115100020Y-99200050D01*
X115101000Y-99210000D01*
X115101000Y-99710000D01*
X115100398Y-99716112D01*
X115100398Y-99734534D01*
X115100152Y-99739533D01*
X115095342Y-99788364D01*
X115094608Y-99793314D01*
X115085036Y-99841439D01*
X115083820Y-99846295D01*
X115069576Y-99893250D01*
X115067890Y-99897961D01*
X115049113Y-99943294D01*
X115046973Y-99947820D01*
X115023842Y-99991093D01*
X115021269Y-99995384D01*
X114994009Y-100036183D01*
X114991027Y-100040204D01*
X114959899Y-100078133D01*
X114956538Y-100081841D01*
X114921841Y-100116538D01*
X114918133Y-100119899D01*
X114880204Y-100151027D01*
X114876183Y-100154009D01*
X114835384Y-100181269D01*
X114831093Y-100183842D01*
X114787820Y-100206973D01*
X114783294Y-100209113D01*
X114737961Y-100227890D01*
X114733250Y-100229576D01*
X114686295Y-100243820D01*
X114681439Y-100245036D01*
X114633314Y-100254608D01*
X114628364Y-100255342D01*
X114579533Y-100260152D01*
X114574534Y-100260398D01*
X114556112Y-100260398D01*
X114550000Y-100261000D01*
X114050000Y-100261000D01*
X114043888Y-100260398D01*
X114025466Y-100260398D01*
X114020467Y-100260152D01*
X113971636Y-100255342D01*
X113966686Y-100254608D01*
X113918561Y-100245036D01*
X113913705Y-100243820D01*
X113866750Y-100229576D01*
X113862039Y-100227890D01*
X113816706Y-100209113D01*
X113812180Y-100206973D01*
X113768907Y-100183842D01*
X113764616Y-100181269D01*
X113723817Y-100154009D01*
X113719796Y-100151027D01*
X113681867Y-100119899D01*
X113678159Y-100116538D01*
X113643462Y-100081841D01*
X113640101Y-100078133D01*
X113608973Y-100040204D01*
X113605991Y-100036183D01*
X113578731Y-99995384D01*
X113576158Y-99991093D01*
X113553027Y-99947820D01*
X113550887Y-99943294D01*
X113532110Y-99897961D01*
X113530424Y-99893250D01*
X113516180Y-99846295D01*
X113514964Y-99841439D01*
X113505392Y-99793314D01*
X113504658Y-99788364D01*
X113499848Y-99739533D01*
X113499602Y-99734534D01*
X113499602Y-99716112D01*
X113499000Y-99710000D01*
X113499000Y-99210000D01*
X113499980Y-99200050D01*
X113499980Y-99200050D01*
G37*
D13*
X114300000Y-98410000D03*
D12*
G36*
X113499602Y-98403888D02*
G01*
X113499602Y-98385466D01*
X113499848Y-98380467D01*
X113504658Y-98331636D01*
X113505392Y-98326686D01*
X113514964Y-98278561D01*
X113516180Y-98273705D01*
X113530424Y-98226750D01*
X113532110Y-98222039D01*
X113550887Y-98176706D01*
X113553027Y-98172180D01*
X113576158Y-98128907D01*
X113578731Y-98124616D01*
X113605991Y-98083817D01*
X113608973Y-98079796D01*
X113640101Y-98041867D01*
X113643462Y-98038159D01*
X113678159Y-98003462D01*
X113681867Y-98000101D01*
X113719796Y-97968973D01*
X113723817Y-97965991D01*
X113764616Y-97938731D01*
X113768907Y-97936158D01*
X113812180Y-97913027D01*
X113816706Y-97910887D01*
X113862039Y-97892110D01*
X113866750Y-97890424D01*
X113913705Y-97876180D01*
X113918561Y-97874964D01*
X113966686Y-97865392D01*
X113971636Y-97864658D01*
X114020467Y-97859848D01*
X114025466Y-97859602D01*
X114043888Y-97859602D01*
X114050000Y-97859000D01*
X114550000Y-97859000D01*
X114556112Y-97859602D01*
X114574534Y-97859602D01*
X114579533Y-97859848D01*
X114628364Y-97864658D01*
X114633314Y-97865392D01*
X114681439Y-97874964D01*
X114686295Y-97876180D01*
X114733250Y-97890424D01*
X114737961Y-97892110D01*
X114783294Y-97910887D01*
X114787820Y-97913027D01*
X114831093Y-97936158D01*
X114835384Y-97938731D01*
X114876183Y-97965991D01*
X114880204Y-97968973D01*
X114918133Y-98000101D01*
X114921841Y-98003462D01*
X114956538Y-98038159D01*
X114959899Y-98041867D01*
X114991027Y-98079796D01*
X114994009Y-98083817D01*
X115021269Y-98124616D01*
X115023842Y-98128907D01*
X115046973Y-98172180D01*
X115049113Y-98176706D01*
X115067890Y-98222039D01*
X115069576Y-98226750D01*
X115083820Y-98273705D01*
X115085036Y-98278561D01*
X115094608Y-98326686D01*
X115095342Y-98331636D01*
X115100152Y-98380467D01*
X115100398Y-98385466D01*
X115100398Y-98403888D01*
X115101000Y-98410000D01*
X115101000Y-98910000D01*
X115100020Y-98919950D01*
X115097118Y-98929517D01*
X115092405Y-98938334D01*
X115086062Y-98946062D01*
X115078334Y-98952405D01*
X115069517Y-98957118D01*
X115059950Y-98960020D01*
X115050000Y-98961000D01*
X113550000Y-98961000D01*
X113540050Y-98960020D01*
X113530483Y-98957118D01*
X113521666Y-98952405D01*
X113513938Y-98946062D01*
X113507595Y-98938334D01*
X113502882Y-98929517D01*
X113499980Y-98919950D01*
X113499000Y-98910000D01*
X113499000Y-98410000D01*
X113499602Y-98403888D01*
X113499602Y-98403888D01*
G37*
D14*
X154940000Y-80010000D03*
X152400000Y-80010000D03*
X154940000Y-77470000D03*
X152400000Y-77470000D03*
X154940000Y-74930000D03*
X152400000Y-74930000D03*
X154940000Y-72390000D03*
X152400000Y-72390000D03*
X154940000Y-69850000D03*
X152400000Y-69850000D03*
X154940000Y-67310000D03*
X152400000Y-67310000D03*
X154940000Y-64770000D03*
X152400000Y-64770000D03*
X154940000Y-62230000D03*
X152400000Y-62230000D03*
X154940000Y-59690000D03*
X152400000Y-59690000D03*
X154940000Y-57150000D03*
D15*
X152400000Y-57150000D03*
D16*
X114300000Y-114300000D03*
D14*
X154940000Y-124460000D03*
X152400000Y-124460000D03*
X154940000Y-121920000D03*
X152400000Y-121920000D03*
X154940000Y-119380000D03*
X152400000Y-119380000D03*
X154940000Y-116840000D03*
X152400000Y-116840000D03*
X154940000Y-114300000D03*
X152400000Y-114300000D03*
X154940000Y-111760000D03*
X152400000Y-111760000D03*
X154940000Y-109220000D03*
X152400000Y-109220000D03*
X154940000Y-106680000D03*
X152400000Y-106680000D03*
X154940000Y-104140000D03*
X152400000Y-104140000D03*
X154940000Y-101600000D03*
X152400000Y-101600000D03*
X154940000Y-99060000D03*
X152400000Y-99060000D03*
X154940000Y-96520000D03*
X152400000Y-96520000D03*
X154940000Y-93980000D03*
X152400000Y-93980000D03*
X154940000Y-91440000D03*
X152400000Y-91440000D03*
X154940000Y-88900000D03*
X152400000Y-88900000D03*
X154940000Y-86360000D03*
X152400000Y-86360000D03*
X154940000Y-83820000D03*
D15*
X152400000Y-83820000D03*
D14*
X109220000Y-124460000D03*
X106680000Y-124460000D03*
X109220000Y-121920000D03*
X106680000Y-121920000D03*
X109220000Y-119380000D03*
X106680000Y-119380000D03*
X109220000Y-116840000D03*
X106680000Y-116840000D03*
X109220000Y-114300000D03*
X106680000Y-114300000D03*
X109220000Y-111760000D03*
X106680000Y-111760000D03*
X109220000Y-109220000D03*
X106680000Y-109220000D03*
X109220000Y-106680000D03*
X106680000Y-106680000D03*
X109220000Y-104140000D03*
X106680000Y-104140000D03*
X109220000Y-101600000D03*
X106680000Y-101600000D03*
X109220000Y-99060000D03*
X106680000Y-99060000D03*
X109220000Y-96520000D03*
X106680000Y-96520000D03*
X109220000Y-93980000D03*
X106680000Y-93980000D03*
X109220000Y-91440000D03*
X106680000Y-91440000D03*
X109220000Y-88900000D03*
D15*
X106680000Y-88900000D03*
D14*
X109220000Y-83820000D03*
X106680000Y-83820000D03*
X109220000Y-81280000D03*
X106680000Y-81280000D03*
X109220000Y-78740000D03*
X106680000Y-78740000D03*
X109220000Y-76200000D03*
X106680000Y-76200000D03*
X109220000Y-73660000D03*
X106680000Y-73660000D03*
X109220000Y-71120000D03*
X106680000Y-71120000D03*
X109220000Y-68580000D03*
X106680000Y-68580000D03*
X109220000Y-66040000D03*
D15*
X106680000Y-66040000D03*
D17*
X119380000Y-58420000D03*
D18*
X129540000Y-58420000D03*
D17*
X129540000Y-66040000D03*
D18*
X119380000Y-66040000D03*
X119380000Y-62230000D03*
D17*
X129540000Y-62230000D03*
D18*
X107950000Y-132080000D03*
D17*
X118110000Y-132080000D03*
D18*
X143510000Y-132080000D03*
D17*
X133350000Y-132080000D03*
X144780000Y-58420000D03*
D18*
X134620000Y-58420000D03*
D16*
X114300000Y-105410000D03*
X114300000Y-109220000D03*
X114300000Y-118110000D03*
X114300000Y-124460000D03*
X109220000Y-128270000D03*
D19*
X133350000Y-73660000D03*
X130810000Y-73660000D03*
X128270000Y-73660000D03*
X125730000Y-73660000D03*
X123190000Y-73660000D03*
X123190000Y-116840000D03*
X123190000Y-119380000D03*
X123190000Y-121920000D03*
X123190000Y-124460000D03*
X123190000Y-127000000D03*
X146050000Y-93980000D03*
X146050000Y-96520000D03*
X146050000Y-99060000D03*
X146050000Y-101600000D03*
X146050000Y-104140000D03*
X146050000Y-106680000D03*
X146050000Y-109220000D03*
X146050000Y-111760000D03*
X146050000Y-114300000D03*
X146050000Y-116840000D03*
X146050000Y-119380000D03*
X146050000Y-121920000D03*
X146050000Y-124460000D03*
X146050000Y-127000000D03*
D16*
X152400000Y-132080000D03*
X152400000Y-128270000D03*
D20*
X120650000Y-132080000D03*
D21*
X123190000Y-132080000D03*
X128270000Y-132080000D03*
D20*
X130810000Y-132080000D03*
D18*
X134620000Y-62230000D03*
D17*
X144780000Y-62230000D03*
D18*
X134620000Y-66040000D03*
D17*
X144780000Y-66040000D03*
D19*
X129540000Y-71120000D03*
X127000000Y-71120000D03*
X124460000Y-71120000D03*
X121920000Y-71120000D03*
X119380000Y-71120000D03*
X119380000Y-114300000D03*
X119380000Y-116840000D03*
X119380000Y-119380000D03*
X119380000Y-121920000D03*
X119380000Y-124460000D03*
X142240000Y-91440000D03*
X142240000Y-93980000D03*
X142240000Y-96520000D03*
X142240000Y-99060000D03*
X142240000Y-101600000D03*
X142240000Y-104140000D03*
X142240000Y-106680000D03*
X142240000Y-109220000D03*
X142240000Y-111760000D03*
X142240000Y-114300000D03*
X142240000Y-116840000D03*
X142240000Y-119380000D03*
X142240000Y-121920000D03*
X142240000Y-124460000D03*
D16*
X147955000Y-132080000D03*
M02*
