G04 #@! TF.GenerationSoftware,KiCad,Pcbnew,5.1.4-e60b266~84~ubuntu16.04.1*
G04 #@! TF.CreationDate,2019-10-27T16:28:42+09:00*
G04 #@! TF.ProjectId,Akashi-02,416b6173-6869-42d3-9032-2e6b69636164,rev?*
G04 #@! TF.SameCoordinates,Original*
G04 #@! TF.FileFunction,Legend,Top*
G04 #@! TF.FilePolarity,Positive*
%FSLAX46Y46*%
G04 Gerber Fmt 4.6, Leading zero omitted, Abs format (unit mm)*
G04 Created by KiCad (PCBNEW 5.1.4-e60b266~84~ubuntu16.04.1) date 2019-10-27 16:28:42*
%MOMM*%
%LPD*%
G04 APERTURE LIST*
%ADD10C,0.150000*%
%ADD11C,0.120000*%
%ADD12O,1.802000X1.802000*%
%ADD13R,1.802000X1.802000*%
%ADD14C,1.626000*%
%ADD15C,1.702000*%
%ADD16O,1.702000X1.702000*%
%ADD17C,1.902000*%
%ADD18R,1.902000X1.902000*%
%ADD19C,2.102000*%
G04 APERTURE END LIST*
D10*
X149312380Y-45624285D02*
X149312380Y-45052857D01*
X150312380Y-45338571D02*
X149312380Y-45338571D01*
X149312380Y-44529047D02*
X149312380Y-44338571D01*
X149360000Y-44243333D01*
X149455238Y-44148095D01*
X149645714Y-44100476D01*
X149979047Y-44100476D01*
X150169523Y-44148095D01*
X150264761Y-44243333D01*
X150312380Y-44338571D01*
X150312380Y-44529047D01*
X150264761Y-44624285D01*
X150169523Y-44719523D01*
X149979047Y-44767142D01*
X149645714Y-44767142D01*
X149455238Y-44719523D01*
X149360000Y-44624285D01*
X149312380Y-44529047D01*
X150312380Y-43195714D02*
X150312380Y-43671904D01*
X149312380Y-43671904D01*
X149931428Y-42862380D02*
X149931428Y-42100476D01*
X150312380Y-41624285D02*
X149312380Y-41624285D01*
X149312380Y-41243333D01*
X149360000Y-41148095D01*
X149407619Y-41100476D01*
X149502857Y-41052857D01*
X149645714Y-41052857D01*
X149740952Y-41100476D01*
X149788571Y-41148095D01*
X149836190Y-41243333D01*
X149836190Y-41624285D01*
X149312380Y-40433809D02*
X149312380Y-40243333D01*
X149360000Y-40148095D01*
X149455238Y-40052857D01*
X149645714Y-40005238D01*
X149979047Y-40005238D01*
X150169523Y-40052857D01*
X150264761Y-40148095D01*
X150312380Y-40243333D01*
X150312380Y-40433809D01*
X150264761Y-40529047D01*
X150169523Y-40624285D01*
X149979047Y-40671904D01*
X149645714Y-40671904D01*
X149455238Y-40624285D01*
X149360000Y-40529047D01*
X149312380Y-40433809D01*
X149312380Y-39719523D02*
X149312380Y-39148095D01*
X150312380Y-39433809D02*
X149312380Y-39433809D01*
X149645714Y-38386190D02*
X150312380Y-38386190D01*
X149264761Y-38624285D02*
X149979047Y-38862380D01*
X149979047Y-38243333D01*
X152685714Y-36012380D02*
X152114285Y-36012380D01*
X152400000Y-36012380D02*
X152400000Y-35012380D01*
X152304761Y-35155238D01*
X152209523Y-35250476D01*
X152114285Y-35298095D01*
X145288095Y-104910000D02*
X145192857Y-104862380D01*
X145050000Y-104862380D01*
X144907142Y-104910000D01*
X144811904Y-105005238D01*
X144764285Y-105100476D01*
X144716666Y-105290952D01*
X144716666Y-105433809D01*
X144764285Y-105624285D01*
X144811904Y-105719523D01*
X144907142Y-105814761D01*
X145050000Y-105862380D01*
X145145238Y-105862380D01*
X145288095Y-105814761D01*
X145335714Y-105767142D01*
X145335714Y-105433809D01*
X145145238Y-105433809D01*
X145764285Y-105862380D02*
X145764285Y-104862380D01*
X146335714Y-105862380D01*
X146335714Y-104862380D01*
X146811904Y-105862380D02*
X146811904Y-104862380D01*
X147050000Y-104862380D01*
X147192857Y-104910000D01*
X147288095Y-105005238D01*
X147335714Y-105100476D01*
X147383333Y-105290952D01*
X147383333Y-105433809D01*
X147335714Y-105624285D01*
X147288095Y-105719523D01*
X147192857Y-105814761D01*
X147050000Y-105862380D01*
X146811904Y-105862380D01*
X122428095Y-121420000D02*
X122332857Y-121372380D01*
X122190000Y-121372380D01*
X122047142Y-121420000D01*
X121951904Y-121515238D01*
X121904285Y-121610476D01*
X121856666Y-121800952D01*
X121856666Y-121943809D01*
X121904285Y-122134285D01*
X121951904Y-122229523D01*
X122047142Y-122324761D01*
X122190000Y-122372380D01*
X122285238Y-122372380D01*
X122428095Y-122324761D01*
X122475714Y-122277142D01*
X122475714Y-121943809D01*
X122285238Y-121943809D01*
X122904285Y-122372380D02*
X122904285Y-121372380D01*
X123475714Y-122372380D01*
X123475714Y-121372380D01*
X123951904Y-122372380D02*
X123951904Y-121372380D01*
X124190000Y-121372380D01*
X124332857Y-121420000D01*
X124428095Y-121515238D01*
X124475714Y-121610476D01*
X124523333Y-121800952D01*
X124523333Y-121943809D01*
X124475714Y-122134285D01*
X124428095Y-122229523D01*
X124332857Y-122324761D01*
X124190000Y-122372380D01*
X123951904Y-122372380D01*
X133088095Y-123642380D02*
X133088095Y-122642380D01*
X133659523Y-123642380D02*
X133230952Y-123070952D01*
X133659523Y-122642380D02*
X133088095Y-123213809D01*
X138168095Y-123642380D02*
X138168095Y-122642380D01*
X138739523Y-123642380D02*
X138310952Y-123070952D01*
X138739523Y-122642380D02*
X138168095Y-123213809D01*
X139827142Y-126134761D02*
X139970000Y-126182380D01*
X140208095Y-126182380D01*
X140303333Y-126134761D01*
X140350952Y-126087142D01*
X140398571Y-125991904D01*
X140398571Y-125896666D01*
X140350952Y-125801428D01*
X140303333Y-125753809D01*
X140208095Y-125706190D01*
X140017619Y-125658571D01*
X139922380Y-125610952D01*
X139874761Y-125563333D01*
X139827142Y-125468095D01*
X139827142Y-125372857D01*
X139874761Y-125277619D01*
X139922380Y-125230000D01*
X140017619Y-125182380D01*
X140255714Y-125182380D01*
X140398571Y-125230000D01*
X140684285Y-125182380D02*
X141255714Y-125182380D01*
X140970000Y-126182380D02*
X140970000Y-125182380D01*
X141779523Y-125182380D02*
X141874761Y-125182380D01*
X141970000Y-125230000D01*
X142017619Y-125277619D01*
X142065238Y-125372857D01*
X142112857Y-125563333D01*
X142112857Y-125801428D01*
X142065238Y-125991904D01*
X142017619Y-126087142D01*
X141970000Y-126134761D01*
X141874761Y-126182380D01*
X141779523Y-126182380D01*
X141684285Y-126134761D01*
X141636666Y-126087142D01*
X141589047Y-125991904D01*
X141541428Y-125801428D01*
X141541428Y-125563333D01*
X141589047Y-125372857D01*
X141636666Y-125277619D01*
X141684285Y-125230000D01*
X141779523Y-125182380D01*
X134747142Y-126134761D02*
X134890000Y-126182380D01*
X135128095Y-126182380D01*
X135223333Y-126134761D01*
X135270952Y-126087142D01*
X135318571Y-125991904D01*
X135318571Y-125896666D01*
X135270952Y-125801428D01*
X135223333Y-125753809D01*
X135128095Y-125706190D01*
X134937619Y-125658571D01*
X134842380Y-125610952D01*
X134794761Y-125563333D01*
X134747142Y-125468095D01*
X134747142Y-125372857D01*
X134794761Y-125277619D01*
X134842380Y-125230000D01*
X134937619Y-125182380D01*
X135175714Y-125182380D01*
X135318571Y-125230000D01*
X135604285Y-125182380D02*
X136175714Y-125182380D01*
X135890000Y-126182380D02*
X135890000Y-125182380D01*
X137032857Y-126182380D02*
X136461428Y-126182380D01*
X136747142Y-126182380D02*
X136747142Y-125182380D01*
X136651904Y-125325238D01*
X136556666Y-125420476D01*
X136461428Y-125468095D01*
D11*
X151070000Y-36770000D02*
X152400000Y-36770000D01*
X151070000Y-38100000D02*
X151070000Y-36770000D01*
X153670000Y-36770000D02*
X156270000Y-36770000D01*
X153670000Y-39370000D02*
X153670000Y-36770000D01*
X151070000Y-39370000D02*
X153670000Y-39370000D01*
X156270000Y-36770000D02*
X156270000Y-49590000D01*
X151070000Y-39370000D02*
X151070000Y-49590000D01*
X151070000Y-49590000D02*
X156270000Y-49590000D01*
D10*
X143510000Y-91440000D02*
X115570000Y-91440000D01*
X115570000Y-91440000D02*
X115570000Y-33020000D01*
X115570000Y-33020000D02*
X143510000Y-33020000D01*
X143510000Y-33020000D02*
X143510000Y-91440000D01*
D11*
X151070000Y-55820000D02*
X152400000Y-55820000D01*
X151070000Y-57150000D02*
X151070000Y-55820000D01*
X153670000Y-55820000D02*
X156270000Y-55820000D01*
X153670000Y-58420000D02*
X153670000Y-55820000D01*
X151070000Y-58420000D02*
X153670000Y-58420000D01*
X156270000Y-55820000D02*
X156270000Y-81340000D01*
X151070000Y-58420000D02*
X151070000Y-81340000D01*
X151070000Y-81340000D02*
X156270000Y-81340000D01*
X151070000Y-82490000D02*
X152400000Y-82490000D01*
X151070000Y-83820000D02*
X151070000Y-82490000D01*
X153670000Y-82490000D02*
X156270000Y-82490000D01*
X153670000Y-85090000D02*
X153670000Y-82490000D01*
X151070000Y-85090000D02*
X153670000Y-85090000D01*
X156270000Y-82490000D02*
X156270000Y-125790000D01*
X151070000Y-85090000D02*
X151070000Y-125790000D01*
X151070000Y-125790000D02*
X156270000Y-125790000D01*
X105350000Y-125790000D02*
X110550000Y-125790000D01*
X105350000Y-90170000D02*
X105350000Y-125790000D01*
X110550000Y-87570000D02*
X110550000Y-125790000D01*
X105350000Y-90170000D02*
X107950000Y-90170000D01*
X107950000Y-90170000D02*
X107950000Y-87570000D01*
X107950000Y-87570000D02*
X110550000Y-87570000D01*
X105350000Y-88900000D02*
X105350000Y-87570000D01*
X105350000Y-87570000D02*
X106680000Y-87570000D01*
X105350000Y-64710000D02*
X106680000Y-64710000D01*
X105350000Y-66040000D02*
X105350000Y-64710000D01*
X107950000Y-64710000D02*
X110550000Y-64710000D01*
X107950000Y-67310000D02*
X107950000Y-64710000D01*
X105350000Y-67310000D02*
X107950000Y-67310000D01*
X110550000Y-64710000D02*
X110550000Y-85150000D01*
X105350000Y-67310000D02*
X105350000Y-85150000D01*
X105350000Y-85150000D02*
X110550000Y-85150000D01*
X145950000Y-79470000D02*
X148690000Y-79470000D01*
X148690000Y-79470000D02*
X148690000Y-72930000D01*
X148690000Y-72930000D02*
X145950000Y-72930000D01*
X145950000Y-72930000D02*
X145950000Y-79470000D01*
X147320000Y-80240000D02*
X147320000Y-79470000D01*
X147320000Y-72160000D02*
X147320000Y-72930000D01*
X142340000Y-108490000D02*
X139600000Y-108490000D01*
X139600000Y-108490000D02*
X139600000Y-115030000D01*
X139600000Y-115030000D02*
X142340000Y-115030000D01*
X142340000Y-115030000D02*
X142340000Y-108490000D01*
X140970000Y-107720000D02*
X140970000Y-108490000D01*
X140970000Y-115800000D02*
X140970000Y-115030000D01*
X137260000Y-108490000D02*
X134520000Y-108490000D01*
X134520000Y-108490000D02*
X134520000Y-115030000D01*
X134520000Y-115030000D02*
X137260000Y-115030000D01*
X137260000Y-115030000D02*
X137260000Y-108490000D01*
X135890000Y-107720000D02*
X135890000Y-108490000D01*
X135890000Y-115800000D02*
X135890000Y-115030000D01*
X142049837Y-120878870D02*
G75*
G02X142050000Y-122960961I-1079837J-1041130D01*
G01*
X139890163Y-120878870D02*
G75*
G03X139890000Y-122960961I1079837J-1041130D01*
G01*
X142048608Y-120247665D02*
G75*
G02X142205516Y-123480000I-1078608J-1672335D01*
G01*
X139891392Y-120247665D02*
G75*
G03X139734484Y-123480000I1078608J-1672335D01*
G01*
X142050000Y-123480000D02*
X142206000Y-123480000D01*
X139734000Y-123480000D02*
X139890000Y-123480000D01*
X134654000Y-123480000D02*
X134810000Y-123480000D01*
X136970000Y-123480000D02*
X137126000Y-123480000D01*
X134811392Y-120247665D02*
G75*
G03X134654484Y-123480000I1078608J-1672335D01*
G01*
X136968608Y-120247665D02*
G75*
G02X137125516Y-123480000I-1078608J-1672335D01*
G01*
X134810163Y-120878870D02*
G75*
G03X134810000Y-122960961I1079837J-1041130D01*
G01*
X136969837Y-120878870D02*
G75*
G02X136970000Y-122960961I-1079837J-1041130D01*
G01*
X119310000Y-102870000D02*
G75*
G03X119310000Y-102870000I-1200000J0D01*
G01*
X124390000Y-102870000D02*
G75*
G03X124390000Y-102870000I-1200000J0D01*
G01*
X129470000Y-102870000D02*
G75*
G03X129470000Y-102870000I-1200000J0D01*
G01*
X119310000Y-111760000D02*
G75*
G03X119310000Y-111760000I-1200000J0D01*
G01*
X124390000Y-111760000D02*
G75*
G03X124390000Y-111760000I-1200000J0D01*
G01*
X124390000Y-119380000D02*
G75*
G03X124390000Y-119380000I-1200000J0D01*
G01*
X142170000Y-102870000D02*
G75*
G03X142170000Y-102870000I-1200000J0D01*
G01*
X137090000Y-102870000D02*
G75*
G03X137090000Y-102870000I-1200000J0D01*
G01*
X147250000Y-102870000D02*
G75*
G03X147250000Y-102870000I-1200000J0D01*
G01*
D10*
X149312380Y-48593333D02*
X150026666Y-48593333D01*
X150169523Y-48640952D01*
X150264761Y-48736190D01*
X150312380Y-48879047D01*
X150312380Y-48974285D01*
X150312380Y-47593333D02*
X150312380Y-48164761D01*
X150312380Y-47879047D02*
X149312380Y-47879047D01*
X149455238Y-47974285D01*
X149550476Y-48069523D01*
X149598095Y-48164761D01*
X144232380Y-54101904D02*
X145041904Y-54101904D01*
X145137142Y-54054285D01*
X145184761Y-54006666D01*
X145232380Y-53911428D01*
X145232380Y-53720952D01*
X145184761Y-53625714D01*
X145137142Y-53578095D01*
X145041904Y-53530476D01*
X144232380Y-53530476D01*
X145232380Y-52530476D02*
X145232380Y-53101904D01*
X145232380Y-52816190D02*
X144232380Y-52816190D01*
X144375238Y-52911428D01*
X144470476Y-53006666D01*
X144518095Y-53101904D01*
X144232380Y-49370476D02*
X145041904Y-49370476D01*
X145137142Y-49322857D01*
X145184761Y-49275238D01*
X145232380Y-49180000D01*
X145232380Y-48989523D01*
X145184761Y-48894285D01*
X145137142Y-48846666D01*
X145041904Y-48799047D01*
X144232380Y-48799047D01*
X145232380Y-48322857D02*
X144232380Y-48322857D01*
X144946666Y-47989523D01*
X144232380Y-47656190D01*
X145232380Y-47656190D01*
X144708571Y-46846666D02*
X144756190Y-46703809D01*
X144803809Y-46656190D01*
X144899047Y-46608571D01*
X145041904Y-46608571D01*
X145137142Y-46656190D01*
X145184761Y-46703809D01*
X145232380Y-46799047D01*
X145232380Y-47180000D01*
X144232380Y-47180000D01*
X144232380Y-46846666D01*
X144280000Y-46751428D01*
X144327619Y-46703809D01*
X144422857Y-46656190D01*
X144518095Y-46656190D01*
X144613333Y-46703809D01*
X144660952Y-46751428D01*
X144708571Y-46846666D01*
X144708571Y-47180000D01*
X144851428Y-46180000D02*
X144851428Y-45418095D01*
X144946666Y-44989523D02*
X144946666Y-44513333D01*
X145232380Y-45084761D02*
X144232380Y-44751428D01*
X145232380Y-44418095D01*
X145232380Y-44084761D02*
X144232380Y-44084761D01*
X144232380Y-43846666D01*
X144280000Y-43703809D01*
X144375238Y-43608571D01*
X144470476Y-43560952D01*
X144660952Y-43513333D01*
X144803809Y-43513333D01*
X144994285Y-43560952D01*
X145089523Y-43608571D01*
X145184761Y-43703809D01*
X145232380Y-43846666D01*
X145232380Y-44084761D01*
X144946666Y-43132380D02*
X144946666Y-42656190D01*
X145232380Y-43227619D02*
X144232380Y-42894285D01*
X145232380Y-42560952D01*
X144232380Y-42227619D02*
X145041904Y-42227619D01*
X145137142Y-42180000D01*
X145184761Y-42132380D01*
X145232380Y-42037142D01*
X145232380Y-41846666D01*
X145184761Y-41751428D01*
X145137142Y-41703809D01*
X145041904Y-41656190D01*
X144232380Y-41656190D01*
X145232380Y-40656190D02*
X145232380Y-41227619D01*
X145232380Y-40941904D02*
X144232380Y-40941904D01*
X144375238Y-41037142D01*
X144470476Y-41132380D01*
X144518095Y-41227619D01*
X144232380Y-40322857D02*
X144232380Y-39703809D01*
X144613333Y-40037142D01*
X144613333Y-39894285D01*
X144660952Y-39799047D01*
X144708571Y-39751428D01*
X144803809Y-39703809D01*
X145041904Y-39703809D01*
X145137142Y-39751428D01*
X145184761Y-39799047D01*
X145232380Y-39894285D01*
X145232380Y-40180000D01*
X145184761Y-40275238D01*
X145137142Y-40322857D01*
X144232380Y-38846666D02*
X144232380Y-39037142D01*
X144280000Y-39132380D01*
X144327619Y-39180000D01*
X144470476Y-39275238D01*
X144660952Y-39322857D01*
X145041904Y-39322857D01*
X145137142Y-39275238D01*
X145184761Y-39227619D01*
X145232380Y-39132380D01*
X145232380Y-38941904D01*
X145184761Y-38846666D01*
X145137142Y-38799047D01*
X145041904Y-38751428D01*
X144803809Y-38751428D01*
X144708571Y-38799047D01*
X144660952Y-38846666D01*
X144613333Y-38941904D01*
X144613333Y-39132380D01*
X144660952Y-39227619D01*
X144708571Y-39275238D01*
X144803809Y-39322857D01*
X145232380Y-37799047D02*
X145232380Y-38370476D01*
X145232380Y-38084761D02*
X144232380Y-38084761D01*
X144375238Y-38180000D01*
X144470476Y-38275238D01*
X144518095Y-38370476D01*
X144946666Y-37418095D02*
X144946666Y-36941904D01*
X145232380Y-37513333D02*
X144232380Y-37180000D01*
X145232380Y-36846666D01*
X150217142Y-58475476D02*
X150264761Y-58523095D01*
X150312380Y-58665952D01*
X150312380Y-58761190D01*
X150264761Y-58904047D01*
X150169523Y-58999285D01*
X150074285Y-59046904D01*
X149883809Y-59094523D01*
X149740952Y-59094523D01*
X149550476Y-59046904D01*
X149455238Y-58999285D01*
X149360000Y-58904047D01*
X149312380Y-58761190D01*
X149312380Y-58665952D01*
X149360000Y-58523095D01*
X149407619Y-58475476D01*
X150312380Y-58046904D02*
X149312380Y-58046904D01*
X150312380Y-57475476D01*
X149312380Y-57475476D01*
X149312380Y-57094523D02*
X149312380Y-56427857D01*
X150312380Y-56856428D01*
X150217142Y-85621666D02*
X150264761Y-85669285D01*
X150312380Y-85812142D01*
X150312380Y-85907380D01*
X150264761Y-86050238D01*
X150169523Y-86145476D01*
X150074285Y-86193095D01*
X149883809Y-86240714D01*
X149740952Y-86240714D01*
X149550476Y-86193095D01*
X149455238Y-86145476D01*
X149360000Y-86050238D01*
X149312380Y-85907380D01*
X149312380Y-85812142D01*
X149360000Y-85669285D01*
X149407619Y-85621666D01*
X150312380Y-85193095D02*
X149312380Y-85193095D01*
X150312380Y-84621666D01*
X149312380Y-84621666D01*
X150312380Y-83621666D02*
X150312380Y-84193095D01*
X150312380Y-83907380D02*
X149312380Y-83907380D01*
X149455238Y-84002619D01*
X149550476Y-84097857D01*
X149598095Y-84193095D01*
X149312380Y-83002619D02*
X149312380Y-82907380D01*
X149360000Y-82812142D01*
X149407619Y-82764523D01*
X149502857Y-82716904D01*
X149693333Y-82669285D01*
X149931428Y-82669285D01*
X150121904Y-82716904D01*
X150217142Y-82764523D01*
X150264761Y-82812142D01*
X150312380Y-82907380D01*
X150312380Y-83002619D01*
X150264761Y-83097857D01*
X150217142Y-83145476D01*
X150121904Y-83193095D01*
X149931428Y-83240714D01*
X149693333Y-83240714D01*
X149502857Y-83193095D01*
X149407619Y-83145476D01*
X149360000Y-83097857D01*
X149312380Y-83002619D01*
X112117142Y-89590476D02*
X112164761Y-89638095D01*
X112212380Y-89780952D01*
X112212380Y-89876190D01*
X112164761Y-90019047D01*
X112069523Y-90114285D01*
X111974285Y-90161904D01*
X111783809Y-90209523D01*
X111640952Y-90209523D01*
X111450476Y-90161904D01*
X111355238Y-90114285D01*
X111260000Y-90019047D01*
X111212380Y-89876190D01*
X111212380Y-89780952D01*
X111260000Y-89638095D01*
X111307619Y-89590476D01*
X112212380Y-89161904D02*
X111212380Y-89161904D01*
X112212380Y-88590476D01*
X111212380Y-88590476D01*
X112212380Y-88066666D02*
X112212380Y-87876190D01*
X112164761Y-87780952D01*
X112117142Y-87733333D01*
X111974285Y-87638095D01*
X111783809Y-87590476D01*
X111402857Y-87590476D01*
X111307619Y-87638095D01*
X111260000Y-87685714D01*
X111212380Y-87780952D01*
X111212380Y-87971428D01*
X111260000Y-88066666D01*
X111307619Y-88114285D01*
X111402857Y-88161904D01*
X111640952Y-88161904D01*
X111736190Y-88114285D01*
X111783809Y-88066666D01*
X111831428Y-87971428D01*
X111831428Y-87780952D01*
X111783809Y-87685714D01*
X111736190Y-87638095D01*
X111640952Y-87590476D01*
X112117142Y-67365476D02*
X112164761Y-67413095D01*
X112212380Y-67555952D01*
X112212380Y-67651190D01*
X112164761Y-67794047D01*
X112069523Y-67889285D01*
X111974285Y-67936904D01*
X111783809Y-67984523D01*
X111640952Y-67984523D01*
X111450476Y-67936904D01*
X111355238Y-67889285D01*
X111260000Y-67794047D01*
X111212380Y-67651190D01*
X111212380Y-67555952D01*
X111260000Y-67413095D01*
X111307619Y-67365476D01*
X112212380Y-66936904D02*
X111212380Y-66936904D01*
X112212380Y-66365476D01*
X111212380Y-66365476D01*
X111640952Y-65746428D02*
X111593333Y-65841666D01*
X111545714Y-65889285D01*
X111450476Y-65936904D01*
X111402857Y-65936904D01*
X111307619Y-65889285D01*
X111260000Y-65841666D01*
X111212380Y-65746428D01*
X111212380Y-65555952D01*
X111260000Y-65460714D01*
X111307619Y-65413095D01*
X111402857Y-65365476D01*
X111450476Y-65365476D01*
X111545714Y-65413095D01*
X111593333Y-65460714D01*
X111640952Y-65555952D01*
X111640952Y-65746428D01*
X111688571Y-65841666D01*
X111736190Y-65889285D01*
X111831428Y-65936904D01*
X112021904Y-65936904D01*
X112117142Y-65889285D01*
X112164761Y-65841666D01*
X112212380Y-65746428D01*
X112212380Y-65555952D01*
X112164761Y-65460714D01*
X112117142Y-65413095D01*
X112021904Y-65365476D01*
X111831428Y-65365476D01*
X111736190Y-65413095D01*
X111688571Y-65460714D01*
X111640952Y-65555952D01*
X147772380Y-83986666D02*
X147296190Y-84320000D01*
X147772380Y-84558095D02*
X146772380Y-84558095D01*
X146772380Y-84177142D01*
X146820000Y-84081904D01*
X146867619Y-84034285D01*
X146962857Y-83986666D01*
X147105714Y-83986666D01*
X147200952Y-84034285D01*
X147248571Y-84081904D01*
X147296190Y-84177142D01*
X147296190Y-84558095D01*
X146772380Y-83081904D02*
X146772380Y-83558095D01*
X147248571Y-83605714D01*
X147200952Y-83558095D01*
X147153333Y-83462857D01*
X147153333Y-83224761D01*
X147200952Y-83129523D01*
X147248571Y-83081904D01*
X147343809Y-83034285D01*
X147581904Y-83034285D01*
X147677142Y-83081904D01*
X147724761Y-83129523D01*
X147772380Y-83224761D01*
X147772380Y-83462857D01*
X147724761Y-83558095D01*
X147677142Y-83605714D01*
X146772380Y-77009523D02*
X146772380Y-76390476D01*
X147153333Y-76723809D01*
X147153333Y-76580952D01*
X147200952Y-76485714D01*
X147248571Y-76438095D01*
X147343809Y-76390476D01*
X147581904Y-76390476D01*
X147677142Y-76438095D01*
X147724761Y-76485714D01*
X147772380Y-76580952D01*
X147772380Y-76866666D01*
X147724761Y-76961904D01*
X147677142Y-77009523D01*
X146772380Y-76057142D02*
X146772380Y-75438095D01*
X147153333Y-75771428D01*
X147153333Y-75628571D01*
X147200952Y-75533333D01*
X147248571Y-75485714D01*
X147343809Y-75438095D01*
X147581904Y-75438095D01*
X147677142Y-75485714D01*
X147724761Y-75533333D01*
X147772380Y-75628571D01*
X147772380Y-75914285D01*
X147724761Y-76009523D01*
X147677142Y-76057142D01*
X143962380Y-111926666D02*
X143486190Y-112260000D01*
X143962380Y-112498095D02*
X142962380Y-112498095D01*
X142962380Y-112117142D01*
X143010000Y-112021904D01*
X143057619Y-111974285D01*
X143152857Y-111926666D01*
X143295714Y-111926666D01*
X143390952Y-111974285D01*
X143438571Y-112021904D01*
X143486190Y-112117142D01*
X143486190Y-112498095D01*
X142962380Y-111593333D02*
X142962380Y-110974285D01*
X143343333Y-111307619D01*
X143343333Y-111164761D01*
X143390952Y-111069523D01*
X143438571Y-111021904D01*
X143533809Y-110974285D01*
X143771904Y-110974285D01*
X143867142Y-111021904D01*
X143914761Y-111069523D01*
X143962380Y-111164761D01*
X143962380Y-111450476D01*
X143914761Y-111545714D01*
X143867142Y-111593333D01*
X141422380Y-111879047D02*
X141422380Y-112450476D01*
X141422380Y-112164761D02*
X140422380Y-112164761D01*
X140565238Y-112260000D01*
X140660476Y-112355238D01*
X140708095Y-112450476D01*
X141422380Y-111450476D02*
X140422380Y-111450476D01*
X141041428Y-111355238D02*
X141422380Y-111069523D01*
X140755714Y-111069523D02*
X141136666Y-111450476D01*
X138882380Y-111926666D02*
X138406190Y-112260000D01*
X138882380Y-112498095D02*
X137882380Y-112498095D01*
X137882380Y-112117142D01*
X137930000Y-112021904D01*
X137977619Y-111974285D01*
X138072857Y-111926666D01*
X138215714Y-111926666D01*
X138310952Y-111974285D01*
X138358571Y-112021904D01*
X138406190Y-112117142D01*
X138406190Y-112498095D01*
X138215714Y-111069523D02*
X138882380Y-111069523D01*
X137834761Y-111307619D02*
X138549047Y-111545714D01*
X138549047Y-110926666D01*
X136342380Y-111879047D02*
X136342380Y-112450476D01*
X136342380Y-112164761D02*
X135342380Y-112164761D01*
X135485238Y-112260000D01*
X135580476Y-112355238D01*
X135628095Y-112450476D01*
X136342380Y-111450476D02*
X135342380Y-111450476D01*
X135961428Y-111355238D02*
X136342380Y-111069523D01*
X135675714Y-111069523D02*
X136056666Y-111450476D01*
X143327380Y-120118095D02*
X142327380Y-120118095D01*
X142327380Y-119880000D01*
X142375000Y-119737142D01*
X142470238Y-119641904D01*
X142565476Y-119594285D01*
X142755952Y-119546666D01*
X142898809Y-119546666D01*
X143089285Y-119594285D01*
X143184523Y-119641904D01*
X143279761Y-119737142D01*
X143327380Y-119880000D01*
X143327380Y-120118095D01*
X143327380Y-118594285D02*
X143327380Y-119165714D01*
X143327380Y-118880000D02*
X142327380Y-118880000D01*
X142470238Y-118975238D01*
X142565476Y-119070476D01*
X142613095Y-119165714D01*
X138882380Y-120118095D02*
X137882380Y-120118095D01*
X137882380Y-119880000D01*
X137930000Y-119737142D01*
X138025238Y-119641904D01*
X138120476Y-119594285D01*
X138310952Y-119546666D01*
X138453809Y-119546666D01*
X138644285Y-119594285D01*
X138739523Y-119641904D01*
X138834761Y-119737142D01*
X138882380Y-119880000D01*
X138882380Y-120118095D01*
X137977619Y-119165714D02*
X137930000Y-119118095D01*
X137882380Y-119022857D01*
X137882380Y-118784761D01*
X137930000Y-118689523D01*
X137977619Y-118641904D01*
X138072857Y-118594285D01*
X138168095Y-118594285D01*
X138310952Y-118641904D01*
X138882380Y-119213333D01*
X138882380Y-118594285D01*
X117562380Y-101591904D02*
X117562380Y-101020476D01*
X118562380Y-101306190D02*
X117562380Y-101306190D01*
X118562380Y-100687142D02*
X117562380Y-100687142D01*
X117562380Y-100306190D01*
X117610000Y-100210952D01*
X117657619Y-100163333D01*
X117752857Y-100115714D01*
X117895714Y-100115714D01*
X117990952Y-100163333D01*
X118038571Y-100210952D01*
X118086190Y-100306190D01*
X118086190Y-100687142D01*
X118562380Y-99163333D02*
X118562380Y-99734761D01*
X118562380Y-99449047D02*
X117562380Y-99449047D01*
X117705238Y-99544285D01*
X117800476Y-99639523D01*
X117848095Y-99734761D01*
X122642380Y-101591904D02*
X122642380Y-101020476D01*
X123642380Y-101306190D02*
X122642380Y-101306190D01*
X123642380Y-100687142D02*
X122642380Y-100687142D01*
X122642380Y-100306190D01*
X122690000Y-100210952D01*
X122737619Y-100163333D01*
X122832857Y-100115714D01*
X122975714Y-100115714D01*
X123070952Y-100163333D01*
X123118571Y-100210952D01*
X123166190Y-100306190D01*
X123166190Y-100687142D01*
X122737619Y-99734761D02*
X122690000Y-99687142D01*
X122642380Y-99591904D01*
X122642380Y-99353809D01*
X122690000Y-99258571D01*
X122737619Y-99210952D01*
X122832857Y-99163333D01*
X122928095Y-99163333D01*
X123070952Y-99210952D01*
X123642380Y-99782380D01*
X123642380Y-99163333D01*
X127722380Y-101591904D02*
X127722380Y-101020476D01*
X128722380Y-101306190D02*
X127722380Y-101306190D01*
X128722380Y-100687142D02*
X127722380Y-100687142D01*
X127722380Y-100306190D01*
X127770000Y-100210952D01*
X127817619Y-100163333D01*
X127912857Y-100115714D01*
X128055714Y-100115714D01*
X128150952Y-100163333D01*
X128198571Y-100210952D01*
X128246190Y-100306190D01*
X128246190Y-100687142D01*
X127722380Y-99782380D02*
X127722380Y-99163333D01*
X128103333Y-99496666D01*
X128103333Y-99353809D01*
X128150952Y-99258571D01*
X128198571Y-99210952D01*
X128293809Y-99163333D01*
X128531904Y-99163333D01*
X128627142Y-99210952D01*
X128674761Y-99258571D01*
X128722380Y-99353809D01*
X128722380Y-99639523D01*
X128674761Y-99734761D01*
X128627142Y-99782380D01*
X117562380Y-110481904D02*
X117562380Y-109910476D01*
X118562380Y-110196190D02*
X117562380Y-110196190D01*
X118562380Y-109577142D02*
X117562380Y-109577142D01*
X117562380Y-109196190D01*
X117610000Y-109100952D01*
X117657619Y-109053333D01*
X117752857Y-109005714D01*
X117895714Y-109005714D01*
X117990952Y-109053333D01*
X118038571Y-109100952D01*
X118086190Y-109196190D01*
X118086190Y-109577142D01*
X117895714Y-108148571D02*
X118562380Y-108148571D01*
X117514761Y-108386666D02*
X118229047Y-108624761D01*
X118229047Y-108005714D01*
X122642380Y-110481904D02*
X122642380Y-109910476D01*
X123642380Y-110196190D02*
X122642380Y-110196190D01*
X123642380Y-109577142D02*
X122642380Y-109577142D01*
X122642380Y-109196190D01*
X122690000Y-109100952D01*
X122737619Y-109053333D01*
X122832857Y-109005714D01*
X122975714Y-109005714D01*
X123070952Y-109053333D01*
X123118571Y-109100952D01*
X123166190Y-109196190D01*
X123166190Y-109577142D01*
X122642380Y-108100952D02*
X122642380Y-108577142D01*
X123118571Y-108624761D01*
X123070952Y-108577142D01*
X123023333Y-108481904D01*
X123023333Y-108243809D01*
X123070952Y-108148571D01*
X123118571Y-108100952D01*
X123213809Y-108053333D01*
X123451904Y-108053333D01*
X123547142Y-108100952D01*
X123594761Y-108148571D01*
X123642380Y-108243809D01*
X123642380Y-108481904D01*
X123594761Y-108577142D01*
X123547142Y-108624761D01*
X122642380Y-118101904D02*
X122642380Y-117530476D01*
X123642380Y-117816190D02*
X122642380Y-117816190D01*
X123642380Y-117197142D02*
X122642380Y-117197142D01*
X122642380Y-116816190D01*
X122690000Y-116720952D01*
X122737619Y-116673333D01*
X122832857Y-116625714D01*
X122975714Y-116625714D01*
X123070952Y-116673333D01*
X123118571Y-116720952D01*
X123166190Y-116816190D01*
X123166190Y-117197142D01*
X122642380Y-115768571D02*
X122642380Y-115959047D01*
X122690000Y-116054285D01*
X122737619Y-116101904D01*
X122880476Y-116197142D01*
X123070952Y-116244761D01*
X123451904Y-116244761D01*
X123547142Y-116197142D01*
X123594761Y-116149523D01*
X123642380Y-116054285D01*
X123642380Y-115863809D01*
X123594761Y-115768571D01*
X123547142Y-115720952D01*
X123451904Y-115673333D01*
X123213809Y-115673333D01*
X123118571Y-115720952D01*
X123070952Y-115768571D01*
X123023333Y-115863809D01*
X123023333Y-116054285D01*
X123070952Y-116149523D01*
X123118571Y-116197142D01*
X123213809Y-116244761D01*
X140422380Y-101591904D02*
X140422380Y-101020476D01*
X141422380Y-101306190D02*
X140422380Y-101306190D01*
X141422380Y-100687142D02*
X140422380Y-100687142D01*
X140422380Y-100306190D01*
X140470000Y-100210952D01*
X140517619Y-100163333D01*
X140612857Y-100115714D01*
X140755714Y-100115714D01*
X140850952Y-100163333D01*
X140898571Y-100210952D01*
X140946190Y-100306190D01*
X140946190Y-100687142D01*
X140422380Y-99782380D02*
X140422380Y-99115714D01*
X141422380Y-99544285D01*
X135342380Y-101591904D02*
X135342380Y-101020476D01*
X136342380Y-101306190D02*
X135342380Y-101306190D01*
X136342380Y-100687142D02*
X135342380Y-100687142D01*
X135342380Y-100306190D01*
X135390000Y-100210952D01*
X135437619Y-100163333D01*
X135532857Y-100115714D01*
X135675714Y-100115714D01*
X135770952Y-100163333D01*
X135818571Y-100210952D01*
X135866190Y-100306190D01*
X135866190Y-100687142D01*
X135770952Y-99544285D02*
X135723333Y-99639523D01*
X135675714Y-99687142D01*
X135580476Y-99734761D01*
X135532857Y-99734761D01*
X135437619Y-99687142D01*
X135390000Y-99639523D01*
X135342380Y-99544285D01*
X135342380Y-99353809D01*
X135390000Y-99258571D01*
X135437619Y-99210952D01*
X135532857Y-99163333D01*
X135580476Y-99163333D01*
X135675714Y-99210952D01*
X135723333Y-99258571D01*
X135770952Y-99353809D01*
X135770952Y-99544285D01*
X135818571Y-99639523D01*
X135866190Y-99687142D01*
X135961428Y-99734761D01*
X136151904Y-99734761D01*
X136247142Y-99687142D01*
X136294761Y-99639523D01*
X136342380Y-99544285D01*
X136342380Y-99353809D01*
X136294761Y-99258571D01*
X136247142Y-99210952D01*
X136151904Y-99163333D01*
X135961428Y-99163333D01*
X135866190Y-99210952D01*
X135818571Y-99258571D01*
X135770952Y-99353809D01*
X145502380Y-101591904D02*
X145502380Y-101020476D01*
X146502380Y-101306190D02*
X145502380Y-101306190D01*
X146502380Y-100687142D02*
X145502380Y-100687142D01*
X145502380Y-100306190D01*
X145550000Y-100210952D01*
X145597619Y-100163333D01*
X145692857Y-100115714D01*
X145835714Y-100115714D01*
X145930952Y-100163333D01*
X145978571Y-100210952D01*
X146026190Y-100306190D01*
X146026190Y-100687142D01*
X146502380Y-99639523D02*
X146502380Y-99449047D01*
X146454761Y-99353809D01*
X146407142Y-99306190D01*
X146264285Y-99210952D01*
X146073809Y-99163333D01*
X145692857Y-99163333D01*
X145597619Y-99210952D01*
X145550000Y-99258571D01*
X145502380Y-99353809D01*
X145502380Y-99544285D01*
X145550000Y-99639523D01*
X145597619Y-99687142D01*
X145692857Y-99734761D01*
X145930952Y-99734761D01*
X146026190Y-99687142D01*
X146073809Y-99639523D01*
X146121428Y-99544285D01*
X146121428Y-99353809D01*
X146073809Y-99258571D01*
X146026190Y-99210952D01*
X145930952Y-99163333D01*
%LPC*%
D12*
X154940000Y-48260000D03*
X152400000Y-48260000D03*
X154940000Y-45720000D03*
X152400000Y-45720000D03*
X154940000Y-43180000D03*
X152400000Y-43180000D03*
X154940000Y-40640000D03*
X152400000Y-40640000D03*
X154940000Y-38100000D03*
D13*
X152400000Y-38100000D03*
D14*
X140970000Y-88900000D03*
X140970000Y-86360000D03*
X140970000Y-83820000D03*
X140970000Y-81280000D03*
X140970000Y-78740000D03*
X140970000Y-76200000D03*
X140970000Y-73660000D03*
X140970000Y-71120000D03*
X140970000Y-68580000D03*
X140970000Y-66040000D03*
X140970000Y-63500000D03*
X140970000Y-60960000D03*
X140970000Y-58420000D03*
X140970000Y-55880000D03*
X118110000Y-88900000D03*
X118110000Y-86360000D03*
X118110000Y-83820000D03*
X118110000Y-81280000D03*
X118110000Y-78740000D03*
X118110000Y-35560000D03*
X120650000Y-35560000D03*
X123190000Y-35560000D03*
X125730000Y-35560000D03*
X128270000Y-35560000D03*
D12*
X154940000Y-80010000D03*
X152400000Y-80010000D03*
X154940000Y-77470000D03*
X152400000Y-77470000D03*
X154940000Y-74930000D03*
X152400000Y-74930000D03*
X154940000Y-72390000D03*
X152400000Y-72390000D03*
X154940000Y-69850000D03*
X152400000Y-69850000D03*
X154940000Y-67310000D03*
X152400000Y-67310000D03*
X154940000Y-64770000D03*
X152400000Y-64770000D03*
X154940000Y-62230000D03*
X152400000Y-62230000D03*
X154940000Y-59690000D03*
X152400000Y-59690000D03*
X154940000Y-57150000D03*
D13*
X152400000Y-57150000D03*
D12*
X154940000Y-124460000D03*
X152400000Y-124460000D03*
X154940000Y-121920000D03*
X152400000Y-121920000D03*
X154940000Y-119380000D03*
X152400000Y-119380000D03*
X154940000Y-116840000D03*
X152400000Y-116840000D03*
X154940000Y-114300000D03*
X152400000Y-114300000D03*
X154940000Y-111760000D03*
X152400000Y-111760000D03*
X154940000Y-109220000D03*
X152400000Y-109220000D03*
X154940000Y-106680000D03*
X152400000Y-106680000D03*
X154940000Y-104140000D03*
X152400000Y-104140000D03*
X154940000Y-101600000D03*
X152400000Y-101600000D03*
X154940000Y-99060000D03*
X152400000Y-99060000D03*
X154940000Y-96520000D03*
X152400000Y-96520000D03*
X154940000Y-93980000D03*
X152400000Y-93980000D03*
X154940000Y-91440000D03*
X152400000Y-91440000D03*
X154940000Y-88900000D03*
X152400000Y-88900000D03*
X154940000Y-86360000D03*
X152400000Y-86360000D03*
X154940000Y-83820000D03*
D13*
X152400000Y-83820000D03*
X106680000Y-88900000D03*
D12*
X109220000Y-88900000D03*
X106680000Y-91440000D03*
X109220000Y-91440000D03*
X106680000Y-93980000D03*
X109220000Y-93980000D03*
X106680000Y-96520000D03*
X109220000Y-96520000D03*
X106680000Y-99060000D03*
X109220000Y-99060000D03*
X106680000Y-101600000D03*
X109220000Y-101600000D03*
X106680000Y-104140000D03*
X109220000Y-104140000D03*
X106680000Y-106680000D03*
X109220000Y-106680000D03*
X106680000Y-109220000D03*
X109220000Y-109220000D03*
X106680000Y-111760000D03*
X109220000Y-111760000D03*
X106680000Y-114300000D03*
X109220000Y-114300000D03*
X106680000Y-116840000D03*
X109220000Y-116840000D03*
X106680000Y-119380000D03*
X109220000Y-119380000D03*
X106680000Y-121920000D03*
X109220000Y-121920000D03*
X106680000Y-124460000D03*
X109220000Y-124460000D03*
X109220000Y-83820000D03*
X106680000Y-83820000D03*
X109220000Y-81280000D03*
X106680000Y-81280000D03*
X109220000Y-78740000D03*
X106680000Y-78740000D03*
X109220000Y-76200000D03*
X106680000Y-76200000D03*
X109220000Y-73660000D03*
X106680000Y-73660000D03*
X109220000Y-71120000D03*
X106680000Y-71120000D03*
X109220000Y-68580000D03*
X106680000Y-68580000D03*
X109220000Y-66040000D03*
D13*
X106680000Y-66040000D03*
D15*
X147320000Y-81280000D03*
D16*
X147320000Y-71120000D03*
D15*
X140970000Y-106680000D03*
D16*
X140970000Y-116840000D03*
D15*
X135890000Y-106680000D03*
D16*
X135890000Y-116840000D03*
X140970000Y-50800000D03*
D15*
X140970000Y-40640000D03*
D17*
X140970000Y-120650000D03*
D18*
X140970000Y-123190000D03*
X135890000Y-123190000D03*
D17*
X135890000Y-120650000D03*
D15*
X135890000Y-40640000D03*
D16*
X135890000Y-50800000D03*
D19*
X118110000Y-102870000D03*
X123190000Y-102870000D03*
X128270000Y-102870000D03*
X118110000Y-111760000D03*
X123190000Y-111760000D03*
X123190000Y-119380000D03*
X140970000Y-102870000D03*
X135890000Y-102870000D03*
X146050000Y-102870000D03*
M02*
